<?xml version="1.0" encoding="utf-8" standalone="no"?>
<!DOCTYPE svg PUBLIC "-//W3C//DTD SVG 1.1//EN"
  "http://www.w3.org/Graphics/SVG/1.1/DTD/svg11.dtd">
<!-- Created with matplotlib (https://matplotlib.org/) -->
<svg height="345.6pt" version="1.1" viewBox="0 0 460.8 345.6" width="460.8pt" xmlns="http://www.w3.org/2000/svg" xmlns:xlink="http://www.w3.org/1999/xlink">
 <defs>
  <style type="text/css">
*{stroke-linecap:butt;stroke-linejoin:round;}
  </style>
 </defs>
 <g id="figure_1">
  <g id="patch_1">
   <path d="M 0 345.6 
L 460.8 345.6 
L 460.8 0 
L 0 0 
z
" style="fill:#212946;"/>
  </g>
  <g id="axes_1">
   <g id="patch_2">
    <path d="M 57.6 307.584 
L 414.72 307.584 
L 414.72 41.472 
L 57.6 41.472 
z
" style="fill:#212946;"/>
   </g>
   <g id="matplotlib.axis_1">
    <g id="text_1">
     <!-- date -->
     <defs>
      <path d="M 40.234375 0 
L 40.234375 6.546875 
Q 35.296875 -1.171875 25.734375 -1.171875 
Q 19.53125 -1.171875 14.328125 2.25 
Q 9.125 5.671875 6.265625 11.796875 
Q 3.421875 17.921875 3.421875 25.875 
Q 3.421875 33.640625 6 39.96875 
Q 8.59375 46.296875 13.765625 49.65625 
Q 18.953125 53.03125 25.34375 53.03125 
Q 30.03125 53.03125 33.6875 51.046875 
Q 37.359375 49.078125 39.65625 45.90625 
L 39.65625 71.578125 
L 48.390625 71.578125 
L 48.390625 0 
z
M 12.453125 25.875 
Q 12.453125 15.921875 16.640625 10.984375 
Q 20.84375 6.0625 26.5625 6.0625 
Q 32.328125 6.0625 36.34375 10.765625 
Q 40.375 15.484375 40.375 25.140625 
Q 40.375 35.796875 36.265625 40.765625 
Q 32.171875 45.75 26.171875 45.75 
Q 20.3125 45.75 16.375 40.96875 
Q 12.453125 36.1875 12.453125 25.875 
z
" id="ArialMT-100"/>
      <path d="M 40.4375 6.390625 
Q 35.546875 2.25 31.03125 0.53125 
Q 26.515625 -1.171875 21.34375 -1.171875 
Q 12.796875 -1.171875 8.203125 3 
Q 3.609375 7.171875 3.609375 13.671875 
Q 3.609375 17.484375 5.34375 20.625 
Q 7.078125 23.78125 9.890625 25.6875 
Q 12.703125 27.59375 16.21875 28.5625 
Q 18.796875 29.25 24.03125 29.890625 
Q 34.671875 31.15625 39.703125 32.90625 
Q 39.75 34.71875 39.75 35.203125 
Q 39.75 40.578125 37.25 42.78125 
Q 33.890625 45.75 27.25 45.75 
Q 21.046875 45.75 18.09375 43.578125 
Q 15.140625 41.40625 13.71875 35.890625 
L 5.125 37.0625 
Q 6.296875 42.578125 8.984375 45.96875 
Q 11.671875 49.359375 16.75 51.1875 
Q 21.828125 53.03125 28.515625 53.03125 
Q 35.15625 53.03125 39.296875 51.46875 
Q 43.453125 49.90625 45.40625 47.53125 
Q 47.359375 45.171875 48.140625 41.546875 
Q 48.578125 39.3125 48.578125 33.453125 
L 48.578125 21.734375 
Q 48.578125 9.46875 49.140625 6.21875 
Q 49.703125 2.984375 51.375 0 
L 42.1875 0 
Q 40.828125 2.734375 40.4375 6.390625 
z
M 39.703125 26.03125 
Q 34.90625 24.078125 25.34375 22.703125 
Q 19.921875 21.921875 17.671875 20.9375 
Q 15.4375 19.96875 14.203125 18.09375 
Q 12.984375 16.21875 12.984375 13.921875 
Q 12.984375 10.40625 15.640625 8.0625 
Q 18.3125 5.71875 23.4375 5.71875 
Q 28.515625 5.71875 32.46875 7.9375 
Q 36.421875 10.15625 38.28125 14.015625 
Q 39.703125 17 39.703125 22.796875 
z
" id="ArialMT-97"/>
      <path d="M 25.78125 7.859375 
L 27.046875 0.09375 
Q 23.34375 -0.6875 20.40625 -0.6875 
Q 15.625 -0.6875 12.984375 0.828125 
Q 10.359375 2.34375 9.28125 4.8125 
Q 8.203125 7.28125 8.203125 15.1875 
L 8.203125 45.015625 
L 1.765625 45.015625 
L 1.765625 51.859375 
L 8.203125 51.859375 
L 8.203125 64.703125 
L 16.9375 69.96875 
L 16.9375 51.859375 
L 25.78125 51.859375 
L 25.78125 45.015625 
L 16.9375 45.015625 
L 16.9375 14.703125 
Q 16.9375 10.9375 17.40625 9.859375 
Q 17.875 8.796875 18.921875 8.15625 
Q 19.96875 7.515625 21.921875 7.515625 
Q 23.390625 7.515625 25.78125 7.859375 
z
" id="ArialMT-116"/>
      <path d="M 42.09375 16.703125 
L 51.171875 15.578125 
Q 49.03125 7.625 43.21875 3.21875 
Q 37.40625 -1.171875 28.375 -1.171875 
Q 17 -1.171875 10.328125 5.828125 
Q 3.65625 12.84375 3.65625 25.484375 
Q 3.65625 38.578125 10.390625 45.796875 
Q 17.140625 53.03125 27.875 53.03125 
Q 38.28125 53.03125 44.875 45.953125 
Q 51.46875 38.875 51.46875 26.03125 
Q 51.46875 25.25 51.421875 23.6875 
L 12.75 23.6875 
Q 13.234375 15.140625 17.578125 10.59375 
Q 21.921875 6.0625 28.421875 6.0625 
Q 33.25 6.0625 36.671875 8.59375 
Q 40.09375 11.140625 42.09375 16.703125 
z
M 13.234375 30.90625 
L 42.1875 30.90625 
Q 41.609375 37.453125 38.875 40.71875 
Q 34.671875 45.796875 27.984375 45.796875 
Q 21.921875 45.796875 17.796875 41.75 
Q 13.671875 37.703125 13.234375 30.90625 
z
" id="ArialMT-101"/>
     </defs>
     <g style="fill:#e6e6e6;" transform="translate(226.429531 318.741812)scale(0.1 -0.1)">
      <use xlink:href="#ArialMT-100"/>
      <use x="55.615234" xlink:href="#ArialMT-97"/>
      <use x="111.230469" xlink:href="#ArialMT-116"/>
      <use x="139.013672" xlink:href="#ArialMT-101"/>
     </g>
    </g>
   </g>
   <g id="matplotlib.axis_2">
    <g id="ytick_1">
     <g id="line2d_1">
      <path clip-path="url(#p99346e19e7)" d="M 57.6 295.488 
L 414.72 295.488 
" style="fill:none;stroke:#2a3459;stroke-linecap:round;stroke-width:0.8;"/>
     </g>
     <g id="line2d_2"/>
     <g id="text_2">
      <!-- 0 -->
      <defs>
       <path d="M 4.15625 35.296875 
Q 4.15625 48 6.765625 55.734375 
Q 9.375 63.484375 14.515625 67.671875 
Q 19.671875 71.875 27.484375 71.875 
Q 33.25 71.875 37.59375 69.546875 
Q 41.9375 67.234375 44.765625 62.859375 
Q 47.609375 58.5 49.21875 52.21875 
Q 50.828125 45.953125 50.828125 35.296875 
Q 50.828125 22.703125 48.234375 14.96875 
Q 45.65625 7.234375 40.5 3 
Q 35.359375 -1.21875 27.484375 -1.21875 
Q 17.140625 -1.21875 11.234375 6.203125 
Q 4.15625 15.140625 4.15625 35.296875 
z
M 13.1875 35.296875 
Q 13.1875 17.671875 17.3125 11.828125 
Q 21.4375 6 27.484375 6 
Q 33.546875 6 37.671875 11.859375 
Q 41.796875 17.71875 41.796875 35.296875 
Q 41.796875 52.984375 37.671875 58.78125 
Q 33.546875 64.59375 27.390625 64.59375 
Q 21.34375 64.59375 17.71875 59.46875 
Q 13.1875 52.9375 13.1875 35.296875 
z
" id="ArialMT-48"/>
      </defs>
      <g style="fill:#e6e6e6;" transform="translate(48.539062 299.066906)scale(0.1 -0.1)">
       <use xlink:href="#ArialMT-48"/>
      </g>
     </g>
    </g>
    <g id="ytick_2">
     <g id="line2d_3">
      <path clip-path="url(#p99346e19e7)" d="M 57.6 243.451003 
L 414.72 243.451003 
" style="fill:none;stroke:#2a3459;stroke-linecap:round;stroke-width:0.8;"/>
     </g>
     <g id="line2d_4"/>
     <g id="text_3">
      <!-- 2000 -->
      <defs>
       <path d="M 50.34375 8.453125 
L 50.34375 0 
L 3.03125 0 
Q 2.9375 3.171875 4.046875 6.109375 
Q 5.859375 10.9375 9.828125 15.625 
Q 13.8125 20.3125 21.34375 26.46875 
Q 33.015625 36.03125 37.109375 41.625 
Q 41.21875 47.21875 41.21875 52.203125 
Q 41.21875 57.421875 37.46875 61 
Q 33.734375 64.59375 27.734375 64.59375 
Q 21.390625 64.59375 17.578125 60.78125 
Q 13.765625 56.984375 13.71875 50.25 
L 4.6875 51.171875 
Q 5.609375 61.28125 11.65625 66.578125 
Q 17.71875 71.875 27.9375 71.875 
Q 38.234375 71.875 44.234375 66.15625 
Q 50.25 60.453125 50.25 52 
Q 50.25 47.703125 48.484375 43.546875 
Q 46.734375 39.40625 42.65625 34.8125 
Q 38.578125 30.21875 29.109375 22.21875 
Q 21.1875 15.578125 18.9375 13.203125 
Q 16.703125 10.84375 15.234375 8.453125 
z
" id="ArialMT-50"/>
      </defs>
      <g style="fill:#e6e6e6;" transform="translate(31.85625 247.029909)scale(0.1 -0.1)">
       <use xlink:href="#ArialMT-50"/>
       <use x="55.615234" xlink:href="#ArialMT-48"/>
       <use x="111.230469" xlink:href="#ArialMT-48"/>
       <use x="166.845703" xlink:href="#ArialMT-48"/>
      </g>
     </g>
    </g>
    <g id="ytick_3">
     <g id="line2d_5">
      <path clip-path="url(#p99346e19e7)" d="M 57.6 191.414006 
L 414.72 191.414006 
" style="fill:none;stroke:#2a3459;stroke-linecap:round;stroke-width:0.8;"/>
     </g>
     <g id="line2d_6"/>
     <g id="text_4">
      <!-- 4000 -->
      <defs>
       <path d="M 32.328125 0 
L 32.328125 17.140625 
L 1.265625 17.140625 
L 1.265625 25.203125 
L 33.9375 71.578125 
L 41.109375 71.578125 
L 41.109375 25.203125 
L 50.78125 25.203125 
L 50.78125 17.140625 
L 41.109375 17.140625 
L 41.109375 0 
z
M 32.328125 25.203125 
L 32.328125 57.46875 
L 9.90625 25.203125 
z
" id="ArialMT-52"/>
      </defs>
      <g style="fill:#e6e6e6;" transform="translate(31.85625 194.992912)scale(0.1 -0.1)">
       <use xlink:href="#ArialMT-52"/>
       <use x="55.615234" xlink:href="#ArialMT-48"/>
       <use x="111.230469" xlink:href="#ArialMT-48"/>
       <use x="166.845703" xlink:href="#ArialMT-48"/>
      </g>
     </g>
    </g>
    <g id="ytick_4">
     <g id="line2d_7">
      <path clip-path="url(#p99346e19e7)" d="M 57.6 139.377008 
L 414.72 139.377008 
" style="fill:none;stroke:#2a3459;stroke-linecap:round;stroke-width:0.8;"/>
     </g>
     <g id="line2d_8"/>
     <g id="text_5">
      <!-- 6000 -->
      <defs>
       <path d="M 49.75 54.046875 
L 41.015625 53.375 
Q 39.84375 58.546875 37.703125 60.890625 
Q 34.125 64.65625 28.90625 64.65625 
Q 24.703125 64.65625 21.53125 62.3125 
Q 17.390625 59.28125 14.984375 53.46875 
Q 12.59375 47.65625 12.5 36.921875 
Q 15.671875 41.75 20.265625 44.09375 
Q 24.859375 46.4375 29.890625 46.4375 
Q 38.671875 46.4375 44.84375 39.96875 
Q 51.03125 33.5 51.03125 23.25 
Q 51.03125 16.5 48.125 10.71875 
Q 45.21875 4.9375 40.140625 1.859375 
Q 35.0625 -1.21875 28.609375 -1.21875 
Q 17.625 -1.21875 10.6875 6.859375 
Q 3.765625 14.9375 3.765625 33.5 
Q 3.765625 54.25 11.421875 63.671875 
Q 18.109375 71.875 29.4375 71.875 
Q 37.890625 71.875 43.28125 67.140625 
Q 48.6875 62.40625 49.75 54.046875 
z
M 13.875 23.1875 
Q 13.875 18.65625 15.796875 14.5 
Q 17.71875 10.359375 21.1875 8.171875 
Q 24.65625 6 28.46875 6 
Q 34.03125 6 38.03125 10.484375 
Q 42.046875 14.984375 42.046875 22.703125 
Q 42.046875 30.125 38.078125 34.390625 
Q 34.125 38.671875 28.125 38.671875 
Q 22.171875 38.671875 18.015625 34.390625 
Q 13.875 30.125 13.875 23.1875 
z
" id="ArialMT-54"/>
      </defs>
      <g style="fill:#e6e6e6;" transform="translate(31.85625 142.955915)scale(0.1 -0.1)">
       <use xlink:href="#ArialMT-54"/>
       <use x="55.615234" xlink:href="#ArialMT-48"/>
       <use x="111.230469" xlink:href="#ArialMT-48"/>
       <use x="166.845703" xlink:href="#ArialMT-48"/>
      </g>
     </g>
    </g>
    <g id="ytick_5">
     <g id="line2d_9">
      <path clip-path="url(#p99346e19e7)" d="M 57.6 87.340011 
L 414.72 87.340011 
" style="fill:none;stroke:#2a3459;stroke-linecap:round;stroke-width:0.8;"/>
     </g>
     <g id="line2d_10"/>
     <g id="text_6">
      <!-- 8000 -->
      <defs>
       <path d="M 17.671875 38.8125 
Q 12.203125 40.828125 9.5625 44.53125 
Q 6.9375 48.25 6.9375 53.421875 
Q 6.9375 61.234375 12.546875 66.546875 
Q 18.171875 71.875 27.484375 71.875 
Q 36.859375 71.875 42.578125 66.421875 
Q 48.296875 60.984375 48.296875 53.171875 
Q 48.296875 48.1875 45.671875 44.5 
Q 43.0625 40.828125 37.75 38.8125 
Q 44.34375 36.671875 47.78125 31.875 
Q 51.21875 27.09375 51.21875 20.453125 
Q 51.21875 11.28125 44.71875 5.03125 
Q 38.234375 -1.21875 27.640625 -1.21875 
Q 17.046875 -1.21875 10.546875 5.046875 
Q 4.046875 11.328125 4.046875 20.703125 
Q 4.046875 27.6875 7.59375 32.390625 
Q 11.140625 37.109375 17.671875 38.8125 
z
M 15.921875 53.71875 
Q 15.921875 48.640625 19.1875 45.40625 
Q 22.46875 42.1875 27.6875 42.1875 
Q 32.765625 42.1875 36.015625 45.375 
Q 39.265625 48.578125 39.265625 53.21875 
Q 39.265625 58.0625 35.90625 61.359375 
Q 32.5625 64.65625 27.59375 64.65625 
Q 22.5625 64.65625 19.234375 61.421875 
Q 15.921875 58.203125 15.921875 53.71875 
z
M 13.09375 20.65625 
Q 13.09375 16.890625 14.875 13.375 
Q 16.65625 9.859375 20.171875 7.921875 
Q 23.6875 6 27.734375 6 
Q 34.03125 6 38.125 10.046875 
Q 42.234375 14.109375 42.234375 20.359375 
Q 42.234375 26.703125 38.015625 30.859375 
Q 33.796875 35.015625 27.4375 35.015625 
Q 21.234375 35.015625 17.15625 30.90625 
Q 13.09375 26.8125 13.09375 20.65625 
z
" id="ArialMT-56"/>
      </defs>
      <g style="fill:#e6e6e6;" transform="translate(31.85625 90.918917)scale(0.1 -0.1)">
       <use xlink:href="#ArialMT-56"/>
       <use x="55.615234" xlink:href="#ArialMT-48"/>
       <use x="111.230469" xlink:href="#ArialMT-48"/>
       <use x="166.845703" xlink:href="#ArialMT-48"/>
      </g>
     </g>
    </g>
    <g id="text_7">
     <!-- index -->
     <defs>
      <path d="M 6.640625 61.46875 
L 6.640625 71.578125 
L 15.4375 71.578125 
L 15.4375 61.46875 
z
M 6.640625 0 
L 6.640625 51.859375 
L 15.4375 51.859375 
L 15.4375 0 
z
" id="ArialMT-105"/>
      <path d="M 6.59375 0 
L 6.59375 51.859375 
L 14.5 51.859375 
L 14.5 44.484375 
Q 20.21875 53.03125 31 53.03125 
Q 35.6875 53.03125 39.625 51.34375 
Q 43.5625 49.65625 45.515625 46.921875 
Q 47.46875 44.1875 48.25 40.4375 
Q 48.734375 37.984375 48.734375 31.890625 
L 48.734375 0 
L 39.9375 0 
L 39.9375 31.546875 
Q 39.9375 36.921875 38.90625 39.578125 
Q 37.890625 42.234375 35.28125 43.8125 
Q 32.671875 45.40625 29.15625 45.40625 
Q 23.53125 45.40625 19.453125 41.84375 
Q 15.375 38.28125 15.375 28.328125 
L 15.375 0 
z
" id="ArialMT-110"/>
      <path d="M 0.734375 0 
L 19.671875 26.953125 
L 2.15625 51.859375 
L 13.140625 51.859375 
L 21.09375 39.703125 
Q 23.34375 36.234375 24.703125 33.890625 
Q 26.859375 37.109375 28.65625 39.59375 
L 37.40625 51.859375 
L 47.90625 51.859375 
L 29.984375 27.4375 
L 49.265625 0 
L 38.484375 0 
L 27.828125 16.109375 
L 25 20.453125 
L 11.375 0 
z
" id="ArialMT-120"/>
     </defs>
     <g style="fill:#e6e6e6;" transform="translate(25.86875 186.480344)rotate(-90)scale(0.1 -0.1)">
      <use xlink:href="#ArialMT-105"/>
      <use x="22.216797" xlink:href="#ArialMT-110"/>
      <use x="77.832031" xlink:href="#ArialMT-100"/>
      <use x="133.447266" xlink:href="#ArialMT-101"/>
      <use x="189.0625" xlink:href="#ArialMT-120"/>
     </g>
    </g>
   </g>
   <g id="line2d_11">
    <path clip-path="url(#p99346e19e7)" d="M 73.832727 295.488 
L 77.390585 295.488 
L 78.28005 295.279852 
L 79.169514 295.435963 
L 80.058979 295.383926 
L 81.837908 295.488 
L 113.85863 295.488 
L 114.748095 227.917959 
L 115.637559 234.266473 
L 116.527024 227.917959 
L 117.416488 225.732405 
L 118.305953 225.316109 
L 119.195417 226.486942 
L 120.084882 218.421207 
L 120.974346 224.041203 
L 121.863811 223.781018 
L 122.753275 222.610185 
L 123.64274 227.683793 
L 124.532204 227.449626 
L 125.421669 214.960747 
L 126.311133 219.435929 
L 127.200598 53.568 
L 128.090062 225.498239 
L 128.979527 216.417783 
L 129.868991 213.920007 
L 130.758456 216.339727 
L 131.64792 220.502687 
L 132.537385 295.488 
L 133.426849 209.731029 
L 134.316314 214.050099 
L 135.205778 222.818333 
L 136.095243 222.402037 
L 136.984707 219.59204 
L 137.874172 219.357873 
L 138.763636 221.543427 
L 139.653101 219.826206 
L 140.542565 227.683793 
L 141.43203 227.969996 
L 142.321494 230.884068 
L 143.210959 228.282218 
L 144.100423 222.714259 
L 144.989888 145.335245 
L 145.879352 226.799164 
L 146.768817 225.238054 
L 147.658281 226.460923 
L 148.547746 223.234629 
L 149.43721 207.181216 
L 150.326675 206.947049 
L 151.216139 214.648525 
L 152.105604 206.921031 
L 152.995068 215.012784 
L 153.884533 231.040179 
L 154.773998 225.316109 
L 155.663462 221.777593 
L 156.552927 217.068245 
L 157.442391 213.972044 
L 158.331856 221.439353 
L 159.22132 222.662222 
L 160.110785 219.305836 
L 161.000249 218.915559 
L 161.889714 207.025105 
L 162.779178 216.495838 
L 163.668643 222.297963 
L 164.558107 224.743702 
L 165.447572 209.262696 
L 166.337036 220.918983 
L 167.226501 209.028529 
L 168.115965 201.509183 
L 169.00543 201.431128 
L 169.894894 211.110009 
L 170.784359 207.883715 
L 171.673823 208.091863 
L 172.563288 222.792315 
L 173.452752 215.272969 
L 174.342217 210.121306 
L 175.231681 218.88954 
L 176.121146 223.624907 
L 177.01061 217.744726 
L 177.900075 224.041203 
L 178.789539 238.143229 
L 179.679004 230.233606 
L 180.568468 230.233606 
L 181.457933 232.939529 
L 182.347397 221.725556 
L 183.236862 224.821758 
L 184.126326 224.223332 
L 185.015791 226.460923 
L 185.905255 230.727957 
L 186.79472 231.430456 
L 187.684184 220.398613 
L 188.573649 225.342128 
L 189.463113 229.218884 
L 190.352578 230.389716 
L 191.242042 228.646477 
L 192.131507 231.794715 
L 193.020971 236.530082 
L 193.910436 225.446202 
L 194.7999 239.834431 
L 195.689365 238.663599 
L 196.578829 235.723509 
L 197.468294 228.958699 
L 198.357758 234.422584 
L 199.247223 207.831678 
L 200.136687 197.450297 
L 201.026152 238.897766 
L 201.915616 229.088792 
L 202.805081 228.906662 
L 203.694545 231.248327 
L 204.58401 237.362674 
L 205.473474 218.004911 
L 206.362939 219.696114 
L 207.252403 247.14563 
L 208.141868 236.608138 
L 209.031333 218.395189 
L 209.920797 221.673519 
L 210.810262 243.685169 
L 211.699726 236.608138 
L 212.589191 219.201762 
L 213.478655 235.827583 
L 214.36812 209.678992 
L 215.257584 233.017585 
L 216.147049 231.976845 
L 217.036513 245.818686 
L 217.925978 240.953227 
L 218.815442 226.981293 
L 219.704907 241.551652 
L 220.594371 233.61601 
L 221.483836 242.852577 
L 222.3733 246.261001 
L 223.262765 251.672848 
L 224.152229 278.836161 
L 225.041694 244.647854 
L 225.931158 246.62526 
L 226.820623 250.502016 
L 227.710087 251.152478 
L 228.599552 225.550276 
L 229.489016 257.422937 
L 230.378481 261.663952 
L 231.267945 248.550629 
L 232.15741 249.799516 
L 233.046874 223.156574 
L 233.936339 254.014513 
L 234.825803 253.520162 
L 235.715268 263.094969 
L 236.604732 253.520162 
L 237.494197 204.527329 
L 238.383661 237.414711 
L 239.273126 253.676273 
L 240.16259 244.829983 
L 241.052055 232.0549 
L 241.941519 239.990542 
L 242.830984 233.069622 
L 244.609913 227.839904 
L 245.499377 232.7574 
L 246.388842 239.236006 
L 247.278306 295.488 
L 248.167771 242.254152 
L 249.057235 238.195266 
L 249.9467 186.678639 
L 250.836164 222.662222 
L 251.725629 155.586533 
L 252.615093 227.007312 
L 253.504558 229.322958 
L 254.394022 237.102489 
L 255.283487 219.696114 
L 256.172951 225.732405 
L 257.062416 215.975468 
L 257.95188 226.929256 
L 258.841345 239.262025 
L 259.730809 241.42156 
L 260.620274 250.033683 
L 261.509738 197.892612 
L 262.399203 233.251751 
L 263.288667 243.529058 
L 264.178132 245.298316 
L 265.067597 235.463324 
L 265.957061 244.127484 
L 266.846526 251.178497 
L 267.73599 255.133309 
L 268.625455 236.035731 
L 269.514919 239.079895 
L 270.404384 249.305165 
L 271.293848 250.840256 
L 272.183313 197.606408 
L 273.072777 238.117211 
L 273.962242 246.989519 
L 274.851706 235.87962 
L 275.741171 247.900166 
L 276.630635 233.668047 
L 277.5201 232.523233 
L 278.409564 226.669071 
L 279.299029 243.659151 
L 280.188493 233.642029 
L 281.967422 219.513984 
L 282.856887 228.906662 
L 283.746351 231.222308 
L 284.635816 245.142205 
L 285.52528 249.04498 
L 286.414745 234.65675 
L 287.304209 227.241478 
L 288.193674 239.652302 
L 289.083138 248.602666 
L 289.972603 241.135356 
L 290.862067 239.912487 
L 291.751532 248.550629 
L 292.640996 246.703315 
L 293.530461 235.099065 
L 294.419925 235.229157 
L 295.30939 234.344528 
L 296.198854 228.308237 
L 297.088319 253.754328 
L 297.977783 227.007312 
L 298.867248 245.58452 
L 299.756712 230.181569 
L 300.646177 244.960076 
L 301.535641 239.131932 
L 302.425106 242.592392 
L 303.31457 252.271274 
L 304.204035 254.847105 
L 305.093499 252.921736 
L 305.982964 255.341457 
L 306.872428 256.33016 
L 307.761893 258.515713 
L 308.651357 256.746456 
L 309.540822 253.962476 
L 311.319751 261.481822 
L 312.209215 253.20794 
L 313.09868 249.227109 
L 313.988144 255.939882 
L 314.877609 255.159327 
L 315.767073 248.940906 
L 316.656538 255.939882 
L 317.546002 255.159327 
L 318.435467 255.783771 
L 319.324932 252.50544 
L 320.214396 259.322287 
L 321.993325 266.347282 
L 322.88279 267.492096 
L 323.772254 266.347282 
L 324.661719 257.995344 
L 325.551183 273.346258 
L 326.440648 265.33256 
L 327.330112 295.488 
L 398.487273 295.488 
L 398.487273 295.488 
" style="fill:none;stroke:#08f7fe;stroke-linecap:round;stroke-width:1.5;"/>
   </g>
   <g id="patch_3">
    <path d="M 57.6 307.584 
L 57.6 41.472 
" style="fill:none;"/>
   </g>
   <g id="patch_4">
    <path d="M 414.72 307.584 
L 414.72 41.472 
" style="fill:none;"/>
   </g>
   <g id="patch_5">
    <path d="M 57.6 307.584 
L 414.72 307.584 
" style="fill:none;"/>
   </g>
   <g id="patch_6">
    <path d="M 57.6 41.472 
L 414.72 41.472 
" style="fill:none;"/>
   </g>
  </g>
 </g>
 <defs>
  <clipPath id="p99346e19e7">
   <rect height="266.112" width="357.12" x="57.6" y="41.472"/>
  </clipPath>
 </defs>
</svg>
