<?xml version="1.0" encoding="utf-8" standalone="no"?>
<!DOCTYPE svg PUBLIC "-//W3C//DTD SVG 1.1//EN"
  "http://www.w3.org/Graphics/SVG/1.1/DTD/svg11.dtd">
<!-- Created with matplotlib (https://matplotlib.org/) -->
<svg height="345.6pt" version="1.1" viewBox="0 0 460.8 345.6" width="460.8pt" xmlns="http://www.w3.org/2000/svg" xmlns:xlink="http://www.w3.org/1999/xlink">
 <defs>
  <style type="text/css">
*{stroke-linecap:butt;stroke-linejoin:round;}
  </style>
 </defs>
 <g id="figure_1">
  <g id="patch_1">
   <path d="M 0 345.6 
L 460.8 345.6 
L 460.8 0 
L 0 0 
z
" style="fill:#212946;"/>
  </g>
  <g id="axes_1">
   <g id="patch_2">
    <path d="M 57.6 307.584 
L 414.72 307.584 
L 414.72 41.472 
L 57.6 41.472 
z
" style="fill:#212946;"/>
   </g>
   <g id="matplotlib.axis_1">
    <g id="text_1">
     <!-- date -->
     <defs>
      <path d="M 40.234375 0 
L 40.234375 6.546875 
Q 35.296875 -1.171875 25.734375 -1.171875 
Q 19.53125 -1.171875 14.328125 2.25 
Q 9.125 5.671875 6.265625 11.796875 
Q 3.421875 17.921875 3.421875 25.875 
Q 3.421875 33.640625 6 39.96875 
Q 8.59375 46.296875 13.765625 49.65625 
Q 18.953125 53.03125 25.34375 53.03125 
Q 30.03125 53.03125 33.6875 51.046875 
Q 37.359375 49.078125 39.65625 45.90625 
L 39.65625 71.578125 
L 48.390625 71.578125 
L 48.390625 0 
z
M 12.453125 25.875 
Q 12.453125 15.921875 16.640625 10.984375 
Q 20.84375 6.0625 26.5625 6.0625 
Q 32.328125 6.0625 36.34375 10.765625 
Q 40.375 15.484375 40.375 25.140625 
Q 40.375 35.796875 36.265625 40.765625 
Q 32.171875 45.75 26.171875 45.75 
Q 20.3125 45.75 16.375 40.96875 
Q 12.453125 36.1875 12.453125 25.875 
z
" id="ArialMT-100"/>
      <path d="M 40.4375 6.390625 
Q 35.546875 2.25 31.03125 0.53125 
Q 26.515625 -1.171875 21.34375 -1.171875 
Q 12.796875 -1.171875 8.203125 3 
Q 3.609375 7.171875 3.609375 13.671875 
Q 3.609375 17.484375 5.34375 20.625 
Q 7.078125 23.78125 9.890625 25.6875 
Q 12.703125 27.59375 16.21875 28.5625 
Q 18.796875 29.25 24.03125 29.890625 
Q 34.671875 31.15625 39.703125 32.90625 
Q 39.75 34.71875 39.75 35.203125 
Q 39.75 40.578125 37.25 42.78125 
Q 33.890625 45.75 27.25 45.75 
Q 21.046875 45.75 18.09375 43.578125 
Q 15.140625 41.40625 13.71875 35.890625 
L 5.125 37.0625 
Q 6.296875 42.578125 8.984375 45.96875 
Q 11.671875 49.359375 16.75 51.1875 
Q 21.828125 53.03125 28.515625 53.03125 
Q 35.15625 53.03125 39.296875 51.46875 
Q 43.453125 49.90625 45.40625 47.53125 
Q 47.359375 45.171875 48.140625 41.546875 
Q 48.578125 39.3125 48.578125 33.453125 
L 48.578125 21.734375 
Q 48.578125 9.46875 49.140625 6.21875 
Q 49.703125 2.984375 51.375 0 
L 42.1875 0 
Q 40.828125 2.734375 40.4375 6.390625 
z
M 39.703125 26.03125 
Q 34.90625 24.078125 25.34375 22.703125 
Q 19.921875 21.921875 17.671875 20.9375 
Q 15.4375 19.96875 14.203125 18.09375 
Q 12.984375 16.21875 12.984375 13.921875 
Q 12.984375 10.40625 15.640625 8.0625 
Q 18.3125 5.71875 23.4375 5.71875 
Q 28.515625 5.71875 32.46875 7.9375 
Q 36.421875 10.15625 38.28125 14.015625 
Q 39.703125 17 39.703125 22.796875 
z
" id="ArialMT-97"/>
      <path d="M 25.78125 7.859375 
L 27.046875 0.09375 
Q 23.34375 -0.6875 20.40625 -0.6875 
Q 15.625 -0.6875 12.984375 0.828125 
Q 10.359375 2.34375 9.28125 4.8125 
Q 8.203125 7.28125 8.203125 15.1875 
L 8.203125 45.015625 
L 1.765625 45.015625 
L 1.765625 51.859375 
L 8.203125 51.859375 
L 8.203125 64.703125 
L 16.9375 69.96875 
L 16.9375 51.859375 
L 25.78125 51.859375 
L 25.78125 45.015625 
L 16.9375 45.015625 
L 16.9375 14.703125 
Q 16.9375 10.9375 17.40625 9.859375 
Q 17.875 8.796875 18.921875 8.15625 
Q 19.96875 7.515625 21.921875 7.515625 
Q 23.390625 7.515625 25.78125 7.859375 
z
" id="ArialMT-116"/>
      <path d="M 42.09375 16.703125 
L 51.171875 15.578125 
Q 49.03125 7.625 43.21875 3.21875 
Q 37.40625 -1.171875 28.375 -1.171875 
Q 17 -1.171875 10.328125 5.828125 
Q 3.65625 12.84375 3.65625 25.484375 
Q 3.65625 38.578125 10.390625 45.796875 
Q 17.140625 53.03125 27.875 53.03125 
Q 38.28125 53.03125 44.875 45.953125 
Q 51.46875 38.875 51.46875 26.03125 
Q 51.46875 25.25 51.421875 23.6875 
L 12.75 23.6875 
Q 13.234375 15.140625 17.578125 10.59375 
Q 21.921875 6.0625 28.421875 6.0625 
Q 33.25 6.0625 36.671875 8.59375 
Q 40.09375 11.140625 42.09375 16.703125 
z
M 13.234375 30.90625 
L 42.1875 30.90625 
Q 41.609375 37.453125 38.875 40.71875 
Q 34.671875 45.796875 27.984375 45.796875 
Q 21.921875 45.796875 17.796875 41.75 
Q 13.671875 37.703125 13.234375 30.90625 
z
" id="ArialMT-101"/>
     </defs>
     <g style="fill:#e6e6e6;" transform="translate(226.429531 318.741812)scale(0.1 -0.1)">
      <use xlink:href="#ArialMT-100"/>
      <use x="55.615234" xlink:href="#ArialMT-97"/>
      <use x="111.230469" xlink:href="#ArialMT-116"/>
      <use x="139.013672" xlink:href="#ArialMT-101"/>
     </g>
    </g>
   </g>
   <g id="matplotlib.axis_2">
    <g id="ytick_1">
     <g id="line2d_1">
      <path clip-path="url(#p3b56cc7463)" d="M 57.6 295.488 
L 414.72 295.488 
" style="fill:none;stroke:#2a3459;stroke-linecap:round;stroke-width:0.8;"/>
     </g>
     <g id="line2d_2"/>
     <g id="text_2">
      <!-- 0 -->
      <defs>
       <path d="M 4.15625 35.296875 
Q 4.15625 48 6.765625 55.734375 
Q 9.375 63.484375 14.515625 67.671875 
Q 19.671875 71.875 27.484375 71.875 
Q 33.25 71.875 37.59375 69.546875 
Q 41.9375 67.234375 44.765625 62.859375 
Q 47.609375 58.5 49.21875 52.21875 
Q 50.828125 45.953125 50.828125 35.296875 
Q 50.828125 22.703125 48.234375 14.96875 
Q 45.65625 7.234375 40.5 3 
Q 35.359375 -1.21875 27.484375 -1.21875 
Q 17.140625 -1.21875 11.234375 6.203125 
Q 4.15625 15.140625 4.15625 35.296875 
z
M 13.1875 35.296875 
Q 13.1875 17.671875 17.3125 11.828125 
Q 21.4375 6 27.484375 6 
Q 33.546875 6 37.671875 11.859375 
Q 41.796875 17.71875 41.796875 35.296875 
Q 41.796875 52.984375 37.671875 58.78125 
Q 33.546875 64.59375 27.390625 64.59375 
Q 21.34375 64.59375 17.71875 59.46875 
Q 13.1875 52.9375 13.1875 35.296875 
z
" id="ArialMT-48"/>
      </defs>
      <g style="fill:#e6e6e6;" transform="translate(48.539062 299.066906)scale(0.1 -0.1)">
       <use xlink:href="#ArialMT-48"/>
      </g>
     </g>
    </g>
    <g id="ytick_2">
     <g id="line2d_3">
      <path clip-path="url(#p3b56cc7463)" d="M 57.6 244.919438 
L 414.72 244.919438 
" style="fill:none;stroke:#2a3459;stroke-linecap:round;stroke-width:0.8;"/>
     </g>
     <g id="line2d_4"/>
     <g id="text_3">
      <!-- 5000 -->
      <defs>
       <path d="M 4.15625 18.75 
L 13.375 19.53125 
Q 14.40625 12.796875 18.140625 9.390625 
Q 21.875 6 27.15625 6 
Q 33.5 6 37.890625 10.78125 
Q 42.28125 15.578125 42.28125 23.484375 
Q 42.28125 31 38.0625 35.34375 
Q 33.84375 39.703125 27 39.703125 
Q 22.75 39.703125 19.328125 37.765625 
Q 15.921875 35.84375 13.96875 32.765625 
L 5.71875 33.84375 
L 12.640625 70.609375 
L 48.25 70.609375 
L 48.25 62.203125 
L 19.671875 62.203125 
L 15.828125 42.96875 
Q 22.265625 47.46875 29.34375 47.46875 
Q 38.71875 47.46875 45.15625 40.96875 
Q 51.609375 34.46875 51.609375 24.265625 
Q 51.609375 14.546875 45.953125 7.46875 
Q 39.0625 -1.21875 27.15625 -1.21875 
Q 17.390625 -1.21875 11.203125 4.25 
Q 5.03125 9.71875 4.15625 18.75 
z
" id="ArialMT-53"/>
      </defs>
      <g style="fill:#e6e6e6;" transform="translate(31.85625 248.498344)scale(0.1 -0.1)">
       <use xlink:href="#ArialMT-53"/>
       <use x="55.615234" xlink:href="#ArialMT-48"/>
       <use x="111.230469" xlink:href="#ArialMT-48"/>
       <use x="166.845703" xlink:href="#ArialMT-48"/>
      </g>
     </g>
    </g>
    <g id="ytick_3">
     <g id="line2d_5">
      <path clip-path="url(#p3b56cc7463)" d="M 57.6 194.350876 
L 414.72 194.350876 
" style="fill:none;stroke:#2a3459;stroke-linecap:round;stroke-width:0.8;"/>
     </g>
     <g id="line2d_6"/>
     <g id="text_4">
      <!-- 10000 -->
      <defs>
       <path d="M 37.25 0 
L 28.46875 0 
L 28.46875 56 
Q 25.296875 52.984375 20.140625 49.953125 
Q 14.984375 46.921875 10.890625 45.40625 
L 10.890625 53.90625 
Q 18.265625 57.375 23.78125 62.296875 
Q 29.296875 67.234375 31.59375 71.875 
L 37.25 71.875 
z
" id="ArialMT-49"/>
      </defs>
      <g style="fill:#e6e6e6;" transform="translate(26.295313 197.929783)scale(0.1 -0.1)">
       <use xlink:href="#ArialMT-49"/>
       <use x="55.615234" xlink:href="#ArialMT-48"/>
       <use x="111.230469" xlink:href="#ArialMT-48"/>
       <use x="166.845703" xlink:href="#ArialMT-48"/>
       <use x="222.460938" xlink:href="#ArialMT-48"/>
      </g>
     </g>
    </g>
    <g id="ytick_4">
     <g id="line2d_7">
      <path clip-path="url(#p3b56cc7463)" d="M 57.6 143.782314 
L 414.72 143.782314 
" style="fill:none;stroke:#2a3459;stroke-linecap:round;stroke-width:0.8;"/>
     </g>
     <g id="line2d_8"/>
     <g id="text_5">
      <!-- 15000 -->
      <g style="fill:#e6e6e6;" transform="translate(26.295313 147.361221)scale(0.1 -0.1)">
       <use xlink:href="#ArialMT-49"/>
       <use x="55.615234" xlink:href="#ArialMT-53"/>
       <use x="111.230469" xlink:href="#ArialMT-48"/>
       <use x="166.845703" xlink:href="#ArialMT-48"/>
       <use x="222.460938" xlink:href="#ArialMT-48"/>
      </g>
     </g>
    </g>
    <g id="ytick_5">
     <g id="line2d_9">
      <path clip-path="url(#p3b56cc7463)" d="M 57.6 93.213753 
L 414.72 93.213753 
" style="fill:none;stroke:#2a3459;stroke-linecap:round;stroke-width:0.8;"/>
     </g>
     <g id="line2d_10"/>
     <g id="text_6">
      <!-- 20000 -->
      <defs>
       <path d="M 50.34375 8.453125 
L 50.34375 0 
L 3.03125 0 
Q 2.9375 3.171875 4.046875 6.109375 
Q 5.859375 10.9375 9.828125 15.625 
Q 13.8125 20.3125 21.34375 26.46875 
Q 33.015625 36.03125 37.109375 41.625 
Q 41.21875 47.21875 41.21875 52.203125 
Q 41.21875 57.421875 37.46875 61 
Q 33.734375 64.59375 27.734375 64.59375 
Q 21.390625 64.59375 17.578125 60.78125 
Q 13.765625 56.984375 13.71875 50.25 
L 4.6875 51.171875 
Q 5.609375 61.28125 11.65625 66.578125 
Q 17.71875 71.875 27.9375 71.875 
Q 38.234375 71.875 44.234375 66.15625 
Q 50.25 60.453125 50.25 52 
Q 50.25 47.703125 48.484375 43.546875 
Q 46.734375 39.40625 42.65625 34.8125 
Q 38.578125 30.21875 29.109375 22.21875 
Q 21.1875 15.578125 18.9375 13.203125 
Q 16.703125 10.84375 15.234375 8.453125 
z
" id="ArialMT-50"/>
      </defs>
      <g style="fill:#e6e6e6;" transform="translate(26.295313 96.792659)scale(0.1 -0.1)">
       <use xlink:href="#ArialMT-50"/>
       <use x="55.615234" xlink:href="#ArialMT-48"/>
       <use x="111.230469" xlink:href="#ArialMT-48"/>
       <use x="166.845703" xlink:href="#ArialMT-48"/>
       <use x="222.460938" xlink:href="#ArialMT-48"/>
      </g>
     </g>
    </g>
    <g id="ytick_6">
     <g id="line2d_11">
      <path clip-path="url(#p3b56cc7463)" d="M 57.6 42.645191 
L 414.72 42.645191 
" style="fill:none;stroke:#2a3459;stroke-linecap:round;stroke-width:0.8;"/>
     </g>
     <g id="line2d_12"/>
     <g id="text_7">
      <!-- 25000 -->
      <g style="fill:#e6e6e6;" transform="translate(26.295313 46.224097)scale(0.1 -0.1)">
       <use xlink:href="#ArialMT-50"/>
       <use x="55.615234" xlink:href="#ArialMT-53"/>
       <use x="111.230469" xlink:href="#ArialMT-48"/>
       <use x="166.845703" xlink:href="#ArialMT-48"/>
       <use x="222.460938" xlink:href="#ArialMT-48"/>
      </g>
     </g>
    </g>
    <g id="text_8">
     <!-- index -->
     <defs>
      <path d="M 6.640625 61.46875 
L 6.640625 71.578125 
L 15.4375 71.578125 
L 15.4375 61.46875 
z
M 6.640625 0 
L 6.640625 51.859375 
L 15.4375 51.859375 
L 15.4375 0 
z
" id="ArialMT-105"/>
      <path d="M 6.59375 0 
L 6.59375 51.859375 
L 14.5 51.859375 
L 14.5 44.484375 
Q 20.21875 53.03125 31 53.03125 
Q 35.6875 53.03125 39.625 51.34375 
Q 43.5625 49.65625 45.515625 46.921875 
Q 47.46875 44.1875 48.25 40.4375 
Q 48.734375 37.984375 48.734375 31.890625 
L 48.734375 0 
L 39.9375 0 
L 39.9375 31.546875 
Q 39.9375 36.921875 38.90625 39.578125 
Q 37.890625 42.234375 35.28125 43.8125 
Q 32.671875 45.40625 29.15625 45.40625 
Q 23.53125 45.40625 19.453125 41.84375 
Q 15.375 38.28125 15.375 28.328125 
L 15.375 0 
z
" id="ArialMT-110"/>
      <path d="M 0.734375 0 
L 19.671875 26.953125 
L 2.15625 51.859375 
L 13.140625 51.859375 
L 21.09375 39.703125 
Q 23.34375 36.234375 24.703125 33.890625 
Q 26.859375 37.109375 28.65625 39.59375 
L 37.40625 51.859375 
L 47.90625 51.859375 
L 29.984375 27.4375 
L 49.265625 0 
L 38.484375 0 
L 27.828125 16.109375 
L 25 20.453125 
L 11.375 0 
z
" id="ArialMT-120"/>
     </defs>
     <g style="fill:#e6e6e6;" transform="translate(20.307813 186.480344)rotate(-90)scale(0.1 -0.1)">
      <use xlink:href="#ArialMT-105"/>
      <use x="22.216797" xlink:href="#ArialMT-110"/>
      <use x="77.832031" xlink:href="#ArialMT-100"/>
      <use x="133.447266" xlink:href="#ArialMT-101"/>
      <use x="189.0625" xlink:href="#ArialMT-120"/>
     </g>
    </g>
   </g>
   <g id="line2d_13">
    <path clip-path="url(#p3b56cc7463)" d="M 73.832727 295.488 
L 116.527024 295.488 
L 117.416488 253.708254 
L 118.305953 259.493298 
L 119.195417 255.498381 
L 120.084882 255.913043 
L 120.974346 255.205084 
L 121.863811 251.250622 
L 122.753275 251.149485 
L 123.64274 248.287304 
L 124.532204 250.522435 
L 125.421669 250.057204 
L 126.311133 246.436495 
L 127.200598 245.323987 
L 128.090062 243.260789 
L 128.979527 239.832241 
L 129.868991 232.702074 
L 130.758456 228.393632 
L 131.64792 230.881605 
L 132.537385 228.211585 
L 133.426849 194.320535 
L 134.316314 218.583331 
L 135.205778 232.641391 
L 136.095243 234.724816 
L 136.984707 227.796923 
L 137.874172 231.670475 
L 138.763636 232.287411 
L 139.653101 224.722355 
L 140.542565 225.905659 
L 141.43203 234.886635 
L 142.321494 232.520027 
L 143.210959 214.537846 
L 144.100423 220.970167 
L 144.989888 216.975251 
L 145.879352 215.518876 
L 146.768817 201.956388 
L 147.658281 203.574582 
L 148.547746 204.100495 
L 149.43721 190.932441 
L 150.326675 198.305338 
L 151.216139 188.950154 
L 152.105604 194.098033 
L 152.995068 194.765538 
L 153.884533 216.499906 
L 154.773998 216.580816 
L 155.663462 190.881873 
L 156.552927 191.377445 
L 157.442391 191.539264 
L 158.331856 163.908602 
L 159.22132 150.669753 
L 160.110785 166.16396 
L 161.000249 169.299211 
L 161.889714 149.456107 
L 162.779178 160.945284 
L 163.668643 157.901057 
L 164.558107 167.751813 
L 165.447572 150.528161 
L 166.337036 159.792321 
L 167.226501 166.851692 
L 168.115965 146.866997 
L 169.00543 147.686207 
L 169.894894 157.708896 
L 170.784359 151.731692 
L 171.673823 122.290676 
L 172.563288 143.104696 
L 173.452752 140.212174 
L 174.342217 112.824241 
L 175.231681 140.596495 
L 176.121146 140.232401 
L 177.01061 138.735572 
L 177.900075 109.820468 
L 178.789539 53.568 
L 179.679004 143.246288 
L 180.568468 119.398154 
L 181.457933 107.716816 
L 182.347397 127.974582 
L 183.236862 112.541057 
L 184.126326 112.08594 
L 185.905255 134.012468 
L 186.79472 97.835719 
L 187.684184 88.935652 
L 188.573649 112.621967 
L 189.463113 123.150341 
L 190.352578 114.007545 
L 191.242042 133.618033 
L 192.131507 136.429645 
L 193.020971 116.940522 
L 193.910436 124.626943 
L 194.7999 128.308334 
L 195.689365 178.118368 
L 196.578829 181.304187 
L 197.468294 192.520294 
L 198.357758 171.473659 
L 199.247223 169.511599 
L 200.136687 174.082997 
L 201.026152 190.770622 
L 201.915616 202.563211 
L 202.805081 223.650301 
L 203.694545 230.810809 
L 204.58401 234.532656 
L 205.473474 235.736187 
L 206.362939 235.220388 
L 207.252403 231.286154 
L 208.141868 230.659104 
L 209.031333 231.923318 
L 209.920797 232.024455 
L 210.810262 229.354435 
L 211.699726 207.023358 
L 212.589191 219.068789 
L 213.478655 225.157244 
L 214.36812 223.276094 
L 215.257584 229.182502 
L 216.147049 238.011773 
L 217.036513 239.114167 
L 217.925978 234.320268 
L 218.815442 238.375866 
L 219.704907 240.196334 
L 220.594371 241.187478 
L 221.483836 245.354328 
L 222.3733 250.83596 
L 224.152229 242.077485 
L 225.041694 244.889097 
L 225.931158 245.384669 
L 226.820623 241.551572 
L 227.710087 246.436495 
L 228.599552 250.613458 
L 229.489016 247.73105 
L 230.378481 248.095144 
L 231.267945 240.924522 
L 232.15741 249.85493 
L 233.046874 247.791732 
L 234.825803 255.609632 
L 235.715268 246.567973 
L 236.604732 246.12297 
L 237.494197 246.780361 
L 238.383661 250.057204 
L 239.273126 235.533913 
L 240.16259 212.949993 
L 241.052055 154.664669 
L 241.941519 153.36 
L 242.830984 115.625739 
L 243.720448 135.478957 
L 244.609913 129.238796 
L 245.499377 174.214475 
L 246.388842 191.943813 
L 247.278306 215.0941 
L 248.167771 223.063706 
L 249.057235 214.032161 
L 250.836164 234.138221 
L 251.725629 245.779104 
L 252.615093 244.525003 
L 253.504558 240.97509 
L 254.394022 229.334207 
L 255.283487 222.679385 
L 257.062416 246.648883 
L 257.95188 236.808241 
L 258.841345 240.054742 
L 259.730809 228.383518 
L 260.620274 242.755104 
L 261.509738 229.779211 
L 262.399203 234.805726 
L 263.288667 235.705846 
L 264.178132 239.8019 
L 265.067597 235.372094 
L 265.957061 245.222849 
L 266.846526 252.079946 
L 267.73599 233.116736 
L 268.625455 236.221645 
L 269.514919 235.766528 
L 270.404384 223.70087 
L 271.293848 218.107987 
L 272.183313 224.550421 
L 273.072777 232.550368 
L 273.962242 222.021993 
L 274.851706 236.049712 
L 275.741171 231.35695 
L 276.630635 211.857712 
L 277.5201 216.540361 
L 278.409564 232.823438 
L 279.299029 229.465686 
L 280.188493 204.110609 
L 281.077958 183.175224 
L 281.967422 193.511438 
L 282.856887 212.707264 
L 283.746351 218.087759 
L 284.635816 230.92206 
L 285.52528 235.453003 
L 287.304209 222.547906 
L 288.193674 225.551679 
L 289.083138 240.904294 
L 290.862067 257.753739 
L 291.751532 257.440214 
L 292.640996 251.978809 
L 293.530461 252.474381 
L 294.419925 251.392214 
L 295.30939 244.838528 
L 296.198854 243.877726 
L 297.088319 246.092629 
L 297.977783 248.621057 
L 298.867248 245.890355 
L 299.756712 249.460495 
L 300.646177 250.75505 
L 301.535641 252.413699 
L 302.425106 256.25691 
L 303.31457 257.966127 
L 304.204035 256.307478 
L 305.093499 246.689338 
L 305.982964 246.578087 
L 306.872428 246.031946 
L 307.761893 250.623572 
L 308.651357 250.886528 
L 309.540822 257.976241 
L 310.430286 258.552722 
L 311.319751 250.815732 
L 312.209215 244.241819 
L 313.09868 252.302448 
L 313.988144 239.862582 
L 314.877609 242.299987 
L 315.767073 248.752535 
L 316.656538 248.530033 
L 317.546002 240.671679 
L 318.435467 235.655278 
L 319.324932 245.839786 
L 320.214396 233.096508 
L 321.103861 242.755104 
L 321.993325 250.633686 
L 322.88279 244.464321 
L 323.772254 216.014448 
L 324.661719 213.870341 
L 325.551183 232.06491 
L 326.440648 242.208963 
L 327.330112 239.326555 
L 328.219577 240.459291 
L 329.109041 247.114114 
L 329.998506 237.981431 
L 330.88797 244.484548 
L 331.777435 241.703278 
L 332.666899 241.187478 
L 333.556364 210.795773 
L 334.445828 235.099023 
L 335.335293 224.570649 
L 336.224757 231.984 
L 337.114222 233.794355 
L 338.003686 240.085084 
L 338.893151 252.181084 
L 339.782615 191.407786 
L 340.67208 225.693271 
L 341.561544 236.929605 
L 342.451009 239.458033 
L 343.340473 237.506087 
L 344.229938 241.794301 
L 345.119402 239.559171 
L 346.008867 234.73493 
L 346.898331 240.580656 
L 347.787796 219.96891 
L 348.67726 110.032856 
L 349.566725 167.984428 
L 350.456189 200.500013 
L 351.345654 195.635318 
L 352.235118 198.548067 
L 353.124583 227.169873 
L 354.014047 243.189993 
L 354.903512 241.005431 
L 355.792976 235.584482 
L 356.682441 236.059826 
L 357.571905 244.676709 
L 358.46137 256.25691 
L 359.350834 251.402328 
L 360.240299 227.331692 
L 361.129763 188.353445 
L 362.019228 232.722301 
L 362.908692 233.94606 
L 363.798157 224.60099 
L 364.687621 231.751385 
L 365.577086 242.138167 
L 366.46655 247.45798 
L 367.356015 233.541512 
L 368.245479 227.726127 
L 369.134944 236.080054 
L 370.024408 236.090167 
L 370.913873 242.441579 
L 371.803337 250.714595 
L 372.692802 239.882809 
L 374.471731 172.828896 
L 375.361196 202.694689 
L 376.25066 202.229458 
L 377.140125 214.800803 
L 378.919054 233.379692 
L 379.808518 221.374716 
L 380.697983 224.095304 
L 381.587447 228.100334 
L 382.476912 229.951144 
L 383.366376 206.679492 
L 384.255841 163.868147 
L 385.145305 184.318074 
L 386.03477 174.710047 
L 386.924234 205.030957 
L 387.813699 216.166154 
L 388.703163 214.790689 
L 390.482092 238.477003 
L 391.371557 236.97006 
L 392.261021 224.6819 
L 393.150486 225.076334 
L 394.03995 226.613619 
L 394.929415 222.325405 
L 395.818879 238.871438 
L 396.708344 245.172281 
L 397.597808 242.724763 
L 398.487273 204.373565 
L 398.487273 204.373565 
" style="fill:none;stroke:#08f7fe;stroke-linecap:round;stroke-width:1.5;"/>
   </g>
   <g id="patch_3">
    <path d="M 57.6 307.584 
L 57.6 41.472 
" style="fill:none;"/>
   </g>
   <g id="patch_4">
    <path d="M 414.72 307.584 
L 414.72 41.472 
" style="fill:none;"/>
   </g>
   <g id="patch_5">
    <path d="M 57.6 307.584 
L 414.72 307.584 
" style="fill:none;"/>
   </g>
   <g id="patch_6">
    <path d="M 57.6 41.472 
L 414.72 41.472 
" style="fill:none;"/>
   </g>
  </g>
 </g>
 <defs>
  <clipPath id="p3b56cc7463">
   <rect height="266.112" width="357.12" x="57.6" y="41.472"/>
  </clipPath>
 </defs>
</svg>
