<?xml version="1.0" encoding="utf-8" standalone="no"?>
<!DOCTYPE svg PUBLIC "-//W3C//DTD SVG 1.1//EN"
  "http://www.w3.org/Graphics/SVG/1.1/DTD/svg11.dtd">
<!-- Created with matplotlib (https://matplotlib.org/) -->
<svg height="345.6pt" version="1.1" viewBox="0 0 460.8 345.6" width="460.8pt" xmlns="http://www.w3.org/2000/svg" xmlns:xlink="http://www.w3.org/1999/xlink">
 <defs>
  <style type="text/css">
*{stroke-linecap:butt;stroke-linejoin:round;}
  </style>
 </defs>
 <g id="figure_1">
  <g id="patch_1">
   <path d="M 0 345.6 
L 460.8 345.6 
L 460.8 0 
L 0 0 
z
" style="fill:#212946;"/>
  </g>
  <g id="axes_1">
   <g id="patch_2">
    <path d="M 57.6 307.584 
L 414.72 307.584 
L 414.72 41.472 
L 57.6 41.472 
z
" style="fill:#212946;"/>
   </g>
   <g id="matplotlib.axis_1">
    <g id="text_1">
     <!-- date -->
     <defs>
      <path d="M 40.234375 0 
L 40.234375 6.546875 
Q 35.296875 -1.171875 25.734375 -1.171875 
Q 19.53125 -1.171875 14.328125 2.25 
Q 9.125 5.671875 6.265625 11.796875 
Q 3.421875 17.921875 3.421875 25.875 
Q 3.421875 33.640625 6 39.96875 
Q 8.59375 46.296875 13.765625 49.65625 
Q 18.953125 53.03125 25.34375 53.03125 
Q 30.03125 53.03125 33.6875 51.046875 
Q 37.359375 49.078125 39.65625 45.90625 
L 39.65625 71.578125 
L 48.390625 71.578125 
L 48.390625 0 
z
M 12.453125 25.875 
Q 12.453125 15.921875 16.640625 10.984375 
Q 20.84375 6.0625 26.5625 6.0625 
Q 32.328125 6.0625 36.34375 10.765625 
Q 40.375 15.484375 40.375 25.140625 
Q 40.375 35.796875 36.265625 40.765625 
Q 32.171875 45.75 26.171875 45.75 
Q 20.3125 45.75 16.375 40.96875 
Q 12.453125 36.1875 12.453125 25.875 
z
" id="ArialMT-100"/>
      <path d="M 40.4375 6.390625 
Q 35.546875 2.25 31.03125 0.53125 
Q 26.515625 -1.171875 21.34375 -1.171875 
Q 12.796875 -1.171875 8.203125 3 
Q 3.609375 7.171875 3.609375 13.671875 
Q 3.609375 17.484375 5.34375 20.625 
Q 7.078125 23.78125 9.890625 25.6875 
Q 12.703125 27.59375 16.21875 28.5625 
Q 18.796875 29.25 24.03125 29.890625 
Q 34.671875 31.15625 39.703125 32.90625 
Q 39.75 34.71875 39.75 35.203125 
Q 39.75 40.578125 37.25 42.78125 
Q 33.890625 45.75 27.25 45.75 
Q 21.046875 45.75 18.09375 43.578125 
Q 15.140625 41.40625 13.71875 35.890625 
L 5.125 37.0625 
Q 6.296875 42.578125 8.984375 45.96875 
Q 11.671875 49.359375 16.75 51.1875 
Q 21.828125 53.03125 28.515625 53.03125 
Q 35.15625 53.03125 39.296875 51.46875 
Q 43.453125 49.90625 45.40625 47.53125 
Q 47.359375 45.171875 48.140625 41.546875 
Q 48.578125 39.3125 48.578125 33.453125 
L 48.578125 21.734375 
Q 48.578125 9.46875 49.140625 6.21875 
Q 49.703125 2.984375 51.375 0 
L 42.1875 0 
Q 40.828125 2.734375 40.4375 6.390625 
z
M 39.703125 26.03125 
Q 34.90625 24.078125 25.34375 22.703125 
Q 19.921875 21.921875 17.671875 20.9375 
Q 15.4375 19.96875 14.203125 18.09375 
Q 12.984375 16.21875 12.984375 13.921875 
Q 12.984375 10.40625 15.640625 8.0625 
Q 18.3125 5.71875 23.4375 5.71875 
Q 28.515625 5.71875 32.46875 7.9375 
Q 36.421875 10.15625 38.28125 14.015625 
Q 39.703125 17 39.703125 22.796875 
z
" id="ArialMT-97"/>
      <path d="M 25.78125 7.859375 
L 27.046875 0.09375 
Q 23.34375 -0.6875 20.40625 -0.6875 
Q 15.625 -0.6875 12.984375 0.828125 
Q 10.359375 2.34375 9.28125 4.8125 
Q 8.203125 7.28125 8.203125 15.1875 
L 8.203125 45.015625 
L 1.765625 45.015625 
L 1.765625 51.859375 
L 8.203125 51.859375 
L 8.203125 64.703125 
L 16.9375 69.96875 
L 16.9375 51.859375 
L 25.78125 51.859375 
L 25.78125 45.015625 
L 16.9375 45.015625 
L 16.9375 14.703125 
Q 16.9375 10.9375 17.40625 9.859375 
Q 17.875 8.796875 18.921875 8.15625 
Q 19.96875 7.515625 21.921875 7.515625 
Q 23.390625 7.515625 25.78125 7.859375 
z
" id="ArialMT-116"/>
      <path d="M 42.09375 16.703125 
L 51.171875 15.578125 
Q 49.03125 7.625 43.21875 3.21875 
Q 37.40625 -1.171875 28.375 -1.171875 
Q 17 -1.171875 10.328125 5.828125 
Q 3.65625 12.84375 3.65625 25.484375 
Q 3.65625 38.578125 10.390625 45.796875 
Q 17.140625 53.03125 27.875 53.03125 
Q 38.28125 53.03125 44.875 45.953125 
Q 51.46875 38.875 51.46875 26.03125 
Q 51.46875 25.25 51.421875 23.6875 
L 12.75 23.6875 
Q 13.234375 15.140625 17.578125 10.59375 
Q 21.921875 6.0625 28.421875 6.0625 
Q 33.25 6.0625 36.671875 8.59375 
Q 40.09375 11.140625 42.09375 16.703125 
z
M 13.234375 30.90625 
L 42.1875 30.90625 
Q 41.609375 37.453125 38.875 40.71875 
Q 34.671875 45.796875 27.984375 45.796875 
Q 21.921875 45.796875 17.796875 41.75 
Q 13.671875 37.703125 13.234375 30.90625 
z
" id="ArialMT-101"/>
     </defs>
     <g style="fill:#e6e6e6;" transform="translate(226.429531 318.741812)scale(0.1 -0.1)">
      <use xlink:href="#ArialMT-100"/>
      <use x="55.615234" xlink:href="#ArialMT-97"/>
      <use x="111.230469" xlink:href="#ArialMT-116"/>
      <use x="139.013672" xlink:href="#ArialMT-101"/>
     </g>
    </g>
   </g>
   <g id="matplotlib.axis_2">
    <g id="ytick_1">
     <g id="line2d_1">
      <path clip-path="url(#p7361b5bd5a)" d="M 57.6 295.488 
L 414.72 295.488 
" style="fill:none;stroke:#2a3459;stroke-linecap:round;stroke-width:0.8;"/>
     </g>
     <g id="line2d_2"/>
     <g id="text_2">
      <!-- 0 -->
      <defs>
       <path d="M 4.15625 35.296875 
Q 4.15625 48 6.765625 55.734375 
Q 9.375 63.484375 14.515625 67.671875 
Q 19.671875 71.875 27.484375 71.875 
Q 33.25 71.875 37.59375 69.546875 
Q 41.9375 67.234375 44.765625 62.859375 
Q 47.609375 58.5 49.21875 52.21875 
Q 50.828125 45.953125 50.828125 35.296875 
Q 50.828125 22.703125 48.234375 14.96875 
Q 45.65625 7.234375 40.5 3 
Q 35.359375 -1.21875 27.484375 -1.21875 
Q 17.140625 -1.21875 11.234375 6.203125 
Q 4.15625 15.140625 4.15625 35.296875 
z
M 13.1875 35.296875 
Q 13.1875 17.671875 17.3125 11.828125 
Q 21.4375 6 27.484375 6 
Q 33.546875 6 37.671875 11.859375 
Q 41.796875 17.71875 41.796875 35.296875 
Q 41.796875 52.984375 37.671875 58.78125 
Q 33.546875 64.59375 27.390625 64.59375 
Q 21.34375 64.59375 17.71875 59.46875 
Q 13.1875 52.9375 13.1875 35.296875 
z
" id="ArialMT-48"/>
      </defs>
      <g style="fill:#e6e6e6;" transform="translate(48.539062 299.066906)scale(0.1 -0.1)">
       <use xlink:href="#ArialMT-48"/>
      </g>
     </g>
    </g>
    <g id="ytick_2">
     <g id="line2d_3">
      <path clip-path="url(#p7361b5bd5a)" d="M 57.6 261.188675 
L 414.72 261.188675 
" style="fill:none;stroke:#2a3459;stroke-linecap:round;stroke-width:0.8;"/>
     </g>
     <g id="line2d_4"/>
     <g id="text_3">
      <!-- 2500 -->
      <defs>
       <path d="M 50.34375 8.453125 
L 50.34375 0 
L 3.03125 0 
Q 2.9375 3.171875 4.046875 6.109375 
Q 5.859375 10.9375 9.828125 15.625 
Q 13.8125 20.3125 21.34375 26.46875 
Q 33.015625 36.03125 37.109375 41.625 
Q 41.21875 47.21875 41.21875 52.203125 
Q 41.21875 57.421875 37.46875 61 
Q 33.734375 64.59375 27.734375 64.59375 
Q 21.390625 64.59375 17.578125 60.78125 
Q 13.765625 56.984375 13.71875 50.25 
L 4.6875 51.171875 
Q 5.609375 61.28125 11.65625 66.578125 
Q 17.71875 71.875 27.9375 71.875 
Q 38.234375 71.875 44.234375 66.15625 
Q 50.25 60.453125 50.25 52 
Q 50.25 47.703125 48.484375 43.546875 
Q 46.734375 39.40625 42.65625 34.8125 
Q 38.578125 30.21875 29.109375 22.21875 
Q 21.1875 15.578125 18.9375 13.203125 
Q 16.703125 10.84375 15.234375 8.453125 
z
" id="ArialMT-50"/>
       <path d="M 4.15625 18.75 
L 13.375 19.53125 
Q 14.40625 12.796875 18.140625 9.390625 
Q 21.875 6 27.15625 6 
Q 33.5 6 37.890625 10.78125 
Q 42.28125 15.578125 42.28125 23.484375 
Q 42.28125 31 38.0625 35.34375 
Q 33.84375 39.703125 27 39.703125 
Q 22.75 39.703125 19.328125 37.765625 
Q 15.921875 35.84375 13.96875 32.765625 
L 5.71875 33.84375 
L 12.640625 70.609375 
L 48.25 70.609375 
L 48.25 62.203125 
L 19.671875 62.203125 
L 15.828125 42.96875 
Q 22.265625 47.46875 29.34375 47.46875 
Q 38.71875 47.46875 45.15625 40.96875 
Q 51.609375 34.46875 51.609375 24.265625 
Q 51.609375 14.546875 45.953125 7.46875 
Q 39.0625 -1.21875 27.15625 -1.21875 
Q 17.390625 -1.21875 11.203125 4.25 
Q 5.03125 9.71875 4.15625 18.75 
z
" id="ArialMT-53"/>
      </defs>
      <g style="fill:#e6e6e6;" transform="translate(31.85625 264.767581)scale(0.1 -0.1)">
       <use xlink:href="#ArialMT-50"/>
       <use x="55.615234" xlink:href="#ArialMT-53"/>
       <use x="111.230469" xlink:href="#ArialMT-48"/>
       <use x="166.845703" xlink:href="#ArialMT-48"/>
      </g>
     </g>
    </g>
    <g id="ytick_3">
     <g id="line2d_5">
      <path clip-path="url(#p7361b5bd5a)" d="M 57.6 226.88935 
L 414.72 226.88935 
" style="fill:none;stroke:#2a3459;stroke-linecap:round;stroke-width:0.8;"/>
     </g>
     <g id="line2d_6"/>
     <g id="text_4">
      <!-- 5000 -->
      <g style="fill:#e6e6e6;" transform="translate(31.85625 230.468256)scale(0.1 -0.1)">
       <use xlink:href="#ArialMT-53"/>
       <use x="55.615234" xlink:href="#ArialMT-48"/>
       <use x="111.230469" xlink:href="#ArialMT-48"/>
       <use x="166.845703" xlink:href="#ArialMT-48"/>
      </g>
     </g>
    </g>
    <g id="ytick_4">
     <g id="line2d_7">
      <path clip-path="url(#p7361b5bd5a)" d="M 57.6 192.590025 
L 414.72 192.590025 
" style="fill:none;stroke:#2a3459;stroke-linecap:round;stroke-width:0.8;"/>
     </g>
     <g id="line2d_8"/>
     <g id="text_5">
      <!-- 7500 -->
      <defs>
       <path d="M 4.734375 62.203125 
L 4.734375 70.65625 
L 51.078125 70.65625 
L 51.078125 63.8125 
Q 44.234375 56.546875 37.515625 44.484375 
Q 30.8125 32.421875 27.15625 19.671875 
Q 24.515625 10.6875 23.78125 0 
L 14.75 0 
Q 14.890625 8.453125 18.0625 20.40625 
Q 21.234375 32.375 27.171875 43.484375 
Q 33.109375 54.59375 39.796875 62.203125 
z
" id="ArialMT-55"/>
      </defs>
      <g style="fill:#e6e6e6;" transform="translate(31.85625 196.168931)scale(0.1 -0.1)">
       <use xlink:href="#ArialMT-55"/>
       <use x="55.615234" xlink:href="#ArialMT-53"/>
       <use x="111.230469" xlink:href="#ArialMT-48"/>
       <use x="166.845703" xlink:href="#ArialMT-48"/>
      </g>
     </g>
    </g>
    <g id="ytick_5">
     <g id="line2d_9">
      <path clip-path="url(#p7361b5bd5a)" d="M 57.6 158.290699 
L 414.72 158.290699 
" style="fill:none;stroke:#2a3459;stroke-linecap:round;stroke-width:0.8;"/>
     </g>
     <g id="line2d_10"/>
     <g id="text_6">
      <!-- 10000 -->
      <defs>
       <path d="M 37.25 0 
L 28.46875 0 
L 28.46875 56 
Q 25.296875 52.984375 20.140625 49.953125 
Q 14.984375 46.921875 10.890625 45.40625 
L 10.890625 53.90625 
Q 18.265625 57.375 23.78125 62.296875 
Q 29.296875 67.234375 31.59375 71.875 
L 37.25 71.875 
z
" id="ArialMT-49"/>
      </defs>
      <g style="fill:#e6e6e6;" transform="translate(26.295313 161.869606)scale(0.1 -0.1)">
       <use xlink:href="#ArialMT-49"/>
       <use x="55.615234" xlink:href="#ArialMT-48"/>
       <use x="111.230469" xlink:href="#ArialMT-48"/>
       <use x="166.845703" xlink:href="#ArialMT-48"/>
       <use x="222.460938" xlink:href="#ArialMT-48"/>
      </g>
     </g>
    </g>
    <g id="ytick_6">
     <g id="line2d_11">
      <path clip-path="url(#p7361b5bd5a)" d="M 57.6 123.991374 
L 414.72 123.991374 
" style="fill:none;stroke:#2a3459;stroke-linecap:round;stroke-width:0.8;"/>
     </g>
     <g id="line2d_12"/>
     <g id="text_7">
      <!-- 12500 -->
      <g style="fill:#e6e6e6;" transform="translate(26.295313 127.570281)scale(0.1 -0.1)">
       <use xlink:href="#ArialMT-49"/>
       <use x="55.615234" xlink:href="#ArialMT-50"/>
       <use x="111.230469" xlink:href="#ArialMT-53"/>
       <use x="166.845703" xlink:href="#ArialMT-48"/>
       <use x="222.460938" xlink:href="#ArialMT-48"/>
      </g>
     </g>
    </g>
    <g id="ytick_7">
     <g id="line2d_13">
      <path clip-path="url(#p7361b5bd5a)" d="M 57.6 89.692049 
L 414.72 89.692049 
" style="fill:none;stroke:#2a3459;stroke-linecap:round;stroke-width:0.8;"/>
     </g>
     <g id="line2d_14"/>
     <g id="text_8">
      <!-- 15000 -->
      <g style="fill:#e6e6e6;" transform="translate(26.295313 93.270955)scale(0.1 -0.1)">
       <use xlink:href="#ArialMT-49"/>
       <use x="55.615234" xlink:href="#ArialMT-53"/>
       <use x="111.230469" xlink:href="#ArialMT-48"/>
       <use x="166.845703" xlink:href="#ArialMT-48"/>
       <use x="222.460938" xlink:href="#ArialMT-48"/>
      </g>
     </g>
    </g>
    <g id="ytick_8">
     <g id="line2d_15">
      <path clip-path="url(#p7361b5bd5a)" d="M 57.6 55.392724 
L 414.72 55.392724 
" style="fill:none;stroke:#2a3459;stroke-linecap:round;stroke-width:0.8;"/>
     </g>
     <g id="line2d_16"/>
     <g id="text_9">
      <!-- 17500 -->
      <g style="fill:#e6e6e6;" transform="translate(26.295313 58.97163)scale(0.1 -0.1)">
       <use xlink:href="#ArialMT-49"/>
       <use x="55.615234" xlink:href="#ArialMT-55"/>
       <use x="111.230469" xlink:href="#ArialMT-53"/>
       <use x="166.845703" xlink:href="#ArialMT-48"/>
       <use x="222.460938" xlink:href="#ArialMT-48"/>
      </g>
     </g>
    </g>
    <g id="text_10">
     <!-- index -->
     <defs>
      <path d="M 6.640625 61.46875 
L 6.640625 71.578125 
L 15.4375 71.578125 
L 15.4375 61.46875 
z
M 6.640625 0 
L 6.640625 51.859375 
L 15.4375 51.859375 
L 15.4375 0 
z
" id="ArialMT-105"/>
      <path d="M 6.59375 0 
L 6.59375 51.859375 
L 14.5 51.859375 
L 14.5 44.484375 
Q 20.21875 53.03125 31 53.03125 
Q 35.6875 53.03125 39.625 51.34375 
Q 43.5625 49.65625 45.515625 46.921875 
Q 47.46875 44.1875 48.25 40.4375 
Q 48.734375 37.984375 48.734375 31.890625 
L 48.734375 0 
L 39.9375 0 
L 39.9375 31.546875 
Q 39.9375 36.921875 38.90625 39.578125 
Q 37.890625 42.234375 35.28125 43.8125 
Q 32.671875 45.40625 29.15625 45.40625 
Q 23.53125 45.40625 19.453125 41.84375 
Q 15.375 38.28125 15.375 28.328125 
L 15.375 0 
z
" id="ArialMT-110"/>
      <path d="M 0.734375 0 
L 19.671875 26.953125 
L 2.15625 51.859375 
L 13.140625 51.859375 
L 21.09375 39.703125 
Q 23.34375 36.234375 24.703125 33.890625 
Q 26.859375 37.109375 28.65625 39.59375 
L 37.40625 51.859375 
L 47.90625 51.859375 
L 29.984375 27.4375 
L 49.265625 0 
L 38.484375 0 
L 27.828125 16.109375 
L 25 20.453125 
L 11.375 0 
z
" id="ArialMT-120"/>
     </defs>
     <g style="fill:#e6e6e6;" transform="translate(20.307813 186.480344)rotate(-90)scale(0.1 -0.1)">
      <use xlink:href="#ArialMT-105"/>
      <use x="22.216797" xlink:href="#ArialMT-110"/>
      <use x="77.832031" xlink:href="#ArialMT-100"/>
      <use x="133.447266" xlink:href="#ArialMT-101"/>
      <use x="189.0625" xlink:href="#ArialMT-120"/>
     </g>
    </g>
   </g>
   <g id="line2d_17">
    <path clip-path="url(#p7361b5bd5a)" d="M 73.832727 295.488 
L 113.85863 295.488 
L 114.748095 291.39952 
L 115.637559 290.823292 
L 116.527024 287.530557 
L 117.416488 279.833788 
L 118.305953 260.242013 
L 119.195417 255.481267 
L 120.084882 244.203649 
L 120.974346 238.317885 
L 121.863811 227.451859 
L 122.753275 219.110263 
L 123.64274 224.049366 
L 124.532204 196.733383 
L 125.421669 192.507706 
L 126.311133 181.669119 
L 127.200598 173.986071 
L 128.090062 182.766698 
L 128.979527 198.516948 
L 129.868991 205.047539 
L 131.64792 144.02218 
L 132.537385 295.488 
L 133.426849 174.274185 
L 134.316314 96.840029 
L 135.205778 202.385912 
L 136.095243 221.950247 
L 136.984707 172.367143 
L 137.874172 53.568 
L 138.763636 100.201362 
L 139.653101 188.309469 
L 140.542565 187.897877 
L 141.43203 231.704975 
L 142.321494 239.07247 
L 143.210959 179.460243 
L 144.100423 201.9606 
L 144.989888 206.227436 
L 145.879352 216.325158 
L 146.768817 205.445412 
L 147.658281 244.64268 
L 148.547746 252.558965 
L 149.43721 230.127206 
L 150.326675 236.218766 
L 152.105604 204.100878 
L 153.884533 260.447809 
L 154.773998 262.95852 
L 155.663462 241.788977 
L 156.552927 225.36646 
L 158.331856 236.575479 
L 159.22132 247.359187 
L 160.110785 264.440251 
L 161.000249 260.077377 
L 161.889714 235.354423 
L 162.779178 237.782815 
L 163.668643 262.519489 
L 164.558107 255.206873 
L 165.447572 249.458306 
L 166.337036 282.413097 
L 167.226501 284.937528 
L 168.115965 241.308786 
L 169.00543 243.380465 
L 169.894894 258.938639 
L 170.784359 240.60908 
L 171.673823 238.345324 
L 172.563288 283.071644 
L 173.452752 279.504514 
L 174.342217 251.447667 
L 175.231681 254.136734 
L 176.121146 254.658083 
L 177.01061 256.83952 
L 177.900075 255.426388 
L 178.789539 287.85983 
L 179.679004 280.958806 
L 180.568468 280.958806 
L 181.457933 282.728651 
L 182.347397 251.969016 
L 183.236862 247.949135 
L 184.126326 265.085078 
L 185.015791 259.981339 
L 185.905255 287.160124 
L 186.79472 283.634153 
L 187.684184 288.710453 
L 188.573649 254.452287 
L 189.463113 255.975177 
L 190.352578 273.810827 
L 191.242042 295.488 
L 192.131507 284.525936 
L 193.020971 282.78353 
L 193.910436 283.414638 
L 194.7999 295.488 
L 195.689365 274.757488 
L 196.578829 273.577591 
L 197.468294 268.158298 
L 198.357758 285.554915 
L 199.247223 281.836869 
L 200.136687 267.156757 
L 201.026152 264.316773 
L 201.915616 265.812224 
L 202.805081 261.010318 
L 203.694545 282.618893 
L 204.58401 288.161664 
L 205.473474 285.705832 
L 206.362939 287.750072 
L 207.252403 288.161664 
L 208.141868 280.410017 
L 209.031333 281.096003 
L 209.920797 279.682871 
L 210.810262 284.676853 
L 211.699726 286.721092 
L 212.589191 281.068564 
L 214.36812 281.164602 
L 215.257584 282.26218 
L 216.147049 281.905467 
L 217.036513 287.928429 
L 217.925978 286.158584 
L 218.815442 278.530414 
L 219.704907 284.923808 
L 220.594371 285.445158 
L 221.483836 285.006126 
L 222.3733 287.187563 
L 223.262765 292.058067 
L 224.152229 292.140386 
L 225.041694 286.131144 
L 225.931158 285.102164 
L 226.820623 285.294241 
L 227.710087 288.518377 
L 228.599552 287.489397 
L 229.489016 292.634296 
L 230.378481 292.634296 
L 231.267945 289.588516 
L 232.15741 288.90253 
L 233.046874 289.355281 
L 234.825803 289.080886 
L 235.715268 292.94985 
L 236.604732 292.634296 
L 237.494197 289.41016 
L 238.383661 289.835471 
L 239.273126 289.39644 
L 240.16259 289.39644 
L 241.052055 289.218083 
L 241.941519 291.056527 
L 242.830984 293.416321 
L 243.720448 289.272962 
L 244.609913 284.004586 
L 245.499377 287.077805 
L 246.388842 287.118965 
L 247.278306 295.488 
L 248.167771 288.532097 
L 249.057235 292.45594 
L 249.9467 284.594534 
L 250.836164 283.661593 
L 251.725629 273.262037 
L 252.615093 287.3522 
L 254.394022 288.038187 
L 255.283487 284.416178 
L 256.172951 283.908548 
L 257.062416 286.666214 
L 257.95188 290.288222 
L 258.841345 287.983308 
L 259.730809 284.333859 
L 260.620274 289.492478 
L 261.509738 291.262323 
L 262.399203 285.85675 
L 263.288667 287.324761 
L 264.178132 287.983308 
L 265.067597 287.37964 
L 266.846526 292.702895 
L 267.73599 293.059608 
L 268.625455 286.666214 
L 269.514919 283.963427 
L 270.404384 287.722633 
L 271.293848 287.681474 
L 272.183313 285.527476 
L 273.072777 291.660195 
L 273.962242 292.579417 
L 274.851706 283.647873 
L 275.741171 288.641855 
L 276.630635 289.670834 
L 277.5201 289.122045 
L 278.409564 289.574796 
L 279.299029 290.42542 
L 280.188493 290.151025 
L 281.077958 286.542736 
L 281.967422 286.144864 
L 282.856887 284.841489 
L 283.746351 287.804951 
L 284.635816 290.219624 
L 285.52528 292.167825 
L 286.414745 290.260783 
L 287.304209 286.035106 
L 288.193674 287.900989 
L 289.083138 288.847651 
L 289.972603 288.957408 
L 290.862067 289.506198 
L 291.751532 290.699814 
L 292.640996 291.468119 
L 293.530461 289.108326 
L 294.419925 287.818671 
L 295.30939 287.311041 
L 296.198854 286.419258 
L 297.088319 290.686094 
L 297.977783 289.931509 
L 298.867248 291.481839 
L 299.756712 287.791231 
L 300.646177 288.573256 
L 301.535641 287.87355 
L 302.425106 288.820211 
L 303.31457 288.984848 
L 304.204035 292.497099 
L 305.093499 290.288222 
L 305.982964 285.239362 
L 306.872428 289.080886 
L 307.761893 289.355281 
L 308.651357 287.036646 
L 309.540822 287.708913 
L 310.430286 292.222704 
L 311.319751 291.852272 
L 312.209215 289.369 
L 313.09868 288.161664 
L 313.988144 287.434518 
L 314.877609 289.629675 
L 315.767073 291.111406 
L 316.656538 287.434518 
L 317.546002 289.629675 
L 318.435467 289.286682 
L 319.324932 291.468119 
L 320.214396 291.248603 
L 321.103861 289.602236 
L 321.993325 291.660195 
L 322.88279 294.116027 
L 323.772254 293.773034 
L 324.661719 290.617496 
L 325.551183 289.87663 
L 326.440648 291.94831 
L 328.219577 292.94985 
L 330.88797 295.488 
L 331.777435 295.488 
L 332.666899 291.852272 
L 333.556364 290.740973 
L 334.445828 289.451319 
L 335.335293 293.375162 
L 336.224757 292.44222 
L 337.114222 291.879711 
L 338.003686 290.644935 
L 338.893151 290.4117 
L 339.782615 293.512359 
L 340.67208 293.800473 
L 341.561544 292.250144 
L 342.451009 294.225785 
L 344.229938 293.292843 
L 345.119402 293.594677 
L 346.008867 292.181545 
L 346.898331 290.987929 
L 347.787796 290.068707 
L 348.67726 293.553518 
L 349.566725 290.507738 
L 350.456189 290.439139 
L 351.345654 290.617496 
L 352.235118 289.067166 
L 353.124583 290.013828 
L 354.014047 292.263863 
L 354.903512 292.593137 
L 355.792976 288.669294 
L 356.682441 291.42696 
L 357.571905 291.632756 
L 358.46137 289.341561 
L 360.240299 293.622117 
L 361.129763 293.553518 
L 362.019228 292.41478 
L 362.908692 290.068707 
L 363.798157 290.658655 
L 365.577086 290.247063 
L 366.46655 292.826372 
L 367.356015 293.800473 
L 368.245479 291.193724 
L 369.134944 291.193724 
L 370.024408 290.247063 
L 370.913873 291.673915 
L 371.803337 291.111406 
L 372.692802 292.387341 
L 373.582267 293.882792 
L 374.471731 291.550437 
L 375.361196 291.701355 
L 376.25066 291.344642 
L 377.140125 291.111406 
L 378.029589 291.344642 
L 378.919054 293.567238 
L 379.808518 292.771493 
L 381.587447 290.343101 
L 382.476912 290.658655 
L 383.366376 291.756233 
L 384.255841 291.289763 
L 385.145305 293.004729 
L 386.03477 292.675455 
L 386.924234 289.190644 
L 387.813699 290.782133 
L 388.703163 289.41016 
L 389.592628 289.533637 
L 390.482092 290.439139 
L 391.371557 293.96511 
L 392.261021 292.716615 
L 394.03995 286.913169 
L 394.929415 289.163204 
L 395.818879 287.187563 
L 397.597808 293.567238 
L 398.487273 291.042807 
L 398.487273 291.042807 
" style="fill:none;stroke:#08f7fe;stroke-linecap:round;stroke-width:1.5;"/>
   </g>
   <g id="patch_3">
    <path d="M 57.6 307.584 
L 57.6 41.472 
" style="fill:none;"/>
   </g>
   <g id="patch_4">
    <path d="M 414.72 307.584 
L 414.72 41.472 
" style="fill:none;"/>
   </g>
   <g id="patch_5">
    <path d="M 57.6 307.584 
L 414.72 307.584 
" style="fill:none;"/>
   </g>
   <g id="patch_6">
    <path d="M 57.6 41.472 
L 414.72 41.472 
" style="fill:none;"/>
   </g>
  </g>
 </g>
 <defs>
  <clipPath id="p7361b5bd5a">
   <rect height="266.112" width="357.12" x="57.6" y="41.472"/>
  </clipPath>
 </defs>
</svg>
