<?xml version="1.0" encoding="utf-8" standalone="no"?>
<!DOCTYPE svg PUBLIC "-//W3C//DTD SVG 1.1//EN"
  "http://www.w3.org/Graphics/SVG/1.1/DTD/svg11.dtd">
<!-- Created with matplotlib (https://matplotlib.org/) -->
<svg height="345.6pt" version="1.1" viewBox="0 0 460.8 345.6" width="460.8pt" xmlns="http://www.w3.org/2000/svg" xmlns:xlink="http://www.w3.org/1999/xlink">
 <defs>
  <style type="text/css">
*{stroke-linecap:butt;stroke-linejoin:round;}
  </style>
 </defs>
 <g id="figure_1">
  <g id="patch_1">
   <path d="M 0 345.6 
L 460.8 345.6 
L 460.8 0 
L 0 0 
z
" style="fill:#212946;"/>
  </g>
  <g id="axes_1">
   <g id="patch_2">
    <path d="M 57.6 307.584 
L 414.72 307.584 
L 414.72 41.472 
L 57.6 41.472 
z
" style="fill:#212946;"/>
   </g>
   <g id="matplotlib.axis_1">
    <g id="text_1">
     <!-- date -->
     <defs>
      <path d="M 40.234375 0 
L 40.234375 6.546875 
Q 35.296875 -1.171875 25.734375 -1.171875 
Q 19.53125 -1.171875 14.328125 2.25 
Q 9.125 5.671875 6.265625 11.796875 
Q 3.421875 17.921875 3.421875 25.875 
Q 3.421875 33.640625 6 39.96875 
Q 8.59375 46.296875 13.765625 49.65625 
Q 18.953125 53.03125 25.34375 53.03125 
Q 30.03125 53.03125 33.6875 51.046875 
Q 37.359375 49.078125 39.65625 45.90625 
L 39.65625 71.578125 
L 48.390625 71.578125 
L 48.390625 0 
z
M 12.453125 25.875 
Q 12.453125 15.921875 16.640625 10.984375 
Q 20.84375 6.0625 26.5625 6.0625 
Q 32.328125 6.0625 36.34375 10.765625 
Q 40.375 15.484375 40.375 25.140625 
Q 40.375 35.796875 36.265625 40.765625 
Q 32.171875 45.75 26.171875 45.75 
Q 20.3125 45.75 16.375 40.96875 
Q 12.453125 36.1875 12.453125 25.875 
z
" id="ArialMT-100"/>
      <path d="M 40.4375 6.390625 
Q 35.546875 2.25 31.03125 0.53125 
Q 26.515625 -1.171875 21.34375 -1.171875 
Q 12.796875 -1.171875 8.203125 3 
Q 3.609375 7.171875 3.609375 13.671875 
Q 3.609375 17.484375 5.34375 20.625 
Q 7.078125 23.78125 9.890625 25.6875 
Q 12.703125 27.59375 16.21875 28.5625 
Q 18.796875 29.25 24.03125 29.890625 
Q 34.671875 31.15625 39.703125 32.90625 
Q 39.75 34.71875 39.75 35.203125 
Q 39.75 40.578125 37.25 42.78125 
Q 33.890625 45.75 27.25 45.75 
Q 21.046875 45.75 18.09375 43.578125 
Q 15.140625 41.40625 13.71875 35.890625 
L 5.125 37.0625 
Q 6.296875 42.578125 8.984375 45.96875 
Q 11.671875 49.359375 16.75 51.1875 
Q 21.828125 53.03125 28.515625 53.03125 
Q 35.15625 53.03125 39.296875 51.46875 
Q 43.453125 49.90625 45.40625 47.53125 
Q 47.359375 45.171875 48.140625 41.546875 
Q 48.578125 39.3125 48.578125 33.453125 
L 48.578125 21.734375 
Q 48.578125 9.46875 49.140625 6.21875 
Q 49.703125 2.984375 51.375 0 
L 42.1875 0 
Q 40.828125 2.734375 40.4375 6.390625 
z
M 39.703125 26.03125 
Q 34.90625 24.078125 25.34375 22.703125 
Q 19.921875 21.921875 17.671875 20.9375 
Q 15.4375 19.96875 14.203125 18.09375 
Q 12.984375 16.21875 12.984375 13.921875 
Q 12.984375 10.40625 15.640625 8.0625 
Q 18.3125 5.71875 23.4375 5.71875 
Q 28.515625 5.71875 32.46875 7.9375 
Q 36.421875 10.15625 38.28125 14.015625 
Q 39.703125 17 39.703125 22.796875 
z
" id="ArialMT-97"/>
      <path d="M 25.78125 7.859375 
L 27.046875 0.09375 
Q 23.34375 -0.6875 20.40625 -0.6875 
Q 15.625 -0.6875 12.984375 0.828125 
Q 10.359375 2.34375 9.28125 4.8125 
Q 8.203125 7.28125 8.203125 15.1875 
L 8.203125 45.015625 
L 1.765625 45.015625 
L 1.765625 51.859375 
L 8.203125 51.859375 
L 8.203125 64.703125 
L 16.9375 69.96875 
L 16.9375 51.859375 
L 25.78125 51.859375 
L 25.78125 45.015625 
L 16.9375 45.015625 
L 16.9375 14.703125 
Q 16.9375 10.9375 17.40625 9.859375 
Q 17.875 8.796875 18.921875 8.15625 
Q 19.96875 7.515625 21.921875 7.515625 
Q 23.390625 7.515625 25.78125 7.859375 
z
" id="ArialMT-116"/>
      <path d="M 42.09375 16.703125 
L 51.171875 15.578125 
Q 49.03125 7.625 43.21875 3.21875 
Q 37.40625 -1.171875 28.375 -1.171875 
Q 17 -1.171875 10.328125 5.828125 
Q 3.65625 12.84375 3.65625 25.484375 
Q 3.65625 38.578125 10.390625 45.796875 
Q 17.140625 53.03125 27.875 53.03125 
Q 38.28125 53.03125 44.875 45.953125 
Q 51.46875 38.875 51.46875 26.03125 
Q 51.46875 25.25 51.421875 23.6875 
L 12.75 23.6875 
Q 13.234375 15.140625 17.578125 10.59375 
Q 21.921875 6.0625 28.421875 6.0625 
Q 33.25 6.0625 36.671875 8.59375 
Q 40.09375 11.140625 42.09375 16.703125 
z
M 13.234375 30.90625 
L 42.1875 30.90625 
Q 41.609375 37.453125 38.875 40.71875 
Q 34.671875 45.796875 27.984375 45.796875 
Q 21.921875 45.796875 17.796875 41.75 
Q 13.671875 37.703125 13.234375 30.90625 
z
" id="ArialMT-101"/>
     </defs>
     <g style="fill:#e6e6e6;" transform="translate(226.429531 318.741812)scale(0.1 -0.1)">
      <use xlink:href="#ArialMT-100"/>
      <use x="55.615234" xlink:href="#ArialMT-97"/>
      <use x="111.230469" xlink:href="#ArialMT-116"/>
      <use x="139.013672" xlink:href="#ArialMT-101"/>
     </g>
    </g>
   </g>
   <g id="matplotlib.axis_2">
    <g id="ytick_1">
     <g id="line2d_1">
      <path clip-path="url(#p7210c4d31b)" d="M 57.6 301.348193 
L 414.72 301.348193 
" style="fill:none;stroke:#2a3459;stroke-linecap:round;stroke-width:0.8;"/>
     </g>
     <g id="line2d_2"/>
     <g id="text_2">
      <!-- 0 -->
      <defs>
       <path d="M 4.15625 35.296875 
Q 4.15625 48 6.765625 55.734375 
Q 9.375 63.484375 14.515625 67.671875 
Q 19.671875 71.875 27.484375 71.875 
Q 33.25 71.875 37.59375 69.546875 
Q 41.9375 67.234375 44.765625 62.859375 
Q 47.609375 58.5 49.21875 52.21875 
Q 50.828125 45.953125 50.828125 35.296875 
Q 50.828125 22.703125 48.234375 14.96875 
Q 45.65625 7.234375 40.5 3 
Q 35.359375 -1.21875 27.484375 -1.21875 
Q 17.140625 -1.21875 11.234375 6.203125 
Q 4.15625 15.140625 4.15625 35.296875 
z
M 13.1875 35.296875 
Q 13.1875 17.671875 17.3125 11.828125 
Q 21.4375 6 27.484375 6 
Q 33.546875 6 37.671875 11.859375 
Q 41.796875 17.71875 41.796875 35.296875 
Q 41.796875 52.984375 37.671875 58.78125 
Q 33.546875 64.59375 27.390625 64.59375 
Q 21.34375 64.59375 17.71875 59.46875 
Q 13.1875 52.9375 13.1875 35.296875 
z
" id="ArialMT-48"/>
      </defs>
      <g style="fill:#e6e6e6;" transform="translate(48.539062 304.9271)scale(0.1 -0.1)">
       <use xlink:href="#ArialMT-48"/>
      </g>
     </g>
    </g>
    <g id="ytick_2">
     <g id="line2d_3">
      <path clip-path="url(#p7210c4d31b)" d="M 57.6 270.176952 
L 414.72 270.176952 
" style="fill:none;stroke:#2a3459;stroke-linecap:round;stroke-width:0.8;"/>
     </g>
     <g id="line2d_4"/>
     <g id="text_3">
      <!-- 1000 -->
      <defs>
       <path d="M 37.25 0 
L 28.46875 0 
L 28.46875 56 
Q 25.296875 52.984375 20.140625 49.953125 
Q 14.984375 46.921875 10.890625 45.40625 
L 10.890625 53.90625 
Q 18.265625 57.375 23.78125 62.296875 
Q 29.296875 67.234375 31.59375 71.875 
L 37.25 71.875 
z
" id="ArialMT-49"/>
      </defs>
      <g style="fill:#e6e6e6;" transform="translate(31.85625 273.755859)scale(0.1 -0.1)">
       <use xlink:href="#ArialMT-49"/>
       <use x="55.615234" xlink:href="#ArialMT-48"/>
       <use x="111.230469" xlink:href="#ArialMT-48"/>
       <use x="166.845703" xlink:href="#ArialMT-48"/>
      </g>
     </g>
    </g>
    <g id="ytick_3">
     <g id="line2d_5">
      <path clip-path="url(#p7210c4d31b)" d="M 57.6 239.005712 
L 414.72 239.005712 
" style="fill:none;stroke:#2a3459;stroke-linecap:round;stroke-width:0.8;"/>
     </g>
     <g id="line2d_6"/>
     <g id="text_4">
      <!-- 2000 -->
      <defs>
       <path d="M 50.34375 8.453125 
L 50.34375 0 
L 3.03125 0 
Q 2.9375 3.171875 4.046875 6.109375 
Q 5.859375 10.9375 9.828125 15.625 
Q 13.8125 20.3125 21.34375 26.46875 
Q 33.015625 36.03125 37.109375 41.625 
Q 41.21875 47.21875 41.21875 52.203125 
Q 41.21875 57.421875 37.46875 61 
Q 33.734375 64.59375 27.734375 64.59375 
Q 21.390625 64.59375 17.578125 60.78125 
Q 13.765625 56.984375 13.71875 50.25 
L 4.6875 51.171875 
Q 5.609375 61.28125 11.65625 66.578125 
Q 17.71875 71.875 27.9375 71.875 
Q 38.234375 71.875 44.234375 66.15625 
Q 50.25 60.453125 50.25 52 
Q 50.25 47.703125 48.484375 43.546875 
Q 46.734375 39.40625 42.65625 34.8125 
Q 38.578125 30.21875 29.109375 22.21875 
Q 21.1875 15.578125 18.9375 13.203125 
Q 16.703125 10.84375 15.234375 8.453125 
z
" id="ArialMT-50"/>
      </defs>
      <g style="fill:#e6e6e6;" transform="translate(31.85625 242.584618)scale(0.1 -0.1)">
       <use xlink:href="#ArialMT-50"/>
       <use x="55.615234" xlink:href="#ArialMT-48"/>
       <use x="111.230469" xlink:href="#ArialMT-48"/>
       <use x="166.845703" xlink:href="#ArialMT-48"/>
      </g>
     </g>
    </g>
    <g id="ytick_4">
     <g id="line2d_7">
      <path clip-path="url(#p7210c4d31b)" d="M 57.6 207.834471 
L 414.72 207.834471 
" style="fill:none;stroke:#2a3459;stroke-linecap:round;stroke-width:0.8;"/>
     </g>
     <g id="line2d_8"/>
     <g id="text_5">
      <!-- 3000 -->
      <defs>
       <path d="M 4.203125 18.890625 
L 12.984375 20.0625 
Q 14.5 12.59375 18.140625 9.296875 
Q 21.78125 6 27 6 
Q 33.203125 6 37.46875 10.296875 
Q 41.75 14.59375 41.75 20.953125 
Q 41.75 27 37.796875 30.921875 
Q 33.84375 34.859375 27.734375 34.859375 
Q 25.25 34.859375 21.53125 33.890625 
L 22.515625 41.609375 
Q 23.390625 41.5 23.921875 41.5 
Q 29.546875 41.5 34.03125 44.421875 
Q 38.53125 47.359375 38.53125 53.46875 
Q 38.53125 58.296875 35.25 61.46875 
Q 31.984375 64.65625 26.8125 64.65625 
Q 21.6875 64.65625 18.265625 61.421875 
Q 14.84375 58.203125 13.875 51.765625 
L 5.078125 53.328125 
Q 6.6875 62.15625 12.390625 67.015625 
Q 18.109375 71.875 26.609375 71.875 
Q 32.46875 71.875 37.390625 69.359375 
Q 42.328125 66.84375 44.9375 62.5 
Q 47.5625 58.15625 47.5625 53.265625 
Q 47.5625 48.640625 45.0625 44.828125 
Q 42.578125 41.015625 37.703125 38.765625 
Q 44.046875 37.3125 47.5625 32.6875 
Q 51.078125 28.078125 51.078125 21.140625 
Q 51.078125 11.765625 44.234375 5.25 
Q 37.40625 -1.265625 26.953125 -1.265625 
Q 17.53125 -1.265625 11.296875 4.34375 
Q 5.078125 9.96875 4.203125 18.890625 
z
" id="ArialMT-51"/>
      </defs>
      <g style="fill:#e6e6e6;" transform="translate(31.85625 211.413377)scale(0.1 -0.1)">
       <use xlink:href="#ArialMT-51"/>
       <use x="55.615234" xlink:href="#ArialMT-48"/>
       <use x="111.230469" xlink:href="#ArialMT-48"/>
       <use x="166.845703" xlink:href="#ArialMT-48"/>
      </g>
     </g>
    </g>
    <g id="ytick_5">
     <g id="line2d_9">
      <path clip-path="url(#p7210c4d31b)" d="M 57.6 176.66323 
L 414.72 176.66323 
" style="fill:none;stroke:#2a3459;stroke-linecap:round;stroke-width:0.8;"/>
     </g>
     <g id="line2d_10"/>
     <g id="text_6">
      <!-- 4000 -->
      <defs>
       <path d="M 32.328125 0 
L 32.328125 17.140625 
L 1.265625 17.140625 
L 1.265625 25.203125 
L 33.9375 71.578125 
L 41.109375 71.578125 
L 41.109375 25.203125 
L 50.78125 25.203125 
L 50.78125 17.140625 
L 41.109375 17.140625 
L 41.109375 0 
z
M 32.328125 25.203125 
L 32.328125 57.46875 
L 9.90625 25.203125 
z
" id="ArialMT-52"/>
      </defs>
      <g style="fill:#e6e6e6;" transform="translate(31.85625 180.242136)scale(0.1 -0.1)">
       <use xlink:href="#ArialMT-52"/>
       <use x="55.615234" xlink:href="#ArialMT-48"/>
       <use x="111.230469" xlink:href="#ArialMT-48"/>
       <use x="166.845703" xlink:href="#ArialMT-48"/>
      </g>
     </g>
    </g>
    <g id="ytick_6">
     <g id="line2d_11">
      <path clip-path="url(#p7210c4d31b)" d="M 57.6 145.491989 
L 414.72 145.491989 
" style="fill:none;stroke:#2a3459;stroke-linecap:round;stroke-width:0.8;"/>
     </g>
     <g id="line2d_12"/>
     <g id="text_7">
      <!-- 5000 -->
      <defs>
       <path d="M 4.15625 18.75 
L 13.375 19.53125 
Q 14.40625 12.796875 18.140625 9.390625 
Q 21.875 6 27.15625 6 
Q 33.5 6 37.890625 10.78125 
Q 42.28125 15.578125 42.28125 23.484375 
Q 42.28125 31 38.0625 35.34375 
Q 33.84375 39.703125 27 39.703125 
Q 22.75 39.703125 19.328125 37.765625 
Q 15.921875 35.84375 13.96875 32.765625 
L 5.71875 33.84375 
L 12.640625 70.609375 
L 48.25 70.609375 
L 48.25 62.203125 
L 19.671875 62.203125 
L 15.828125 42.96875 
Q 22.265625 47.46875 29.34375 47.46875 
Q 38.71875 47.46875 45.15625 40.96875 
Q 51.609375 34.46875 51.609375 24.265625 
Q 51.609375 14.546875 45.953125 7.46875 
Q 39.0625 -1.21875 27.15625 -1.21875 
Q 17.390625 -1.21875 11.203125 4.25 
Q 5.03125 9.71875 4.15625 18.75 
z
" id="ArialMT-53"/>
      </defs>
      <g style="fill:#e6e6e6;" transform="translate(31.85625 149.070895)scale(0.1 -0.1)">
       <use xlink:href="#ArialMT-53"/>
       <use x="55.615234" xlink:href="#ArialMT-48"/>
       <use x="111.230469" xlink:href="#ArialMT-48"/>
       <use x="166.845703" xlink:href="#ArialMT-48"/>
      </g>
     </g>
    </g>
    <g id="ytick_7">
     <g id="line2d_13">
      <path clip-path="url(#p7210c4d31b)" d="M 57.6 114.320748 
L 414.72 114.320748 
" style="fill:none;stroke:#2a3459;stroke-linecap:round;stroke-width:0.8;"/>
     </g>
     <g id="line2d_14"/>
     <g id="text_8">
      <!-- 6000 -->
      <defs>
       <path d="M 49.75 54.046875 
L 41.015625 53.375 
Q 39.84375 58.546875 37.703125 60.890625 
Q 34.125 64.65625 28.90625 64.65625 
Q 24.703125 64.65625 21.53125 62.3125 
Q 17.390625 59.28125 14.984375 53.46875 
Q 12.59375 47.65625 12.5 36.921875 
Q 15.671875 41.75 20.265625 44.09375 
Q 24.859375 46.4375 29.890625 46.4375 
Q 38.671875 46.4375 44.84375 39.96875 
Q 51.03125 33.5 51.03125 23.25 
Q 51.03125 16.5 48.125 10.71875 
Q 45.21875 4.9375 40.140625 1.859375 
Q 35.0625 -1.21875 28.609375 -1.21875 
Q 17.625 -1.21875 10.6875 6.859375 
Q 3.765625 14.9375 3.765625 33.5 
Q 3.765625 54.25 11.421875 63.671875 
Q 18.109375 71.875 29.4375 71.875 
Q 37.890625 71.875 43.28125 67.140625 
Q 48.6875 62.40625 49.75 54.046875 
z
M 13.875 23.1875 
Q 13.875 18.65625 15.796875 14.5 
Q 17.71875 10.359375 21.1875 8.171875 
Q 24.65625 6 28.46875 6 
Q 34.03125 6 38.03125 10.484375 
Q 42.046875 14.984375 42.046875 22.703125 
Q 42.046875 30.125 38.078125 34.390625 
Q 34.125 38.671875 28.125 38.671875 
Q 22.171875 38.671875 18.015625 34.390625 
Q 13.875 30.125 13.875 23.1875 
z
" id="ArialMT-54"/>
      </defs>
      <g style="fill:#e6e6e6;" transform="translate(31.85625 117.899655)scale(0.1 -0.1)">
       <use xlink:href="#ArialMT-54"/>
       <use x="55.615234" xlink:href="#ArialMT-48"/>
       <use x="111.230469" xlink:href="#ArialMT-48"/>
       <use x="166.845703" xlink:href="#ArialMT-48"/>
      </g>
     </g>
    </g>
    <g id="ytick_8">
     <g id="line2d_15">
      <path clip-path="url(#p7210c4d31b)" d="M 57.6 83.149508 
L 414.72 83.149508 
" style="fill:none;stroke:#2a3459;stroke-linecap:round;stroke-width:0.8;"/>
     </g>
     <g id="line2d_16"/>
     <g id="text_9">
      <!-- 7000 -->
      <defs>
       <path d="M 4.734375 62.203125 
L 4.734375 70.65625 
L 51.078125 70.65625 
L 51.078125 63.8125 
Q 44.234375 56.546875 37.515625 44.484375 
Q 30.8125 32.421875 27.15625 19.671875 
Q 24.515625 10.6875 23.78125 0 
L 14.75 0 
Q 14.890625 8.453125 18.0625 20.40625 
Q 21.234375 32.375 27.171875 43.484375 
Q 33.109375 54.59375 39.796875 62.203125 
z
" id="ArialMT-55"/>
      </defs>
      <g style="fill:#e6e6e6;" transform="translate(31.85625 86.728414)scale(0.1 -0.1)">
       <use xlink:href="#ArialMT-55"/>
       <use x="55.615234" xlink:href="#ArialMT-48"/>
       <use x="111.230469" xlink:href="#ArialMT-48"/>
       <use x="166.845703" xlink:href="#ArialMT-48"/>
      </g>
     </g>
    </g>
    <g id="ytick_9">
     <g id="line2d_17">
      <path clip-path="url(#p7210c4d31b)" d="M 57.6 51.978267 
L 414.72 51.978267 
" style="fill:none;stroke:#2a3459;stroke-linecap:round;stroke-width:0.8;"/>
     </g>
     <g id="line2d_18"/>
     <g id="text_10">
      <!-- 8000 -->
      <defs>
       <path d="M 17.671875 38.8125 
Q 12.203125 40.828125 9.5625 44.53125 
Q 6.9375 48.25 6.9375 53.421875 
Q 6.9375 61.234375 12.546875 66.546875 
Q 18.171875 71.875 27.484375 71.875 
Q 36.859375 71.875 42.578125 66.421875 
Q 48.296875 60.984375 48.296875 53.171875 
Q 48.296875 48.1875 45.671875 44.5 
Q 43.0625 40.828125 37.75 38.8125 
Q 44.34375 36.671875 47.78125 31.875 
Q 51.21875 27.09375 51.21875 20.453125 
Q 51.21875 11.28125 44.71875 5.03125 
Q 38.234375 -1.21875 27.640625 -1.21875 
Q 17.046875 -1.21875 10.546875 5.046875 
Q 4.046875 11.328125 4.046875 20.703125 
Q 4.046875 27.6875 7.59375 32.390625 
Q 11.140625 37.109375 17.671875 38.8125 
z
M 15.921875 53.71875 
Q 15.921875 48.640625 19.1875 45.40625 
Q 22.46875 42.1875 27.6875 42.1875 
Q 32.765625 42.1875 36.015625 45.375 
Q 39.265625 48.578125 39.265625 53.21875 
Q 39.265625 58.0625 35.90625 61.359375 
Q 32.5625 64.65625 27.59375 64.65625 
Q 22.5625 64.65625 19.234375 61.421875 
Q 15.921875 58.203125 15.921875 53.71875 
z
M 13.09375 20.65625 
Q 13.09375 16.890625 14.875 13.375 
Q 16.65625 9.859375 20.171875 7.921875 
Q 23.6875 6 27.734375 6 
Q 34.03125 6 38.125 10.046875 
Q 42.234375 14.109375 42.234375 20.359375 
Q 42.234375 26.703125 38.015625 30.859375 
Q 33.796875 35.015625 27.4375 35.015625 
Q 21.234375 35.015625 17.15625 30.90625 
Q 13.09375 26.8125 13.09375 20.65625 
z
" id="ArialMT-56"/>
      </defs>
      <g style="fill:#e6e6e6;" transform="translate(31.85625 55.557173)scale(0.1 -0.1)">
       <use xlink:href="#ArialMT-56"/>
       <use x="55.615234" xlink:href="#ArialMT-48"/>
       <use x="111.230469" xlink:href="#ArialMT-48"/>
       <use x="166.845703" xlink:href="#ArialMT-48"/>
      </g>
     </g>
    </g>
    <g id="text_11">
     <!-- index -->
     <defs>
      <path d="M 6.640625 61.46875 
L 6.640625 71.578125 
L 15.4375 71.578125 
L 15.4375 61.46875 
z
M 6.640625 0 
L 6.640625 51.859375 
L 15.4375 51.859375 
L 15.4375 0 
z
" id="ArialMT-105"/>
      <path d="M 6.59375 0 
L 6.59375 51.859375 
L 14.5 51.859375 
L 14.5 44.484375 
Q 20.21875 53.03125 31 53.03125 
Q 35.6875 53.03125 39.625 51.34375 
Q 43.5625 49.65625 45.515625 46.921875 
Q 47.46875 44.1875 48.25 40.4375 
Q 48.734375 37.984375 48.734375 31.890625 
L 48.734375 0 
L 39.9375 0 
L 39.9375 31.546875 
Q 39.9375 36.921875 38.90625 39.578125 
Q 37.890625 42.234375 35.28125 43.8125 
Q 32.671875 45.40625 29.15625 45.40625 
Q 23.53125 45.40625 19.453125 41.84375 
Q 15.375 38.28125 15.375 28.328125 
L 15.375 0 
z
" id="ArialMT-110"/>
      <path d="M 0.734375 0 
L 19.671875 26.953125 
L 2.15625 51.859375 
L 13.140625 51.859375 
L 21.09375 39.703125 
Q 23.34375 36.234375 24.703125 33.890625 
Q 26.859375 37.109375 28.65625 39.59375 
L 37.40625 51.859375 
L 47.90625 51.859375 
L 29.984375 27.4375 
L 49.265625 0 
L 38.484375 0 
L 27.828125 16.109375 
L 25 20.453125 
L 11.375 0 
z
" id="ArialMT-120"/>
     </defs>
     <g style="fill:#e6e6e6;" transform="translate(25.86875 186.480344)rotate(-90)scale(0.1 -0.1)">
      <use xlink:href="#ArialMT-105"/>
      <use x="22.216797" xlink:href="#ArialMT-110"/>
      <use x="77.832031" xlink:href="#ArialMT-100"/>
      <use x="133.447266" xlink:href="#ArialMT-101"/>
      <use x="189.0625" xlink:href="#ArialMT-120"/>
     </g>
    </g>
   </g>
   <g id="line2d_19">
    <path clip-path="url(#p7210c4d31b)" d="M 73.832727 294.428178 
L 74.722192 291.498081 
L 75.611656 292.121506 
L 76.501121 291.030513 
L 77.390585 291.903307 
L 78.28005 291.809794 
L 79.169514 294.771061 
L 80.058979 294.552863 
L 80.948443 291.404567 
L 81.837908 291.747451 
L 82.727372 291.342225 
L 83.616837 292.682588 
L 84.506301 291.996821 
L 85.395766 294.428178 
L 86.28523 293.960609 
L 87.174695 290.562944 
L 88.064159 291.529252 
L 88.953624 291.155198 
L 89.843088 291.996821 
L 90.732553 291.934479 
L 91.622017 293.960609 
L 92.511482 294.552863 
L 93.400946 292.277362 
L 94.290411 291.498081 
L 95.179875 295.488 
L 96.06934 290.936999 
L 96.958804 290.812314 
L 97.848269 293.898267 
L 98.737733 293.742411 
L 99.627198 291.061684 
L 100.516663 290.46943 
L 101.406127 291.934479 
L 102.295592 292.183848 
L 103.185056 292.807273 
L 104.074521 294.085294 
L 104.963985 294.49052 
L 105.85345 292.620246 
L 106.742914 292.931958 
L 107.632379 292.776102 
L 110.300772 295.082774 
L 111.190237 291.342225 
L 112.079701 285.45086 
L 112.969166 270.893891 
L 113.85863 262.228286 
L 114.748095 251.723578 
L 115.637559 256.30575 
L 116.527024 231.244073 
L 117.416488 221.456303 
L 118.305953 224.355228 
L 119.195417 212.478986 
L 120.084882 197.423276 
L 120.974346 171.052407 
L 121.863811 140.442248 
L 122.753275 130.062225 
L 123.64274 125.012484 
L 124.532204 111.047768 
L 125.421669 119.432832 
L 126.311133 113.946693 
L 127.200598 106.403253 
L 128.090062 106.559109 
L 128.979527 118.87175 
L 129.868991 126.758073 
L 130.758456 92.345024 
L 131.64792 109.83209 
L 132.537385 122.238244 
L 133.426849 125.66708 
L 134.316314 134.95611 
L 135.205778 151.445696 
L 136.095243 157.991657 
L 136.984707 140.379906 
L 137.874172 154.282279 
L 138.763636 161.015267 
L 139.653101 159.33202 
L 140.542565 159.238506 
L 141.43203 180.18558 
L 142.321494 178.003593 
L 143.210959 156.05904 
L 144.100423 150.7911 
L 144.989888 168.496365 
L 145.879352 163.290768 
L 146.768817 161.451664 
L 147.658281 185.983431 
L 148.547746 185.921089 
L 149.43721 164.10122 
L 150.326675 179.188101 
L 151.216139 179.530984 
L 152.105604 172.766825 
L 152.995068 184.923609 
L 153.884533 193.776241 
L 154.773998 193.620385 
L 155.663462 53.568 
L 156.552927 174.138359 
L 157.442391 187.791363 
L 158.331856 195.023091 
L 159.22132 196.114084 
L 160.110785 204.530319 
L 161.000249 207.429245 
L 161.889714 201.03914 
L 162.779178 202.878244 
L 163.668643 203.626353 
L 164.558107 206.369422 
L 165.447572 208.208526 
L 166.337036 217.497555 
L 167.226501 216.562418 
L 168.115965 210.764567 
L 169.00543 212.354301 
L 169.894894 216.281877 
L 170.784359 215.938993 
L 171.673823 211.356821 
L 172.563288 228.719202 
L 173.452752 224.88514 
L 174.342217 218.152152 
L 175.231681 226.693072 
L 176.121146 229.311456 
L 177.01061 228.501003 
L 177.900075 226.131989 
L 178.789539 226.225503 
L 179.679004 231.836326 
L 180.568468 231.68047 
L 181.457933 224.760455 
L 182.347397 223.700632 
L 183.236862 227.65938 
L 184.126326 227.939921 
L 185.015791 236.761382 
L 185.905255 227.721722 
L 186.79472 221.300447 
L 187.684184 222.703153 
L 188.573649 221.736844 
L 189.463113 223.607119 
L 190.352578 223.014865 
L 191.242042 226.848928 
L 192.131507 216.188363 
L 193.020971 214.255746 
L 193.910436 217.591069 
L 194.7999 218.027467 
L 195.689365 219.305487 
L 196.578829 222.921351 
L 197.468294 220.739365 
L 198.357758 217.746925 
L 199.247223 222.609639 
L 200.136687 230.215422 
L 201.026152 231.275244 
L 201.915616 233.581916 
L 202.805081 255.931695 
L 203.694545 257.521429 
L 204.58401 253.562681 
L 205.473474 246.985549 
L 206.362939 232.335066 
L 207.252403 231.742813 
L 208.141868 233.924799 
L 209.031333 235.20282 
L 209.920797 241.063014 
L 210.810262 244.304823 
L 211.699726 235.20282 
L 212.589191 235.608046 
L 213.478655 240.439589 
L 214.36812 240.564274 
L 215.257584 242.341034 
L 216.147049 252.222318 
L 217.036513 241.343555 
L 217.925978 236.730211 
L 218.815442 238.818684 
L 219.704907 245.084104 
L 220.594371 243.276172 
L 221.483836 242.590404 
L 222.3733 251.380694 
L 223.262765 242.341034 
L 224.152229 238.818684 
L 225.041694 239.22391 
L 225.931158 241.530582 
L 226.820623 242.621576 
L 227.710087 246.517981 
L 228.599552 258.05134 
L 229.489016 251.972948 
L 230.378481 247.796002 
L 231.267945 246.860864 
L 233.046874 251.068982 
L 233.936339 251.162496 
L 234.825803 261.230806 
L 235.715268 259.609902 
L 236.604732 251.349523 
L 237.494197 251.006639 
L 238.383661 251.910605 
L 239.273126 250.788441 
L 240.16259 252.315831 
L 241.052055 261.168464 
L 241.941519 254.871873 
L 242.830984 238.569314 
L 243.720448 238.070574 
L 244.609913 240.096705 
L 245.499377 242.933288 
L 246.388842 244.086624 
L 247.278306 256.149894 
L 248.167771 257.521429 
L 249.057235 245.426987 
L 249.9467 243.99311 
L 250.836164 248.918166 
L 251.725629 272.982364 
L 252.615093 264.254417 
L 253.504558 260.420354 
L 254.394022 247.733659 
L 255.283487 250.040331 
L 256.172951 251.567722 
L 257.062416 251.224838 
L 257.95188 253.219797 
L 258.841345 255.962867 
L 259.730809 260.82558 
L 260.620274 268.275507 
L 261.509738 248.325913 
L 262.399203 252.004119 
L 263.288667 256.80449 
L 264.178132 250.913126 
L 265.067597 256.461606 
L 265.957061 269.11713 
L 266.846526 269.522356 
L 267.73599 250.788441 
L 268.625455 253.78088 
L 269.514919 254.217277 
L 270.404384 252.689886 
L 271.293848 254.154935 
L 272.183313 262.945225 
L 273.072777 265.127211 
L 273.962242 248.26357 
L 274.851706 257.490257 
L 275.741171 259.516388 
L 276.630635 257.708456 
L 277.5201 257.459086 
L 278.409564 267.246856 
L 279.299029 270.270466 
L 280.188493 252.658715 
L 281.077958 254.622503 
L 282.856887 257.30323 
L 283.746351 262.446485 
L 284.635816 270.738035 
L 285.52528 270.956233 
L 286.414745 261.854231 
L 287.304209 264.005047 
L 288.193674 265.033698 
L 289.083138 263.973876 
L 289.972603 274.291556 
L 290.862067 280.650489 
L 291.751532 276.193002 
L 292.640996 277.003454 
L 293.530461 270.925062 
L 294.419925 278.842557 
L 295.30939 275.507235 
L 296.198854 276.941112 
L 297.088319 279.808866 
L 297.977783 274.478584 
L 298.867248 274.447412 
L 299.756712 276.442372 
L 300.646177 274.229214 
L 301.535641 275.756605 
L 302.425106 276.90994 
L 303.31457 276.972283 
L 304.204035 278.094448 
L 305.093499 268.431363 
L 305.982964 256.461606 
L 306.872428 250.539071 
L 307.761893 250.25853 
L 308.651357 248.76231 
L 309.540822 249.385735 
L 310.430286 235.171649 
L 311.319751 226.693072 
L 312.209215 242.122836 
L 313.09868 251.256009 
L 313.988144 253.250969 
L 315.767073 259.890443 
L 316.656538 242.465719 
L 317.546002 253.313311 
L 318.435467 242.933288 
L 319.324932 253.157455 
L 320.214396 252.7834 
L 321.103861 256.679805 
L 321.993325 263.911533 
L 322.88279 262.882882 
L 323.772254 256.30575 
L 324.661719 254.03025 
L 325.551183 254.996558 
L 326.440648 258.082511 
L 327.330112 267.122171 
L 328.219577 268.462534 
L 329.109041 264.285588 
L 329.998506 256.025209 
L 330.88797 254.903044 
L 331.777435 251.630064 
L 332.666899 238.475801 
L 333.556364 246.455638 
L 334.445828 258.79945 
L 335.335293 254.466647 
L 336.224757 253.28214 
L 337.114222 254.996558 
L 338.003686 257.459086 
L 338.893151 270.208124 
L 339.782615 269.397671 
L 340.67208 270.893891 
L 341.561544 269.241815 
L 342.451009 267.932623 
L 343.340473 265.251896 
L 344.229938 265.158383 
L 345.119402 259.360532 
L 346.008867 262.664683 
L 346.898331 263.288108 
L 347.787796 262.197115 
L 348.67726 227.004784 
L 349.566725 242.652747 
L 350.456189 250.25853 
L 351.345654 253.687366 
L 352.235118 257.80197 
L 353.124583 265.127211 
L 354.014047 266.124691 
L 354.903512 257.022689 
L 355.792976 258.518908 
L 356.682441 258.176025 
L 358.46137 262.914053 
L 359.350834 265.688294 
L 360.240299 263.599821 
L 361.129763 254.497818 
L 362.019228 256.523949 
L 362.908692 259.547559 
L 363.798157 258.924135 
L 364.687621 261.698375 
L 365.577086 266.374061 
L 366.46655 267.652082 
L 367.356015 261.261978 
L 368.245479 259.142333 
L 369.134944 261.791889 
L 370.024408 262.57117 
L 370.913873 262.57117 
L 371.803337 266.59226 
L 372.692802 264.566129 
L 374.471731 243.151487 
L 375.361196 248.138885 
L 376.25066 245.801042 
L 377.140125 254.778359 
L 378.029589 262.446485 
L 378.919054 251.941777 
L 379.808518 249.229879 
L 380.697983 254.871873 
L 381.587447 255.152414 
L 382.476912 257.646114 
L 383.366376 255.277099 
L 384.255841 262.384142 
L 385.145305 255.339442 
L 386.03477 245.364645 
L 386.924234 245.021761 
L 387.813699 249.042851 
L 388.703163 248.980509 
L 390.482092 261.043779 
L 391.371557 258.113682 
L 392.261021 251.972948 
L 393.150486 254.560161 
L 394.929415 255.245928 
L 395.818879 258.363052 
L 396.708344 264.971355 
L 397.597808 263.163423 
L 398.487273 251.723578 
L 398.487273 251.723578 
" style="fill:none;stroke:#08f7fe;stroke-linecap:round;stroke-width:1.5;"/>
   </g>
   <g id="patch_3">
    <path d="M 57.6 307.584 
L 57.6 41.472 
" style="fill:none;"/>
   </g>
   <g id="patch_4">
    <path d="M 414.72 307.584 
L 414.72 41.472 
" style="fill:none;"/>
   </g>
   <g id="patch_5">
    <path d="M 57.6 307.584 
L 414.72 307.584 
" style="fill:none;"/>
   </g>
   <g id="patch_6">
    <path d="M 57.6 41.472 
L 414.72 41.472 
" style="fill:none;"/>
   </g>
  </g>
 </g>
 <defs>
  <clipPath id="p7210c4d31b">
   <rect height="266.112" width="357.12" x="57.6" y="41.472"/>
  </clipPath>
 </defs>
</svg>
