<?xml version="1.0" encoding="utf-8" standalone="no"?>
<!DOCTYPE svg PUBLIC "-//W3C//DTD SVG 1.1//EN"
  "http://www.w3.org/Graphics/SVG/1.1/DTD/svg11.dtd">
<!-- Created with matplotlib (https://matplotlib.org/) -->
<svg height="345.6pt" version="1.1" viewBox="0 0 460.8 345.6" width="460.8pt" xmlns="http://www.w3.org/2000/svg" xmlns:xlink="http://www.w3.org/1999/xlink">
 <defs>
  <style type="text/css">
*{stroke-linecap:butt;stroke-linejoin:round;}
  </style>
 </defs>
 <g id="figure_1">
  <g id="patch_1">
   <path d="M 0 345.6 
L 460.8 345.6 
L 460.8 0 
L 0 0 
z
" style="fill:#212946;"/>
  </g>
  <g id="axes_1">
   <g id="patch_2">
    <path d="M 57.6 307.584 
L 414.72 307.584 
L 414.72 41.472 
L 57.6 41.472 
z
" style="fill:#212946;"/>
   </g>
   <g id="matplotlib.axis_1">
    <g id="text_1">
     <!-- date -->
     <defs>
      <path d="M 40.234375 0 
L 40.234375 6.546875 
Q 35.296875 -1.171875 25.734375 -1.171875 
Q 19.53125 -1.171875 14.328125 2.25 
Q 9.125 5.671875 6.265625 11.796875 
Q 3.421875 17.921875 3.421875 25.875 
Q 3.421875 33.640625 6 39.96875 
Q 8.59375 46.296875 13.765625 49.65625 
Q 18.953125 53.03125 25.34375 53.03125 
Q 30.03125 53.03125 33.6875 51.046875 
Q 37.359375 49.078125 39.65625 45.90625 
L 39.65625 71.578125 
L 48.390625 71.578125 
L 48.390625 0 
z
M 12.453125 25.875 
Q 12.453125 15.921875 16.640625 10.984375 
Q 20.84375 6.0625 26.5625 6.0625 
Q 32.328125 6.0625 36.34375 10.765625 
Q 40.375 15.484375 40.375 25.140625 
Q 40.375 35.796875 36.265625 40.765625 
Q 32.171875 45.75 26.171875 45.75 
Q 20.3125 45.75 16.375 40.96875 
Q 12.453125 36.1875 12.453125 25.875 
z
" id="ArialMT-100"/>
      <path d="M 40.4375 6.390625 
Q 35.546875 2.25 31.03125 0.53125 
Q 26.515625 -1.171875 21.34375 -1.171875 
Q 12.796875 -1.171875 8.203125 3 
Q 3.609375 7.171875 3.609375 13.671875 
Q 3.609375 17.484375 5.34375 20.625 
Q 7.078125 23.78125 9.890625 25.6875 
Q 12.703125 27.59375 16.21875 28.5625 
Q 18.796875 29.25 24.03125 29.890625 
Q 34.671875 31.15625 39.703125 32.90625 
Q 39.75 34.71875 39.75 35.203125 
Q 39.75 40.578125 37.25 42.78125 
Q 33.890625 45.75 27.25 45.75 
Q 21.046875 45.75 18.09375 43.578125 
Q 15.140625 41.40625 13.71875 35.890625 
L 5.125 37.0625 
Q 6.296875 42.578125 8.984375 45.96875 
Q 11.671875 49.359375 16.75 51.1875 
Q 21.828125 53.03125 28.515625 53.03125 
Q 35.15625 53.03125 39.296875 51.46875 
Q 43.453125 49.90625 45.40625 47.53125 
Q 47.359375 45.171875 48.140625 41.546875 
Q 48.578125 39.3125 48.578125 33.453125 
L 48.578125 21.734375 
Q 48.578125 9.46875 49.140625 6.21875 
Q 49.703125 2.984375 51.375 0 
L 42.1875 0 
Q 40.828125 2.734375 40.4375 6.390625 
z
M 39.703125 26.03125 
Q 34.90625 24.078125 25.34375 22.703125 
Q 19.921875 21.921875 17.671875 20.9375 
Q 15.4375 19.96875 14.203125 18.09375 
Q 12.984375 16.21875 12.984375 13.921875 
Q 12.984375 10.40625 15.640625 8.0625 
Q 18.3125 5.71875 23.4375 5.71875 
Q 28.515625 5.71875 32.46875 7.9375 
Q 36.421875 10.15625 38.28125 14.015625 
Q 39.703125 17 39.703125 22.796875 
z
" id="ArialMT-97"/>
      <path d="M 25.78125 7.859375 
L 27.046875 0.09375 
Q 23.34375 -0.6875 20.40625 -0.6875 
Q 15.625 -0.6875 12.984375 0.828125 
Q 10.359375 2.34375 9.28125 4.8125 
Q 8.203125 7.28125 8.203125 15.1875 
L 8.203125 45.015625 
L 1.765625 45.015625 
L 1.765625 51.859375 
L 8.203125 51.859375 
L 8.203125 64.703125 
L 16.9375 69.96875 
L 16.9375 51.859375 
L 25.78125 51.859375 
L 25.78125 45.015625 
L 16.9375 45.015625 
L 16.9375 14.703125 
Q 16.9375 10.9375 17.40625 9.859375 
Q 17.875 8.796875 18.921875 8.15625 
Q 19.96875 7.515625 21.921875 7.515625 
Q 23.390625 7.515625 25.78125 7.859375 
z
" id="ArialMT-116"/>
      <path d="M 42.09375 16.703125 
L 51.171875 15.578125 
Q 49.03125 7.625 43.21875 3.21875 
Q 37.40625 -1.171875 28.375 -1.171875 
Q 17 -1.171875 10.328125 5.828125 
Q 3.65625 12.84375 3.65625 25.484375 
Q 3.65625 38.578125 10.390625 45.796875 
Q 17.140625 53.03125 27.875 53.03125 
Q 38.28125 53.03125 44.875 45.953125 
Q 51.46875 38.875 51.46875 26.03125 
Q 51.46875 25.25 51.421875 23.6875 
L 12.75 23.6875 
Q 13.234375 15.140625 17.578125 10.59375 
Q 21.921875 6.0625 28.421875 6.0625 
Q 33.25 6.0625 36.671875 8.59375 
Q 40.09375 11.140625 42.09375 16.703125 
z
M 13.234375 30.90625 
L 42.1875 30.90625 
Q 41.609375 37.453125 38.875 40.71875 
Q 34.671875 45.796875 27.984375 45.796875 
Q 21.921875 45.796875 17.796875 41.75 
Q 13.671875 37.703125 13.234375 30.90625 
z
" id="ArialMT-101"/>
     </defs>
     <g style="fill:#e6e6e6;" transform="translate(226.429531 318.741812)scale(0.1 -0.1)">
      <use xlink:href="#ArialMT-100"/>
      <use x="55.615234" xlink:href="#ArialMT-97"/>
      <use x="111.230469" xlink:href="#ArialMT-116"/>
      <use x="139.013672" xlink:href="#ArialMT-101"/>
     </g>
    </g>
   </g>
   <g id="matplotlib.axis_2">
    <g id="ytick_1">
     <g id="line2d_1">
      <path clip-path="url(#p7fa9db06f9)" d="M 57.6 295.50808 
L 414.72 295.50808 
" style="fill:none;stroke:#2a3459;stroke-linecap:round;stroke-width:0.8;"/>
     </g>
     <g id="line2d_2"/>
     <g id="text_2">
      <!-- 0.0 -->
      <defs>
       <path d="M 4.15625 35.296875 
Q 4.15625 48 6.765625 55.734375 
Q 9.375 63.484375 14.515625 67.671875 
Q 19.671875 71.875 27.484375 71.875 
Q 33.25 71.875 37.59375 69.546875 
Q 41.9375 67.234375 44.765625 62.859375 
Q 47.609375 58.5 49.21875 52.21875 
Q 50.828125 45.953125 50.828125 35.296875 
Q 50.828125 22.703125 48.234375 14.96875 
Q 45.65625 7.234375 40.5 3 
Q 35.359375 -1.21875 27.484375 -1.21875 
Q 17.140625 -1.21875 11.234375 6.203125 
Q 4.15625 15.140625 4.15625 35.296875 
z
M 13.1875 35.296875 
Q 13.1875 17.671875 17.3125 11.828125 
Q 21.4375 6 27.484375 6 
Q 33.546875 6 37.671875 11.859375 
Q 41.796875 17.71875 41.796875 35.296875 
Q 41.796875 52.984375 37.671875 58.78125 
Q 33.546875 64.59375 27.390625 64.59375 
Q 21.34375 64.59375 17.71875 59.46875 
Q 13.1875 52.9375 13.1875 35.296875 
z
" id="ArialMT-48"/>
       <path d="M 9.078125 0 
L 9.078125 10.015625 
L 19.09375 10.015625 
L 19.09375 0 
z
" id="ArialMT-46"/>
      </defs>
      <g style="fill:#e6e6e6;" transform="translate(40.2 299.086986)scale(0.1 -0.1)">
       <use xlink:href="#ArialMT-48"/>
       <use x="55.615234" xlink:href="#ArialMT-46"/>
       <use x="83.398438" xlink:href="#ArialMT-48"/>
      </g>
     </g>
    </g>
    <g id="ytick_2">
     <g id="line2d_3">
      <path clip-path="url(#p7fa9db06f9)" d="M 57.6 255.34905 
L 414.72 255.34905 
" style="fill:none;stroke:#2a3459;stroke-linecap:round;stroke-width:0.8;"/>
     </g>
     <g id="line2d_4"/>
     <g id="text_3">
      <!-- 0.2 -->
      <defs>
       <path d="M 50.34375 8.453125 
L 50.34375 0 
L 3.03125 0 
Q 2.9375 3.171875 4.046875 6.109375 
Q 5.859375 10.9375 9.828125 15.625 
Q 13.8125 20.3125 21.34375 26.46875 
Q 33.015625 36.03125 37.109375 41.625 
Q 41.21875 47.21875 41.21875 52.203125 
Q 41.21875 57.421875 37.46875 61 
Q 33.734375 64.59375 27.734375 64.59375 
Q 21.390625 64.59375 17.578125 60.78125 
Q 13.765625 56.984375 13.71875 50.25 
L 4.6875 51.171875 
Q 5.609375 61.28125 11.65625 66.578125 
Q 17.71875 71.875 27.9375 71.875 
Q 38.234375 71.875 44.234375 66.15625 
Q 50.25 60.453125 50.25 52 
Q 50.25 47.703125 48.484375 43.546875 
Q 46.734375 39.40625 42.65625 34.8125 
Q 38.578125 30.21875 29.109375 22.21875 
Q 21.1875 15.578125 18.9375 13.203125 
Q 16.703125 10.84375 15.234375 8.453125 
z
" id="ArialMT-50"/>
      </defs>
      <g style="fill:#e6e6e6;" transform="translate(40.2 258.927957)scale(0.1 -0.1)">
       <use xlink:href="#ArialMT-48"/>
       <use x="55.615234" xlink:href="#ArialMT-46"/>
       <use x="83.398438" xlink:href="#ArialMT-50"/>
      </g>
     </g>
    </g>
    <g id="ytick_3">
     <g id="line2d_5">
      <path clip-path="url(#p7fa9db06f9)" d="M 57.6 215.190021 
L 414.72 215.190021 
" style="fill:none;stroke:#2a3459;stroke-linecap:round;stroke-width:0.8;"/>
     </g>
     <g id="line2d_6"/>
     <g id="text_4">
      <!-- 0.4 -->
      <defs>
       <path d="M 32.328125 0 
L 32.328125 17.140625 
L 1.265625 17.140625 
L 1.265625 25.203125 
L 33.9375 71.578125 
L 41.109375 71.578125 
L 41.109375 25.203125 
L 50.78125 25.203125 
L 50.78125 17.140625 
L 41.109375 17.140625 
L 41.109375 0 
z
M 32.328125 25.203125 
L 32.328125 57.46875 
L 9.90625 25.203125 
z
" id="ArialMT-52"/>
      </defs>
      <g style="fill:#e6e6e6;" transform="translate(40.2 218.768927)scale(0.1 -0.1)">
       <use xlink:href="#ArialMT-48"/>
       <use x="55.615234" xlink:href="#ArialMT-46"/>
       <use x="83.398438" xlink:href="#ArialMT-52"/>
      </g>
     </g>
    </g>
    <g id="ytick_4">
     <g id="line2d_7">
      <path clip-path="url(#p7fa9db06f9)" d="M 57.6 175.030992 
L 414.72 175.030992 
" style="fill:none;stroke:#2a3459;stroke-linecap:round;stroke-width:0.8;"/>
     </g>
     <g id="line2d_8"/>
     <g id="text_5">
      <!-- 0.6 -->
      <defs>
       <path d="M 49.75 54.046875 
L 41.015625 53.375 
Q 39.84375 58.546875 37.703125 60.890625 
Q 34.125 64.65625 28.90625 64.65625 
Q 24.703125 64.65625 21.53125 62.3125 
Q 17.390625 59.28125 14.984375 53.46875 
Q 12.59375 47.65625 12.5 36.921875 
Q 15.671875 41.75 20.265625 44.09375 
Q 24.859375 46.4375 29.890625 46.4375 
Q 38.671875 46.4375 44.84375 39.96875 
Q 51.03125 33.5 51.03125 23.25 
Q 51.03125 16.5 48.125 10.71875 
Q 45.21875 4.9375 40.140625 1.859375 
Q 35.0625 -1.21875 28.609375 -1.21875 
Q 17.625 -1.21875 10.6875 6.859375 
Q 3.765625 14.9375 3.765625 33.5 
Q 3.765625 54.25 11.421875 63.671875 
Q 18.109375 71.875 29.4375 71.875 
Q 37.890625 71.875 43.28125 67.140625 
Q 48.6875 62.40625 49.75 54.046875 
z
M 13.875 23.1875 
Q 13.875 18.65625 15.796875 14.5 
Q 17.71875 10.359375 21.1875 8.171875 
Q 24.65625 6 28.46875 6 
Q 34.03125 6 38.03125 10.484375 
Q 42.046875 14.984375 42.046875 22.703125 
Q 42.046875 30.125 38.078125 34.390625 
Q 34.125 38.671875 28.125 38.671875 
Q 22.171875 38.671875 18.015625 34.390625 
Q 13.875 30.125 13.875 23.1875 
z
" id="ArialMT-54"/>
      </defs>
      <g style="fill:#e6e6e6;" transform="translate(40.2 178.609898)scale(0.1 -0.1)">
       <use xlink:href="#ArialMT-48"/>
       <use x="55.615234" xlink:href="#ArialMT-46"/>
       <use x="83.398438" xlink:href="#ArialMT-54"/>
      </g>
     </g>
    </g>
    <g id="ytick_5">
     <g id="line2d_9">
      <path clip-path="url(#p7fa9db06f9)" d="M 57.6 134.871963 
L 414.72 134.871963 
" style="fill:none;stroke:#2a3459;stroke-linecap:round;stroke-width:0.8;"/>
     </g>
     <g id="line2d_10"/>
     <g id="text_6">
      <!-- 0.8 -->
      <defs>
       <path d="M 17.671875 38.8125 
Q 12.203125 40.828125 9.5625 44.53125 
Q 6.9375 48.25 6.9375 53.421875 
Q 6.9375 61.234375 12.546875 66.546875 
Q 18.171875 71.875 27.484375 71.875 
Q 36.859375 71.875 42.578125 66.421875 
Q 48.296875 60.984375 48.296875 53.171875 
Q 48.296875 48.1875 45.671875 44.5 
Q 43.0625 40.828125 37.75 38.8125 
Q 44.34375 36.671875 47.78125 31.875 
Q 51.21875 27.09375 51.21875 20.453125 
Q 51.21875 11.28125 44.71875 5.03125 
Q 38.234375 -1.21875 27.640625 -1.21875 
Q 17.046875 -1.21875 10.546875 5.046875 
Q 4.046875 11.328125 4.046875 20.703125 
Q 4.046875 27.6875 7.59375 32.390625 
Q 11.140625 37.109375 17.671875 38.8125 
z
M 15.921875 53.71875 
Q 15.921875 48.640625 19.1875 45.40625 
Q 22.46875 42.1875 27.6875 42.1875 
Q 32.765625 42.1875 36.015625 45.375 
Q 39.265625 48.578125 39.265625 53.21875 
Q 39.265625 58.0625 35.90625 61.359375 
Q 32.5625 64.65625 27.59375 64.65625 
Q 22.5625 64.65625 19.234375 61.421875 
Q 15.921875 58.203125 15.921875 53.71875 
z
M 13.09375 20.65625 
Q 13.09375 16.890625 14.875 13.375 
Q 16.65625 9.859375 20.171875 7.921875 
Q 23.6875 6 27.734375 6 
Q 34.03125 6 38.125 10.046875 
Q 42.234375 14.109375 42.234375 20.359375 
Q 42.234375 26.703125 38.015625 30.859375 
Q 33.796875 35.015625 27.4375 35.015625 
Q 21.234375 35.015625 17.15625 30.90625 
Q 13.09375 26.8125 13.09375 20.65625 
z
" id="ArialMT-56"/>
      </defs>
      <g style="fill:#e6e6e6;" transform="translate(40.2 138.450869)scale(0.1 -0.1)">
       <use xlink:href="#ArialMT-48"/>
       <use x="55.615234" xlink:href="#ArialMT-46"/>
       <use x="83.398438" xlink:href="#ArialMT-56"/>
      </g>
     </g>
    </g>
    <g id="ytick_6">
     <g id="line2d_11">
      <path clip-path="url(#p7fa9db06f9)" d="M 57.6 94.712933 
L 414.72 94.712933 
" style="fill:none;stroke:#2a3459;stroke-linecap:round;stroke-width:0.8;"/>
     </g>
     <g id="line2d_12"/>
     <g id="text_7">
      <!-- 1.0 -->
      <defs>
       <path d="M 37.25 0 
L 28.46875 0 
L 28.46875 56 
Q 25.296875 52.984375 20.140625 49.953125 
Q 14.984375 46.921875 10.890625 45.40625 
L 10.890625 53.90625 
Q 18.265625 57.375 23.78125 62.296875 
Q 29.296875 67.234375 31.59375 71.875 
L 37.25 71.875 
z
" id="ArialMT-49"/>
      </defs>
      <g style="fill:#e6e6e6;" transform="translate(40.2 98.29184)scale(0.1 -0.1)">
       <use xlink:href="#ArialMT-49"/>
       <use x="55.615234" xlink:href="#ArialMT-46"/>
       <use x="83.398438" xlink:href="#ArialMT-48"/>
      </g>
     </g>
    </g>
    <g id="ytick_7">
     <g id="line2d_13">
      <path clip-path="url(#p7fa9db06f9)" d="M 57.6 54.553904 
L 414.72 54.553904 
" style="fill:none;stroke:#2a3459;stroke-linecap:round;stroke-width:0.8;"/>
     </g>
     <g id="line2d_14"/>
     <g id="text_8">
      <!-- 1.2 -->
      <g style="fill:#e6e6e6;" transform="translate(40.2 58.13281)scale(0.1 -0.1)">
       <use xlink:href="#ArialMT-49"/>
       <use x="55.615234" xlink:href="#ArialMT-46"/>
       <use x="83.398438" xlink:href="#ArialMT-50"/>
      </g>
     </g>
    </g>
    <g id="text_9">
     <!-- index -->
     <defs>
      <path d="M 6.640625 61.46875 
L 6.640625 71.578125 
L 15.4375 71.578125 
L 15.4375 61.46875 
z
M 6.640625 0 
L 6.640625 51.859375 
L 15.4375 51.859375 
L 15.4375 0 
z
" id="ArialMT-105"/>
      <path d="M 6.59375 0 
L 6.59375 51.859375 
L 14.5 51.859375 
L 14.5 44.484375 
Q 20.21875 53.03125 31 53.03125 
Q 35.6875 53.03125 39.625 51.34375 
Q 43.5625 49.65625 45.515625 46.921875 
Q 47.46875 44.1875 48.25 40.4375 
Q 48.734375 37.984375 48.734375 31.890625 
L 48.734375 0 
L 39.9375 0 
L 39.9375 31.546875 
Q 39.9375 36.921875 38.90625 39.578125 
Q 37.890625 42.234375 35.28125 43.8125 
Q 32.671875 45.40625 29.15625 45.40625 
Q 23.53125 45.40625 19.453125 41.84375 
Q 15.375 38.28125 15.375 28.328125 
L 15.375 0 
z
" id="ArialMT-110"/>
      <path d="M 0.734375 0 
L 19.671875 26.953125 
L 2.15625 51.859375 
L 13.140625 51.859375 
L 21.09375 39.703125 
Q 23.34375 36.234375 24.703125 33.890625 
Q 26.859375 37.109375 28.65625 39.59375 
L 37.40625 51.859375 
L 47.90625 51.859375 
L 29.984375 27.4375 
L 49.265625 0 
L 38.484375 0 
L 27.828125 16.109375 
L 25 20.453125 
L 11.375 0 
z
" id="ArialMT-120"/>
     </defs>
     <g style="fill:#e6e6e6;" transform="translate(34.2125 186.480344)rotate(-90)scale(0.1 -0.1)">
      <use xlink:href="#ArialMT-105"/>
      <use x="22.216797" xlink:href="#ArialMT-110"/>
      <use x="77.832031" xlink:href="#ArialMT-100"/>
      <use x="133.447266" xlink:href="#ArialMT-101"/>
      <use x="189.0625" xlink:href="#ArialMT-120"/>
     </g>
    </g>
    <g id="text_10">
     <!-- 1e6 -->
     <g style="fill:#e6e6e6;" transform="translate(57.6 38.472)scale(0.1 -0.1)">
      <use xlink:href="#ArialMT-49"/>
      <use x="55.615234" xlink:href="#ArialMT-101"/>
      <use x="111.230469" xlink:href="#ArialMT-54"/>
     </g>
    </g>
   </g>
   <g id="line2d_15">
    <path clip-path="url(#p7fa9db06f9)" d="M 73.832727 295.476354 
L 80.058979 295.4627 
L 110.300772 295.446235 
L 111.190237 295.35909 
L 112.079701 294.397482 
L 112.969166 290.560286 
L 113.85863 282.889109 
L 115.637559 246.082154 
L 116.527024 198.984046 
L 117.416488 168.565187 
L 118.305953 161.53555 
L 119.195417 131.479529 
L 120.084882 126.092797 
L 120.974346 124.185043 
L 121.863811 111.786143 
L 122.753275 118.602335 
L 123.64274 119.754297 
L 124.532204 119.572979 
L 125.421669 123.268011 
L 126.311133 119.431017 
L 127.200598 117.39897 
L 128.090062 113.721808 
L 128.979527 120.600648 
L 129.868991 123.286484 
L 130.758456 123.111391 
L 131.64792 125.911479 
L 132.537385 124.355718 
L 133.426849 53.568 
L 134.316314 104.44186 
L 135.205778 138.829434 
L 136.095243 146.05826 
L 136.984707 144.633819 
L 137.874172 156.185163 
L 138.763636 159.073199 
L 139.653101 138.733856 
L 140.542565 132.419451 
L 141.43203 155.206487 
L 142.321494 157.905575 
L 143.210959 139.577998 
L 144.100423 159.160947 
L 144.989888 155.403266 
L 145.879352 157.688516 
L 146.768817 152.801363 
L 147.658281 160.528562 
L 148.547746 157.8108 
L 149.43721 151.892162 
L 150.326675 159.07842 
L 151.216139 152.790118 
L 152.105604 165.340417 
L 152.995068 167.212832 
L 153.884533 183.437682 
L 154.773998 187.372865 
L 155.663462 170.386399 
L 157.442391 178.699519 
L 158.331856 177.614021 
L 159.22132 172.490732 
L 160.110785 185.49784 
L 161.000249 184.983805 
L 161.889714 170.575548 
L 162.779178 177.350176 
L 163.668643 178.588279 
L 164.558107 177.713816 
L 165.447572 168.971195 
L 166.337036 171.079544 
L 167.226501 176.777508 
L 168.115965 174.722972 
L 169.00543 177.058822 
L 169.894894 187.100989 
L 170.784359 186.95481 
L 171.673823 178.676829 
L 172.563288 185.240622 
L 173.452752 183.618799 
L 174.342217 175.217129 
L 175.231681 186.82349 
L 176.121146 182.466235 
L 177.01061 186.819273 
L 177.900075 187.50017 
L 178.789539 163.037699 
L 179.679004 200.4119 
L 180.568468 197.462219 
L 181.457933 196.207651 
L 182.347397 195.969307 
L 183.236862 202.19215 
L 184.126326 206.951597 
L 185.015791 215.43218 
L 185.905255 216.928305 
L 186.79472 209.834614 
L 187.684184 208.390093 
L 188.573649 215.064725 
L 189.463113 216.580126 
L 190.352578 213.027658 
L 191.242042 219.805297 
L 192.131507 219.094683 
L 193.020971 215.393226 
L 193.910436 219.888025 
L 195.689365 226.541171 
L 196.578829 227.136127 
L 197.468294 230.897422 
L 198.357758 225.987981 
L 199.247223 225.910675 
L 200.136687 228.911759 
L 201.915616 240.128778 
L 202.805081 247.873648 
L 203.694545 247.55599 
L 204.58401 246.574102 
L 205.473474 244.591852 
L 206.362939 246.62932 
L 207.252403 244.157934 
L 209.031333 245.683174 
L 209.920797 246.764656 
L 210.810262 240.201064 
L 211.699726 227.498964 
L 212.589191 235.897824 
L 213.478655 238.614783 
L 214.36812 240.224758 
L 215.257584 241.142191 
L 216.147049 244.230822 
L 217.036513 244.193073 
L 217.925978 244.754697 
L 218.815442 246.50041 
L 219.704907 250.269535 
L 220.594371 250.760881 
L 221.483836 252.781483 
L 222.3733 256.166287 
L 223.262765 253.292105 
L 224.152229 252.044364 
L 225.041694 255.322746 
L 225.931158 257.380093 
L 226.820623 257.837906 
L 227.710087 260.259295 
L 228.599552 262.13191 
L 229.489016 260.806462 
L 230.378481 259.692651 
L 231.267945 261.483342 
L 232.15741 264.520569 
L 233.046874 266.015088 
L 233.936339 266.459247 
L 234.825803 268.779033 
L 235.715268 264.979185 
L 236.604732 263.360777 
L 237.494197 263.981836 
L 238.383661 267.550367 
L 239.273126 265.241424 
L 240.16259 261.006654 
L 241.052055 240.231786 
L 241.941519 223.446115 
L 242.830984 203.834252 
L 243.720448 200.593017 
L 244.609913 197.938907 
L 245.499377 213.901318 
L 246.388842 227.571853 
L 247.278306 239.203313 
L 248.167771 240.898024 
L 249.057235 239.380816 
L 249.9467 245.814895 
L 251.725629 261.508441 
L 252.615093 259.648677 
L 253.504558 258.721003 
L 254.394022 253.590085 
L 255.283487 254.400092 
L 256.172951 257.111228 
L 257.062416 260.202068 
L 257.95188 258.434669 
L 258.841345 259.825577 
L 259.730809 260.812084 
L 260.620274 261.392583 
L 261.509738 257.200582 
L 262.399203 262.2809 
L 264.178132 262.585105 
L 265.067597 263.477238 
L 265.957061 267.566431 
L 266.846526 269.072595 
L 267.73599 261.093197 
L 268.625455 264.000108 
L 269.514919 264.588237 
L 270.404384 260.960271 
L 271.293848 252.973644 
L 272.183313 255.720521 
L 273.072777 261.091591 
L 273.962242 254.363749 
L 274.851706 260.529565 
L 275.741171 260.562696 
L 276.630635 255.051271 
L 277.5201 253.450331 
L 278.409564 258.779234 
L 279.299029 258.036091 
L 280.188493 247.015249 
L 281.077958 242.533902 
L 281.967422 244.409932 
L 282.856887 248.753331 
L 284.635816 259.919148 
L 285.52528 261.708032 
L 286.414745 256.188374 
L 287.304209 261.923284 
L 288.193674 262.260018 
L 289.083138 264.919148 
L 289.972603 263.59149 
L 290.862067 270.541412 
L 291.751532 270.925533 
L 292.640996 264.202711 
L 293.530461 266.724095 
L 294.419925 267.741725 
L 295.30939 267.938103 
L 296.198854 266.552014 
L 297.977783 270.853046 
L 298.867248 265.589201 
L 299.756712 268.460773 
L 300.646177 269.921959 
L 301.535641 271.132553 
L 302.425106 272.832484 
L 303.31457 275.521734 
L 304.204035 275.65707 
L 305.093499 272.06123 
L 305.982964 274.634219 
L 306.872428 274.002518 
L 308.651357 275.22014 
L 309.540822 278.235079 
L 310.430286 278.657351 
L 311.319751 274.272386 
L 312.209215 272.923645 
L 313.09868 275.566511 
L 313.988144 275.92734 
L 314.877609 275.923324 
L 315.767073 278.013602 
L 316.656538 278.790679 
L 317.546002 274.992438 
L 318.435467 274.364752 
L 319.324932 277.106008 
L 320.214396 276.135364 
L 321.103861 277.041753 
L 321.993325 279.635625 
L 322.88279 278.18247 
L 324.661719 267.372664 
L 325.551183 272.940914 
L 326.440648 276.17472 
L 327.330112 276.326722 
L 328.219577 278.666587 
L 329.109041 278.877222 
L 329.998506 273.365596 
L 330.88797 275.335195 
L 332.666899 274.339251 
L 333.556364 268.984848 
L 334.445828 274.555508 
L 335.335293 271.22793 
L 336.224757 271.675904 
L 337.114222 273.232268 
L 338.003686 275.468724 
L 338.893151 280.77594 
L 339.782615 275.263712 
L 340.67208 278.871198 
L 341.561544 278.427842 
L 342.451009 277.684498 
L 343.340473 277.58651 
L 344.229938 277.623457 
L 345.119402 276.1193 
L 346.008867 275.333187 
L 346.898331 278.12424 
L 347.787796 274.382221 
L 348.67726 245.558881 
L 349.566725 252.864411 
L 350.456189 262.0789 
L 351.345654 265.253873 
L 352.235118 264.549885 
L 353.124583 271.894169 
L 354.014047 274.871358 
L 354.903512 272.638516 
L 355.792976 274.739034 
L 356.682441 277.125485 
L 357.571905 278.874812 
L 358.46137 280.09404 
L 359.350834 277.657993 
L 360.240299 270.21271 
L 361.129763 259.691848 
L 362.019228 267.32387 
L 362.908692 270.282587 
L 363.798157 266.73534 
L 364.687621 270.289213 
L 366.46655 275.755861 
L 367.356015 272.750761 
L 368.245479 273.236083 
L 369.134944 274.814132 
L 370.024408 274.769957 
L 370.913873 276.084362 
L 371.803337 278.805538 
L 372.692802 276.528119 
L 373.582267 270.400654 
L 374.471731 263.154962 
L 375.361196 266.526312 
L 376.25066 265.804454 
L 377.140125 268.572214 
L 378.029589 272.181507 
L 378.919054 273.410373 
L 379.808518 269.779394 
L 380.697983 272.147171 
L 381.587447 272.939307 
L 382.476912 272.556994 
L 384.255841 260.001474 
L 385.145305 259.76072 
L 386.03477 254.295277 
L 386.924234 261.983924 
L 387.813699 265.124561 
L 388.703163 263.530047 
L 389.592628 264.658315 
L 390.482092 270.297245 
L 391.371557 270.165925 
L 392.261021 266.262066 
L 393.150486 269.98802 
L 394.03995 270.885575 
L 394.929415 270.838789 
L 395.818879 273.769395 
L 396.708344 276.316883 
L 397.597808 275.245038 
L 398.487273 267.007819 
L 398.487273 267.007819 
" style="fill:none;stroke:#08f7fe;stroke-linecap:round;stroke-width:1.5;"/>
   </g>
   <g id="patch_3">
    <path d="M 57.6 307.584 
L 57.6 41.472 
" style="fill:none;"/>
   </g>
   <g id="patch_4">
    <path d="M 414.72 307.584 
L 414.72 41.472 
" style="fill:none;"/>
   </g>
   <g id="patch_5">
    <path d="M 57.6 307.584 
L 414.72 307.584 
" style="fill:none;"/>
   </g>
   <g id="patch_6">
    <path d="M 57.6 41.472 
L 414.72 41.472 
" style="fill:none;"/>
   </g>
  </g>
 </g>
 <defs>
  <clipPath id="p7fa9db06f9">
   <rect height="266.112" width="357.12" x="57.6" y="41.472"/>
  </clipPath>
 </defs>
</svg>
