<?xml version="1.0" encoding="utf-8" standalone="no"?>
<!DOCTYPE svg PUBLIC "-//W3C//DTD SVG 1.1//EN"
  "http://www.w3.org/Graphics/SVG/1.1/DTD/svg11.dtd">
<!-- Created with matplotlib (https://matplotlib.org/) -->
<svg height="345.6pt" version="1.1" viewBox="0 0 460.8 345.6" width="460.8pt" xmlns="http://www.w3.org/2000/svg" xmlns:xlink="http://www.w3.org/1999/xlink">
 <defs>
  <style type="text/css">
*{stroke-linecap:butt;stroke-linejoin:round;}
  </style>
 </defs>
 <g id="figure_1">
  <g id="patch_1">
   <path d="M 0 345.6 
L 460.8 345.6 
L 460.8 0 
L 0 0 
z
" style="fill:#212946;"/>
  </g>
  <g id="axes_1">
   <g id="patch_2">
    <path d="M 57.6 307.584 
L 414.72 307.584 
L 414.72 41.472 
L 57.6 41.472 
z
" style="fill:#212946;"/>
   </g>
   <g id="matplotlib.axis_1">
    <g id="text_1">
     <!-- date -->
     <defs>
      <path d="M 40.234375 0 
L 40.234375 6.546875 
Q 35.296875 -1.171875 25.734375 -1.171875 
Q 19.53125 -1.171875 14.328125 2.25 
Q 9.125 5.671875 6.265625 11.796875 
Q 3.421875 17.921875 3.421875 25.875 
Q 3.421875 33.640625 6 39.96875 
Q 8.59375 46.296875 13.765625 49.65625 
Q 18.953125 53.03125 25.34375 53.03125 
Q 30.03125 53.03125 33.6875 51.046875 
Q 37.359375 49.078125 39.65625 45.90625 
L 39.65625 71.578125 
L 48.390625 71.578125 
L 48.390625 0 
z
M 12.453125 25.875 
Q 12.453125 15.921875 16.640625 10.984375 
Q 20.84375 6.0625 26.5625 6.0625 
Q 32.328125 6.0625 36.34375 10.765625 
Q 40.375 15.484375 40.375 25.140625 
Q 40.375 35.796875 36.265625 40.765625 
Q 32.171875 45.75 26.171875 45.75 
Q 20.3125 45.75 16.375 40.96875 
Q 12.453125 36.1875 12.453125 25.875 
z
" id="ArialMT-100"/>
      <path d="M 40.4375 6.390625 
Q 35.546875 2.25 31.03125 0.53125 
Q 26.515625 -1.171875 21.34375 -1.171875 
Q 12.796875 -1.171875 8.203125 3 
Q 3.609375 7.171875 3.609375 13.671875 
Q 3.609375 17.484375 5.34375 20.625 
Q 7.078125 23.78125 9.890625 25.6875 
Q 12.703125 27.59375 16.21875 28.5625 
Q 18.796875 29.25 24.03125 29.890625 
Q 34.671875 31.15625 39.703125 32.90625 
Q 39.75 34.71875 39.75 35.203125 
Q 39.75 40.578125 37.25 42.78125 
Q 33.890625 45.75 27.25 45.75 
Q 21.046875 45.75 18.09375 43.578125 
Q 15.140625 41.40625 13.71875 35.890625 
L 5.125 37.0625 
Q 6.296875 42.578125 8.984375 45.96875 
Q 11.671875 49.359375 16.75 51.1875 
Q 21.828125 53.03125 28.515625 53.03125 
Q 35.15625 53.03125 39.296875 51.46875 
Q 43.453125 49.90625 45.40625 47.53125 
Q 47.359375 45.171875 48.140625 41.546875 
Q 48.578125 39.3125 48.578125 33.453125 
L 48.578125 21.734375 
Q 48.578125 9.46875 49.140625 6.21875 
Q 49.703125 2.984375 51.375 0 
L 42.1875 0 
Q 40.828125 2.734375 40.4375 6.390625 
z
M 39.703125 26.03125 
Q 34.90625 24.078125 25.34375 22.703125 
Q 19.921875 21.921875 17.671875 20.9375 
Q 15.4375 19.96875 14.203125 18.09375 
Q 12.984375 16.21875 12.984375 13.921875 
Q 12.984375 10.40625 15.640625 8.0625 
Q 18.3125 5.71875 23.4375 5.71875 
Q 28.515625 5.71875 32.46875 7.9375 
Q 36.421875 10.15625 38.28125 14.015625 
Q 39.703125 17 39.703125 22.796875 
z
" id="ArialMT-97"/>
      <path d="M 25.78125 7.859375 
L 27.046875 0.09375 
Q 23.34375 -0.6875 20.40625 -0.6875 
Q 15.625 -0.6875 12.984375 0.828125 
Q 10.359375 2.34375 9.28125 4.8125 
Q 8.203125 7.28125 8.203125 15.1875 
L 8.203125 45.015625 
L 1.765625 45.015625 
L 1.765625 51.859375 
L 8.203125 51.859375 
L 8.203125 64.703125 
L 16.9375 69.96875 
L 16.9375 51.859375 
L 25.78125 51.859375 
L 25.78125 45.015625 
L 16.9375 45.015625 
L 16.9375 14.703125 
Q 16.9375 10.9375 17.40625 9.859375 
Q 17.875 8.796875 18.921875 8.15625 
Q 19.96875 7.515625 21.921875 7.515625 
Q 23.390625 7.515625 25.78125 7.859375 
z
" id="ArialMT-116"/>
      <path d="M 42.09375 16.703125 
L 51.171875 15.578125 
Q 49.03125 7.625 43.21875 3.21875 
Q 37.40625 -1.171875 28.375 -1.171875 
Q 17 -1.171875 10.328125 5.828125 
Q 3.65625 12.84375 3.65625 25.484375 
Q 3.65625 38.578125 10.390625 45.796875 
Q 17.140625 53.03125 27.875 53.03125 
Q 38.28125 53.03125 44.875 45.953125 
Q 51.46875 38.875 51.46875 26.03125 
Q 51.46875 25.25 51.421875 23.6875 
L 12.75 23.6875 
Q 13.234375 15.140625 17.578125 10.59375 
Q 21.921875 6.0625 28.421875 6.0625 
Q 33.25 6.0625 36.671875 8.59375 
Q 40.09375 11.140625 42.09375 16.703125 
z
M 13.234375 30.90625 
L 42.1875 30.90625 
Q 41.609375 37.453125 38.875 40.71875 
Q 34.671875 45.796875 27.984375 45.796875 
Q 21.921875 45.796875 17.796875 41.75 
Q 13.671875 37.703125 13.234375 30.90625 
z
" id="ArialMT-101"/>
     </defs>
     <g style="fill:#e6e6e6;" transform="translate(226.429531 318.741812)scale(0.1 -0.1)">
      <use xlink:href="#ArialMT-100"/>
      <use x="55.615234" xlink:href="#ArialMT-97"/>
      <use x="111.230469" xlink:href="#ArialMT-116"/>
      <use x="139.013672" xlink:href="#ArialMT-101"/>
     </g>
    </g>
   </g>
   <g id="matplotlib.axis_2">
    <g id="ytick_1">
     <g id="line2d_1">
      <path clip-path="url(#pc3b9c547b6)" d="M 57.6 265.79055 
L 414.72 265.79055 
" style="fill:none;stroke:#2a3459;stroke-linecap:round;stroke-width:0.8;"/>
     </g>
     <g id="line2d_2"/>
     <g id="text_2">
      <!-- 500 -->
      <defs>
       <path d="M 4.15625 18.75 
L 13.375 19.53125 
Q 14.40625 12.796875 18.140625 9.390625 
Q 21.875 6 27.15625 6 
Q 33.5 6 37.890625 10.78125 
Q 42.28125 15.578125 42.28125 23.484375 
Q 42.28125 31 38.0625 35.34375 
Q 33.84375 39.703125 27 39.703125 
Q 22.75 39.703125 19.328125 37.765625 
Q 15.921875 35.84375 13.96875 32.765625 
L 5.71875 33.84375 
L 12.640625 70.609375 
L 48.25 70.609375 
L 48.25 62.203125 
L 19.671875 62.203125 
L 15.828125 42.96875 
Q 22.265625 47.46875 29.34375 47.46875 
Q 38.71875 47.46875 45.15625 40.96875 
Q 51.609375 34.46875 51.609375 24.265625 
Q 51.609375 14.546875 45.953125 7.46875 
Q 39.0625 -1.21875 27.15625 -1.21875 
Q 17.390625 -1.21875 11.203125 4.25 
Q 5.03125 9.71875 4.15625 18.75 
z
" id="ArialMT-53"/>
       <path d="M 4.15625 35.296875 
Q 4.15625 48 6.765625 55.734375 
Q 9.375 63.484375 14.515625 67.671875 
Q 19.671875 71.875 27.484375 71.875 
Q 33.25 71.875 37.59375 69.546875 
Q 41.9375 67.234375 44.765625 62.859375 
Q 47.609375 58.5 49.21875 52.21875 
Q 50.828125 45.953125 50.828125 35.296875 
Q 50.828125 22.703125 48.234375 14.96875 
Q 45.65625 7.234375 40.5 3 
Q 35.359375 -1.21875 27.484375 -1.21875 
Q 17.140625 -1.21875 11.234375 6.203125 
Q 4.15625 15.140625 4.15625 35.296875 
z
M 13.1875 35.296875 
Q 13.1875 17.671875 17.3125 11.828125 
Q 21.4375 6 27.484375 6 
Q 33.546875 6 37.671875 11.859375 
Q 41.796875 17.71875 41.796875 35.296875 
Q 41.796875 52.984375 37.671875 58.78125 
Q 33.546875 64.59375 27.390625 64.59375 
Q 21.34375 64.59375 17.71875 59.46875 
Q 13.1875 52.9375 13.1875 35.296875 
z
" id="ArialMT-48"/>
      </defs>
      <g style="fill:#e6e6e6;" transform="translate(37.417187 269.369456)scale(0.1 -0.1)">
       <use xlink:href="#ArialMT-53"/>
       <use x="55.615234" xlink:href="#ArialMT-48"/>
       <use x="111.230469" xlink:href="#ArialMT-48"/>
      </g>
     </g>
    </g>
    <g id="ytick_2">
     <g id="line2d_3">
      <path clip-path="url(#pc3b9c547b6)" d="M 57.6 208.680068 
L 414.72 208.680068 
" style="fill:none;stroke:#2a3459;stroke-linecap:round;stroke-width:0.8;"/>
     </g>
     <g id="line2d_4"/>
     <g id="text_3">
      <!-- 1000 -->
      <defs>
       <path d="M 37.25 0 
L 28.46875 0 
L 28.46875 56 
Q 25.296875 52.984375 20.140625 49.953125 
Q 14.984375 46.921875 10.890625 45.40625 
L 10.890625 53.90625 
Q 18.265625 57.375 23.78125 62.296875 
Q 29.296875 67.234375 31.59375 71.875 
L 37.25 71.875 
z
" id="ArialMT-49"/>
      </defs>
      <g style="fill:#e6e6e6;" transform="translate(31.85625 212.258974)scale(0.1 -0.1)">
       <use xlink:href="#ArialMT-49"/>
       <use x="55.615234" xlink:href="#ArialMT-48"/>
       <use x="111.230469" xlink:href="#ArialMT-48"/>
       <use x="166.845703" xlink:href="#ArialMT-48"/>
      </g>
     </g>
    </g>
    <g id="ytick_3">
     <g id="line2d_5">
      <path clip-path="url(#pc3b9c547b6)" d="M 57.6 151.569586 
L 414.72 151.569586 
" style="fill:none;stroke:#2a3459;stroke-linecap:round;stroke-width:0.8;"/>
     </g>
     <g id="line2d_6"/>
     <g id="text_4">
      <!-- 1500 -->
      <g style="fill:#e6e6e6;" transform="translate(31.85625 155.148493)scale(0.1 -0.1)">
       <use xlink:href="#ArialMT-49"/>
       <use x="55.615234" xlink:href="#ArialMT-53"/>
       <use x="111.230469" xlink:href="#ArialMT-48"/>
       <use x="166.845703" xlink:href="#ArialMT-48"/>
      </g>
     </g>
    </g>
    <g id="ytick_4">
     <g id="line2d_7">
      <path clip-path="url(#pc3b9c547b6)" d="M 57.6 94.459105 
L 414.72 94.459105 
" style="fill:none;stroke:#2a3459;stroke-linecap:round;stroke-width:0.8;"/>
     </g>
     <g id="line2d_8"/>
     <g id="text_5">
      <!-- 2000 -->
      <defs>
       <path d="M 50.34375 8.453125 
L 50.34375 0 
L 3.03125 0 
Q 2.9375 3.171875 4.046875 6.109375 
Q 5.859375 10.9375 9.828125 15.625 
Q 13.8125 20.3125 21.34375 26.46875 
Q 33.015625 36.03125 37.109375 41.625 
Q 41.21875 47.21875 41.21875 52.203125 
Q 41.21875 57.421875 37.46875 61 
Q 33.734375 64.59375 27.734375 64.59375 
Q 21.390625 64.59375 17.578125 60.78125 
Q 13.765625 56.984375 13.71875 50.25 
L 4.6875 51.171875 
Q 5.609375 61.28125 11.65625 66.578125 
Q 17.71875 71.875 27.9375 71.875 
Q 38.234375 71.875 44.234375 66.15625 
Q 50.25 60.453125 50.25 52 
Q 50.25 47.703125 48.484375 43.546875 
Q 46.734375 39.40625 42.65625 34.8125 
Q 38.578125 30.21875 29.109375 22.21875 
Q 21.1875 15.578125 18.9375 13.203125 
Q 16.703125 10.84375 15.234375 8.453125 
z
" id="ArialMT-50"/>
      </defs>
      <g style="fill:#e6e6e6;" transform="translate(31.85625 98.038011)scale(0.1 -0.1)">
       <use xlink:href="#ArialMT-50"/>
       <use x="55.615234" xlink:href="#ArialMT-48"/>
       <use x="111.230469" xlink:href="#ArialMT-48"/>
       <use x="166.845703" xlink:href="#ArialMT-48"/>
      </g>
     </g>
    </g>
    <g id="text_6">
     <!-- index -->
     <defs>
      <path d="M 6.640625 61.46875 
L 6.640625 71.578125 
L 15.4375 71.578125 
L 15.4375 61.46875 
z
M 6.640625 0 
L 6.640625 51.859375 
L 15.4375 51.859375 
L 15.4375 0 
z
" id="ArialMT-105"/>
      <path d="M 6.59375 0 
L 6.59375 51.859375 
L 14.5 51.859375 
L 14.5 44.484375 
Q 20.21875 53.03125 31 53.03125 
Q 35.6875 53.03125 39.625 51.34375 
Q 43.5625 49.65625 45.515625 46.921875 
Q 47.46875 44.1875 48.25 40.4375 
Q 48.734375 37.984375 48.734375 31.890625 
L 48.734375 0 
L 39.9375 0 
L 39.9375 31.546875 
Q 39.9375 36.921875 38.90625 39.578125 
Q 37.890625 42.234375 35.28125 43.8125 
Q 32.671875 45.40625 29.15625 45.40625 
Q 23.53125 45.40625 19.453125 41.84375 
Q 15.375 38.28125 15.375 28.328125 
L 15.375 0 
z
" id="ArialMT-110"/>
      <path d="M 0.734375 0 
L 19.671875 26.953125 
L 2.15625 51.859375 
L 13.140625 51.859375 
L 21.09375 39.703125 
Q 23.34375 36.234375 24.703125 33.890625 
Q 26.859375 37.109375 28.65625 39.59375 
L 37.40625 51.859375 
L 47.90625 51.859375 
L 29.984375 27.4375 
L 49.265625 0 
L 38.484375 0 
L 27.828125 16.109375 
L 25 20.453125 
L 11.375 0 
z
" id="ArialMT-120"/>
     </defs>
     <g style="fill:#e6e6e6;" transform="translate(25.86875 186.480344)rotate(-90)scale(0.1 -0.1)">
      <use xlink:href="#ArialMT-105"/>
      <use x="22.216797" xlink:href="#ArialMT-110"/>
      <use x="77.832031" xlink:href="#ArialMT-100"/>
      <use x="133.447266" xlink:href="#ArialMT-101"/>
      <use x="189.0625" xlink:href="#ArialMT-120"/>
     </g>
    </g>
   </g>
   <g id="line2d_9">
    <path clip-path="url(#pc3b9c547b6)" d="M 73.832727 282.581031 
L 74.722192 277.326867 
L 75.611656 270.016725 
L 76.501121 269.674062 
L 77.390585 276.869983 
L 78.28005 279.953949 
L 79.169514 287.14987 
L 80.058979 285.436555 
L 80.948443 272.301144 
L 81.837908 268.417632 
L 82.727372 270.702051 
L 83.616837 271.501598 
L 84.506301 280.182391 
L 85.395766 290.462278 
L 86.28523 284.751229 
L 87.174695 270.473609 
L 88.064159 272.186924 
L 88.953624 275.27089 
L 89.843088 268.303411 
L 91.622017 285.664997 
L 92.511482 288.4063 
L 93.400946 270.245167 
L 94.290411 277.897972 
L 95.179875 292.404034 
L 96.06934 272.301144 
L 96.958804 283.494799 
L 97.848269 291.147603 
L 98.737733 292.632476 
L 99.627198 275.156669 
L 100.516663 276.984204 
L 101.406127 283.494799 
L 102.295592 275.27089 
L 103.185056 282.124147 
L 104.074521 291.832929 
L 104.963985 290.462278 
L 105.85345 280.525054 
L 106.742914 279.268623 
L 107.632379 283.951683 
L 108.521843 283.152136 
L 109.411308 290.69072 
L 110.300772 295.488 
L 111.190237 288.520521 
L 113.85863 115.589983 
L 114.748095 89.661824 
L 115.637559 127.697405 
L 116.527024 54.481768 
L 117.416488 77.554402 
L 118.305953 125.412986 
L 119.195417 53.568 
L 120.084882 96.743524 
L 120.974346 118.445507 
L 121.863811 124.156555 
L 122.753275 159.907717 
L 123.64274 154.31089 
L 125.421669 183.323014 
L 126.311133 182.980351 
L 127.200598 185.835875 
L 128.090062 187.092306 
L 128.979527 198.971286 
L 129.868991 189.833609 
L 130.758456 193.260238 
L 131.64792 189.833609 
L 132.537385 197.372193 
L 133.426849 149.970493 
L 134.316314 189.376725 
L 135.205778 203.311683 
L 136.095243 207.309416 
L 136.984707 196.572646 
L 137.874172 212.106697 
L 138.763636 212.106697 
L 139.653101 196.344204 
L 140.542565 199.42817 
L 141.43203 215.190663 
L 142.321494 225.698992 
L 143.210959 212.335139 
L 144.100423 221.9297 
L 144.989888 207.423637 
L 145.879352 213.134686 
L 146.768817 220.559048 
L 147.658281 229.354062 
L 148.547746 241.233042 
L 149.43721 224.785224 
L 150.326675 218.160408 
L 151.216139 225.013666 
L 152.995068 233.009133 
L 153.884533 246.487207 
L 154.773998 251.284487 
L 155.663462 232.209586 
L 156.552927 231.752703 
L 157.442391 233.009133 
L 158.331856 233.466017 
L 159.22132 234.265564 
L 160.110785 251.969813 
L 161.000249 240.547717 
L 161.889714 222.615025 
L 162.779178 218.617292 
L 163.668643 234.608227 
L 164.558107 231.41004 
L 165.447572 237.235309 
L 166.337036 247.515195 
L 167.226501 241.347263 
L 168.115965 230.838935 
L 169.00543 239.519728 
L 169.894894 245.230776 
L 170.784359 246.944091 
L 171.673823 224.442561 
L 172.563288 245.230776 
L 173.452752 239.062844 
L 174.342217 228.554516 
L 175.231681 240.661938 
L 176.121146 242.261031 
L 177.900075 248.657405 
L 178.789539 232.438028 
L 179.679004 238.948623 
L 180.568468 250.142278 
L 181.457933 247.058312 
L 183.236862 235.978878 
L 184.126326 239.177065 
L 185.015791 249.22851 
L 185.905255 250.827603 
L 186.79472 242.717915 
L 187.684184 248.428963 
L 188.573649 235.521994 
L 189.463113 250.37072 
L 190.352578 227.412306 
L 191.242042 245.801881 
L 192.131507 245.230776 
L 193.020971 237.235309 
L 193.910436 243.28902 
L 194.7999 252.312476 
L 195.689365 253.454686 
L 196.578829 253.226244 
L 197.468294 259.279955 
L 198.357758 245.230776 
L 199.247223 245.230776 
L 200.136687 242.717915 
L 201.026152 249.22851 
L 201.915616 254.368453 
L 202.805081 264.64834 
L 203.694545 269.102958 
L 204.58401 260.879048 
L 205.473474 268.531853 
L 206.362939 259.165734 
L 207.252403 255.739105 
L 208.141868 250.713382 
L 209.031333 250.484941 
L 209.920797 258.823071 
L 210.810262 240.547717 
L 211.699726 212.44936 
L 212.589191 235.864657 
L 213.478655 244.54545 
L 214.36812 233.466017 
L 215.257584 241.118822 
L 216.147049 253.454686 
L 217.036513 253.454686 
L 217.925978 245.344997 
L 218.815442 244.773892 
L 219.704907 243.974346 
L 220.594371 238.60596 
L 221.483836 247.400975 
L 222.3733 261.10749 
L 223.262765 257.223977 
L 224.152229 237.121088 
L 225.041694 251.741371 
L 225.931158 251.398708 
L 226.820623 251.284487 
L 227.710087 244.888113 
L 228.599552 265.219445 
L 229.489016 259.165734 
L 230.378481 254.939558 
L 231.267945 254.368453 
L 232.15741 250.941824 
L 233.046874 263.277688 
L 233.936339 261.907037 
L 234.825803 262.935025 
L 235.715268 261.564374 
L 236.604732 249.685394 
L 237.494197 254.140011 
L 238.383661 260.307943 
L 239.273126 251.512929 
L 240.16259 233.009133 
L 241.052055 221.815479 
L 241.941519 206.281428 
L 242.830984 188.120295 
L 243.720448 198.628623 
L 244.609913 198.171739 
L 245.499377 222.158142 
L 246.388842 220.102164 
L 247.278306 226.384317 
L 248.167771 236.778425 
L 249.057235 215.761768 
L 249.9467 218.046187 
L 250.836164 248.0863 
L 251.725629 259.165734 
L 252.615093 249.571173 
L 253.504558 251.62715 
L 254.394022 239.862391 
L 255.283487 239.177065 
L 256.172951 240.433496 
L 257.062416 242.375252 
L 257.95188 245.230776 
L 258.841345 256.081768 
L 259.730809 268.531853 
L 260.620274 263.620351 
L 261.509738 251.969813 
L 262.399203 255.624884 
L 263.288667 261.678595 
L 264.178132 224.785224 
L 265.067597 247.972079 
L 265.957061 266.133212 
L 266.846526 260.764827 
L 267.73599 248.885847 
L 268.625455 253.683127 
L 269.514919 253.226244 
L 270.404384 248.200521 
L 271.293848 232.780691 
L 272.183313 241.461484 
L 273.072777 260.536385 
L 273.962242 237.34953 
L 274.851706 250.599161 
L 275.741171 242.14681 
L 276.630635 231.524261 
L 277.5201 233.466017 
L 278.409564 243.174799 
L 279.299029 241.575705 
L 280.188493 221.587037 
L 281.077958 208.451626 
L 282.856887 231.524261 
L 283.746351 229.810946 
L 284.635816 252.198255 
L 285.52528 248.657405 
L 286.414745 236.778425 
L 287.304209 240.661938 
L 288.193674 234.608227 
L 289.083138 236.321541 
L 289.972603 242.261031 
L 290.862067 257.56664 
L 291.751532 260.307943 
L 292.640996 235.06511 
L 293.530461 235.06511 
L 294.419925 231.41004 
L 295.30939 242.14681 
L 296.198854 233.80868 
L 297.088319 250.028057 
L 297.977783 254.368453 
L 298.867248 228.897178 
L 299.756712 239.976612 
L 300.646177 254.140011 
L 301.535641 248.314742 
L 302.425106 249.456952 
L 303.31457 263.049246 
L 304.204035 259.394176 
L 305.093499 251.969813 
L 305.982964 248.543184 
L 306.872428 246.144544 
L 307.761893 249.685394 
L 308.651357 246.487207 
L 309.540822 260.307943 
L 310.430286 259.736839 
L 311.319751 244.202788 
L 312.209215 240.319275 
L 313.09868 244.888113 
L 313.988144 248.428963 
L 314.877609 252.540918 
L 315.767073 264.991003 
L 316.656538 260.993269 
L 317.546002 240.89038 
L 318.435467 244.888113 
L 319.324932 245.916102 
L 321.103861 251.512929 
L 321.993325 265.562108 
L 322.88279 257.338198 
L 323.772254 233.694459 
L 324.661719 241.918368 
L 325.551183 241.347263 
L 326.440648 238.149076 
L 328.219577 265.105224 
L 329.109041 258.594629 
L 329.998506 240.776159 
L 330.88797 242.14681 
L 331.777435 243.28902 
L 332.666899 240.776159 
L 333.556364 237.006867 
L 334.445828 262.592363 
L 335.335293 239.177065 
L 336.224757 235.179331 
L 337.114222 240.89038 
L 338.003686 258.70885 
L 338.893151 281.21038 
L 339.782615 276.641541 
L 340.67208 283.723241 
L 341.561544 276.070436 
L 342.451009 270.702051 
L 343.340473 274.12868 
L 344.229938 267.960748 
L 345.119402 265.219445 
L 346.008867 256.767093 
L 346.898331 264.991003 
L 347.787796 266.361654 
L 348.67726 230.496272 
L 350.456189 249.114289 
L 351.345654 244.431229 
L 352.235118 250.142278 
L 353.124583 267.732306 
L 354.014047 264.419898 
L 354.903512 258.823071 
L 355.792976 260.879048 
L 356.682441 265.219445 
L 357.571905 266.018992 
L 359.350834 268.18919 
L 360.240299 266.590096 
L 361.129763 242.946357 
L 362.019228 245.230776 
L 362.908692 250.713382 
L 363.798157 253.454686 
L 364.687621 258.023524 
L 365.577086 272.301144 
L 366.46655 263.277688 
L 367.356015 249.22851 
L 368.245479 256.081768 
L 369.134944 256.424431 
L 370.024408 255.739105 
L 370.913873 264.305677 
L 371.803337 271.501598 
L 372.692802 261.335932 
L 373.582267 239.633949 
L 374.471731 230.039388 
L 375.361196 239.062844 
L 376.25066 236.20732 
L 377.140125 242.489473 
L 378.029589 262.363921 
L 378.919054 267.275422 
L 379.808518 250.142278 
L 380.697983 252.198255 
L 381.587447 248.0863 
L 382.476912 260.193722 
L 383.366376 256.424431 
L 385.145305 252.084034 
L 386.03477 234.379785 
L 386.924234 251.741371 
L 387.813699 248.200521 
L 388.703163 245.344997 
L 389.592628 257.338198 
L 390.482092 273.786017 
L 391.371557 267.846527 
L 392.261021 251.741371 
L 393.150486 255.168 
L 394.03995 259.394176 
L 394.929415 249.799615 
L 395.818879 261.335932 
L 396.708344 275.613552 
L 397.597808 269.44562 
L 398.487273 242.603694 
L 398.487273 242.603694 
" style="fill:none;stroke:#08f7fe;stroke-linecap:round;stroke-width:1.5;"/>
   </g>
   <g id="patch_3">
    <path d="M 57.6 307.584 
L 57.6 41.472 
" style="fill:none;"/>
   </g>
   <g id="patch_4">
    <path d="M 414.72 307.584 
L 414.72 41.472 
" style="fill:none;"/>
   </g>
   <g id="patch_5">
    <path d="M 57.6 307.584 
L 414.72 307.584 
" style="fill:none;"/>
   </g>
   <g id="patch_6">
    <path d="M 57.6 41.472 
L 414.72 41.472 
" style="fill:none;"/>
   </g>
  </g>
 </g>
 <defs>
  <clipPath id="pc3b9c547b6">
   <rect height="266.112" width="357.12" x="57.6" y="41.472"/>
  </clipPath>
 </defs>
</svg>
