<?xml version="1.0" encoding="utf-8" standalone="no"?>
<!DOCTYPE svg PUBLIC "-//W3C//DTD SVG 1.1//EN"
  "http://www.w3.org/Graphics/SVG/1.1/DTD/svg11.dtd">
<!-- Created with matplotlib (https://matplotlib.org/) -->
<svg height="345.6pt" version="1.1" viewBox="0 0 460.8 345.6" width="460.8pt" xmlns="http://www.w3.org/2000/svg" xmlns:xlink="http://www.w3.org/1999/xlink">
 <defs>
  <style type="text/css">
*{stroke-linecap:butt;stroke-linejoin:round;}
  </style>
 </defs>
 <g id="figure_1">
  <g id="patch_1">
   <path d="M 0 345.6 
L 460.8 345.6 
L 460.8 0 
L 0 0 
z
" style="fill:#212946;"/>
  </g>
  <g id="axes_1">
   <g id="patch_2">
    <path d="M 57.6 307.584 
L 414.72 307.584 
L 414.72 41.472 
L 57.6 41.472 
z
" style="fill:#212946;"/>
   </g>
   <g id="matplotlib.axis_1">
    <g id="text_1">
     <!-- date -->
     <defs>
      <path d="M 40.234375 0 
L 40.234375 6.546875 
Q 35.296875 -1.171875 25.734375 -1.171875 
Q 19.53125 -1.171875 14.328125 2.25 
Q 9.125 5.671875 6.265625 11.796875 
Q 3.421875 17.921875 3.421875 25.875 
Q 3.421875 33.640625 6 39.96875 
Q 8.59375 46.296875 13.765625 49.65625 
Q 18.953125 53.03125 25.34375 53.03125 
Q 30.03125 53.03125 33.6875 51.046875 
Q 37.359375 49.078125 39.65625 45.90625 
L 39.65625 71.578125 
L 48.390625 71.578125 
L 48.390625 0 
z
M 12.453125 25.875 
Q 12.453125 15.921875 16.640625 10.984375 
Q 20.84375 6.0625 26.5625 6.0625 
Q 32.328125 6.0625 36.34375 10.765625 
Q 40.375 15.484375 40.375 25.140625 
Q 40.375 35.796875 36.265625 40.765625 
Q 32.171875 45.75 26.171875 45.75 
Q 20.3125 45.75 16.375 40.96875 
Q 12.453125 36.1875 12.453125 25.875 
z
" id="ArialMT-100"/>
      <path d="M 40.4375 6.390625 
Q 35.546875 2.25 31.03125 0.53125 
Q 26.515625 -1.171875 21.34375 -1.171875 
Q 12.796875 -1.171875 8.203125 3 
Q 3.609375 7.171875 3.609375 13.671875 
Q 3.609375 17.484375 5.34375 20.625 
Q 7.078125 23.78125 9.890625 25.6875 
Q 12.703125 27.59375 16.21875 28.5625 
Q 18.796875 29.25 24.03125 29.890625 
Q 34.671875 31.15625 39.703125 32.90625 
Q 39.75 34.71875 39.75 35.203125 
Q 39.75 40.578125 37.25 42.78125 
Q 33.890625 45.75 27.25 45.75 
Q 21.046875 45.75 18.09375 43.578125 
Q 15.140625 41.40625 13.71875 35.890625 
L 5.125 37.0625 
Q 6.296875 42.578125 8.984375 45.96875 
Q 11.671875 49.359375 16.75 51.1875 
Q 21.828125 53.03125 28.515625 53.03125 
Q 35.15625 53.03125 39.296875 51.46875 
Q 43.453125 49.90625 45.40625 47.53125 
Q 47.359375 45.171875 48.140625 41.546875 
Q 48.578125 39.3125 48.578125 33.453125 
L 48.578125 21.734375 
Q 48.578125 9.46875 49.140625 6.21875 
Q 49.703125 2.984375 51.375 0 
L 42.1875 0 
Q 40.828125 2.734375 40.4375 6.390625 
z
M 39.703125 26.03125 
Q 34.90625 24.078125 25.34375 22.703125 
Q 19.921875 21.921875 17.671875 20.9375 
Q 15.4375 19.96875 14.203125 18.09375 
Q 12.984375 16.21875 12.984375 13.921875 
Q 12.984375 10.40625 15.640625 8.0625 
Q 18.3125 5.71875 23.4375 5.71875 
Q 28.515625 5.71875 32.46875 7.9375 
Q 36.421875 10.15625 38.28125 14.015625 
Q 39.703125 17 39.703125 22.796875 
z
" id="ArialMT-97"/>
      <path d="M 25.78125 7.859375 
L 27.046875 0.09375 
Q 23.34375 -0.6875 20.40625 -0.6875 
Q 15.625 -0.6875 12.984375 0.828125 
Q 10.359375 2.34375 9.28125 4.8125 
Q 8.203125 7.28125 8.203125 15.1875 
L 8.203125 45.015625 
L 1.765625 45.015625 
L 1.765625 51.859375 
L 8.203125 51.859375 
L 8.203125 64.703125 
L 16.9375 69.96875 
L 16.9375 51.859375 
L 25.78125 51.859375 
L 25.78125 45.015625 
L 16.9375 45.015625 
L 16.9375 14.703125 
Q 16.9375 10.9375 17.40625 9.859375 
Q 17.875 8.796875 18.921875 8.15625 
Q 19.96875 7.515625 21.921875 7.515625 
Q 23.390625 7.515625 25.78125 7.859375 
z
" id="ArialMT-116"/>
      <path d="M 42.09375 16.703125 
L 51.171875 15.578125 
Q 49.03125 7.625 43.21875 3.21875 
Q 37.40625 -1.171875 28.375 -1.171875 
Q 17 -1.171875 10.328125 5.828125 
Q 3.65625 12.84375 3.65625 25.484375 
Q 3.65625 38.578125 10.390625 45.796875 
Q 17.140625 53.03125 27.875 53.03125 
Q 38.28125 53.03125 44.875 45.953125 
Q 51.46875 38.875 51.46875 26.03125 
Q 51.46875 25.25 51.421875 23.6875 
L 12.75 23.6875 
Q 13.234375 15.140625 17.578125 10.59375 
Q 21.921875 6.0625 28.421875 6.0625 
Q 33.25 6.0625 36.671875 8.59375 
Q 40.09375 11.140625 42.09375 16.703125 
z
M 13.234375 30.90625 
L 42.1875 30.90625 
Q 41.609375 37.453125 38.875 40.71875 
Q 34.671875 45.796875 27.984375 45.796875 
Q 21.921875 45.796875 17.796875 41.75 
Q 13.671875 37.703125 13.234375 30.90625 
z
" id="ArialMT-101"/>
     </defs>
     <g style="fill:#e6e6e6;" transform="translate(226.429531 318.741812)scale(0.1 -0.1)">
      <use xlink:href="#ArialMT-100"/>
      <use x="55.615234" xlink:href="#ArialMT-97"/>
      <use x="111.230469" xlink:href="#ArialMT-116"/>
      <use x="139.013672" xlink:href="#ArialMT-101"/>
     </g>
    </g>
   </g>
   <g id="matplotlib.axis_2">
    <g id="ytick_1">
     <g id="line2d_1">
      <path clip-path="url(#p93740673ae)" d="M 57.6 296.420576 
L 414.72 296.420576 
" style="fill:none;stroke:#2a3459;stroke-linecap:round;stroke-width:0.8;"/>
     </g>
     <g id="line2d_2"/>
     <g id="text_2">
      <!-- 0 -->
      <defs>
       <path d="M 4.15625 35.296875 
Q 4.15625 48 6.765625 55.734375 
Q 9.375 63.484375 14.515625 67.671875 
Q 19.671875 71.875 27.484375 71.875 
Q 33.25 71.875 37.59375 69.546875 
Q 41.9375 67.234375 44.765625 62.859375 
Q 47.609375 58.5 49.21875 52.21875 
Q 50.828125 45.953125 50.828125 35.296875 
Q 50.828125 22.703125 48.234375 14.96875 
Q 45.65625 7.234375 40.5 3 
Q 35.359375 -1.21875 27.484375 -1.21875 
Q 17.140625 -1.21875 11.234375 6.203125 
Q 4.15625 15.140625 4.15625 35.296875 
z
M 13.1875 35.296875 
Q 13.1875 17.671875 17.3125 11.828125 
Q 21.4375 6 27.484375 6 
Q 33.546875 6 37.671875 11.859375 
Q 41.796875 17.71875 41.796875 35.296875 
Q 41.796875 52.984375 37.671875 58.78125 
Q 33.546875 64.59375 27.390625 64.59375 
Q 21.34375 64.59375 17.71875 59.46875 
Q 13.1875 52.9375 13.1875 35.296875 
z
" id="ArialMT-48"/>
      </defs>
      <g style="fill:#e6e6e6;" transform="translate(48.539062 299.999482)scale(0.1 -0.1)">
       <use xlink:href="#ArialMT-48"/>
      </g>
     </g>
    </g>
    <g id="ytick_2">
     <g id="line2d_3">
      <path clip-path="url(#p93740673ae)" d="M 57.6 259.472235 
L 414.72 259.472235 
" style="fill:none;stroke:#2a3459;stroke-linecap:round;stroke-width:0.8;"/>
     </g>
     <g id="line2d_4"/>
     <g id="text_3">
      <!-- 25000 -->
      <defs>
       <path d="M 50.34375 8.453125 
L 50.34375 0 
L 3.03125 0 
Q 2.9375 3.171875 4.046875 6.109375 
Q 5.859375 10.9375 9.828125 15.625 
Q 13.8125 20.3125 21.34375 26.46875 
Q 33.015625 36.03125 37.109375 41.625 
Q 41.21875 47.21875 41.21875 52.203125 
Q 41.21875 57.421875 37.46875 61 
Q 33.734375 64.59375 27.734375 64.59375 
Q 21.390625 64.59375 17.578125 60.78125 
Q 13.765625 56.984375 13.71875 50.25 
L 4.6875 51.171875 
Q 5.609375 61.28125 11.65625 66.578125 
Q 17.71875 71.875 27.9375 71.875 
Q 38.234375 71.875 44.234375 66.15625 
Q 50.25 60.453125 50.25 52 
Q 50.25 47.703125 48.484375 43.546875 
Q 46.734375 39.40625 42.65625 34.8125 
Q 38.578125 30.21875 29.109375 22.21875 
Q 21.1875 15.578125 18.9375 13.203125 
Q 16.703125 10.84375 15.234375 8.453125 
z
" id="ArialMT-50"/>
       <path d="M 4.15625 18.75 
L 13.375 19.53125 
Q 14.40625 12.796875 18.140625 9.390625 
Q 21.875 6 27.15625 6 
Q 33.5 6 37.890625 10.78125 
Q 42.28125 15.578125 42.28125 23.484375 
Q 42.28125 31 38.0625 35.34375 
Q 33.84375 39.703125 27 39.703125 
Q 22.75 39.703125 19.328125 37.765625 
Q 15.921875 35.84375 13.96875 32.765625 
L 5.71875 33.84375 
L 12.640625 70.609375 
L 48.25 70.609375 
L 48.25 62.203125 
L 19.671875 62.203125 
L 15.828125 42.96875 
Q 22.265625 47.46875 29.34375 47.46875 
Q 38.71875 47.46875 45.15625 40.96875 
Q 51.609375 34.46875 51.609375 24.265625 
Q 51.609375 14.546875 45.953125 7.46875 
Q 39.0625 -1.21875 27.15625 -1.21875 
Q 17.390625 -1.21875 11.203125 4.25 
Q 5.03125 9.71875 4.15625 18.75 
z
" id="ArialMT-53"/>
      </defs>
      <g style="fill:#e6e6e6;" transform="translate(26.295313 263.051142)scale(0.1 -0.1)">
       <use xlink:href="#ArialMT-50"/>
       <use x="55.615234" xlink:href="#ArialMT-53"/>
       <use x="111.230469" xlink:href="#ArialMT-48"/>
       <use x="166.845703" xlink:href="#ArialMT-48"/>
       <use x="222.460938" xlink:href="#ArialMT-48"/>
      </g>
     </g>
    </g>
    <g id="ytick_3">
     <g id="line2d_5">
      <path clip-path="url(#p93740673ae)" d="M 57.6 222.523895 
L 414.72 222.523895 
" style="fill:none;stroke:#2a3459;stroke-linecap:round;stroke-width:0.8;"/>
     </g>
     <g id="line2d_6"/>
     <g id="text_4">
      <!-- 50000 -->
      <g style="fill:#e6e6e6;" transform="translate(26.295313 226.102801)scale(0.1 -0.1)">
       <use xlink:href="#ArialMT-53"/>
       <use x="55.615234" xlink:href="#ArialMT-48"/>
       <use x="111.230469" xlink:href="#ArialMT-48"/>
       <use x="166.845703" xlink:href="#ArialMT-48"/>
       <use x="222.460938" xlink:href="#ArialMT-48"/>
      </g>
     </g>
    </g>
    <g id="ytick_4">
     <g id="line2d_7">
      <path clip-path="url(#p93740673ae)" d="M 57.6 185.575554 
L 414.72 185.575554 
" style="fill:none;stroke:#2a3459;stroke-linecap:round;stroke-width:0.8;"/>
     </g>
     <g id="line2d_8"/>
     <g id="text_5">
      <!-- 75000 -->
      <defs>
       <path d="M 4.734375 62.203125 
L 4.734375 70.65625 
L 51.078125 70.65625 
L 51.078125 63.8125 
Q 44.234375 56.546875 37.515625 44.484375 
Q 30.8125 32.421875 27.15625 19.671875 
Q 24.515625 10.6875 23.78125 0 
L 14.75 0 
Q 14.890625 8.453125 18.0625 20.40625 
Q 21.234375 32.375 27.171875 43.484375 
Q 33.109375 54.59375 39.796875 62.203125 
z
" id="ArialMT-55"/>
      </defs>
      <g style="fill:#e6e6e6;" transform="translate(26.295313 189.15446)scale(0.1 -0.1)">
       <use xlink:href="#ArialMT-55"/>
       <use x="55.615234" xlink:href="#ArialMT-53"/>
       <use x="111.230469" xlink:href="#ArialMT-48"/>
       <use x="166.845703" xlink:href="#ArialMT-48"/>
       <use x="222.460938" xlink:href="#ArialMT-48"/>
      </g>
     </g>
    </g>
    <g id="ytick_5">
     <g id="line2d_9">
      <path clip-path="url(#p93740673ae)" d="M 57.6 148.627213 
L 414.72 148.627213 
" style="fill:none;stroke:#2a3459;stroke-linecap:round;stroke-width:0.8;"/>
     </g>
     <g id="line2d_10"/>
     <g id="text_6">
      <!-- 100000 -->
      <defs>
       <path d="M 37.25 0 
L 28.46875 0 
L 28.46875 56 
Q 25.296875 52.984375 20.140625 49.953125 
Q 14.984375 46.921875 10.890625 45.40625 
L 10.890625 53.90625 
Q 18.265625 57.375 23.78125 62.296875 
Q 29.296875 67.234375 31.59375 71.875 
L 37.25 71.875 
z
" id="ArialMT-49"/>
      </defs>
      <g style="fill:#e6e6e6;" transform="translate(20.734375 152.206119)scale(0.1 -0.1)">
       <use xlink:href="#ArialMT-49"/>
       <use x="55.615234" xlink:href="#ArialMT-48"/>
       <use x="111.230469" xlink:href="#ArialMT-48"/>
       <use x="166.845703" xlink:href="#ArialMT-48"/>
       <use x="222.460938" xlink:href="#ArialMT-48"/>
       <use x="278.076172" xlink:href="#ArialMT-48"/>
      </g>
     </g>
    </g>
    <g id="ytick_6">
     <g id="line2d_11">
      <path clip-path="url(#p93740673ae)" d="M 57.6 111.678872 
L 414.72 111.678872 
" style="fill:none;stroke:#2a3459;stroke-linecap:round;stroke-width:0.8;"/>
     </g>
     <g id="line2d_12"/>
     <g id="text_7">
      <!-- 125000 -->
      <g style="fill:#e6e6e6;" transform="translate(20.734375 115.257779)scale(0.1 -0.1)">
       <use xlink:href="#ArialMT-49"/>
       <use x="55.615234" xlink:href="#ArialMT-50"/>
       <use x="111.230469" xlink:href="#ArialMT-53"/>
       <use x="166.845703" xlink:href="#ArialMT-48"/>
       <use x="222.460938" xlink:href="#ArialMT-48"/>
       <use x="278.076172" xlink:href="#ArialMT-48"/>
      </g>
     </g>
    </g>
    <g id="ytick_7">
     <g id="line2d_13">
      <path clip-path="url(#p93740673ae)" d="M 57.6 74.730532 
L 414.72 74.730532 
" style="fill:none;stroke:#2a3459;stroke-linecap:round;stroke-width:0.8;"/>
     </g>
     <g id="line2d_14"/>
     <g id="text_8">
      <!-- 150000 -->
      <g style="fill:#e6e6e6;" transform="translate(20.734375 78.309438)scale(0.1 -0.1)">
       <use xlink:href="#ArialMT-49"/>
       <use x="55.615234" xlink:href="#ArialMT-53"/>
       <use x="111.230469" xlink:href="#ArialMT-48"/>
       <use x="166.845703" xlink:href="#ArialMT-48"/>
       <use x="222.460938" xlink:href="#ArialMT-48"/>
       <use x="278.076172" xlink:href="#ArialMT-48"/>
      </g>
     </g>
    </g>
    <g id="text_9">
     <!-- index -->
     <defs>
      <path d="M 6.640625 61.46875 
L 6.640625 71.578125 
L 15.4375 71.578125 
L 15.4375 61.46875 
z
M 6.640625 0 
L 6.640625 51.859375 
L 15.4375 51.859375 
L 15.4375 0 
z
" id="ArialMT-105"/>
      <path d="M 6.59375 0 
L 6.59375 51.859375 
L 14.5 51.859375 
L 14.5 44.484375 
Q 20.21875 53.03125 31 53.03125 
Q 35.6875 53.03125 39.625 51.34375 
Q 43.5625 49.65625 45.515625 46.921875 
Q 47.46875 44.1875 48.25 40.4375 
Q 48.734375 37.984375 48.734375 31.890625 
L 48.734375 0 
L 39.9375 0 
L 39.9375 31.546875 
Q 39.9375 36.921875 38.90625 39.578125 
Q 37.890625 42.234375 35.28125 43.8125 
Q 32.671875 45.40625 29.15625 45.40625 
Q 23.53125 45.40625 19.453125 41.84375 
Q 15.375 38.28125 15.375 28.328125 
L 15.375 0 
z
" id="ArialMT-110"/>
      <path d="M 0.734375 0 
L 19.671875 26.953125 
L 2.15625 51.859375 
L 13.140625 51.859375 
L 21.09375 39.703125 
Q 23.34375 36.234375 24.703125 33.890625 
Q 26.859375 37.109375 28.65625 39.59375 
L 37.40625 51.859375 
L 47.90625 51.859375 
L 29.984375 27.4375 
L 49.265625 0 
L 38.484375 0 
L 27.828125 16.109375 
L 25 20.453125 
L 11.375 0 
z
" id="ArialMT-120"/>
     </defs>
     <g style="fill:#e6e6e6;" transform="translate(14.746875 186.480344)rotate(-90)scale(0.1 -0.1)">
      <use xlink:href="#ArialMT-105"/>
      <use x="22.216797" xlink:href="#ArialMT-110"/>
      <use x="77.832031" xlink:href="#ArialMT-100"/>
      <use x="133.447266" xlink:href="#ArialMT-101"/>
      <use x="189.0625" xlink:href="#ArialMT-120"/>
     </g>
    </g>
   </g>
   <g id="line2d_15">
    <path clip-path="url(#p93740673ae)" d="M 73.832727 294.783026 
L 74.722192 294.580549 
L 77.390585 294.827364 
L 78.28005 294.976635 
L 79.169514 294.899782 
L 80.058979 294.939687 
L 80.948443 294.710607 
L 85.395766 294.899782 
L 86.28523 294.874658 
L 87.174695 294.717997 
L 92.511482 294.947076 
L 93.400946 294.808151 
L 94.290411 294.234712 
L 95.179875 294.930819 
L 96.06934 294.746077 
L 98.737733 294.938209 
L 99.627198 294.78007 
L 100.516663 294.840665 
L 102.295592 294.754945 
L 104.074521 295.040186 
L 104.963985 295.118517 
L 105.85345 294.930819 
L 106.742914 294.947076 
L 107.632379 295.097826 
L 108.521843 295.488 
L 109.411308 294.924907 
L 110.300772 294.893871 
L 111.190237 293.6997 
L 112.079701 276.688684 
L 112.969166 205.402034 
L 113.85863 119.736567 
L 114.748095 53.568 
L 115.637559 166.049095 
L 116.527024 140.316792 
L 117.416488 136.135718 
L 118.305953 160.614733 
L 119.195417 174.216156 
L 120.084882 190.089163 
L 120.974346 194.998859 
L 121.863811 190.293118 
L 122.753275 198.364114 
L 123.64274 200.057826 
L 124.532204 200.517463 
L 125.421669 207.230237 
L 126.311133 205.43307 
L 127.200598 201.368753 
L 128.090062 204.401472 
L 128.979527 208.582547 
L 129.868991 215.481541 
L 130.758456 212.725195 
L 131.64792 221.270607 
L 132.537385 225.923142 
L 133.426849 224.915191 
L 134.316314 227.08332 
L 135.205778 237.966823 
L 136.095243 243.628787 
L 136.984707 238.407247 
L 137.874172 241.268527 
L 138.763636 241.312865 
L 139.653101 242.245441 
L 140.542565 240.899043 
L 141.43203 245.74371 
L 142.321494 246.039297 
L 143.210959 240.330039 
L 144.100423 236.511059 
L 144.989888 233.89216 
L 145.879352 238.507747 
L 146.768817 238.773775 
L 147.658281 244.271688 
L 148.547746 251.27266 
L 149.43721 246.565441 
L 150.326675 252.864394 
L 151.216139 253.995013 
L 152.105604 256.030128 
L 152.995068 259.380603 
L 153.884533 265.067692 
L 154.773998 268.168397 
L 155.663462 261.836929 
L 156.552927 261.259057 
L 157.442391 264.503121 
L 158.331856 265.896813 
L 159.22132 266.548582 
L 160.110785 271.014897 
L 161.000249 272.91552 
L 161.889714 268.029471 
L 162.779178 268.206823 
L 163.668643 269.092105 
L 164.558107 272.739646 
L 165.447572 273.70917 
L 166.337036 277.845906 
L 167.226501 279.493802 
L 168.115965 274.958024 
L 169.00543 277.959707 
L 169.894894 275.767932 
L 170.784359 275.989622 
L 171.673823 276.925154 
L 172.563288 279.006084 
L 173.452752 277.062601 
L 174.342217 273.020453 
L 175.231681 275.438352 
L 177.01061 276.135937 
L 177.900075 277.226652 
L 178.789539 276.38423 
L 179.679004 279.075547 
L 180.568468 278.206522 
L 181.457933 278.60852 
L 182.347397 279.415472 
L 183.236862 279.990388 
L 184.126326 280.748568 
L 185.015791 281.985598 
L 185.905255 283.460576 
L 186.79472 280.225379 
L 187.684184 281.41216 
L 190.352578 283.441363 
L 191.242042 284.382807 
L 192.131507 284.492174 
L 193.020971 283.337908 
L 193.910436 284.685783 
L 194.7999 284.093132 
L 195.689365 284.891216 
L 196.578829 284.92373 
L 197.468294 285.662697 
L 198.357758 285.395191 
L 199.247223 285.421794 
L 200.136687 286.023313 
L 201.026152 287.192359 
L 201.915616 287.962362 
L 202.805081 290.276806 
L 203.694545 290.430511 
L 204.58401 290.319666 
L 205.473474 289.545229 
L 206.362939 288.949622 
L 207.252403 287.811613 
L 208.141868 288.430867 
L 209.031333 287.807179 
L 210.810262 288.912673 
L 211.699726 286.782971 
L 212.589191 287.471688 
L 213.478655 288.351059 
L 214.36812 288.226912 
L 215.257584 289.453597 
L 216.147049 290.297497 
L 217.036513 288.739755 
L 217.925978 286.559803 
L 218.815442 287.78501 
L 220.594371 289.447685 
L 221.483836 289.793522 
L 222.3733 290.876847 
L 223.262765 290.433467 
L 224.152229 289.570354 
L 226.820623 290.590128 
L 227.710087 291.333529 
L 228.599552 291.88332 
L 230.378481 291.376389 
L 231.267945 291.283279 
L 232.15741 291.773953 
L 233.046874 291.423683 
L 233.936339 292.273494 
L 234.825803 292.697661 
L 235.715268 291.998599 
L 236.604732 291.896621 
L 237.494197 291.673453 
L 238.383661 292.441979 
L 239.273126 292.830675 
L 240.16259 292.938564 
L 241.052055 291.544873 
L 241.941519 289.942793 
L 242.830984 287.289902 
L 243.720448 286.094254 
L 244.609913 285.65383 
L 245.499377 287.657908 
L 246.388842 290.461548 
L 248.167771 292.279406 
L 249.057235 292.212899 
L 249.9467 292.452324 
L 251.725629 293.710046 
L 252.615093 293.455841 
L 255.283487 293.287357 
L 259.730809 293.847494 
L 260.620274 293.658318 
L 261.509738 293.662752 
L 262.399203 293.4854 
L 263.288667 293.429238 
L 264.178132 293.727781 
L 266.846526 293.986419 
L 268.625455 293.85045 
L 270.404384 294.007111 
L 273.072777 294.134213 
L 273.962242 293.044976 
L 274.851706 293.188335 
L 275.741171 293.039064 
L 278.409564 294.197764 
L 279.299029 294.073618 
L 280.188493 293.506091 
L 281.077958 293.136608 
L 281.967422 293.036108 
L 283.746351 293.279967 
L 284.635816 293.981986 
L 285.52528 293.92878 
L 286.414745 293.179468 
L 289.083138 293.167644 
L 289.972603 293.884442 
L 290.862067 294.360337 
L 291.751532 294.512564 
L 292.640996 294.218455 
L 295.30939 294.252447 
L 296.198854 294.097264 
L 297.977783 294.357381 
L 299.756712 294.035191 
L 300.646177 294.134213 
L 302.425106 293.97164 
L 303.31457 294.140125 
L 304.204035 294.138647 
L 305.982964 292.99916 
L 308.651357 292.795205 
L 310.430286 293.058277 
L 311.319751 292.424244 
L 312.209215 292.125701 
L 313.988144 293.086358 
L 314.877609 293.30657 
L 315.767073 293.396724 
L 318.435467 293.248931 
L 319.324932 293.452885 
L 320.214396 293.500179 
L 321.993325 293.931736 
L 322.88279 293.551907 
L 323.772254 293.328739 
L 324.661719 293.43515 
L 325.551183 293.265188 
L 326.440648 293.225284 
L 329.109041 293.60659 
L 329.998506 293.12774 
L 330.88797 292.923785 
L 331.777435 292.914918 
L 334.445828 293.275533 
L 335.335293 293.110005 
L 336.224757 293.228239 
L 337.114222 293.219372 
L 338.003686 293.44993 
L 338.893151 294.181507 
L 339.782615 294.287918 
L 340.67208 294.15786 
L 341.561544 293.649451 
L 342.451009 293.646495 
L 343.340473 293.500179 
L 345.119402 292.394685 
L 346.898331 293.142519 
L 347.787796 292.882403 
L 348.67726 290.461548 
L 349.566725 290.974391 
L 350.456189 291.862629 
L 351.345654 292.196642 
L 352.235118 292.217333 
L 353.124583 293.378989 
L 354.014047 293.046454 
L 354.903512 292.875013 
L 356.682441 292.997682 
L 357.571905 293.285879 
L 358.46137 293.727781 
L 359.350834 293.916957 
L 360.240299 293.627282 
L 361.129763 293.086358 
L 362.019228 293.133652 
L 362.908692 293.319871 
L 363.798157 293.248931 
L 364.687621 293.532694 
L 365.577086 293.649451 
L 367.356015 293.538606 
L 368.245479 293.207548 
L 369.134944 293.291791 
L 370.024408 293.780987 
L 371.803337 294.048493 
L 372.692802 293.934692 
L 373.582267 293.479488 
L 374.471731 292.595684 
L 375.361196 292.616375 
L 376.25066 292.489273 
L 377.140125 293.20607 
L 378.029589 293.346474 
L 378.919054 293.277011 
L 379.808518 292.889793 
L 380.697983 293.185379 
L 382.476912 292.988814 
L 383.366376 293.145475 
L 384.255841 293.018373 
L 386.03477 292.459714 
L 387.813699 292.486317 
L 388.703163 289.471332 
L 389.592628 293.463231 
L 391.371557 293.446974 
L 392.261021 293.209026 
L 393.150486 293.488356 
L 394.03995 293.470621 
L 394.929415 293.145475 
L 395.818879 293.630237 
L 396.708344 293.914001 
L 397.597808 293.463231 
L 398.487273 292.842499 
L 398.487273 292.842499 
" style="fill:none;stroke:#08f7fe;stroke-linecap:round;stroke-width:1.5;"/>
   </g>
   <g id="patch_3">
    <path d="M 57.6 307.584 
L 57.6 41.472 
" style="fill:none;"/>
   </g>
   <g id="patch_4">
    <path d="M 414.72 307.584 
L 414.72 41.472 
" style="fill:none;"/>
   </g>
   <g id="patch_5">
    <path d="M 57.6 307.584 
L 414.72 307.584 
" style="fill:none;"/>
   </g>
   <g id="patch_6">
    <path d="M 57.6 41.472 
L 414.72 41.472 
" style="fill:none;"/>
   </g>
  </g>
 </g>
 <defs>
  <clipPath id="p93740673ae">
   <rect height="266.112" width="357.12" x="57.6" y="41.472"/>
  </clipPath>
 </defs>
</svg>
