<?xml version="1.0" encoding="utf-8" standalone="no"?>
<!DOCTYPE svg PUBLIC "-//W3C//DTD SVG 1.1//EN"
  "http://www.w3.org/Graphics/SVG/1.1/DTD/svg11.dtd">
<!-- Created with matplotlib (https://matplotlib.org/) -->
<svg height="345.6pt" version="1.1" viewBox="0 0 460.8 345.6" width="460.8pt" xmlns="http://www.w3.org/2000/svg" xmlns:xlink="http://www.w3.org/1999/xlink">
 <defs>
  <style type="text/css">
*{stroke-linecap:butt;stroke-linejoin:round;}
  </style>
 </defs>
 <g id="figure_1">
  <g id="patch_1">
   <path d="M 0 345.6 
L 460.8 345.6 
L 460.8 0 
L 0 0 
z
" style="fill:#212946;"/>
  </g>
  <g id="axes_1">
   <g id="patch_2">
    <path d="M 57.6 307.584 
L 414.72 307.584 
L 414.72 41.472 
L 57.6 41.472 
z
" style="fill:#212946;"/>
   </g>
   <g id="matplotlib.axis_1">
    <g id="text_1">
     <!-- date -->
     <defs>
      <path d="M 40.234375 0 
L 40.234375 6.546875 
Q 35.296875 -1.171875 25.734375 -1.171875 
Q 19.53125 -1.171875 14.328125 2.25 
Q 9.125 5.671875 6.265625 11.796875 
Q 3.421875 17.921875 3.421875 25.875 
Q 3.421875 33.640625 6 39.96875 
Q 8.59375 46.296875 13.765625 49.65625 
Q 18.953125 53.03125 25.34375 53.03125 
Q 30.03125 53.03125 33.6875 51.046875 
Q 37.359375 49.078125 39.65625 45.90625 
L 39.65625 71.578125 
L 48.390625 71.578125 
L 48.390625 0 
z
M 12.453125 25.875 
Q 12.453125 15.921875 16.640625 10.984375 
Q 20.84375 6.0625 26.5625 6.0625 
Q 32.328125 6.0625 36.34375 10.765625 
Q 40.375 15.484375 40.375 25.140625 
Q 40.375 35.796875 36.265625 40.765625 
Q 32.171875 45.75 26.171875 45.75 
Q 20.3125 45.75 16.375 40.96875 
Q 12.453125 36.1875 12.453125 25.875 
z
" id="ArialMT-100"/>
      <path d="M 40.4375 6.390625 
Q 35.546875 2.25 31.03125 0.53125 
Q 26.515625 -1.171875 21.34375 -1.171875 
Q 12.796875 -1.171875 8.203125 3 
Q 3.609375 7.171875 3.609375 13.671875 
Q 3.609375 17.484375 5.34375 20.625 
Q 7.078125 23.78125 9.890625 25.6875 
Q 12.703125 27.59375 16.21875 28.5625 
Q 18.796875 29.25 24.03125 29.890625 
Q 34.671875 31.15625 39.703125 32.90625 
Q 39.75 34.71875 39.75 35.203125 
Q 39.75 40.578125 37.25 42.78125 
Q 33.890625 45.75 27.25 45.75 
Q 21.046875 45.75 18.09375 43.578125 
Q 15.140625 41.40625 13.71875 35.890625 
L 5.125 37.0625 
Q 6.296875 42.578125 8.984375 45.96875 
Q 11.671875 49.359375 16.75 51.1875 
Q 21.828125 53.03125 28.515625 53.03125 
Q 35.15625 53.03125 39.296875 51.46875 
Q 43.453125 49.90625 45.40625 47.53125 
Q 47.359375 45.171875 48.140625 41.546875 
Q 48.578125 39.3125 48.578125 33.453125 
L 48.578125 21.734375 
Q 48.578125 9.46875 49.140625 6.21875 
Q 49.703125 2.984375 51.375 0 
L 42.1875 0 
Q 40.828125 2.734375 40.4375 6.390625 
z
M 39.703125 26.03125 
Q 34.90625 24.078125 25.34375 22.703125 
Q 19.921875 21.921875 17.671875 20.9375 
Q 15.4375 19.96875 14.203125 18.09375 
Q 12.984375 16.21875 12.984375 13.921875 
Q 12.984375 10.40625 15.640625 8.0625 
Q 18.3125 5.71875 23.4375 5.71875 
Q 28.515625 5.71875 32.46875 7.9375 
Q 36.421875 10.15625 38.28125 14.015625 
Q 39.703125 17 39.703125 22.796875 
z
" id="ArialMT-97"/>
      <path d="M 25.78125 7.859375 
L 27.046875 0.09375 
Q 23.34375 -0.6875 20.40625 -0.6875 
Q 15.625 -0.6875 12.984375 0.828125 
Q 10.359375 2.34375 9.28125 4.8125 
Q 8.203125 7.28125 8.203125 15.1875 
L 8.203125 45.015625 
L 1.765625 45.015625 
L 1.765625 51.859375 
L 8.203125 51.859375 
L 8.203125 64.703125 
L 16.9375 69.96875 
L 16.9375 51.859375 
L 25.78125 51.859375 
L 25.78125 45.015625 
L 16.9375 45.015625 
L 16.9375 14.703125 
Q 16.9375 10.9375 17.40625 9.859375 
Q 17.875 8.796875 18.921875 8.15625 
Q 19.96875 7.515625 21.921875 7.515625 
Q 23.390625 7.515625 25.78125 7.859375 
z
" id="ArialMT-116"/>
      <path d="M 42.09375 16.703125 
L 51.171875 15.578125 
Q 49.03125 7.625 43.21875 3.21875 
Q 37.40625 -1.171875 28.375 -1.171875 
Q 17 -1.171875 10.328125 5.828125 
Q 3.65625 12.84375 3.65625 25.484375 
Q 3.65625 38.578125 10.390625 45.796875 
Q 17.140625 53.03125 27.875 53.03125 
Q 38.28125 53.03125 44.875 45.953125 
Q 51.46875 38.875 51.46875 26.03125 
Q 51.46875 25.25 51.421875 23.6875 
L 12.75 23.6875 
Q 13.234375 15.140625 17.578125 10.59375 
Q 21.921875 6.0625 28.421875 6.0625 
Q 33.25 6.0625 36.671875 8.59375 
Q 40.09375 11.140625 42.09375 16.703125 
z
M 13.234375 30.90625 
L 42.1875 30.90625 
Q 41.609375 37.453125 38.875 40.71875 
Q 34.671875 45.796875 27.984375 45.796875 
Q 21.921875 45.796875 17.796875 41.75 
Q 13.671875 37.703125 13.234375 30.90625 
z
" id="ArialMT-101"/>
     </defs>
     <g style="fill:#e6e6e6;" transform="translate(226.429531 318.741812)scale(0.1 -0.1)">
      <use xlink:href="#ArialMT-100"/>
      <use x="55.615234" xlink:href="#ArialMT-97"/>
      <use x="111.230469" xlink:href="#ArialMT-116"/>
      <use x="139.013672" xlink:href="#ArialMT-101"/>
     </g>
    </g>
   </g>
   <g id="matplotlib.axis_2">
    <g id="ytick_1">
     <g id="line2d_1">
      <path clip-path="url(#p1af6f90e3b)" d="M 57.6 295.488 
L 414.72 295.488 
" style="fill:none;stroke:#2a3459;stroke-linecap:round;stroke-width:0.8;"/>
     </g>
     <g id="line2d_2"/>
     <g id="text_2">
      <!-- 0 -->
      <defs>
       <path d="M 4.15625 35.296875 
Q 4.15625 48 6.765625 55.734375 
Q 9.375 63.484375 14.515625 67.671875 
Q 19.671875 71.875 27.484375 71.875 
Q 33.25 71.875 37.59375 69.546875 
Q 41.9375 67.234375 44.765625 62.859375 
Q 47.609375 58.5 49.21875 52.21875 
Q 50.828125 45.953125 50.828125 35.296875 
Q 50.828125 22.703125 48.234375 14.96875 
Q 45.65625 7.234375 40.5 3 
Q 35.359375 -1.21875 27.484375 -1.21875 
Q 17.140625 -1.21875 11.234375 6.203125 
Q 4.15625 15.140625 4.15625 35.296875 
z
M 13.1875 35.296875 
Q 13.1875 17.671875 17.3125 11.828125 
Q 21.4375 6 27.484375 6 
Q 33.546875 6 37.671875 11.859375 
Q 41.796875 17.71875 41.796875 35.296875 
Q 41.796875 52.984375 37.671875 58.78125 
Q 33.546875 64.59375 27.390625 64.59375 
Q 21.34375 64.59375 17.71875 59.46875 
Q 13.1875 52.9375 13.1875 35.296875 
z
" id="ArialMT-48"/>
      </defs>
      <g style="fill:#e6e6e6;" transform="translate(48.539062 299.066906)scale(0.1 -0.1)">
       <use xlink:href="#ArialMT-48"/>
      </g>
     </g>
    </g>
    <g id="ytick_2">
     <g id="line2d_3">
      <path clip-path="url(#p1af6f90e3b)" d="M 57.6 246.846198 
L 414.72 246.846198 
" style="fill:none;stroke:#2a3459;stroke-linecap:round;stroke-width:0.8;"/>
     </g>
     <g id="line2d_4"/>
     <g id="text_3">
      <!-- 2000 -->
      <defs>
       <path d="M 50.34375 8.453125 
L 50.34375 0 
L 3.03125 0 
Q 2.9375 3.171875 4.046875 6.109375 
Q 5.859375 10.9375 9.828125 15.625 
Q 13.8125 20.3125 21.34375 26.46875 
Q 33.015625 36.03125 37.109375 41.625 
Q 41.21875 47.21875 41.21875 52.203125 
Q 41.21875 57.421875 37.46875 61 
Q 33.734375 64.59375 27.734375 64.59375 
Q 21.390625 64.59375 17.578125 60.78125 
Q 13.765625 56.984375 13.71875 50.25 
L 4.6875 51.171875 
Q 5.609375 61.28125 11.65625 66.578125 
Q 17.71875 71.875 27.9375 71.875 
Q 38.234375 71.875 44.234375 66.15625 
Q 50.25 60.453125 50.25 52 
Q 50.25 47.703125 48.484375 43.546875 
Q 46.734375 39.40625 42.65625 34.8125 
Q 38.578125 30.21875 29.109375 22.21875 
Q 21.1875 15.578125 18.9375 13.203125 
Q 16.703125 10.84375 15.234375 8.453125 
z
" id="ArialMT-50"/>
      </defs>
      <g style="fill:#e6e6e6;" transform="translate(31.85625 250.425105)scale(0.1 -0.1)">
       <use xlink:href="#ArialMT-50"/>
       <use x="55.615234" xlink:href="#ArialMT-48"/>
       <use x="111.230469" xlink:href="#ArialMT-48"/>
       <use x="166.845703" xlink:href="#ArialMT-48"/>
      </g>
     </g>
    </g>
    <g id="ytick_3">
     <g id="line2d_5">
      <path clip-path="url(#p1af6f90e3b)" d="M 57.6 198.204397 
L 414.72 198.204397 
" style="fill:none;stroke:#2a3459;stroke-linecap:round;stroke-width:0.8;"/>
     </g>
     <g id="line2d_6"/>
     <g id="text_4">
      <!-- 4000 -->
      <defs>
       <path d="M 32.328125 0 
L 32.328125 17.140625 
L 1.265625 17.140625 
L 1.265625 25.203125 
L 33.9375 71.578125 
L 41.109375 71.578125 
L 41.109375 25.203125 
L 50.78125 25.203125 
L 50.78125 17.140625 
L 41.109375 17.140625 
L 41.109375 0 
z
M 32.328125 25.203125 
L 32.328125 57.46875 
L 9.90625 25.203125 
z
" id="ArialMT-52"/>
      </defs>
      <g style="fill:#e6e6e6;" transform="translate(31.85625 201.783303)scale(0.1 -0.1)">
       <use xlink:href="#ArialMT-52"/>
       <use x="55.615234" xlink:href="#ArialMT-48"/>
       <use x="111.230469" xlink:href="#ArialMT-48"/>
       <use x="166.845703" xlink:href="#ArialMT-48"/>
      </g>
     </g>
    </g>
    <g id="ytick_4">
     <g id="line2d_7">
      <path clip-path="url(#p1af6f90e3b)" d="M 57.6 149.562595 
L 414.72 149.562595 
" style="fill:none;stroke:#2a3459;stroke-linecap:round;stroke-width:0.8;"/>
     </g>
     <g id="line2d_8"/>
     <g id="text_5">
      <!-- 6000 -->
      <defs>
       <path d="M 49.75 54.046875 
L 41.015625 53.375 
Q 39.84375 58.546875 37.703125 60.890625 
Q 34.125 64.65625 28.90625 64.65625 
Q 24.703125 64.65625 21.53125 62.3125 
Q 17.390625 59.28125 14.984375 53.46875 
Q 12.59375 47.65625 12.5 36.921875 
Q 15.671875 41.75 20.265625 44.09375 
Q 24.859375 46.4375 29.890625 46.4375 
Q 38.671875 46.4375 44.84375 39.96875 
Q 51.03125 33.5 51.03125 23.25 
Q 51.03125 16.5 48.125 10.71875 
Q 45.21875 4.9375 40.140625 1.859375 
Q 35.0625 -1.21875 28.609375 -1.21875 
Q 17.625 -1.21875 10.6875 6.859375 
Q 3.765625 14.9375 3.765625 33.5 
Q 3.765625 54.25 11.421875 63.671875 
Q 18.109375 71.875 29.4375 71.875 
Q 37.890625 71.875 43.28125 67.140625 
Q 48.6875 62.40625 49.75 54.046875 
z
M 13.875 23.1875 
Q 13.875 18.65625 15.796875 14.5 
Q 17.71875 10.359375 21.1875 8.171875 
Q 24.65625 6 28.46875 6 
Q 34.03125 6 38.03125 10.484375 
Q 42.046875 14.984375 42.046875 22.703125 
Q 42.046875 30.125 38.078125 34.390625 
Q 34.125 38.671875 28.125 38.671875 
Q 22.171875 38.671875 18.015625 34.390625 
Q 13.875 30.125 13.875 23.1875 
z
" id="ArialMT-54"/>
      </defs>
      <g style="fill:#e6e6e6;" transform="translate(31.85625 153.141502)scale(0.1 -0.1)">
       <use xlink:href="#ArialMT-54"/>
       <use x="55.615234" xlink:href="#ArialMT-48"/>
       <use x="111.230469" xlink:href="#ArialMT-48"/>
       <use x="166.845703" xlink:href="#ArialMT-48"/>
      </g>
     </g>
    </g>
    <g id="ytick_5">
     <g id="line2d_9">
      <path clip-path="url(#p1af6f90e3b)" d="M 57.6 100.920794 
L 414.72 100.920794 
" style="fill:none;stroke:#2a3459;stroke-linecap:round;stroke-width:0.8;"/>
     </g>
     <g id="line2d_10"/>
     <g id="text_6">
      <!-- 8000 -->
      <defs>
       <path d="M 17.671875 38.8125 
Q 12.203125 40.828125 9.5625 44.53125 
Q 6.9375 48.25 6.9375 53.421875 
Q 6.9375 61.234375 12.546875 66.546875 
Q 18.171875 71.875 27.484375 71.875 
Q 36.859375 71.875 42.578125 66.421875 
Q 48.296875 60.984375 48.296875 53.171875 
Q 48.296875 48.1875 45.671875 44.5 
Q 43.0625 40.828125 37.75 38.8125 
Q 44.34375 36.671875 47.78125 31.875 
Q 51.21875 27.09375 51.21875 20.453125 
Q 51.21875 11.28125 44.71875 5.03125 
Q 38.234375 -1.21875 27.640625 -1.21875 
Q 17.046875 -1.21875 10.546875 5.046875 
Q 4.046875 11.328125 4.046875 20.703125 
Q 4.046875 27.6875 7.59375 32.390625 
Q 11.140625 37.109375 17.671875 38.8125 
z
M 15.921875 53.71875 
Q 15.921875 48.640625 19.1875 45.40625 
Q 22.46875 42.1875 27.6875 42.1875 
Q 32.765625 42.1875 36.015625 45.375 
Q 39.265625 48.578125 39.265625 53.21875 
Q 39.265625 58.0625 35.90625 61.359375 
Q 32.5625 64.65625 27.59375 64.65625 
Q 22.5625 64.65625 19.234375 61.421875 
Q 15.921875 58.203125 15.921875 53.71875 
z
M 13.09375 20.65625 
Q 13.09375 16.890625 14.875 13.375 
Q 16.65625 9.859375 20.171875 7.921875 
Q 23.6875 6 27.734375 6 
Q 34.03125 6 38.125 10.046875 
Q 42.234375 14.109375 42.234375 20.359375 
Q 42.234375 26.703125 38.015625 30.859375 
Q 33.796875 35.015625 27.4375 35.015625 
Q 21.234375 35.015625 17.15625 30.90625 
Q 13.09375 26.8125 13.09375 20.65625 
z
" id="ArialMT-56"/>
      </defs>
      <g style="fill:#e6e6e6;" transform="translate(31.85625 104.4997)scale(0.1 -0.1)">
       <use xlink:href="#ArialMT-56"/>
       <use x="55.615234" xlink:href="#ArialMT-48"/>
       <use x="111.230469" xlink:href="#ArialMT-48"/>
       <use x="166.845703" xlink:href="#ArialMT-48"/>
      </g>
     </g>
    </g>
    <g id="ytick_6">
     <g id="line2d_11">
      <path clip-path="url(#p1af6f90e3b)" d="M 57.6 52.278992 
L 414.72 52.278992 
" style="fill:none;stroke:#2a3459;stroke-linecap:round;stroke-width:0.8;"/>
     </g>
     <g id="line2d_12"/>
     <g id="text_7">
      <!-- 10000 -->
      <defs>
       <path d="M 37.25 0 
L 28.46875 0 
L 28.46875 56 
Q 25.296875 52.984375 20.140625 49.953125 
Q 14.984375 46.921875 10.890625 45.40625 
L 10.890625 53.90625 
Q 18.265625 57.375 23.78125 62.296875 
Q 29.296875 67.234375 31.59375 71.875 
L 37.25 71.875 
z
" id="ArialMT-49"/>
      </defs>
      <g style="fill:#e6e6e6;" transform="translate(26.295313 55.857899)scale(0.1 -0.1)">
       <use xlink:href="#ArialMT-49"/>
       <use x="55.615234" xlink:href="#ArialMT-48"/>
       <use x="111.230469" xlink:href="#ArialMT-48"/>
       <use x="166.845703" xlink:href="#ArialMT-48"/>
       <use x="222.460938" xlink:href="#ArialMT-48"/>
      </g>
     </g>
    </g>
    <g id="text_8">
     <!-- index -->
     <defs>
      <path d="M 6.640625 61.46875 
L 6.640625 71.578125 
L 15.4375 71.578125 
L 15.4375 61.46875 
z
M 6.640625 0 
L 6.640625 51.859375 
L 15.4375 51.859375 
L 15.4375 0 
z
" id="ArialMT-105"/>
      <path d="M 6.59375 0 
L 6.59375 51.859375 
L 14.5 51.859375 
L 14.5 44.484375 
Q 20.21875 53.03125 31 53.03125 
Q 35.6875 53.03125 39.625 51.34375 
Q 43.5625 49.65625 45.515625 46.921875 
Q 47.46875 44.1875 48.25 40.4375 
Q 48.734375 37.984375 48.734375 31.890625 
L 48.734375 0 
L 39.9375 0 
L 39.9375 31.546875 
Q 39.9375 36.921875 38.90625 39.578125 
Q 37.890625 42.234375 35.28125 43.8125 
Q 32.671875 45.40625 29.15625 45.40625 
Q 23.53125 45.40625 19.453125 41.84375 
Q 15.375 38.28125 15.375 28.328125 
L 15.375 0 
z
" id="ArialMT-110"/>
      <path d="M 0.734375 0 
L 19.671875 26.953125 
L 2.15625 51.859375 
L 13.140625 51.859375 
L 21.09375 39.703125 
Q 23.34375 36.234375 24.703125 33.890625 
Q 26.859375 37.109375 28.65625 39.59375 
L 37.40625 51.859375 
L 47.90625 51.859375 
L 29.984375 27.4375 
L 49.265625 0 
L 38.484375 0 
L 27.828125 16.109375 
L 25 20.453125 
L 11.375 0 
z
" id="ArialMT-120"/>
     </defs>
     <g style="fill:#e6e6e6;" transform="translate(20.307813 186.480344)rotate(-90)scale(0.1 -0.1)">
      <use xlink:href="#ArialMT-105"/>
      <use x="22.216797" xlink:href="#ArialMT-110"/>
      <use x="77.832031" xlink:href="#ArialMT-100"/>
      <use x="133.447266" xlink:href="#ArialMT-101"/>
      <use x="189.0625" xlink:href="#ArialMT-120"/>
     </g>
    </g>
   </g>
   <g id="line2d_13">
    <path clip-path="url(#p1af6f90e3b)" d="M 73.832727 295.366395 
L 74.722192 295.488 
L 75.611656 295.196149 
L 77.390585 295.342075 
L 78.28005 295.269112 
L 79.169514 295.463679 
L 80.058979 295.439358 
L 80.948443 295.171828 
L 81.837908 295.488 
L 82.727372 295.196149 
L 83.616837 295.342075 
L 84.506301 295.22047 
L 85.395766 295.439358 
L 86.28523 295.366395 
L 87.174695 295.488 
L 112.079701 295.488 
L 112.969166 277.612138 
L 113.85863 252.537289 
L 114.748095 203.019935 
L 115.637559 263.408732 
L 116.527024 262.800709 
L 117.416488 212.286198 
L 118.305953 198.982666 
L 119.195417 202.703764 
L 120.084882 182.176923 
L 120.974346 129.278964 
L 121.863811 150.875924 
L 122.753275 133.899935 
L 123.64274 120.499119 
L 124.532204 78.180752 
L 125.421669 108.314348 
L 126.311133 103.644735 
L 127.200598 83.409745 
L 128.090062 110.162736 
L 128.979527 120.596403 
L 129.868991 132.829816 
L 130.758456 85.087887 
L 131.64792 55.708239 
L 132.537385 295.488 
L 133.426849 137.888563 
L 134.316314 65.704129 
L 135.205778 100.385734 
L 136.095243 209.781146 
L 136.984707 74.386691 
L 137.874172 53.568 
L 138.763636 65.558204 
L 139.653101 176.558795 
L 140.542565 179.769154 
L 141.43203 208.103004 
L 142.321494 211.143116 
L 143.210959 138.837078 
L 144.100423 152.505424 
L 144.989888 191.516149 
L 145.879352 198.763778 
L 146.768817 195.237247 
L 147.658281 223.473813 
L 148.547746 237.16648 
L 149.43721 184.949506 
L 150.326675 195.164284 
L 151.216139 180.523102 
L 152.105604 170.454249 
L 152.995068 194.702187 
L 153.884533 269.926733 
L 154.773998 272.431786 
L 155.663462 181.325692 
L 156.552927 194.77515 
L 157.442391 179.428662 
L 158.331856 178.626072 
L 159.22132 197.693658 
L 160.110785 269.391673 
L 161.000249 264.795023 
L 161.889714 197.158598 
L 162.779178 195.84527 
L 163.668643 233.469703 
L 164.558107 223.66838 
L 165.447572 232.521188 
L 166.337036 272.991167 
L 167.226501 269.82945 
L 168.115965 192.318739 
L 169.00543 218.220498 
L 169.894894 223.814305 
L 170.784359 190.008253 
L 171.673823 204.114376 
L 172.563288 270.1213 
L 173.452752 268.102666 
L 174.342217 215.56952 
L 175.231681 214.377796 
L 176.121146 215.56952 
L 177.01061 200.733771 
L 177.900075 193.899597 
L 178.789539 274.353137 
L 179.679004 266.473165 
L 180.568468 266.473165 
L 181.457933 275.593503 
L 182.347397 233.518345 
L 183.236862 211.483609 
L 184.126326 230.478232 
L 185.015791 277.247324 
L 185.905255 276.250167 
L 186.79472 275.034122 
L 187.684184 220.336417 
L 188.573649 284.981371 
L 189.463113 288.434939 
L 190.352578 272.577711 
L 191.242042 281.552124 
L 192.131507 275.690787 
L 193.020971 279.655094 
L 193.910436 265.79218 
L 194.7999 268.151308 
L 195.689365 267.518964 
L 196.578829 268.953897 
L 197.468294 268.905255 
L 198.357758 278.341765 
L 199.247223 288.994319 
L 200.136687 271.434629 
L 201.026152 269.415994 
L 201.915616 246.870519 
L 202.805081 287.583707 
L 203.694545 279.776698 
L 204.58401 279.363243 
L 205.473474 283.376191 
L 206.362939 282.865452 
L 207.252403 279.801019 
L 208.141868 264.405889 
L 209.031333 284.324707 
L 209.920797 247.648788 
L 210.810262 246.578669 
L 211.699726 271.896726 
L 212.589191 287.948521 
L 213.478655 248.475699 
L 214.36812 287.632349 
L 215.257584 269.488957 
L 216.147049 269.415994 
L 217.036513 284.470632 
L 217.925978 275.009802 
L 218.815442 263.530336 
L 219.704907 271.750801 
L 220.594371 267.008225 
L 221.483836 266.156994 
L 222.3733 269.148464 
L 223.262765 284.95705 
L 224.152229 286.659513 
L 225.041694 276.663623 
L 225.931158 276.079921 
L 226.820623 271.531913 
L 227.710087 278.001272 
L 228.599552 277.368929 
L 229.489016 289.164566 
L 230.378481 291.037275 
L 231.267945 287.267536 
L 232.15741 287.316177 
L 233.046874 264.624777 
L 233.936339 283.011378 
L 234.825803 280.700892 
L 235.715268 287.729633 
L 236.604732 281.114348 
L 237.494197 277.563496 
L 238.383661 261.633306 
L 239.273126 281.868296 
L 240.16259 281.916937 
L 241.052055 285.030013 
L 241.941519 286.58655 
L 242.830984 291.15888 
L 243.720448 281.941258 
L 244.609913 284.470632 
L 245.499377 280.165833 
L 246.388842 277.903989 
L 247.278306 295.488 
L 248.167771 280.652251 
L 249.057235 284.665199 
L 249.9467 279.752377 
L 250.836164 279.995586 
L 251.725629 260.855037 
L 252.615093 286.2947 
L 253.504558 290.259006 
L 254.394022 287.170252 
L 255.283487 275.253011 
L 256.172951 275.107085 
L 257.062416 267.616248 
L 257.95188 274.280175 
L 258.841345 273.501906 
L 259.730809 270.92389 
L 260.620274 286.31902 
L 261.509738 286.31902 
L 262.399203 281.892616 
L 263.288667 279.922624 
L 264.178132 280.165833 
L 265.067597 281.892616 
L 265.957061 282.549281 
L 266.846526 285.978528 
L 267.73599 274.450421 
L 268.625455 269.707845 
L 269.514919 275.690787 
L 270.404384 275.49622 
L 271.293848 276.32313 
L 272.183313 272.26154 
L 273.072777 280.871139 
L 273.962242 276.177205 
L 274.851706 269.999696 
L 275.741171 266.837979 
L 276.630635 257.790604 
L 277.5201 264.819344 
L 278.409564 280.530646 
L 279.299029 285.273222 
L 280.188493 288.045804 
L 281.077958 278.706578 
L 281.967422 276.882511 
L 282.856887 270.753644 
L 283.746351 276.250167 
L 284.635816 285.905565 
L 285.52528 290.307648 
L 286.414745 284.032856 
L 287.304209 285.516431 
L 288.193674 280.311758 
L 289.972603 282.914094 
L 290.862067 283.205945 
L 291.751532 285.613714 
L 292.640996 288.921357 
L 293.530461 279.873982 
L 294.419925 278.609295 
L 295.30939 284.811125 
L 296.198854 285.662356 
L 297.088319 283.692363 
L 297.977783 283.011378 
L 298.867248 290.89135 
L 299.756712 286.829759 
L 300.646177 286.002849 
L 301.535641 289.261849 
L 302.425106 284.95705 
L 303.31457 285.686677 
L 304.204035 289.894193 
L 305.093499 287.826916 
L 305.982964 283.230266 
L 306.872428 288.775431 
L 307.761893 287.364819 
L 309.540822 287.510745 
L 310.430286 289.310491 
L 311.319751 291.961469 
L 312.209215 284.859766 
L 313.988144 284.640878 
L 314.877609 286.100132 
L 315.767073 288.337655 
L 316.656538 284.640878 
L 317.546002 286.100132 
L 318.435467 287.9242 
L 319.324932 284.470632 
L 320.214396 288.361976 
L 321.103861 287.632349 
L 321.993325 291.377768 
L 322.88279 292.058753 
L 323.772254 290.453574 
L 324.661719 290.794066 
L 325.551183 292.472208 
L 326.440648 292.058753 
L 327.330112 289.237529 
L 328.219577 290.988633 
L 329.109041 294.077388 
L 329.998506 295.025903 
L 330.88797 293.445044 
L 331.777435 292.228999 
L 332.666899 291.71826 
L 333.556364 290.867029 
L 334.445828 290.307648 
L 335.335293 293.420723 
L 336.224757 291.888507 
L 337.114222 292.934305 
L 338.003686 289.261849 
L 338.893151 288.872715 
L 339.782615 292.52085 
L 340.67208 290.429253 
L 341.561544 291.71826 
L 342.451009 291.548014 
L 343.340473 292.083074 
L 344.229938 290.186044 
L 345.119402 292.423567 
L 346.008867 292.666776 
L 346.898331 288.872715 
L 347.787796 290.35629 
L 348.67726 290.404932 
L 349.566725 288.872715 
L 351.345654 286.902722 
L 352.235118 286.659513 
L 353.124583 287.65667 
L 354.014047 291.475051 
L 354.903512 291.839865 
L 355.792976 288.872715 
L 356.682441 288.532222 
L 357.571905 290.842708 
L 359.350834 290.842708 
L 360.240299 287.997163 
L 361.129763 292.52085 
L 362.019228 293.128873 
L 362.908692 290.721103 
L 363.798157 288.994319 
L 364.687621 289.699626 
L 365.577086 287.851237 
L 366.46655 292.642455 
L 367.356015 290.550857 
L 368.245479 284.786804 
L 369.134944 284.786804 
L 370.024408 287.851237 
L 370.913873 289.28617 
L 371.803337 289.796909 
L 372.692802 292.837022 
L 373.582267 291.499372 
L 374.471731 286.781118 
L 375.361196 288.72679 
L 376.25066 288.580864 
L 377.140125 289.796909 
L 378.029589 287.145931 
L 379.808518 292.204678 
L 380.697983 287.559386 
L 381.587447 286.732476 
L 382.476912 288.994319 
L 383.366376 292.496529 
L 384.255841 292.52085 
L 385.145305 293.128873 
L 386.03477 292.812701 
L 386.924234 288.070125 
L 387.813699 289.407775 
L 388.703163 285.783961 
L 389.592628 289.067282 
L 390.482092 291.620977 
L 391.371557 291.231842 
L 392.261021 293.080231 
L 393.150486 290.35629 
L 394.929415 291.085917 
L 395.818879 290.283327 
L 396.708344 286.708155 
L 397.597808 291.523693 
L 398.487273 291.766902 
L 398.487273 291.766902 
" style="fill:none;stroke:#08f7fe;stroke-linecap:round;stroke-width:1.5;"/>
   </g>
   <g id="patch_3">
    <path d="M 57.6 307.584 
L 57.6 41.472 
" style="fill:none;"/>
   </g>
   <g id="patch_4">
    <path d="M 414.72 307.584 
L 414.72 41.472 
" style="fill:none;"/>
   </g>
   <g id="patch_5">
    <path d="M 57.6 307.584 
L 414.72 307.584 
" style="fill:none;"/>
   </g>
   <g id="patch_6">
    <path d="M 57.6 41.472 
L 414.72 41.472 
" style="fill:none;"/>
   </g>
  </g>
 </g>
 <defs>
  <clipPath id="p1af6f90e3b">
   <rect height="266.112" width="357.12" x="57.6" y="41.472"/>
  </clipPath>
 </defs>
</svg>
