<?xml version="1.0" encoding="utf-8" standalone="no"?>
<!DOCTYPE svg PUBLIC "-//W3C//DTD SVG 1.1//EN"
  "http://www.w3.org/Graphics/SVG/1.1/DTD/svg11.dtd">
<!-- Created with matplotlib (https://matplotlib.org/) -->
<svg height="345.6pt" version="1.1" viewBox="0 0 460.8 345.6" width="460.8pt" xmlns="http://www.w3.org/2000/svg" xmlns:xlink="http://www.w3.org/1999/xlink">
 <defs>
  <style type="text/css">
*{stroke-linecap:butt;stroke-linejoin:round;}
  </style>
 </defs>
 <g id="figure_1">
  <g id="patch_1">
   <path d="M 0 345.6 
L 460.8 345.6 
L 460.8 0 
L 0 0 
z
" style="fill:#212946;"/>
  </g>
  <g id="axes_1">
   <g id="patch_2">
    <path d="M 57.6 307.584 
L 414.72 307.584 
L 414.72 41.472 
L 57.6 41.472 
z
" style="fill:#212946;"/>
   </g>
   <g id="matplotlib.axis_1">
    <g id="text_1">
     <!-- date -->
     <defs>
      <path d="M 40.234375 0 
L 40.234375 6.546875 
Q 35.296875 -1.171875 25.734375 -1.171875 
Q 19.53125 -1.171875 14.328125 2.25 
Q 9.125 5.671875 6.265625 11.796875 
Q 3.421875 17.921875 3.421875 25.875 
Q 3.421875 33.640625 6 39.96875 
Q 8.59375 46.296875 13.765625 49.65625 
Q 18.953125 53.03125 25.34375 53.03125 
Q 30.03125 53.03125 33.6875 51.046875 
Q 37.359375 49.078125 39.65625 45.90625 
L 39.65625 71.578125 
L 48.390625 71.578125 
L 48.390625 0 
z
M 12.453125 25.875 
Q 12.453125 15.921875 16.640625 10.984375 
Q 20.84375 6.0625 26.5625 6.0625 
Q 32.328125 6.0625 36.34375 10.765625 
Q 40.375 15.484375 40.375 25.140625 
Q 40.375 35.796875 36.265625 40.765625 
Q 32.171875 45.75 26.171875 45.75 
Q 20.3125 45.75 16.375 40.96875 
Q 12.453125 36.1875 12.453125 25.875 
z
" id="ArialMT-100"/>
      <path d="M 40.4375 6.390625 
Q 35.546875 2.25 31.03125 0.53125 
Q 26.515625 -1.171875 21.34375 -1.171875 
Q 12.796875 -1.171875 8.203125 3 
Q 3.609375 7.171875 3.609375 13.671875 
Q 3.609375 17.484375 5.34375 20.625 
Q 7.078125 23.78125 9.890625 25.6875 
Q 12.703125 27.59375 16.21875 28.5625 
Q 18.796875 29.25 24.03125 29.890625 
Q 34.671875 31.15625 39.703125 32.90625 
Q 39.75 34.71875 39.75 35.203125 
Q 39.75 40.578125 37.25 42.78125 
Q 33.890625 45.75 27.25 45.75 
Q 21.046875 45.75 18.09375 43.578125 
Q 15.140625 41.40625 13.71875 35.890625 
L 5.125 37.0625 
Q 6.296875 42.578125 8.984375 45.96875 
Q 11.671875 49.359375 16.75 51.1875 
Q 21.828125 53.03125 28.515625 53.03125 
Q 35.15625 53.03125 39.296875 51.46875 
Q 43.453125 49.90625 45.40625 47.53125 
Q 47.359375 45.171875 48.140625 41.546875 
Q 48.578125 39.3125 48.578125 33.453125 
L 48.578125 21.734375 
Q 48.578125 9.46875 49.140625 6.21875 
Q 49.703125 2.984375 51.375 0 
L 42.1875 0 
Q 40.828125 2.734375 40.4375 6.390625 
z
M 39.703125 26.03125 
Q 34.90625 24.078125 25.34375 22.703125 
Q 19.921875 21.921875 17.671875 20.9375 
Q 15.4375 19.96875 14.203125 18.09375 
Q 12.984375 16.21875 12.984375 13.921875 
Q 12.984375 10.40625 15.640625 8.0625 
Q 18.3125 5.71875 23.4375 5.71875 
Q 28.515625 5.71875 32.46875 7.9375 
Q 36.421875 10.15625 38.28125 14.015625 
Q 39.703125 17 39.703125 22.796875 
z
" id="ArialMT-97"/>
      <path d="M 25.78125 7.859375 
L 27.046875 0.09375 
Q 23.34375 -0.6875 20.40625 -0.6875 
Q 15.625 -0.6875 12.984375 0.828125 
Q 10.359375 2.34375 9.28125 4.8125 
Q 8.203125 7.28125 8.203125 15.1875 
L 8.203125 45.015625 
L 1.765625 45.015625 
L 1.765625 51.859375 
L 8.203125 51.859375 
L 8.203125 64.703125 
L 16.9375 69.96875 
L 16.9375 51.859375 
L 25.78125 51.859375 
L 25.78125 45.015625 
L 16.9375 45.015625 
L 16.9375 14.703125 
Q 16.9375 10.9375 17.40625 9.859375 
Q 17.875 8.796875 18.921875 8.15625 
Q 19.96875 7.515625 21.921875 7.515625 
Q 23.390625 7.515625 25.78125 7.859375 
z
" id="ArialMT-116"/>
      <path d="M 42.09375 16.703125 
L 51.171875 15.578125 
Q 49.03125 7.625 43.21875 3.21875 
Q 37.40625 -1.171875 28.375 -1.171875 
Q 17 -1.171875 10.328125 5.828125 
Q 3.65625 12.84375 3.65625 25.484375 
Q 3.65625 38.578125 10.390625 45.796875 
Q 17.140625 53.03125 27.875 53.03125 
Q 38.28125 53.03125 44.875 45.953125 
Q 51.46875 38.875 51.46875 26.03125 
Q 51.46875 25.25 51.421875 23.6875 
L 12.75 23.6875 
Q 13.234375 15.140625 17.578125 10.59375 
Q 21.921875 6.0625 28.421875 6.0625 
Q 33.25 6.0625 36.671875 8.59375 
Q 40.09375 11.140625 42.09375 16.703125 
z
M 13.234375 30.90625 
L 42.1875 30.90625 
Q 41.609375 37.453125 38.875 40.71875 
Q 34.671875 45.796875 27.984375 45.796875 
Q 21.921875 45.796875 17.796875 41.75 
Q 13.671875 37.703125 13.234375 30.90625 
z
" id="ArialMT-101"/>
     </defs>
     <g style="fill:#e6e6e6;" transform="translate(226.429531 318.741812)scale(0.1 -0.1)">
      <use xlink:href="#ArialMT-100"/>
      <use x="55.615234" xlink:href="#ArialMT-97"/>
      <use x="111.230469" xlink:href="#ArialMT-116"/>
      <use x="139.013672" xlink:href="#ArialMT-101"/>
     </g>
    </g>
   </g>
   <g id="matplotlib.axis_2">
    <g id="ytick_1">
     <g id="line2d_1">
      <path clip-path="url(#pbe100f5afd)" d="M 57.6 295.488 
L 414.72 295.488 
" style="fill:none;stroke:#2a3459;stroke-linecap:round;stroke-width:0.8;"/>
     </g>
     <g id="line2d_2"/>
     <g id="text_2">
      <!-- 0 -->
      <defs>
       <path d="M 4.15625 35.296875 
Q 4.15625 48 6.765625 55.734375 
Q 9.375 63.484375 14.515625 67.671875 
Q 19.671875 71.875 27.484375 71.875 
Q 33.25 71.875 37.59375 69.546875 
Q 41.9375 67.234375 44.765625 62.859375 
Q 47.609375 58.5 49.21875 52.21875 
Q 50.828125 45.953125 50.828125 35.296875 
Q 50.828125 22.703125 48.234375 14.96875 
Q 45.65625 7.234375 40.5 3 
Q 35.359375 -1.21875 27.484375 -1.21875 
Q 17.140625 -1.21875 11.234375 6.203125 
Q 4.15625 15.140625 4.15625 35.296875 
z
M 13.1875 35.296875 
Q 13.1875 17.671875 17.3125 11.828125 
Q 21.4375 6 27.484375 6 
Q 33.546875 6 37.671875 11.859375 
Q 41.796875 17.71875 41.796875 35.296875 
Q 41.796875 52.984375 37.671875 58.78125 
Q 33.546875 64.59375 27.390625 64.59375 
Q 21.34375 64.59375 17.71875 59.46875 
Q 13.1875 52.9375 13.1875 35.296875 
z
" id="ArialMT-48"/>
      </defs>
      <g style="fill:#e6e6e6;" transform="translate(48.539062 299.066906)scale(0.1 -0.1)">
       <use xlink:href="#ArialMT-48"/>
      </g>
     </g>
    </g>
    <g id="ytick_2">
     <g id="line2d_3">
      <path clip-path="url(#pbe100f5afd)" d="M 57.6 247.740003 
L 414.72 247.740003 
" style="fill:none;stroke:#2a3459;stroke-linecap:round;stroke-width:0.8;"/>
     </g>
     <g id="line2d_4"/>
     <g id="text_3">
      <!-- 5000 -->
      <defs>
       <path d="M 4.15625 18.75 
L 13.375 19.53125 
Q 14.40625 12.796875 18.140625 9.390625 
Q 21.875 6 27.15625 6 
Q 33.5 6 37.890625 10.78125 
Q 42.28125 15.578125 42.28125 23.484375 
Q 42.28125 31 38.0625 35.34375 
Q 33.84375 39.703125 27 39.703125 
Q 22.75 39.703125 19.328125 37.765625 
Q 15.921875 35.84375 13.96875 32.765625 
L 5.71875 33.84375 
L 12.640625 70.609375 
L 48.25 70.609375 
L 48.25 62.203125 
L 19.671875 62.203125 
L 15.828125 42.96875 
Q 22.265625 47.46875 29.34375 47.46875 
Q 38.71875 47.46875 45.15625 40.96875 
Q 51.609375 34.46875 51.609375 24.265625 
Q 51.609375 14.546875 45.953125 7.46875 
Q 39.0625 -1.21875 27.15625 -1.21875 
Q 17.390625 -1.21875 11.203125 4.25 
Q 5.03125 9.71875 4.15625 18.75 
z
" id="ArialMT-53"/>
      </defs>
      <g style="fill:#e6e6e6;" transform="translate(31.85625 251.31891)scale(0.1 -0.1)">
       <use xlink:href="#ArialMT-53"/>
       <use x="55.615234" xlink:href="#ArialMT-48"/>
       <use x="111.230469" xlink:href="#ArialMT-48"/>
       <use x="166.845703" xlink:href="#ArialMT-48"/>
      </g>
     </g>
    </g>
    <g id="ytick_3">
     <g id="line2d_5">
      <path clip-path="url(#pbe100f5afd)" d="M 57.6 199.992007 
L 414.72 199.992007 
" style="fill:none;stroke:#2a3459;stroke-linecap:round;stroke-width:0.8;"/>
     </g>
     <g id="line2d_6"/>
     <g id="text_4">
      <!-- 10000 -->
      <defs>
       <path d="M 37.25 0 
L 28.46875 0 
L 28.46875 56 
Q 25.296875 52.984375 20.140625 49.953125 
Q 14.984375 46.921875 10.890625 45.40625 
L 10.890625 53.90625 
Q 18.265625 57.375 23.78125 62.296875 
Q 29.296875 67.234375 31.59375 71.875 
L 37.25 71.875 
z
" id="ArialMT-49"/>
      </defs>
      <g style="fill:#e6e6e6;" transform="translate(26.295313 203.570913)scale(0.1 -0.1)">
       <use xlink:href="#ArialMT-49"/>
       <use x="55.615234" xlink:href="#ArialMT-48"/>
       <use x="111.230469" xlink:href="#ArialMT-48"/>
       <use x="166.845703" xlink:href="#ArialMT-48"/>
       <use x="222.460938" xlink:href="#ArialMT-48"/>
      </g>
     </g>
    </g>
    <g id="ytick_4">
     <g id="line2d_7">
      <path clip-path="url(#pbe100f5afd)" d="M 57.6 152.24401 
L 414.72 152.24401 
" style="fill:none;stroke:#2a3459;stroke-linecap:round;stroke-width:0.8;"/>
     </g>
     <g id="line2d_8"/>
     <g id="text_5">
      <!-- 15000 -->
      <g style="fill:#e6e6e6;" transform="translate(26.295313 155.822916)scale(0.1 -0.1)">
       <use xlink:href="#ArialMT-49"/>
       <use x="55.615234" xlink:href="#ArialMT-53"/>
       <use x="111.230469" xlink:href="#ArialMT-48"/>
       <use x="166.845703" xlink:href="#ArialMT-48"/>
       <use x="222.460938" xlink:href="#ArialMT-48"/>
      </g>
     </g>
    </g>
    <g id="ytick_5">
     <g id="line2d_9">
      <path clip-path="url(#pbe100f5afd)" d="M 57.6 104.496013 
L 414.72 104.496013 
" style="fill:none;stroke:#2a3459;stroke-linecap:round;stroke-width:0.8;"/>
     </g>
     <g id="line2d_10"/>
     <g id="text_6">
      <!-- 20000 -->
      <defs>
       <path d="M 50.34375 8.453125 
L 50.34375 0 
L 3.03125 0 
Q 2.9375 3.171875 4.046875 6.109375 
Q 5.859375 10.9375 9.828125 15.625 
Q 13.8125 20.3125 21.34375 26.46875 
Q 33.015625 36.03125 37.109375 41.625 
Q 41.21875 47.21875 41.21875 52.203125 
Q 41.21875 57.421875 37.46875 61 
Q 33.734375 64.59375 27.734375 64.59375 
Q 21.390625 64.59375 17.578125 60.78125 
Q 13.765625 56.984375 13.71875 50.25 
L 4.6875 51.171875 
Q 5.609375 61.28125 11.65625 66.578125 
Q 17.71875 71.875 27.9375 71.875 
Q 38.234375 71.875 44.234375 66.15625 
Q 50.25 60.453125 50.25 52 
Q 50.25 47.703125 48.484375 43.546875 
Q 46.734375 39.40625 42.65625 34.8125 
Q 38.578125 30.21875 29.109375 22.21875 
Q 21.1875 15.578125 18.9375 13.203125 
Q 16.703125 10.84375 15.234375 8.453125 
z
" id="ArialMT-50"/>
      </defs>
      <g style="fill:#e6e6e6;" transform="translate(26.295313 108.07492)scale(0.1 -0.1)">
       <use xlink:href="#ArialMT-50"/>
       <use x="55.615234" xlink:href="#ArialMT-48"/>
       <use x="111.230469" xlink:href="#ArialMT-48"/>
       <use x="166.845703" xlink:href="#ArialMT-48"/>
       <use x="222.460938" xlink:href="#ArialMT-48"/>
      </g>
     </g>
    </g>
    <g id="ytick_6">
     <g id="line2d_11">
      <path clip-path="url(#pbe100f5afd)" d="M 57.6 56.748017 
L 414.72 56.748017 
" style="fill:none;stroke:#2a3459;stroke-linecap:round;stroke-width:0.8;"/>
     </g>
     <g id="line2d_12"/>
     <g id="text_7">
      <!-- 25000 -->
      <g style="fill:#e6e6e6;" transform="translate(26.295313 60.326923)scale(0.1 -0.1)">
       <use xlink:href="#ArialMT-50"/>
       <use x="55.615234" xlink:href="#ArialMT-53"/>
       <use x="111.230469" xlink:href="#ArialMT-48"/>
       <use x="166.845703" xlink:href="#ArialMT-48"/>
       <use x="222.460938" xlink:href="#ArialMT-48"/>
      </g>
     </g>
    </g>
    <g id="text_8">
     <!-- index -->
     <defs>
      <path d="M 6.640625 61.46875 
L 6.640625 71.578125 
L 15.4375 71.578125 
L 15.4375 61.46875 
z
M 6.640625 0 
L 6.640625 51.859375 
L 15.4375 51.859375 
L 15.4375 0 
z
" id="ArialMT-105"/>
      <path d="M 6.59375 0 
L 6.59375 51.859375 
L 14.5 51.859375 
L 14.5 44.484375 
Q 20.21875 53.03125 31 53.03125 
Q 35.6875 53.03125 39.625 51.34375 
Q 43.5625 49.65625 45.515625 46.921875 
Q 47.46875 44.1875 48.25 40.4375 
Q 48.734375 37.984375 48.734375 31.890625 
L 48.734375 0 
L 39.9375 0 
L 39.9375 31.546875 
Q 39.9375 36.921875 38.90625 39.578125 
Q 37.890625 42.234375 35.28125 43.8125 
Q 32.671875 45.40625 29.15625 45.40625 
Q 23.53125 45.40625 19.453125 41.84375 
Q 15.375 38.28125 15.375 28.328125 
L 15.375 0 
z
" id="ArialMT-110"/>
      <path d="M 0.734375 0 
L 19.671875 26.953125 
L 2.15625 51.859375 
L 13.140625 51.859375 
L 21.09375 39.703125 
Q 23.34375 36.234375 24.703125 33.890625 
Q 26.859375 37.109375 28.65625 39.59375 
L 37.40625 51.859375 
L 47.90625 51.859375 
L 29.984375 27.4375 
L 49.265625 0 
L 38.484375 0 
L 27.828125 16.109375 
L 25 20.453125 
L 11.375 0 
z
" id="ArialMT-120"/>
     </defs>
     <g style="fill:#e6e6e6;" transform="translate(20.307813 186.480344)rotate(-90)scale(0.1 -0.1)">
      <use xlink:href="#ArialMT-105"/>
      <use x="22.216797" xlink:href="#ArialMT-110"/>
      <use x="77.832031" xlink:href="#ArialMT-100"/>
      <use x="133.447266" xlink:href="#ArialMT-101"/>
      <use x="189.0625" xlink:href="#ArialMT-120"/>
     </g>
    </g>
   </g>
   <g id="line2d_13">
    <path clip-path="url(#pbe100f5afd)" d="M 73.832727 295.488 
L 128.090062 295.488 
L 128.979527 257.556991 
L 129.868991 254.49157 
L 130.758456 238.553289 
L 131.64792 241.227177 
L 133.426849 220.514096 
L 134.316314 232.747132 
L 135.205778 235.105883 
L 136.095243 235.506967 
L 136.984707 229.194681 
L 137.874172 231.706226 
L 138.763636 237.302291 
L 139.653101 238.247702 
L 140.542565 238.782479 
L 141.43203 242.80286 
L 142.321494 237.292742 
L 143.210959 236.242286 
L 144.100423 236.032195 
L 144.989888 235.315975 
L 145.879352 232.546591 
L 146.768817 228.249271 
L 147.658281 233.99813 
L 148.547746 231.286044 
L 149.43721 230.350183 
L 150.326675 235.105883 
L 151.216139 222.700954 
L 152.105604 212.664325 
L 152.995068 219.549586 
L 153.884533 218.250841 
L 154.773998 215.863441 
L 155.663462 195.599191 
L 156.552927 225.078804 
L 157.442391 230.65577 
L 158.331856 231.38154 
L 159.22132 228.822247 
L 160.110785 228.99414 
L 161.000249 231.37199 
L 161.889714 228.850896 
L 162.779178 225.355742 
L 163.668643 223.350327 
L 164.558107 221.698246 
L 165.447572 199.333084 
L 166.337036 190.738445 
L 167.226501 197.174875 
L 168.115965 195.112161 
L 169.00543 201.644087 
L 169.894894 200.985165 
L 170.784359 197.910194 
L 171.673823 192.648365 
L 172.563288 195.828381 
L 173.452752 196.5828 
L 174.342217 196.974333 
L 175.231681 210.372421 
L 176.121146 207.937273 
L 177.01061 203.840495 
L 177.900075 186.718064 
L 178.789539 53.568 
L 179.679004 189.554295 
L 180.568468 197.7574 
L 181.457933 203.00968 
L 182.347397 207.383397 
L 183.236862 205.416179 
L 184.126326 213.275499 
L 185.015791 210.849901 
L 185.905255 202.818688 
L 186.79472 210.763955 
L 187.684184 212.607027 
L 188.573649 215.710647 
L 189.463113 215.538754 
L 190.352578 214.612443 
L 191.242042 219.091205 
L 192.131507 199.724618 
L 193.020971 213.008111 
L 193.910436 221.449956 
L 194.7999 217.534621 
L 195.689365 220.17986 
L 196.578829 227.265662 
L 197.468294 221.793742 
L 198.357758 222.271222 
L 199.247223 228.869995 
L 200.136687 232.431996 
L 201.026152 236.61472 
L 201.915616 239.24086 
L 202.805081 250.490288 
L 203.694545 249.821816 
L 204.58401 244.454941 
L 205.473474 257.738434 
L 206.362939 253.355168 
L 207.252403 260.230879 
L 208.141868 261.033046 
L 209.031333 260.574665 
L 209.920797 263.640086 
L 210.810262 261.739716 
L 211.699726 260.612863 
L 212.589191 257.671587 
L 213.478655 262.35089 
L 214.36812 262.981164 
L 215.257584 264.795588 
L 216.147049 267.077942 
L 217.036513 259.084927 
L 217.925978 260.45052 
L 219.704907 266.495416 
L 220.594371 263.735582 
L 221.483836 262.207646 
L 222.3733 262.723325 
L 223.262765 257.795731 
L 224.152229 260.842054 
L 225.041694 263.286751 
L 225.931158 263.401346 
L 226.820623 259.361866 
L 227.710087 264.537749 
L 228.599552 266.610012 
L 229.489016 262.408188 
L 230.378481 266.466768 
L 231.267945 267.994704 
L 232.15741 269.933272 
L 233.046874 270.143363 
L 233.936339 271.757246 
L 234.825803 270.792736 
L 235.715268 265.139373 
L 236.604732 268.367138 
L 237.494197 270.172012 
L 238.383661 270.716339 
L 239.273126 270.095615 
L 240.16259 270.019219 
L 241.941519 259.762949 
L 242.830984 259.657903 
L 243.720448 258.235013 
L 244.609913 260.67971 
L 245.499377 263.878826 
L 246.388842 268.634527 
L 247.278306 270.582645 
L 248.167771 268.386237 
L 249.057235 269.102457 
L 249.9467 271.241567 
L 250.836164 274.679423 
L 251.725629 279.692963 
L 252.615093 277.238716 
L 253.504558 274.182844 
L 255.283487 273.113289 
L 256.172951 275.070957 
L 257.062416 275.309697 
L 257.95188 276.092764 
L 258.841345 277.61115 
L 261.509738 273.428426 
L 262.399203 273.896356 
L 263.288667 275.834925 
L 264.178132 274.75582 
L 265.067597 276.617992 
L 265.957061 278.222324 
L 266.846526 278.012233 
L 267.73599 276.837632 
L 268.625455 277.267364 
L 271.293848 276.88538 
L 272.183313 277.964485 
L 273.072777 278.623408 
L 273.962242 276.914029 
L 275.741171 278.08863 
L 276.630635 277.725745 
L 277.5201 277.639799 
L 278.409564 280.342335 
L 279.299029 280.542877 
L 280.188493 276.512946 
L 281.077958 276.89493 
L 281.967422 276.780335 
L 283.746351 277.974035 
L 284.635816 280.256389 
L 285.52528 281.345043 
L 286.414745 278.298721 
L 287.304209 278.766652 
L 288.193674 278.632957 
L 289.083138 279.186834 
L 289.972603 276.073665 
L 290.862067 281.1827 
L 291.751532 281.345043 
L 292.640996 277.907188 
L 293.530461 277.907188 
L 294.419925 277.553852 
L 295.30939 279.100888 
L 296.198854 278.661606 
L 297.088319 280.781617 
L 297.977783 281.068105 
L 298.867248 277.563402 
L 299.756712 278.250973 
L 300.646177 277.324662 
L 301.535641 278.995842 
L 302.425106 280.332786 
L 303.31457 281.450089 
L 304.204035 281.488287 
L 305.093499 278.995842 
L 305.982964 280.065397 
L 306.872428 278.632957 
L 307.761893 278.422866 
L 308.651357 277.649348 
L 309.540822 278.422866 
L 310.430286 276.617992 
L 311.319751 275.510238 
L 312.209215 268.567679 
L 313.09868 273.237434 
L 313.988144 275.013659 
L 314.877609 279.129536 
L 315.767073 277.954936 
L 316.656538 273.886806 
L 317.546002 274.927713 
L 318.435467 246.001976 
L 319.324932 265.578655 
L 320.214396 270.573095 
L 321.103861 272.540313 
L 321.993325 273.676715 
L 322.88279 267.60317 
L 323.772254 270.974179 
L 324.661719 269.302999 
L 325.551183 272.349321 
L 326.440648 271.690398 
L 327.330112 268.252543 
L 328.219577 269.952371 
L 329.109041 265.139373 
L 329.998506 270.448951 
L 330.88797 270.955079 
L 332.666899 162.681722 
L 333.556364 174.790614 
L 334.445828 189.630691 
L 335.335293 196.162617 
L 336.224757 209.21692 
L 337.114222 218.059849 
L 338.003686 230.865861 
L 338.893151 254.625264 
L 339.782615 240.959788 
L 340.67208 251.798583 
L 341.561544 255.67572 
L 342.451009 256.726176 
L 343.340473 258.101319 
L 344.229938 258.817539 
L 345.119402 253.679854 
L 346.008867 259.96349 
L 346.898331 260.737008 
L 347.787796 248.074239 
L 348.67726 212.053151 
L 349.566725 232.011813 
L 350.456189 238.801578 
L 351.345654 250.299296 
L 352.235118 253.899495 
L 353.124583 262.159898 
L 354.014047 264.069818 
L 354.903512 262.876118 
L 355.792976 262.389089 
L 356.682441 267.975604 
L 357.571905 267.326232 
L 358.46137 268.357588 
L 359.350834 261.63467 
L 360.240299 249.210642 
L 361.129763 250.19425 
L 362.019228 260.192681 
L 362.908692 261.911609 
L 363.798157 259.26637 
L 364.687621 265.597754 
L 365.577086 268.959213 
L 366.46655 268.271642 
L 367.356015 267.393079 
L 368.245479 266.743706 
L 369.134944 268.519931 
L 370.024408 267.746414 
L 370.913873 273.151487 
L 371.803337 271.862291 
L 372.692802 268.386237 
L 373.582267 268.462634 
L 374.471731 263.258102 
L 375.361196 266.304424 
L 376.25066 265.22532 
L 377.140125 268.367138 
L 378.029589 269.570387 
L 378.919054 267.049293 
L 379.808518 265.311266 
L 381.587447 269.866425 
L 382.476912 270.200661 
L 383.366376 270.783187 
L 384.255841 228.679003 
L 385.145305 244.111156 
L 386.03477 250.834074 
L 386.924234 249.945961 
L 387.813699 268.577229 
L 388.703163 268.414886 
L 390.482092 274.536179 
L 391.371557 270.191111 
L 392.261021 270.334355 
L 393.150486 272.301573 
L 394.03995 272.931846 
L 394.929415 273.925005 
L 396.708344 277.257815 
L 397.597808 272.759954 
L 398.487273 271.002827 
L 398.487273 271.002827 
" style="fill:none;stroke:#08f7fe;stroke-linecap:round;stroke-width:1.5;"/>
   </g>
   <g id="patch_3">
    <path d="M 57.6 307.584 
L 57.6 41.472 
" style="fill:none;"/>
   </g>
   <g id="patch_4">
    <path d="M 414.72 307.584 
L 414.72 41.472 
" style="fill:none;"/>
   </g>
   <g id="patch_5">
    <path d="M 57.6 307.584 
L 414.72 307.584 
" style="fill:none;"/>
   </g>
   <g id="patch_6">
    <path d="M 57.6 41.472 
L 414.72 41.472 
" style="fill:none;"/>
   </g>
  </g>
 </g>
 <defs>
  <clipPath id="pbe100f5afd">
   <rect height="266.112" width="357.12" x="57.6" y="41.472"/>
  </clipPath>
 </defs>
</svg>
