<?xml version="1.0" encoding="utf-8" standalone="no"?>
<!DOCTYPE svg PUBLIC "-//W3C//DTD SVG 1.1//EN"
  "http://www.w3.org/Graphics/SVG/1.1/DTD/svg11.dtd">
<!-- Created with matplotlib (https://matplotlib.org/) -->
<svg height="345.6pt" version="1.1" viewBox="0 0 460.8 345.6" width="460.8pt" xmlns="http://www.w3.org/2000/svg" xmlns:xlink="http://www.w3.org/1999/xlink">
 <defs>
  <style type="text/css">
*{stroke-linecap:butt;stroke-linejoin:round;}
  </style>
 </defs>
 <g id="figure_1">
  <g id="patch_1">
   <path d="M 0 345.6 
L 460.8 345.6 
L 460.8 0 
L 0 0 
z
" style="fill:#212946;"/>
  </g>
  <g id="axes_1">
   <g id="patch_2">
    <path d="M 57.6 307.584 
L 414.72 307.584 
L 414.72 41.472 
L 57.6 41.472 
z
" style="fill:#212946;"/>
   </g>
   <g id="matplotlib.axis_1">
    <g id="text_1">
     <!-- date -->
     <defs>
      <path d="M 40.234375 0 
L 40.234375 6.546875 
Q 35.296875 -1.171875 25.734375 -1.171875 
Q 19.53125 -1.171875 14.328125 2.25 
Q 9.125 5.671875 6.265625 11.796875 
Q 3.421875 17.921875 3.421875 25.875 
Q 3.421875 33.640625 6 39.96875 
Q 8.59375 46.296875 13.765625 49.65625 
Q 18.953125 53.03125 25.34375 53.03125 
Q 30.03125 53.03125 33.6875 51.046875 
Q 37.359375 49.078125 39.65625 45.90625 
L 39.65625 71.578125 
L 48.390625 71.578125 
L 48.390625 0 
z
M 12.453125 25.875 
Q 12.453125 15.921875 16.640625 10.984375 
Q 20.84375 6.0625 26.5625 6.0625 
Q 32.328125 6.0625 36.34375 10.765625 
Q 40.375 15.484375 40.375 25.140625 
Q 40.375 35.796875 36.265625 40.765625 
Q 32.171875 45.75 26.171875 45.75 
Q 20.3125 45.75 16.375 40.96875 
Q 12.453125 36.1875 12.453125 25.875 
z
" id="ArialMT-100"/>
      <path d="M 40.4375 6.390625 
Q 35.546875 2.25 31.03125 0.53125 
Q 26.515625 -1.171875 21.34375 -1.171875 
Q 12.796875 -1.171875 8.203125 3 
Q 3.609375 7.171875 3.609375 13.671875 
Q 3.609375 17.484375 5.34375 20.625 
Q 7.078125 23.78125 9.890625 25.6875 
Q 12.703125 27.59375 16.21875 28.5625 
Q 18.796875 29.25 24.03125 29.890625 
Q 34.671875 31.15625 39.703125 32.90625 
Q 39.75 34.71875 39.75 35.203125 
Q 39.75 40.578125 37.25 42.78125 
Q 33.890625 45.75 27.25 45.75 
Q 21.046875 45.75 18.09375 43.578125 
Q 15.140625 41.40625 13.71875 35.890625 
L 5.125 37.0625 
Q 6.296875 42.578125 8.984375 45.96875 
Q 11.671875 49.359375 16.75 51.1875 
Q 21.828125 53.03125 28.515625 53.03125 
Q 35.15625 53.03125 39.296875 51.46875 
Q 43.453125 49.90625 45.40625 47.53125 
Q 47.359375 45.171875 48.140625 41.546875 
Q 48.578125 39.3125 48.578125 33.453125 
L 48.578125 21.734375 
Q 48.578125 9.46875 49.140625 6.21875 
Q 49.703125 2.984375 51.375 0 
L 42.1875 0 
Q 40.828125 2.734375 40.4375 6.390625 
z
M 39.703125 26.03125 
Q 34.90625 24.078125 25.34375 22.703125 
Q 19.921875 21.921875 17.671875 20.9375 
Q 15.4375 19.96875 14.203125 18.09375 
Q 12.984375 16.21875 12.984375 13.921875 
Q 12.984375 10.40625 15.640625 8.0625 
Q 18.3125 5.71875 23.4375 5.71875 
Q 28.515625 5.71875 32.46875 7.9375 
Q 36.421875 10.15625 38.28125 14.015625 
Q 39.703125 17 39.703125 22.796875 
z
" id="ArialMT-97"/>
      <path d="M 25.78125 7.859375 
L 27.046875 0.09375 
Q 23.34375 -0.6875 20.40625 -0.6875 
Q 15.625 -0.6875 12.984375 0.828125 
Q 10.359375 2.34375 9.28125 4.8125 
Q 8.203125 7.28125 8.203125 15.1875 
L 8.203125 45.015625 
L 1.765625 45.015625 
L 1.765625 51.859375 
L 8.203125 51.859375 
L 8.203125 64.703125 
L 16.9375 69.96875 
L 16.9375 51.859375 
L 25.78125 51.859375 
L 25.78125 45.015625 
L 16.9375 45.015625 
L 16.9375 14.703125 
Q 16.9375 10.9375 17.40625 9.859375 
Q 17.875 8.796875 18.921875 8.15625 
Q 19.96875 7.515625 21.921875 7.515625 
Q 23.390625 7.515625 25.78125 7.859375 
z
" id="ArialMT-116"/>
      <path d="M 42.09375 16.703125 
L 51.171875 15.578125 
Q 49.03125 7.625 43.21875 3.21875 
Q 37.40625 -1.171875 28.375 -1.171875 
Q 17 -1.171875 10.328125 5.828125 
Q 3.65625 12.84375 3.65625 25.484375 
Q 3.65625 38.578125 10.390625 45.796875 
Q 17.140625 53.03125 27.875 53.03125 
Q 38.28125 53.03125 44.875 45.953125 
Q 51.46875 38.875 51.46875 26.03125 
Q 51.46875 25.25 51.421875 23.6875 
L 12.75 23.6875 
Q 13.234375 15.140625 17.578125 10.59375 
Q 21.921875 6.0625 28.421875 6.0625 
Q 33.25 6.0625 36.671875 8.59375 
Q 40.09375 11.140625 42.09375 16.703125 
z
M 13.234375 30.90625 
L 42.1875 30.90625 
Q 41.609375 37.453125 38.875 40.71875 
Q 34.671875 45.796875 27.984375 45.796875 
Q 21.921875 45.796875 17.796875 41.75 
Q 13.671875 37.703125 13.234375 30.90625 
z
" id="ArialMT-101"/>
     </defs>
     <g style="fill:#e6e6e6;" transform="translate(226.429531 318.741812)scale(0.1 -0.1)">
      <use xlink:href="#ArialMT-100"/>
      <use x="55.615234" xlink:href="#ArialMT-97"/>
      <use x="111.230469" xlink:href="#ArialMT-116"/>
      <use x="139.013672" xlink:href="#ArialMT-101"/>
     </g>
    </g>
   </g>
   <g id="matplotlib.axis_2">
    <g id="ytick_1">
     <g id="line2d_1">
      <path clip-path="url(#p461463cfc9)" d="M 57.6 295.488 
L 414.72 295.488 
" style="fill:none;stroke:#2a3459;stroke-linecap:round;stroke-width:0.8;"/>
     </g>
     <g id="line2d_2"/>
     <g id="text_2">
      <!-- 0 -->
      <defs>
       <path d="M 4.15625 35.296875 
Q 4.15625 48 6.765625 55.734375 
Q 9.375 63.484375 14.515625 67.671875 
Q 19.671875 71.875 27.484375 71.875 
Q 33.25 71.875 37.59375 69.546875 
Q 41.9375 67.234375 44.765625 62.859375 
Q 47.609375 58.5 49.21875 52.21875 
Q 50.828125 45.953125 50.828125 35.296875 
Q 50.828125 22.703125 48.234375 14.96875 
Q 45.65625 7.234375 40.5 3 
Q 35.359375 -1.21875 27.484375 -1.21875 
Q 17.140625 -1.21875 11.234375 6.203125 
Q 4.15625 15.140625 4.15625 35.296875 
z
M 13.1875 35.296875 
Q 13.1875 17.671875 17.3125 11.828125 
Q 21.4375 6 27.484375 6 
Q 33.546875 6 37.671875 11.859375 
Q 41.796875 17.71875 41.796875 35.296875 
Q 41.796875 52.984375 37.671875 58.78125 
Q 33.546875 64.59375 27.390625 64.59375 
Q 21.34375 64.59375 17.71875 59.46875 
Q 13.1875 52.9375 13.1875 35.296875 
z
" id="ArialMT-48"/>
      </defs>
      <g style="fill:#e6e6e6;" transform="translate(48.539062 299.066906)scale(0.1 -0.1)">
       <use xlink:href="#ArialMT-48"/>
      </g>
     </g>
    </g>
    <g id="ytick_2">
     <g id="line2d_3">
      <path clip-path="url(#p461463cfc9)" d="M 57.6 261.544796 
L 414.72 261.544796 
" style="fill:none;stroke:#2a3459;stroke-linecap:round;stroke-width:0.8;"/>
     </g>
     <g id="line2d_4"/>
     <g id="text_3">
      <!-- 5000 -->
      <defs>
       <path d="M 4.15625 18.75 
L 13.375 19.53125 
Q 14.40625 12.796875 18.140625 9.390625 
Q 21.875 6 27.15625 6 
Q 33.5 6 37.890625 10.78125 
Q 42.28125 15.578125 42.28125 23.484375 
Q 42.28125 31 38.0625 35.34375 
Q 33.84375 39.703125 27 39.703125 
Q 22.75 39.703125 19.328125 37.765625 
Q 15.921875 35.84375 13.96875 32.765625 
L 5.71875 33.84375 
L 12.640625 70.609375 
L 48.25 70.609375 
L 48.25 62.203125 
L 19.671875 62.203125 
L 15.828125 42.96875 
Q 22.265625 47.46875 29.34375 47.46875 
Q 38.71875 47.46875 45.15625 40.96875 
Q 51.609375 34.46875 51.609375 24.265625 
Q 51.609375 14.546875 45.953125 7.46875 
Q 39.0625 -1.21875 27.15625 -1.21875 
Q 17.390625 -1.21875 11.203125 4.25 
Q 5.03125 9.71875 4.15625 18.75 
z
" id="ArialMT-53"/>
      </defs>
      <g style="fill:#e6e6e6;" transform="translate(31.85625 265.123703)scale(0.1 -0.1)">
       <use xlink:href="#ArialMT-53"/>
       <use x="55.615234" xlink:href="#ArialMT-48"/>
       <use x="111.230469" xlink:href="#ArialMT-48"/>
       <use x="166.845703" xlink:href="#ArialMT-48"/>
      </g>
     </g>
    </g>
    <g id="ytick_3">
     <g id="line2d_5">
      <path clip-path="url(#p461463cfc9)" d="M 57.6 227.601593 
L 414.72 227.601593 
" style="fill:none;stroke:#2a3459;stroke-linecap:round;stroke-width:0.8;"/>
     </g>
     <g id="line2d_6"/>
     <g id="text_4">
      <!-- 10000 -->
      <defs>
       <path d="M 37.25 0 
L 28.46875 0 
L 28.46875 56 
Q 25.296875 52.984375 20.140625 49.953125 
Q 14.984375 46.921875 10.890625 45.40625 
L 10.890625 53.90625 
Q 18.265625 57.375 23.78125 62.296875 
Q 29.296875 67.234375 31.59375 71.875 
L 37.25 71.875 
z
" id="ArialMT-49"/>
      </defs>
      <g style="fill:#e6e6e6;" transform="translate(26.295313 231.180499)scale(0.1 -0.1)">
       <use xlink:href="#ArialMT-49"/>
       <use x="55.615234" xlink:href="#ArialMT-48"/>
       <use x="111.230469" xlink:href="#ArialMT-48"/>
       <use x="166.845703" xlink:href="#ArialMT-48"/>
       <use x="222.460938" xlink:href="#ArialMT-48"/>
      </g>
     </g>
    </g>
    <g id="ytick_4">
     <g id="line2d_7">
      <path clip-path="url(#p461463cfc9)" d="M 57.6 193.658389 
L 414.72 193.658389 
" style="fill:none;stroke:#2a3459;stroke-linecap:round;stroke-width:0.8;"/>
     </g>
     <g id="line2d_8"/>
     <g id="text_5">
      <!-- 15000 -->
      <g style="fill:#e6e6e6;" transform="translate(26.295313 197.237296)scale(0.1 -0.1)">
       <use xlink:href="#ArialMT-49"/>
       <use x="55.615234" xlink:href="#ArialMT-53"/>
       <use x="111.230469" xlink:href="#ArialMT-48"/>
       <use x="166.845703" xlink:href="#ArialMT-48"/>
       <use x="222.460938" xlink:href="#ArialMT-48"/>
      </g>
     </g>
    </g>
    <g id="ytick_5">
     <g id="line2d_9">
      <path clip-path="url(#p461463cfc9)" d="M 57.6 159.715186 
L 414.72 159.715186 
" style="fill:none;stroke:#2a3459;stroke-linecap:round;stroke-width:0.8;"/>
     </g>
     <g id="line2d_10"/>
     <g id="text_6">
      <!-- 20000 -->
      <defs>
       <path d="M 50.34375 8.453125 
L 50.34375 0 
L 3.03125 0 
Q 2.9375 3.171875 4.046875 6.109375 
Q 5.859375 10.9375 9.828125 15.625 
Q 13.8125 20.3125 21.34375 26.46875 
Q 33.015625 36.03125 37.109375 41.625 
Q 41.21875 47.21875 41.21875 52.203125 
Q 41.21875 57.421875 37.46875 61 
Q 33.734375 64.59375 27.734375 64.59375 
Q 21.390625 64.59375 17.578125 60.78125 
Q 13.765625 56.984375 13.71875 50.25 
L 4.6875 51.171875 
Q 5.609375 61.28125 11.65625 66.578125 
Q 17.71875 71.875 27.9375 71.875 
Q 38.234375 71.875 44.234375 66.15625 
Q 50.25 60.453125 50.25 52 
Q 50.25 47.703125 48.484375 43.546875 
Q 46.734375 39.40625 42.65625 34.8125 
Q 38.578125 30.21875 29.109375 22.21875 
Q 21.1875 15.578125 18.9375 13.203125 
Q 16.703125 10.84375 15.234375 8.453125 
z
" id="ArialMT-50"/>
      </defs>
      <g style="fill:#e6e6e6;" transform="translate(26.295313 163.294092)scale(0.1 -0.1)">
       <use xlink:href="#ArialMT-50"/>
       <use x="55.615234" xlink:href="#ArialMT-48"/>
       <use x="111.230469" xlink:href="#ArialMT-48"/>
       <use x="166.845703" xlink:href="#ArialMT-48"/>
       <use x="222.460938" xlink:href="#ArialMT-48"/>
      </g>
     </g>
    </g>
    <g id="ytick_6">
     <g id="line2d_11">
      <path clip-path="url(#p461463cfc9)" d="M 57.6 125.771982 
L 414.72 125.771982 
" style="fill:none;stroke:#2a3459;stroke-linecap:round;stroke-width:0.8;"/>
     </g>
     <g id="line2d_12"/>
     <g id="text_7">
      <!-- 25000 -->
      <g style="fill:#e6e6e6;" transform="translate(26.295313 129.350889)scale(0.1 -0.1)">
       <use xlink:href="#ArialMT-50"/>
       <use x="55.615234" xlink:href="#ArialMT-53"/>
       <use x="111.230469" xlink:href="#ArialMT-48"/>
       <use x="166.845703" xlink:href="#ArialMT-48"/>
       <use x="222.460938" xlink:href="#ArialMT-48"/>
      </g>
     </g>
    </g>
    <g id="ytick_7">
     <g id="line2d_13">
      <path clip-path="url(#p461463cfc9)" d="M 57.6 91.828779 
L 414.72 91.828779 
" style="fill:none;stroke:#2a3459;stroke-linecap:round;stroke-width:0.8;"/>
     </g>
     <g id="line2d_14"/>
     <g id="text_8">
      <!-- 30000 -->
      <defs>
       <path d="M 4.203125 18.890625 
L 12.984375 20.0625 
Q 14.5 12.59375 18.140625 9.296875 
Q 21.78125 6 27 6 
Q 33.203125 6 37.46875 10.296875 
Q 41.75 14.59375 41.75 20.953125 
Q 41.75 27 37.796875 30.921875 
Q 33.84375 34.859375 27.734375 34.859375 
Q 25.25 34.859375 21.53125 33.890625 
L 22.515625 41.609375 
Q 23.390625 41.5 23.921875 41.5 
Q 29.546875 41.5 34.03125 44.421875 
Q 38.53125 47.359375 38.53125 53.46875 
Q 38.53125 58.296875 35.25 61.46875 
Q 31.984375 64.65625 26.8125 64.65625 
Q 21.6875 64.65625 18.265625 61.421875 
Q 14.84375 58.203125 13.875 51.765625 
L 5.078125 53.328125 
Q 6.6875 62.15625 12.390625 67.015625 
Q 18.109375 71.875 26.609375 71.875 
Q 32.46875 71.875 37.390625 69.359375 
Q 42.328125 66.84375 44.9375 62.5 
Q 47.5625 58.15625 47.5625 53.265625 
Q 47.5625 48.640625 45.0625 44.828125 
Q 42.578125 41.015625 37.703125 38.765625 
Q 44.046875 37.3125 47.5625 32.6875 
Q 51.078125 28.078125 51.078125 21.140625 
Q 51.078125 11.765625 44.234375 5.25 
Q 37.40625 -1.265625 26.953125 -1.265625 
Q 17.53125 -1.265625 11.296875 4.34375 
Q 5.078125 9.96875 4.203125 18.890625 
z
" id="ArialMT-51"/>
      </defs>
      <g style="fill:#e6e6e6;" transform="translate(26.295313 95.407685)scale(0.1 -0.1)">
       <use xlink:href="#ArialMT-51"/>
       <use x="55.615234" xlink:href="#ArialMT-48"/>
       <use x="111.230469" xlink:href="#ArialMT-48"/>
       <use x="166.845703" xlink:href="#ArialMT-48"/>
       <use x="222.460938" xlink:href="#ArialMT-48"/>
      </g>
     </g>
    </g>
    <g id="ytick_8">
     <g id="line2d_15">
      <path clip-path="url(#p461463cfc9)" d="M 57.6 57.885575 
L 414.72 57.885575 
" style="fill:none;stroke:#2a3459;stroke-linecap:round;stroke-width:0.8;"/>
     </g>
     <g id="line2d_16"/>
     <g id="text_9">
      <!-- 35000 -->
      <g style="fill:#e6e6e6;" transform="translate(26.295313 61.464482)scale(0.1 -0.1)">
       <use xlink:href="#ArialMT-51"/>
       <use x="55.615234" xlink:href="#ArialMT-53"/>
       <use x="111.230469" xlink:href="#ArialMT-48"/>
       <use x="166.845703" xlink:href="#ArialMT-48"/>
       <use x="222.460938" xlink:href="#ArialMT-48"/>
      </g>
     </g>
    </g>
    <g id="text_10">
     <!-- index -->
     <defs>
      <path d="M 6.640625 61.46875 
L 6.640625 71.578125 
L 15.4375 71.578125 
L 15.4375 61.46875 
z
M 6.640625 0 
L 6.640625 51.859375 
L 15.4375 51.859375 
L 15.4375 0 
z
" id="ArialMT-105"/>
      <path d="M 6.59375 0 
L 6.59375 51.859375 
L 14.5 51.859375 
L 14.5 44.484375 
Q 20.21875 53.03125 31 53.03125 
Q 35.6875 53.03125 39.625 51.34375 
Q 43.5625 49.65625 45.515625 46.921875 
Q 47.46875 44.1875 48.25 40.4375 
Q 48.734375 37.984375 48.734375 31.890625 
L 48.734375 0 
L 39.9375 0 
L 39.9375 31.546875 
Q 39.9375 36.921875 38.90625 39.578125 
Q 37.890625 42.234375 35.28125 43.8125 
Q 32.671875 45.40625 29.15625 45.40625 
Q 23.53125 45.40625 19.453125 41.84375 
Q 15.375 38.28125 15.375 28.328125 
L 15.375 0 
z
" id="ArialMT-110"/>
      <path d="M 0.734375 0 
L 19.671875 26.953125 
L 2.15625 51.859375 
L 13.140625 51.859375 
L 21.09375 39.703125 
Q 23.34375 36.234375 24.703125 33.890625 
Q 26.859375 37.109375 28.65625 39.59375 
L 37.40625 51.859375 
L 47.90625 51.859375 
L 29.984375 27.4375 
L 49.265625 0 
L 38.484375 0 
L 27.828125 16.109375 
L 25 20.453125 
L 11.375 0 
z
" id="ArialMT-120"/>
     </defs>
     <g style="fill:#e6e6e6;" transform="translate(20.307813 186.480344)rotate(-90)scale(0.1 -0.1)">
      <use xlink:href="#ArialMT-105"/>
      <use x="22.216797" xlink:href="#ArialMT-110"/>
      <use x="77.832031" xlink:href="#ArialMT-100"/>
      <use x="133.447266" xlink:href="#ArialMT-101"/>
      <use x="189.0625" xlink:href="#ArialMT-120"/>
     </g>
    </g>
   </g>
   <g id="line2d_17">
    <path clip-path="url(#p461463cfc9)" d="M 73.832727 295.488 
L 117.77768 295.488 
L 118.674515 289.697289 
L 119.571351 287.361997 
L 120.468187 286.913947 
L 121.365023 277.742493 
L 122.261858 277.925787 
L 124.05553 272.141865 
L 124.952366 267.654573 
L 125.849201 264.884808 
L 126.746037 265.753754 
L 127.642873 265.536517 
L 128.539709 255.591159 
L 129.436544 243.473435 
L 130.33338 228.891435 
L 131.230216 227.397934 
L 132.127052 197.975965 
L 133.023887 201.764026 
L 133.920723 153.428905 
L 134.817559 95.691516 
L 135.714395 195.966527 
L 136.611231 53.568 
L 137.508066 60.886155 
L 138.404902 169.273592 
L 139.301738 187.582556 
L 140.198574 137.679258 
L 141.095409 209.251897 
L 141.992245 195.185834 
L 142.889081 154.881674 
L 143.785917 178.757323 
L 144.682752 178.383948 
L 145.579588 178.954194 
L 146.476424 157.502089 
L 147.37326 204.608467 
L 148.270095 213.657725 
L 149.166931 186.774708 
L 150.063767 191.302731 
L 150.960603 173.631899 
L 151.857438 174.561943 
L 152.754274 182.056603 
L 153.65111 209.876452 
L 154.547946 225.442805 
L 155.444782 206.454977 
L 156.341617 206.903028 
L 157.238453 189.931426 
L 158.135289 193.767008 
L 159.032125 207.575103 
L 159.92896 204.309767 
L 160.825796 204.859647 
L 161.722632 188.702682 
L 162.619468 194.289733 
L 163.516303 216.223831 
L 164.413139 206.583961 
L 165.309975 165.519474 
L 166.206811 197.860558 
L 167.103646 222.598365 
L 168.000482 188.376827 
L 168.897318 188.302152 
L 169.794154 196.238073 
L 170.690989 149.878446 
L 171.587825 149.518648 
L 172.484661 274.843744 
L 173.381497 272.637435 
L 174.278332 202.368216 
L 175.175168 202.361427 
L 176.072004 199.978614 
L 176.96884 201.356708 
L 177.865676 208.749538 
L 178.762511 225.300244 
L 179.659347 277.077206 
L 180.556183 277.077206 
L 181.453019 276.079276 
L 182.349854 192.952371 
L 183.24669 193.149241 
L 184.143526 217.751275 
L 185.040362 219.462013 
L 185.937197 274.069839 
L 186.834033 276.880336 
L 187.730869 223.243286 
L 188.627705 210.731821 
L 189.52454 210.317714 
L 190.421376 219.380549 
L 191.318212 224.505973 
L 192.215048 223.881418 
L 193.111883 277.246922 
L 194.008719 222.544056 
L 194.905555 276.303301 
L 195.802391 273.336665 
L 196.699227 273.099063 
L 197.596062 218.083919 
L 198.492898 270.410761 
L 199.389734 209.550597 
L 200.28657 269.297424 
L 201.183405 226.943095 
L 202.080241 273.594634 
L 202.977077 220.683968 
L 203.873913 273.234836 
L 204.770748 268.856163 
L 205.667584 269.372099 
L 206.56442 275.149232 
L 207.461256 278.910139 
L 208.358091 270.797714 
L 209.254927 255.998477 
L 210.151763 264.138057 
L 211.048599 276.31009 
L 211.945434 269.684377 
L 212.84227 273.757561 
L 213.739106 271.530887 
L 214.635942 272.942924 
L 215.532777 273.730407 
L 216.429613 275.692324 
L 217.326449 278.774367 
L 218.223285 271.598773 
L 219.120121 273.282356 
L 220.016956 275.278217 
L 220.913792 276.853181 
L 221.810628 277.925787 
L 222.707464 273.553902 
L 223.604299 282.433444 
L 225.397971 276.038544 
L 226.294807 275.366469 
L 227.191642 277.633875 
L 228.088478 273.743984 
L 228.985314 282.935803 
L 229.88215 284.8502 
L 230.778985 280.824536 
L 231.675821 279.242783 
L 232.572657 270.994584 
L 233.469493 280.220347 
L 234.366328 280.40364 
L 235.263164 284.354629 
L 236.16 277.932575 
L 237.056836 276.038544 
L 237.953672 278.754001 
L 238.850507 280.111729 
L 239.747343 277.871477 
L 240.644179 278.387414 
L 241.541015 277.674607 
L 242.43785 281.741003 
L 243.334686 278.944083 
L 244.231522 276.520538 
L 245.128358 277.192613 
L 246.025193 274.402482 
L 246.922029 275.373258 
L 247.818865 280.132095 
L 248.715701 264.620051 
L 249.612536 272.603492 
L 250.509372 245.435352 
L 251.406208 277.382695 
L 252.303044 277.396273 
L 253.199879 277.063629 
L 254.096715 273.567479 
L 254.993551 275.766999 
L 255.890387 275.108501 
L 256.787223 274.083416 
L 257.684058 277.586354 
L 258.580894 274.667239 
L 259.47773 278.849042 
L 260.374566 271.381537 
L 261.271401 279.168108 
L 262.168237 278.991603 
L 263.065073 278.482455 
L 263.961909 275.420778 
L 264.858744 275.06098 
L 265.75558 280.546202 
L 266.652416 281.639173 
L 267.549252 277.016109 
L 268.446087 275.882406 
L 269.342923 279.466808 
L 270.239759 280.539413 
L 271.136595 278.041193 
L 272.03343 280.831325 
L 272.930266 282.20263 
L 273.827102 278.468878 
L 274.723938 275.726267 
L 275.620773 269.582547 
L 276.517609 273.302722 
L 277.414445 275.719478 
L 278.311281 281.8021 
L 279.208117 279.751931 
L 280.104952 273.099063 
L 281.001788 269.535027 
L 281.898624 270.648364 
L 282.79546 277.654241 
L 283.692295 276.683465 
L 284.589131 281.394782 
L 285.485967 279.011969 
L 286.382803 278.265219 
L 287.279638 275.244273 
L 288.176474 279.161319 
L 289.07331 277.532045 
L 289.970146 278.896562 
L 290.866981 281.890353 
L 291.763817 281.374416 
L 292.660653 275.658381 
L 293.557489 275.135655 
L 294.454324 273.777927 
L 295.35116 269.039456 
L 296.247996 277.389484 
L 297.144832 277.117938 
L 298.041668 280.471527 
L 298.938503 273.689675 
L 299.835339 274.830166 
L 300.732175 276.377976 
L 301.629011 275.590494 
L 302.525846 279.677256 
L 303.422682 281.781734 
L 304.319518 280.451161 
L 305.216354 278.1566 
L 306.113189 280.267868 
L 307.010025 280.960309 
L 308.803697 280.885634 
L 309.700532 282.942592 
L 310.597368 284.157759 
L 311.494204 280.464738 
L 312.39104 279.982745 
L 313.287875 278.611439 
L 314.184711 276.527327 
L 315.081547 277.817168 
L 315.978383 278.611439 
L 316.875218 276.527327 
L 317.772054 277.470948 
L 318.66889 270.403973 
L 319.565726 271.944994 
L 320.462562 277.022897 
L 321.359397 280.919577 
L 322.256233 283.933734 
L 323.153069 281.849621 
L 324.049905 282.433444 
L 324.94674 285.243941 
L 325.843576 285.624105 
L 326.740412 282.548851 
L 327.637248 282.060069 
L 328.534083 285.237153 
L 329.430919 290.566235 
L 331.224591 282.85434 
L 332.121426 281.415148 
L 333.018262 283.098731 
L 333.915098 281.286164 
L 334.811934 282.671046 
L 335.708769 284.510768 
L 336.605605 284.877355 
L 337.502441 281.2047 
L 338.399277 281.530555 
L 339.296113 286.533783 
L 340.192948 278.210909 
L 341.089784 282.385923 
L 341.98662 285.305039 
L 342.883456 283.865847 
L 343.780291 284.089872 
L 344.677127 283.879424 
L 345.573963 284.470036 
L 346.470799 280.790593 
L 347.367634 281.163968 
L 348.26447 283.234504 
L 350.058142 275.916349 
L 350.954977 275.766999 
L 351.851813 277.966518 
L 352.748649 278.570707 
L 353.645485 281.842832 
L 354.54232 281.591652 
L 355.439156 282.046491 
L 356.335992 279.90807 
L 357.232828 281.340473 
L 358.129663 280.831325 
L 359.026499 281.340473 
L 359.923335 284.096661 
L 360.820171 284.59902 
L 361.717007 280.35612 
L 362.613842 280.037054 
L 363.510678 273.200893 
L 364.407514 278.40778 
L 365.30435 277.572777 
L 366.201185 278.115868 
L 367.098021 282.026125 
L 367.994857 276.927856 
L 368.891693 276.927856 
L 369.788528 277.572777 
L 370.685364 282.725355 
L 371.5822 282.630315 
L 372.479036 283.214138 
L 373.375871 283.519626 
L 374.272707 281.10287 
L 375.169543 279.813029 
L 376.066379 280.715918 
L 376.963214 282.630315 
L 377.86005 280.009899 
L 378.756886 282.813608 
L 379.653722 284.904509 
L 380.550558 282.087223 
L 382.344229 273.200893 
L 383.241065 279.398922 
L 384.137901 279.453231 
L 385.034736 280.444372 
L 385.931572 282.182264 
L 386.828408 279.711199 
L 387.725244 280.919577 
L 388.622079 279.534694 
L 389.518915 279.541483 
L 390.415751 281.741003 
L 391.312587 284.470036 
L 392.209422 284.042352 
L 393.106258 281.279375 
L 394.003094 280.091363 
L 395.796765 278.787944 
L 396.693601 279.717988 
L 397.590437 282.684624 
L 398.487273 283.533204 
L 398.487273 283.533204 
" style="fill:none;stroke:#08f7fe;stroke-linecap:round;stroke-width:1.5;"/>
   </g>
   <g id="patch_3">
    <path d="M 57.6 307.584 
L 57.6 41.472 
" style="fill:none;"/>
   </g>
   <g id="patch_4">
    <path d="M 414.72 307.584 
L 414.72 41.472 
" style="fill:none;"/>
   </g>
   <g id="patch_5">
    <path d="M 57.6 307.584 
L 414.72 307.584 
" style="fill:none;"/>
   </g>
   <g id="patch_6">
    <path d="M 57.6 41.472 
L 414.72 41.472 
" style="fill:none;"/>
   </g>
  </g>
 </g>
 <defs>
  <clipPath id="p461463cfc9">
   <rect height="266.112" width="357.12" x="57.6" y="41.472"/>
  </clipPath>
 </defs>
</svg>
