<?xml version="1.0" encoding="utf-8" standalone="no"?>
<!DOCTYPE svg PUBLIC "-//W3C//DTD SVG 1.1//EN"
  "http://www.w3.org/Graphics/SVG/1.1/DTD/svg11.dtd">
<!-- Created with matplotlib (https://matplotlib.org/) -->
<svg height="345.6pt" version="1.1" viewBox="0 0 460.8 345.6" width="460.8pt" xmlns="http://www.w3.org/2000/svg" xmlns:xlink="http://www.w3.org/1999/xlink">
 <defs>
  <style type="text/css">
*{stroke-linecap:butt;stroke-linejoin:round;}
  </style>
 </defs>
 <g id="figure_1">
  <g id="patch_1">
   <path d="M 0 345.6 
L 460.8 345.6 
L 460.8 0 
L 0 0 
z
" style="fill:#212946;"/>
  </g>
  <g id="axes_1">
   <g id="patch_2">
    <path d="M 57.6 307.584 
L 414.72 307.584 
L 414.72 41.472 
L 57.6 41.472 
z
" style="fill:#212946;"/>
   </g>
   <g id="matplotlib.axis_1">
    <g id="text_1">
     <!-- date -->
     <defs>
      <path d="M 40.234375 0 
L 40.234375 6.546875 
Q 35.296875 -1.171875 25.734375 -1.171875 
Q 19.53125 -1.171875 14.328125 2.25 
Q 9.125 5.671875 6.265625 11.796875 
Q 3.421875 17.921875 3.421875 25.875 
Q 3.421875 33.640625 6 39.96875 
Q 8.59375 46.296875 13.765625 49.65625 
Q 18.953125 53.03125 25.34375 53.03125 
Q 30.03125 53.03125 33.6875 51.046875 
Q 37.359375 49.078125 39.65625 45.90625 
L 39.65625 71.578125 
L 48.390625 71.578125 
L 48.390625 0 
z
M 12.453125 25.875 
Q 12.453125 15.921875 16.640625 10.984375 
Q 20.84375 6.0625 26.5625 6.0625 
Q 32.328125 6.0625 36.34375 10.765625 
Q 40.375 15.484375 40.375 25.140625 
Q 40.375 35.796875 36.265625 40.765625 
Q 32.171875 45.75 26.171875 45.75 
Q 20.3125 45.75 16.375 40.96875 
Q 12.453125 36.1875 12.453125 25.875 
z
" id="ArialMT-100"/>
      <path d="M 40.4375 6.390625 
Q 35.546875 2.25 31.03125 0.53125 
Q 26.515625 -1.171875 21.34375 -1.171875 
Q 12.796875 -1.171875 8.203125 3 
Q 3.609375 7.171875 3.609375 13.671875 
Q 3.609375 17.484375 5.34375 20.625 
Q 7.078125 23.78125 9.890625 25.6875 
Q 12.703125 27.59375 16.21875 28.5625 
Q 18.796875 29.25 24.03125 29.890625 
Q 34.671875 31.15625 39.703125 32.90625 
Q 39.75 34.71875 39.75 35.203125 
Q 39.75 40.578125 37.25 42.78125 
Q 33.890625 45.75 27.25 45.75 
Q 21.046875 45.75 18.09375 43.578125 
Q 15.140625 41.40625 13.71875 35.890625 
L 5.125 37.0625 
Q 6.296875 42.578125 8.984375 45.96875 
Q 11.671875 49.359375 16.75 51.1875 
Q 21.828125 53.03125 28.515625 53.03125 
Q 35.15625 53.03125 39.296875 51.46875 
Q 43.453125 49.90625 45.40625 47.53125 
Q 47.359375 45.171875 48.140625 41.546875 
Q 48.578125 39.3125 48.578125 33.453125 
L 48.578125 21.734375 
Q 48.578125 9.46875 49.140625 6.21875 
Q 49.703125 2.984375 51.375 0 
L 42.1875 0 
Q 40.828125 2.734375 40.4375 6.390625 
z
M 39.703125 26.03125 
Q 34.90625 24.078125 25.34375 22.703125 
Q 19.921875 21.921875 17.671875 20.9375 
Q 15.4375 19.96875 14.203125 18.09375 
Q 12.984375 16.21875 12.984375 13.921875 
Q 12.984375 10.40625 15.640625 8.0625 
Q 18.3125 5.71875 23.4375 5.71875 
Q 28.515625 5.71875 32.46875 7.9375 
Q 36.421875 10.15625 38.28125 14.015625 
Q 39.703125 17 39.703125 22.796875 
z
" id="ArialMT-97"/>
      <path d="M 25.78125 7.859375 
L 27.046875 0.09375 
Q 23.34375 -0.6875 20.40625 -0.6875 
Q 15.625 -0.6875 12.984375 0.828125 
Q 10.359375 2.34375 9.28125 4.8125 
Q 8.203125 7.28125 8.203125 15.1875 
L 8.203125 45.015625 
L 1.765625 45.015625 
L 1.765625 51.859375 
L 8.203125 51.859375 
L 8.203125 64.703125 
L 16.9375 69.96875 
L 16.9375 51.859375 
L 25.78125 51.859375 
L 25.78125 45.015625 
L 16.9375 45.015625 
L 16.9375 14.703125 
Q 16.9375 10.9375 17.40625 9.859375 
Q 17.875 8.796875 18.921875 8.15625 
Q 19.96875 7.515625 21.921875 7.515625 
Q 23.390625 7.515625 25.78125 7.859375 
z
" id="ArialMT-116"/>
      <path d="M 42.09375 16.703125 
L 51.171875 15.578125 
Q 49.03125 7.625 43.21875 3.21875 
Q 37.40625 -1.171875 28.375 -1.171875 
Q 17 -1.171875 10.328125 5.828125 
Q 3.65625 12.84375 3.65625 25.484375 
Q 3.65625 38.578125 10.390625 45.796875 
Q 17.140625 53.03125 27.875 53.03125 
Q 38.28125 53.03125 44.875 45.953125 
Q 51.46875 38.875 51.46875 26.03125 
Q 51.46875 25.25 51.421875 23.6875 
L 12.75 23.6875 
Q 13.234375 15.140625 17.578125 10.59375 
Q 21.921875 6.0625 28.421875 6.0625 
Q 33.25 6.0625 36.671875 8.59375 
Q 40.09375 11.140625 42.09375 16.703125 
z
M 13.234375 30.90625 
L 42.1875 30.90625 
Q 41.609375 37.453125 38.875 40.71875 
Q 34.671875 45.796875 27.984375 45.796875 
Q 21.921875 45.796875 17.796875 41.75 
Q 13.671875 37.703125 13.234375 30.90625 
z
" id="ArialMT-101"/>
     </defs>
     <g style="fill:#e6e6e6;" transform="translate(226.429531 318.741812)scale(0.1 -0.1)">
      <use xlink:href="#ArialMT-100"/>
      <use x="55.615234" xlink:href="#ArialMT-97"/>
      <use x="111.230469" xlink:href="#ArialMT-116"/>
      <use x="139.013672" xlink:href="#ArialMT-101"/>
     </g>
    </g>
   </g>
   <g id="matplotlib.axis_2">
    <g id="ytick_1">
     <g id="line2d_1">
      <path clip-path="url(#pbde8c081a8)" d="M 57.6 295.488 
L 414.72 295.488 
" style="fill:none;stroke:#2a3459;stroke-linecap:round;stroke-width:0.8;"/>
     </g>
     <g id="line2d_2"/>
     <g id="text_2">
      <!-- 0 -->
      <defs>
       <path d="M 4.15625 35.296875 
Q 4.15625 48 6.765625 55.734375 
Q 9.375 63.484375 14.515625 67.671875 
Q 19.671875 71.875 27.484375 71.875 
Q 33.25 71.875 37.59375 69.546875 
Q 41.9375 67.234375 44.765625 62.859375 
Q 47.609375 58.5 49.21875 52.21875 
Q 50.828125 45.953125 50.828125 35.296875 
Q 50.828125 22.703125 48.234375 14.96875 
Q 45.65625 7.234375 40.5 3 
Q 35.359375 -1.21875 27.484375 -1.21875 
Q 17.140625 -1.21875 11.234375 6.203125 
Q 4.15625 15.140625 4.15625 35.296875 
z
M 13.1875 35.296875 
Q 13.1875 17.671875 17.3125 11.828125 
Q 21.4375 6 27.484375 6 
Q 33.546875 6 37.671875 11.859375 
Q 41.796875 17.71875 41.796875 35.296875 
Q 41.796875 52.984375 37.671875 58.78125 
Q 33.546875 64.59375 27.390625 64.59375 
Q 21.34375 64.59375 17.71875 59.46875 
Q 13.1875 52.9375 13.1875 35.296875 
z
" id="ArialMT-48"/>
      </defs>
      <g style="fill:#e6e6e6;" transform="translate(48.539062 299.066906)scale(0.1 -0.1)">
       <use xlink:href="#ArialMT-48"/>
      </g>
     </g>
    </g>
    <g id="ytick_2">
     <g id="line2d_3">
      <path clip-path="url(#pbde8c081a8)" d="M 57.6 260.696888 
L 414.72 260.696888 
" style="fill:none;stroke:#2a3459;stroke-linecap:round;stroke-width:0.8;"/>
     </g>
     <g id="line2d_4"/>
     <g id="text_3">
      <!-- 2000 -->
      <defs>
       <path d="M 50.34375 8.453125 
L 50.34375 0 
L 3.03125 0 
Q 2.9375 3.171875 4.046875 6.109375 
Q 5.859375 10.9375 9.828125 15.625 
Q 13.8125 20.3125 21.34375 26.46875 
Q 33.015625 36.03125 37.109375 41.625 
Q 41.21875 47.21875 41.21875 52.203125 
Q 41.21875 57.421875 37.46875 61 
Q 33.734375 64.59375 27.734375 64.59375 
Q 21.390625 64.59375 17.578125 60.78125 
Q 13.765625 56.984375 13.71875 50.25 
L 4.6875 51.171875 
Q 5.609375 61.28125 11.65625 66.578125 
Q 17.71875 71.875 27.9375 71.875 
Q 38.234375 71.875 44.234375 66.15625 
Q 50.25 60.453125 50.25 52 
Q 50.25 47.703125 48.484375 43.546875 
Q 46.734375 39.40625 42.65625 34.8125 
Q 38.578125 30.21875 29.109375 22.21875 
Q 21.1875 15.578125 18.9375 13.203125 
Q 16.703125 10.84375 15.234375 8.453125 
z
" id="ArialMT-50"/>
      </defs>
      <g style="fill:#e6e6e6;" transform="translate(31.85625 264.275794)scale(0.1 -0.1)">
       <use xlink:href="#ArialMT-50"/>
       <use x="55.615234" xlink:href="#ArialMT-48"/>
       <use x="111.230469" xlink:href="#ArialMT-48"/>
       <use x="166.845703" xlink:href="#ArialMT-48"/>
      </g>
     </g>
    </g>
    <g id="ytick_3">
     <g id="line2d_5">
      <path clip-path="url(#pbde8c081a8)" d="M 57.6 225.905775 
L 414.72 225.905775 
" style="fill:none;stroke:#2a3459;stroke-linecap:round;stroke-width:0.8;"/>
     </g>
     <g id="line2d_6"/>
     <g id="text_4">
      <!-- 4000 -->
      <defs>
       <path d="M 32.328125 0 
L 32.328125 17.140625 
L 1.265625 17.140625 
L 1.265625 25.203125 
L 33.9375 71.578125 
L 41.109375 71.578125 
L 41.109375 25.203125 
L 50.78125 25.203125 
L 50.78125 17.140625 
L 41.109375 17.140625 
L 41.109375 0 
z
M 32.328125 25.203125 
L 32.328125 57.46875 
L 9.90625 25.203125 
z
" id="ArialMT-52"/>
      </defs>
      <g style="fill:#e6e6e6;" transform="translate(31.85625 229.484681)scale(0.1 -0.1)">
       <use xlink:href="#ArialMT-52"/>
       <use x="55.615234" xlink:href="#ArialMT-48"/>
       <use x="111.230469" xlink:href="#ArialMT-48"/>
       <use x="166.845703" xlink:href="#ArialMT-48"/>
      </g>
     </g>
    </g>
    <g id="ytick_4">
     <g id="line2d_7">
      <path clip-path="url(#pbde8c081a8)" d="M 57.6 191.114663 
L 414.72 191.114663 
" style="fill:none;stroke:#2a3459;stroke-linecap:round;stroke-width:0.8;"/>
     </g>
     <g id="line2d_8"/>
     <g id="text_5">
      <!-- 6000 -->
      <defs>
       <path d="M 49.75 54.046875 
L 41.015625 53.375 
Q 39.84375 58.546875 37.703125 60.890625 
Q 34.125 64.65625 28.90625 64.65625 
Q 24.703125 64.65625 21.53125 62.3125 
Q 17.390625 59.28125 14.984375 53.46875 
Q 12.59375 47.65625 12.5 36.921875 
Q 15.671875 41.75 20.265625 44.09375 
Q 24.859375 46.4375 29.890625 46.4375 
Q 38.671875 46.4375 44.84375 39.96875 
Q 51.03125 33.5 51.03125 23.25 
Q 51.03125 16.5 48.125 10.71875 
Q 45.21875 4.9375 40.140625 1.859375 
Q 35.0625 -1.21875 28.609375 -1.21875 
Q 17.625 -1.21875 10.6875 6.859375 
Q 3.765625 14.9375 3.765625 33.5 
Q 3.765625 54.25 11.421875 63.671875 
Q 18.109375 71.875 29.4375 71.875 
Q 37.890625 71.875 43.28125 67.140625 
Q 48.6875 62.40625 49.75 54.046875 
z
M 13.875 23.1875 
Q 13.875 18.65625 15.796875 14.5 
Q 17.71875 10.359375 21.1875 8.171875 
Q 24.65625 6 28.46875 6 
Q 34.03125 6 38.03125 10.484375 
Q 42.046875 14.984375 42.046875 22.703125 
Q 42.046875 30.125 38.078125 34.390625 
Q 34.125 38.671875 28.125 38.671875 
Q 22.171875 38.671875 18.015625 34.390625 
Q 13.875 30.125 13.875 23.1875 
z
" id="ArialMT-54"/>
      </defs>
      <g style="fill:#e6e6e6;" transform="translate(31.85625 194.693569)scale(0.1 -0.1)">
       <use xlink:href="#ArialMT-54"/>
       <use x="55.615234" xlink:href="#ArialMT-48"/>
       <use x="111.230469" xlink:href="#ArialMT-48"/>
       <use x="166.845703" xlink:href="#ArialMT-48"/>
      </g>
     </g>
    </g>
    <g id="ytick_5">
     <g id="line2d_9">
      <path clip-path="url(#pbde8c081a8)" d="M 57.6 156.32355 
L 414.72 156.32355 
" style="fill:none;stroke:#2a3459;stroke-linecap:round;stroke-width:0.8;"/>
     </g>
     <g id="line2d_10"/>
     <g id="text_6">
      <!-- 8000 -->
      <defs>
       <path d="M 17.671875 38.8125 
Q 12.203125 40.828125 9.5625 44.53125 
Q 6.9375 48.25 6.9375 53.421875 
Q 6.9375 61.234375 12.546875 66.546875 
Q 18.171875 71.875 27.484375 71.875 
Q 36.859375 71.875 42.578125 66.421875 
Q 48.296875 60.984375 48.296875 53.171875 
Q 48.296875 48.1875 45.671875 44.5 
Q 43.0625 40.828125 37.75 38.8125 
Q 44.34375 36.671875 47.78125 31.875 
Q 51.21875 27.09375 51.21875 20.453125 
Q 51.21875 11.28125 44.71875 5.03125 
Q 38.234375 -1.21875 27.640625 -1.21875 
Q 17.046875 -1.21875 10.546875 5.046875 
Q 4.046875 11.328125 4.046875 20.703125 
Q 4.046875 27.6875 7.59375 32.390625 
Q 11.140625 37.109375 17.671875 38.8125 
z
M 15.921875 53.71875 
Q 15.921875 48.640625 19.1875 45.40625 
Q 22.46875 42.1875 27.6875 42.1875 
Q 32.765625 42.1875 36.015625 45.375 
Q 39.265625 48.578125 39.265625 53.21875 
Q 39.265625 58.0625 35.90625 61.359375 
Q 32.5625 64.65625 27.59375 64.65625 
Q 22.5625 64.65625 19.234375 61.421875 
Q 15.921875 58.203125 15.921875 53.71875 
z
M 13.09375 20.65625 
Q 13.09375 16.890625 14.875 13.375 
Q 16.65625 9.859375 20.171875 7.921875 
Q 23.6875 6 27.734375 6 
Q 34.03125 6 38.125 10.046875 
Q 42.234375 14.109375 42.234375 20.359375 
Q 42.234375 26.703125 38.015625 30.859375 
Q 33.796875 35.015625 27.4375 35.015625 
Q 21.234375 35.015625 17.15625 30.90625 
Q 13.09375 26.8125 13.09375 20.65625 
z
" id="ArialMT-56"/>
      </defs>
      <g style="fill:#e6e6e6;" transform="translate(31.85625 159.902457)scale(0.1 -0.1)">
       <use xlink:href="#ArialMT-56"/>
       <use x="55.615234" xlink:href="#ArialMT-48"/>
       <use x="111.230469" xlink:href="#ArialMT-48"/>
       <use x="166.845703" xlink:href="#ArialMT-48"/>
      </g>
     </g>
    </g>
    <g id="ytick_6">
     <g id="line2d_11">
      <path clip-path="url(#pbde8c081a8)" d="M 57.6 121.532438 
L 414.72 121.532438 
" style="fill:none;stroke:#2a3459;stroke-linecap:round;stroke-width:0.8;"/>
     </g>
     <g id="line2d_12"/>
     <g id="text_7">
      <!-- 10000 -->
      <defs>
       <path d="M 37.25 0 
L 28.46875 0 
L 28.46875 56 
Q 25.296875 52.984375 20.140625 49.953125 
Q 14.984375 46.921875 10.890625 45.40625 
L 10.890625 53.90625 
Q 18.265625 57.375 23.78125 62.296875 
Q 29.296875 67.234375 31.59375 71.875 
L 37.25 71.875 
z
" id="ArialMT-49"/>
      </defs>
      <g style="fill:#e6e6e6;" transform="translate(26.295313 125.111344)scale(0.1 -0.1)">
       <use xlink:href="#ArialMT-49"/>
       <use x="55.615234" xlink:href="#ArialMT-48"/>
       <use x="111.230469" xlink:href="#ArialMT-48"/>
       <use x="166.845703" xlink:href="#ArialMT-48"/>
       <use x="222.460938" xlink:href="#ArialMT-48"/>
      </g>
     </g>
    </g>
    <g id="ytick_7">
     <g id="line2d_13">
      <path clip-path="url(#pbde8c081a8)" d="M 57.6 86.741326 
L 414.72 86.741326 
" style="fill:none;stroke:#2a3459;stroke-linecap:round;stroke-width:0.8;"/>
     </g>
     <g id="line2d_14"/>
     <g id="text_8">
      <!-- 12000 -->
      <g style="fill:#e6e6e6;" transform="translate(26.295313 90.320232)scale(0.1 -0.1)">
       <use xlink:href="#ArialMT-49"/>
       <use x="55.615234" xlink:href="#ArialMT-50"/>
       <use x="111.230469" xlink:href="#ArialMT-48"/>
       <use x="166.845703" xlink:href="#ArialMT-48"/>
       <use x="222.460938" xlink:href="#ArialMT-48"/>
      </g>
     </g>
    </g>
    <g id="ytick_8">
     <g id="line2d_15">
      <path clip-path="url(#pbde8c081a8)" d="M 57.6 51.950213 
L 414.72 51.950213 
" style="fill:none;stroke:#2a3459;stroke-linecap:round;stroke-width:0.8;"/>
     </g>
     <g id="line2d_16"/>
     <g id="text_9">
      <!-- 14000 -->
      <g style="fill:#e6e6e6;" transform="translate(26.295313 55.52912)scale(0.1 -0.1)">
       <use xlink:href="#ArialMT-49"/>
       <use x="55.615234" xlink:href="#ArialMT-52"/>
       <use x="111.230469" xlink:href="#ArialMT-48"/>
       <use x="166.845703" xlink:href="#ArialMT-48"/>
       <use x="222.460938" xlink:href="#ArialMT-48"/>
      </g>
     </g>
    </g>
    <g id="text_10">
     <!-- index -->
     <defs>
      <path d="M 6.640625 61.46875 
L 6.640625 71.578125 
L 15.4375 71.578125 
L 15.4375 61.46875 
z
M 6.640625 0 
L 6.640625 51.859375 
L 15.4375 51.859375 
L 15.4375 0 
z
" id="ArialMT-105"/>
      <path d="M 6.59375 0 
L 6.59375 51.859375 
L 14.5 51.859375 
L 14.5 44.484375 
Q 20.21875 53.03125 31 53.03125 
Q 35.6875 53.03125 39.625 51.34375 
Q 43.5625 49.65625 45.515625 46.921875 
Q 47.46875 44.1875 48.25 40.4375 
Q 48.734375 37.984375 48.734375 31.890625 
L 48.734375 0 
L 39.9375 0 
L 39.9375 31.546875 
Q 39.9375 36.921875 38.90625 39.578125 
Q 37.890625 42.234375 35.28125 43.8125 
Q 32.671875 45.40625 29.15625 45.40625 
Q 23.53125 45.40625 19.453125 41.84375 
Q 15.375 38.28125 15.375 28.328125 
L 15.375 0 
z
" id="ArialMT-110"/>
      <path d="M 0.734375 0 
L 19.671875 26.953125 
L 2.15625 51.859375 
L 13.140625 51.859375 
L 21.09375 39.703125 
Q 23.34375 36.234375 24.703125 33.890625 
Q 26.859375 37.109375 28.65625 39.59375 
L 37.40625 51.859375 
L 47.90625 51.859375 
L 29.984375 27.4375 
L 49.265625 0 
L 38.484375 0 
L 27.828125 16.109375 
L 25 20.453125 
L 11.375 0 
z
" id="ArialMT-120"/>
     </defs>
     <g style="fill:#e6e6e6;" transform="translate(20.307813 186.480344)rotate(-90)scale(0.1 -0.1)">
      <use xlink:href="#ArialMT-105"/>
      <use x="22.216797" xlink:href="#ArialMT-110"/>
      <use x="77.832031" xlink:href="#ArialMT-100"/>
      <use x="133.447266" xlink:href="#ArialMT-101"/>
      <use x="189.0625" xlink:href="#ArialMT-120"/>
     </g>
    </g>
   </g>
   <g id="line2d_17">
    <path clip-path="url(#pbde8c081a8)" d="M 73.832727 295.488 
L 128.239121 295.488 
L 129.131029 226.392851 
L 130.022937 220.808877 
L 130.914845 191.775694 
L 131.806753 196.64645 
L 133.590569 158.915488 
L 134.482478 181.199196 
L 135.374386 185.495898 
L 136.266294 186.226512 
L 137.158202 174.728049 
L 138.05011 179.30308 
L 138.942018 189.496876 
L 139.833926 191.219036 
L 140.725834 192.193187 
L 141.617742 199.516716 
L 142.50965 189.479481 
L 143.401558 187.565969 
L 144.293467 187.183267 
L 145.185375 185.8786 
L 146.077283 180.833889 
L 146.969191 173.005889 
L 147.861099 183.478014 
L 148.753007 178.537676 
L 149.644915 176.832911 
L 150.536823 185.495898 
L 151.428731 162.899071 
L 152.320639 144.616341 
L 153.212547 157.158537 
L 154.104456 154.792741 
L 154.996364 150.443852 
L 155.888272 113.530482 
L 156.78018 167.230564 
L 157.672088 177.389569 
L 158.563996 178.711631 
L 159.455904 174.049622 
L 160.347812 174.362742 
L 161.23972 178.694236 
L 162.131628 174.101809 
L 163.023536 167.735035 
L 163.915445 164.081969 
L 164.807353 161.072537 
L 165.699261 120.332145 
L 166.591169 104.676144 
L 167.483077 116.400749 
L 168.374985 112.643309 
L 169.266893 124.541869 
L 170.158801 123.341576 
L 171.050709 117.740207 
L 171.942617 108.155255 
L 172.834525 113.947976 
L 173.726434 115.322224 
L 174.618342 116.035442 
L 175.51025 140.441408 
L 176.402158 136.005541 
L 177.294066 128.542847 
L 178.185974 97.352615 
L 179.077882 102.519095 
L 179.96979 117.461878 
L 180.861698 127.029434 
L 181.753606 134.996599 
L 182.645514 131.413114 
L 183.537423 145.729657 
L 184.429331 141.311185 
L 185.321239 126.681523 
L 186.213147 141.154625 
L 187.105055 144.511968 
L 187.996963 150.165524 
L 188.888871 149.852404 
L 189.780779 148.165035 
L 190.672687 156.32355 
L 191.564595 121.045362 
L 192.456503 145.242581 
L 193.348412 160.620253 
L 194.24032 153.488075 
L 195.132228 158.306644 
L 196.024136 171.214147 
L 196.916044 161.246493 
L 197.807952 162.116271 
L 198.69986 174.1366 
L 199.591768 180.625142 
L 200.483676 188.244396 
L 201.375584 193.028174 
L 202.267493 213.520139 
L 203.159401 212.30245 
L 204.051309 202.526148 
L 204.943217 226.723366 
L 205.835125 218.738806 
L 206.727033 231.263607 
L 207.618941 232.724833 
L 208.510849 231.889847 
L 209.402757 237.47382 
L 210.294665 234.012104 
L 211.186573 231.959429 
L 212.078482 226.601597 
L 212.97039 235.12542 
L 213.862298 236.273527 
L 214.754206 239.578682 
L 215.646114 243.73622 
L 216.538022 229.17614 
L 217.42993 231.663704 
L 219.213746 242.675091 
L 220.105654 237.647776 
L 220.997562 234.864487 
L 221.889471 235.803847 
L 222.781379 226.82774 
L 223.673287 232.376922 
L 224.565195 236.830185 
L 225.457103 237.038931 
L 226.349011 229.680611 
L 227.240919 239.109002 
L 228.132827 242.883838 
L 229.024735 235.229793 
L 229.916643 242.622905 
L 230.808551 245.406194 
L 231.70046 248.937492 
L 232.592368 249.320194 
L 233.484276 252.260043 
L 234.376184 250.503092 
L 235.268092 240.204922 
L 236.16 246.08462 
L 237.051908 249.372381 
L 237.943816 250.363927 
L 238.835724 249.233216 
L 239.727632 249.094052 
L 241.511449 230.411224 
L 242.403357 230.219873 
L 243.295265 227.627935 
L 244.187173 232.081198 
L 245.079081 237.908709 
L 245.970989 246.571696 
L 246.862897 250.120389 
L 247.754805 246.119412 
L 248.646713 247.424078 
L 249.538621 251.320683 
L 250.430529 257.583083 
L 251.322438 266.71575 
L 252.214346 262.245092 
L 253.106254 256.678514 
L 254.89007 254.730212 
L 255.781978 258.296301 
L 256.673886 258.73119 
L 257.565794 260.157625 
L 258.457702 262.923519 
L 261.133427 255.304265 
L 262.025335 256.156647 
L 262.917243 259.687945 
L 263.809151 257.722248 
L 264.701059 261.114381 
L 265.592967 264.036834 
L 266.484875 263.654132 
L 267.376783 261.514479 
L 268.268691 262.297279 
L 270.944416 261.601457 
L 271.836324 263.567154 
L 272.728232 264.767448 
L 273.62014 261.653643 
L 274.512048 262.836541 
L 275.403956 263.793297 
L 276.295864 263.132265 
L 277.187772 262.975705 
L 278.07968 267.898648 
L 278.971588 268.263955 
L 279.863497 260.92303 
L 280.755405 261.618852 
L 281.647313 261.410105 
L 283.431129 263.58455 
L 284.323037 267.742088 
L 285.214945 269.725181 
L 286.106853 264.175999 
L 286.998761 265.028381 
L 287.890669 264.784843 
L 288.782577 265.793786 
L 289.674486 260.122834 
L 290.566394 269.429457 
L 291.458302 269.725181 
L 292.35021 263.462781 
L 293.242118 263.462781 
L 294.134026 262.819145 
L 295.025934 265.637226 
L 295.917842 264.83703 
L 296.80975 268.698843 
L 297.701658 269.22071 
L 298.593566 262.836541 
L 299.485475 264.089021 
L 300.377383 262.401652 
L 301.269291 265.445874 
L 302.161199 267.881252 
L 303.053107 269.916532 
L 303.945015 269.986115 
L 304.836923 265.445874 
L 305.728831 267.394177 
L 306.620739 264.784843 
L 307.512647 264.402141 
L 308.404555 262.993101 
L 309.296464 264.402141 
L 310.188372 261.114381 
L 311.08028 259.096496 
L 311.972188 246.449927 
L 312.864096 254.956354 
L 313.756004 258.191928 
L 314.647912 265.689412 
L 315.53982 263.549759 
L 316.431728 256.139252 
L 317.323636 258.035368 
L 318.215544 205.344228 
L 319.107453 241.005118 
L 319.999361 250.102994 
L 320.891269 253.686478 
L 321.783177 255.75655 
L 322.675085 244.692976 
L 323.566993 250.833607 
L 324.458901 247.789385 
L 325.350809 253.338567 
L 326.242717 252.138274 
L 327.134625 245.875874 
L 328.026533 248.972283 
L 328.918442 240.204922 
L 329.81035 249.876852 
L 330.702258 250.798816 
L 332.486074 53.568 
L 333.377982 75.625565 
L 334.26989 102.65826 
L 335.161798 114.55682 
L 336.053706 138.336545 
L 336.945614 154.44483 
L 337.837522 177.772271 
L 338.729431 221.052415 
L 339.621339 196.159374 
L 340.513247 215.90333 
L 341.405155 222.965926 
L 342.297063 224.879437 
L 343.188971 227.384397 
L 344.080879 228.689064 
L 344.972787 219.330255 
L 345.864695 230.776531 
L 346.756603 232.185571 
L 347.648511 209.119063 
L 348.54042 143.503026 
L 349.432328 179.859738 
L 350.324236 192.227978 
L 351.216144 213.172228 
L 352.108052 219.730353 
L 352.99996 234.777509 
L 353.891868 238.25662 
L 354.783776 236.082176 
L 355.675684 235.195002 
L 356.567592 245.371403 
L 357.4595 244.188505 
L 358.351409 246.067225 
L 359.243317 233.820753 
L 360.135225 211.189135 
L 361.027133 212.980877 
L 361.919041 231.194024 
L 362.810949 234.325224 
L 363.702857 229.506655 
L 364.594765 241.039909 
L 365.486673 247.163145 
L 366.378581 245.910665 
L 367.27049 244.310274 
L 368.162398 243.127376 
L 369.054306 246.362949 
L 369.946214 244.953909 
L 370.838122 254.799794 
L 371.73003 252.451394 
L 372.621938 246.119412 
L 373.513846 246.258576 
L 374.405754 236.777998 
L 375.297662 242.32718 
L 376.18957 240.361482 
L 377.081479 246.08462 
L 377.973387 248.27646 
L 378.865295 243.684034 
L 379.757203 240.518042 
L 381.541019 248.815723 
L 382.432927 249.424567 
L 383.324835 250.485696 
L 384.216743 173.788689 
L 385.108651 201.899908 
L 386.000559 214.146379 
L 386.892468 212.528593 
L 387.784376 246.467323 
L 388.676284 246.171598 
L 390.4601 257.32215 
L 391.352008 249.407172 
L 392.243916 249.668105 
L 393.135824 253.25159 
L 394.027732 254.399696 
L 394.91964 256.208834 
L 396.703457 262.279883 
L 397.595365 254.086576 
L 398.487273 250.885794 
L 398.487273 250.885794 
" style="fill:none;stroke:#08f7fe;stroke-linecap:round;stroke-width:1.5;"/>
   </g>
   <g id="patch_3">
    <path d="M 57.6 307.584 
L 57.6 41.472 
" style="fill:none;"/>
   </g>
   <g id="patch_4">
    <path d="M 414.72 307.584 
L 414.72 41.472 
" style="fill:none;"/>
   </g>
   <g id="patch_5">
    <path d="M 57.6 307.584 
L 414.72 307.584 
" style="fill:none;"/>
   </g>
   <g id="patch_6">
    <path d="M 57.6 41.472 
L 414.72 41.472 
" style="fill:none;"/>
   </g>
  </g>
 </g>
 <defs>
  <clipPath id="pbde8c081a8">
   <rect height="266.112" width="357.12" x="57.6" y="41.472"/>
  </clipPath>
 </defs>
</svg>
