<?xml version="1.0" encoding="utf-8" standalone="no"?>
<!DOCTYPE svg PUBLIC "-//W3C//DTD SVG 1.1//EN"
  "http://www.w3.org/Graphics/SVG/1.1/DTD/svg11.dtd">
<!-- Created with matplotlib (https://matplotlib.org/) -->
<svg height="345.6pt" version="1.1" viewBox="0 0 460.8 345.6" width="460.8pt" xmlns="http://www.w3.org/2000/svg" xmlns:xlink="http://www.w3.org/1999/xlink">
 <defs>
  <style type="text/css">
*{stroke-linecap:butt;stroke-linejoin:round;}
  </style>
 </defs>
 <g id="figure_1">
  <g id="patch_1">
   <path d="M 0 345.6 
L 460.8 345.6 
L 460.8 0 
L 0 0 
z
" style="fill:#212946;"/>
  </g>
  <g id="axes_1">
   <g id="patch_2">
    <path d="M 57.6 307.584 
L 414.72 307.584 
L 414.72 41.472 
L 57.6 41.472 
z
" style="fill:#212946;"/>
   </g>
   <g id="matplotlib.axis_1">
    <g id="text_1">
     <!-- date -->
     <defs>
      <path d="M 40.234375 0 
L 40.234375 6.546875 
Q 35.296875 -1.171875 25.734375 -1.171875 
Q 19.53125 -1.171875 14.328125 2.25 
Q 9.125 5.671875 6.265625 11.796875 
Q 3.421875 17.921875 3.421875 25.875 
Q 3.421875 33.640625 6 39.96875 
Q 8.59375 46.296875 13.765625 49.65625 
Q 18.953125 53.03125 25.34375 53.03125 
Q 30.03125 53.03125 33.6875 51.046875 
Q 37.359375 49.078125 39.65625 45.90625 
L 39.65625 71.578125 
L 48.390625 71.578125 
L 48.390625 0 
z
M 12.453125 25.875 
Q 12.453125 15.921875 16.640625 10.984375 
Q 20.84375 6.0625 26.5625 6.0625 
Q 32.328125 6.0625 36.34375 10.765625 
Q 40.375 15.484375 40.375 25.140625 
Q 40.375 35.796875 36.265625 40.765625 
Q 32.171875 45.75 26.171875 45.75 
Q 20.3125 45.75 16.375 40.96875 
Q 12.453125 36.1875 12.453125 25.875 
z
" id="ArialMT-100"/>
      <path d="M 40.4375 6.390625 
Q 35.546875 2.25 31.03125 0.53125 
Q 26.515625 -1.171875 21.34375 -1.171875 
Q 12.796875 -1.171875 8.203125 3 
Q 3.609375 7.171875 3.609375 13.671875 
Q 3.609375 17.484375 5.34375 20.625 
Q 7.078125 23.78125 9.890625 25.6875 
Q 12.703125 27.59375 16.21875 28.5625 
Q 18.796875 29.25 24.03125 29.890625 
Q 34.671875 31.15625 39.703125 32.90625 
Q 39.75 34.71875 39.75 35.203125 
Q 39.75 40.578125 37.25 42.78125 
Q 33.890625 45.75 27.25 45.75 
Q 21.046875 45.75 18.09375 43.578125 
Q 15.140625 41.40625 13.71875 35.890625 
L 5.125 37.0625 
Q 6.296875 42.578125 8.984375 45.96875 
Q 11.671875 49.359375 16.75 51.1875 
Q 21.828125 53.03125 28.515625 53.03125 
Q 35.15625 53.03125 39.296875 51.46875 
Q 43.453125 49.90625 45.40625 47.53125 
Q 47.359375 45.171875 48.140625 41.546875 
Q 48.578125 39.3125 48.578125 33.453125 
L 48.578125 21.734375 
Q 48.578125 9.46875 49.140625 6.21875 
Q 49.703125 2.984375 51.375 0 
L 42.1875 0 
Q 40.828125 2.734375 40.4375 6.390625 
z
M 39.703125 26.03125 
Q 34.90625 24.078125 25.34375 22.703125 
Q 19.921875 21.921875 17.671875 20.9375 
Q 15.4375 19.96875 14.203125 18.09375 
Q 12.984375 16.21875 12.984375 13.921875 
Q 12.984375 10.40625 15.640625 8.0625 
Q 18.3125 5.71875 23.4375 5.71875 
Q 28.515625 5.71875 32.46875 7.9375 
Q 36.421875 10.15625 38.28125 14.015625 
Q 39.703125 17 39.703125 22.796875 
z
" id="ArialMT-97"/>
      <path d="M 25.78125 7.859375 
L 27.046875 0.09375 
Q 23.34375 -0.6875 20.40625 -0.6875 
Q 15.625 -0.6875 12.984375 0.828125 
Q 10.359375 2.34375 9.28125 4.8125 
Q 8.203125 7.28125 8.203125 15.1875 
L 8.203125 45.015625 
L 1.765625 45.015625 
L 1.765625 51.859375 
L 8.203125 51.859375 
L 8.203125 64.703125 
L 16.9375 69.96875 
L 16.9375 51.859375 
L 25.78125 51.859375 
L 25.78125 45.015625 
L 16.9375 45.015625 
L 16.9375 14.703125 
Q 16.9375 10.9375 17.40625 9.859375 
Q 17.875 8.796875 18.921875 8.15625 
Q 19.96875 7.515625 21.921875 7.515625 
Q 23.390625 7.515625 25.78125 7.859375 
z
" id="ArialMT-116"/>
      <path d="M 42.09375 16.703125 
L 51.171875 15.578125 
Q 49.03125 7.625 43.21875 3.21875 
Q 37.40625 -1.171875 28.375 -1.171875 
Q 17 -1.171875 10.328125 5.828125 
Q 3.65625 12.84375 3.65625 25.484375 
Q 3.65625 38.578125 10.390625 45.796875 
Q 17.140625 53.03125 27.875 53.03125 
Q 38.28125 53.03125 44.875 45.953125 
Q 51.46875 38.875 51.46875 26.03125 
Q 51.46875 25.25 51.421875 23.6875 
L 12.75 23.6875 
Q 13.234375 15.140625 17.578125 10.59375 
Q 21.921875 6.0625 28.421875 6.0625 
Q 33.25 6.0625 36.671875 8.59375 
Q 40.09375 11.140625 42.09375 16.703125 
z
M 13.234375 30.90625 
L 42.1875 30.90625 
Q 41.609375 37.453125 38.875 40.71875 
Q 34.671875 45.796875 27.984375 45.796875 
Q 21.921875 45.796875 17.796875 41.75 
Q 13.671875 37.703125 13.234375 30.90625 
z
" id="ArialMT-101"/>
     </defs>
     <g style="fill:#e6e6e6;" transform="translate(226.429531 318.741812)scale(0.1 -0.1)">
      <use xlink:href="#ArialMT-100"/>
      <use x="55.615234" xlink:href="#ArialMT-97"/>
      <use x="111.230469" xlink:href="#ArialMT-116"/>
      <use x="139.013672" xlink:href="#ArialMT-101"/>
     </g>
    </g>
   </g>
   <g id="matplotlib.axis_2">
    <g id="ytick_1">
     <g id="line2d_1">
      <path clip-path="url(#pae4e31bdd8)" d="M 57.6 302.466818 
L 414.72 302.466818 
" style="fill:none;stroke:#2a3459;stroke-linecap:round;stroke-width:0.8;"/>
     </g>
     <g id="line2d_2"/>
     <g id="text_2">
      <!-- 0 -->
      <defs>
       <path d="M 4.15625 35.296875 
Q 4.15625 48 6.765625 55.734375 
Q 9.375 63.484375 14.515625 67.671875 
Q 19.671875 71.875 27.484375 71.875 
Q 33.25 71.875 37.59375 69.546875 
Q 41.9375 67.234375 44.765625 62.859375 
Q 47.609375 58.5 49.21875 52.21875 
Q 50.828125 45.953125 50.828125 35.296875 
Q 50.828125 22.703125 48.234375 14.96875 
Q 45.65625 7.234375 40.5 3 
Q 35.359375 -1.21875 27.484375 -1.21875 
Q 17.140625 -1.21875 11.234375 6.203125 
Q 4.15625 15.140625 4.15625 35.296875 
z
M 13.1875 35.296875 
Q 13.1875 17.671875 17.3125 11.828125 
Q 21.4375 6 27.484375 6 
Q 33.546875 6 37.671875 11.859375 
Q 41.796875 17.71875 41.796875 35.296875 
Q 41.796875 52.984375 37.671875 58.78125 
Q 33.546875 64.59375 27.390625 64.59375 
Q 21.34375 64.59375 17.71875 59.46875 
Q 13.1875 52.9375 13.1875 35.296875 
z
" id="ArialMT-48"/>
      </defs>
      <g style="fill:#e6e6e6;" transform="translate(48.539062 306.045725)scale(0.1 -0.1)">
       <use xlink:href="#ArialMT-48"/>
      </g>
     </g>
    </g>
    <g id="ytick_2">
     <g id="line2d_3">
      <path clip-path="url(#pae4e31bdd8)" d="M 57.6 265.345444 
L 414.72 265.345444 
" style="fill:none;stroke:#2a3459;stroke-linecap:round;stroke-width:0.8;"/>
     </g>
     <g id="line2d_4"/>
     <g id="text_3">
      <!-- 1000 -->
      <defs>
       <path d="M 37.25 0 
L 28.46875 0 
L 28.46875 56 
Q 25.296875 52.984375 20.140625 49.953125 
Q 14.984375 46.921875 10.890625 45.40625 
L 10.890625 53.90625 
Q 18.265625 57.375 23.78125 62.296875 
Q 29.296875 67.234375 31.59375 71.875 
L 37.25 71.875 
z
" id="ArialMT-49"/>
      </defs>
      <g style="fill:#e6e6e6;" transform="translate(31.85625 268.92435)scale(0.1 -0.1)">
       <use xlink:href="#ArialMT-49"/>
       <use x="55.615234" xlink:href="#ArialMT-48"/>
       <use x="111.230469" xlink:href="#ArialMT-48"/>
       <use x="166.845703" xlink:href="#ArialMT-48"/>
      </g>
     </g>
    </g>
    <g id="ytick_3">
     <g id="line2d_5">
      <path clip-path="url(#pae4e31bdd8)" d="M 57.6 228.224069 
L 414.72 228.224069 
" style="fill:none;stroke:#2a3459;stroke-linecap:round;stroke-width:0.8;"/>
     </g>
     <g id="line2d_6"/>
     <g id="text_4">
      <!-- 2000 -->
      <defs>
       <path d="M 50.34375 8.453125 
L 50.34375 0 
L 3.03125 0 
Q 2.9375 3.171875 4.046875 6.109375 
Q 5.859375 10.9375 9.828125 15.625 
Q 13.8125 20.3125 21.34375 26.46875 
Q 33.015625 36.03125 37.109375 41.625 
Q 41.21875 47.21875 41.21875 52.203125 
Q 41.21875 57.421875 37.46875 61 
Q 33.734375 64.59375 27.734375 64.59375 
Q 21.390625 64.59375 17.578125 60.78125 
Q 13.765625 56.984375 13.71875 50.25 
L 4.6875 51.171875 
Q 5.609375 61.28125 11.65625 66.578125 
Q 17.71875 71.875 27.9375 71.875 
Q 38.234375 71.875 44.234375 66.15625 
Q 50.25 60.453125 50.25 52 
Q 50.25 47.703125 48.484375 43.546875 
Q 46.734375 39.40625 42.65625 34.8125 
Q 38.578125 30.21875 29.109375 22.21875 
Q 21.1875 15.578125 18.9375 13.203125 
Q 16.703125 10.84375 15.234375 8.453125 
z
" id="ArialMT-50"/>
      </defs>
      <g style="fill:#e6e6e6;" transform="translate(31.85625 231.802975)scale(0.1 -0.1)">
       <use xlink:href="#ArialMT-50"/>
       <use x="55.615234" xlink:href="#ArialMT-48"/>
       <use x="111.230469" xlink:href="#ArialMT-48"/>
       <use x="166.845703" xlink:href="#ArialMT-48"/>
      </g>
     </g>
    </g>
    <g id="ytick_4">
     <g id="line2d_7">
      <path clip-path="url(#pae4e31bdd8)" d="M 57.6 191.102694 
L 414.72 191.102694 
" style="fill:none;stroke:#2a3459;stroke-linecap:round;stroke-width:0.8;"/>
     </g>
     <g id="line2d_8"/>
     <g id="text_5">
      <!-- 3000 -->
      <defs>
       <path d="M 4.203125 18.890625 
L 12.984375 20.0625 
Q 14.5 12.59375 18.140625 9.296875 
Q 21.78125 6 27 6 
Q 33.203125 6 37.46875 10.296875 
Q 41.75 14.59375 41.75 20.953125 
Q 41.75 27 37.796875 30.921875 
Q 33.84375 34.859375 27.734375 34.859375 
Q 25.25 34.859375 21.53125 33.890625 
L 22.515625 41.609375 
Q 23.390625 41.5 23.921875 41.5 
Q 29.546875 41.5 34.03125 44.421875 
Q 38.53125 47.359375 38.53125 53.46875 
Q 38.53125 58.296875 35.25 61.46875 
Q 31.984375 64.65625 26.8125 64.65625 
Q 21.6875 64.65625 18.265625 61.421875 
Q 14.84375 58.203125 13.875 51.765625 
L 5.078125 53.328125 
Q 6.6875 62.15625 12.390625 67.015625 
Q 18.109375 71.875 26.609375 71.875 
Q 32.46875 71.875 37.390625 69.359375 
Q 42.328125 66.84375 44.9375 62.5 
Q 47.5625 58.15625 47.5625 53.265625 
Q 47.5625 48.640625 45.0625 44.828125 
Q 42.578125 41.015625 37.703125 38.765625 
Q 44.046875 37.3125 47.5625 32.6875 
Q 51.078125 28.078125 51.078125 21.140625 
Q 51.078125 11.765625 44.234375 5.25 
Q 37.40625 -1.265625 26.953125 -1.265625 
Q 17.53125 -1.265625 11.296875 4.34375 
Q 5.078125 9.96875 4.203125 18.890625 
z
" id="ArialMT-51"/>
      </defs>
      <g style="fill:#e6e6e6;" transform="translate(31.85625 194.6816)scale(0.1 -0.1)">
       <use xlink:href="#ArialMT-51"/>
       <use x="55.615234" xlink:href="#ArialMT-48"/>
       <use x="111.230469" xlink:href="#ArialMT-48"/>
       <use x="166.845703" xlink:href="#ArialMT-48"/>
      </g>
     </g>
    </g>
    <g id="ytick_5">
     <g id="line2d_9">
      <path clip-path="url(#pae4e31bdd8)" d="M 57.6 153.981319 
L 414.72 153.981319 
" style="fill:none;stroke:#2a3459;stroke-linecap:round;stroke-width:0.8;"/>
     </g>
     <g id="line2d_10"/>
     <g id="text_6">
      <!-- 4000 -->
      <defs>
       <path d="M 32.328125 0 
L 32.328125 17.140625 
L 1.265625 17.140625 
L 1.265625 25.203125 
L 33.9375 71.578125 
L 41.109375 71.578125 
L 41.109375 25.203125 
L 50.78125 25.203125 
L 50.78125 17.140625 
L 41.109375 17.140625 
L 41.109375 0 
z
M 32.328125 25.203125 
L 32.328125 57.46875 
L 9.90625 25.203125 
z
" id="ArialMT-52"/>
      </defs>
      <g style="fill:#e6e6e6;" transform="translate(31.85625 157.560225)scale(0.1 -0.1)">
       <use xlink:href="#ArialMT-52"/>
       <use x="55.615234" xlink:href="#ArialMT-48"/>
       <use x="111.230469" xlink:href="#ArialMT-48"/>
       <use x="166.845703" xlink:href="#ArialMT-48"/>
      </g>
     </g>
    </g>
    <g id="ytick_6">
     <g id="line2d_11">
      <path clip-path="url(#pae4e31bdd8)" d="M 57.6 116.859944 
L 414.72 116.859944 
" style="fill:none;stroke:#2a3459;stroke-linecap:round;stroke-width:0.8;"/>
     </g>
     <g id="line2d_12"/>
     <g id="text_7">
      <!-- 5000 -->
      <defs>
       <path d="M 4.15625 18.75 
L 13.375 19.53125 
Q 14.40625 12.796875 18.140625 9.390625 
Q 21.875 6 27.15625 6 
Q 33.5 6 37.890625 10.78125 
Q 42.28125 15.578125 42.28125 23.484375 
Q 42.28125 31 38.0625 35.34375 
Q 33.84375 39.703125 27 39.703125 
Q 22.75 39.703125 19.328125 37.765625 
Q 15.921875 35.84375 13.96875 32.765625 
L 5.71875 33.84375 
L 12.640625 70.609375 
L 48.25 70.609375 
L 48.25 62.203125 
L 19.671875 62.203125 
L 15.828125 42.96875 
Q 22.265625 47.46875 29.34375 47.46875 
Q 38.71875 47.46875 45.15625 40.96875 
Q 51.609375 34.46875 51.609375 24.265625 
Q 51.609375 14.546875 45.953125 7.46875 
Q 39.0625 -1.21875 27.15625 -1.21875 
Q 17.390625 -1.21875 11.203125 4.25 
Q 5.03125 9.71875 4.15625 18.75 
z
" id="ArialMT-53"/>
      </defs>
      <g style="fill:#e6e6e6;" transform="translate(31.85625 120.43885)scale(0.1 -0.1)">
       <use xlink:href="#ArialMT-53"/>
       <use x="55.615234" xlink:href="#ArialMT-48"/>
       <use x="111.230469" xlink:href="#ArialMT-48"/>
       <use x="166.845703" xlink:href="#ArialMT-48"/>
      </g>
     </g>
    </g>
    <g id="ytick_7">
     <g id="line2d_13">
      <path clip-path="url(#pae4e31bdd8)" d="M 57.6 79.738569 
L 414.72 79.738569 
" style="fill:none;stroke:#2a3459;stroke-linecap:round;stroke-width:0.8;"/>
     </g>
     <g id="line2d_14"/>
     <g id="text_8">
      <!-- 6000 -->
      <defs>
       <path d="M 49.75 54.046875 
L 41.015625 53.375 
Q 39.84375 58.546875 37.703125 60.890625 
Q 34.125 64.65625 28.90625 64.65625 
Q 24.703125 64.65625 21.53125 62.3125 
Q 17.390625 59.28125 14.984375 53.46875 
Q 12.59375 47.65625 12.5 36.921875 
Q 15.671875 41.75 20.265625 44.09375 
Q 24.859375 46.4375 29.890625 46.4375 
Q 38.671875 46.4375 44.84375 39.96875 
Q 51.03125 33.5 51.03125 23.25 
Q 51.03125 16.5 48.125 10.71875 
Q 45.21875 4.9375 40.140625 1.859375 
Q 35.0625 -1.21875 28.609375 -1.21875 
Q 17.625 -1.21875 10.6875 6.859375 
Q 3.765625 14.9375 3.765625 33.5 
Q 3.765625 54.25 11.421875 63.671875 
Q 18.109375 71.875 29.4375 71.875 
Q 37.890625 71.875 43.28125 67.140625 
Q 48.6875 62.40625 49.75 54.046875 
z
M 13.875 23.1875 
Q 13.875 18.65625 15.796875 14.5 
Q 17.71875 10.359375 21.1875 8.171875 
Q 24.65625 6 28.46875 6 
Q 34.03125 6 38.03125 10.484375 
Q 42.046875 14.984375 42.046875 22.703125 
Q 42.046875 30.125 38.078125 34.390625 
Q 34.125 38.671875 28.125 38.671875 
Q 22.171875 38.671875 18.015625 34.390625 
Q 13.875 30.125 13.875 23.1875 
z
" id="ArialMT-54"/>
      </defs>
      <g style="fill:#e6e6e6;" transform="translate(31.85625 83.317476)scale(0.1 -0.1)">
       <use xlink:href="#ArialMT-54"/>
       <use x="55.615234" xlink:href="#ArialMT-48"/>
       <use x="111.230469" xlink:href="#ArialMT-48"/>
       <use x="166.845703" xlink:href="#ArialMT-48"/>
      </g>
     </g>
    </g>
    <g id="ytick_8">
     <g id="line2d_15">
      <path clip-path="url(#pae4e31bdd8)" d="M 57.6 42.617194 
L 414.72 42.617194 
" style="fill:none;stroke:#2a3459;stroke-linecap:round;stroke-width:0.8;"/>
     </g>
     <g id="line2d_16"/>
     <g id="text_9">
      <!-- 7000 -->
      <defs>
       <path d="M 4.734375 62.203125 
L 4.734375 70.65625 
L 51.078125 70.65625 
L 51.078125 63.8125 
Q 44.234375 56.546875 37.515625 44.484375 
Q 30.8125 32.421875 27.15625 19.671875 
Q 24.515625 10.6875 23.78125 0 
L 14.75 0 
Q 14.890625 8.453125 18.0625 20.40625 
Q 21.234375 32.375 27.171875 43.484375 
Q 33.109375 54.59375 39.796875 62.203125 
z
" id="ArialMT-55"/>
      </defs>
      <g style="fill:#e6e6e6;" transform="translate(31.85625 46.196101)scale(0.1 -0.1)">
       <use xlink:href="#ArialMT-55"/>
       <use x="55.615234" xlink:href="#ArialMT-48"/>
       <use x="111.230469" xlink:href="#ArialMT-48"/>
       <use x="166.845703" xlink:href="#ArialMT-48"/>
      </g>
     </g>
    </g>
    <g id="text_10">
     <!-- index -->
     <defs>
      <path d="M 6.640625 61.46875 
L 6.640625 71.578125 
L 15.4375 71.578125 
L 15.4375 61.46875 
z
M 6.640625 0 
L 6.640625 51.859375 
L 15.4375 51.859375 
L 15.4375 0 
z
" id="ArialMT-105"/>
      <path d="M 6.59375 0 
L 6.59375 51.859375 
L 14.5 51.859375 
L 14.5 44.484375 
Q 20.21875 53.03125 31 53.03125 
Q 35.6875 53.03125 39.625 51.34375 
Q 43.5625 49.65625 45.515625 46.921875 
Q 47.46875 44.1875 48.25 40.4375 
Q 48.734375 37.984375 48.734375 31.890625 
L 48.734375 0 
L 39.9375 0 
L 39.9375 31.546875 
Q 39.9375 36.921875 38.90625 39.578125 
Q 37.890625 42.234375 35.28125 43.8125 
Q 32.671875 45.40625 29.15625 45.40625 
Q 23.53125 45.40625 19.453125 41.84375 
Q 15.375 38.28125 15.375 28.328125 
L 15.375 0 
z
" id="ArialMT-110"/>
      <path d="M 0.734375 0 
L 19.671875 26.953125 
L 2.15625 51.859375 
L 13.140625 51.859375 
L 21.09375 39.703125 
Q 23.34375 36.234375 24.703125 33.890625 
Q 26.859375 37.109375 28.65625 39.59375 
L 37.40625 51.859375 
L 47.90625 51.859375 
L 29.984375 27.4375 
L 49.265625 0 
L 38.484375 0 
L 27.828125 16.109375 
L 25 20.453125 
L 11.375 0 
z
" id="ArialMT-120"/>
     </defs>
     <g style="fill:#e6e6e6;" transform="translate(25.86875 186.480344)rotate(-90)scale(0.1 -0.1)">
      <use xlink:href="#ArialMT-105"/>
      <use x="22.216797" xlink:href="#ArialMT-110"/>
      <use x="77.832031" xlink:href="#ArialMT-100"/>
      <use x="133.447266" xlink:href="#ArialMT-101"/>
      <use x="189.0625" xlink:href="#ArialMT-120"/>
     </g>
    </g>
   </g>
   <g id="line2d_17">
    <path clip-path="url(#pae4e31bdd8)" d="M 73.832727 294.225873 
L 74.724635 290.736464 
L 75.616543 291.478892 
L 76.508452 290.179643 
L 77.40036 291.219042 
L 78.292268 291.107678 
L 79.184176 294.634208 
L 80.076084 294.374359 
L 80.967992 290.6251 
L 81.8599 291.033435 
L 82.751808 290.550857 
L 83.643716 292.147076 
L 84.535624 291.330406 
L 85.427532 294.225873 
L 86.319441 293.669053 
L 87.211349 289.622823 
L 88.103257 290.773585 
L 88.995165 290.328129 
L 89.887073 291.330406 
L 90.778981 291.256163 
L 91.670889 293.669053 
L 92.562797 294.374359 
L 93.454705 291.664498 
L 94.346613 290.736464 
L 95.238521 295.488 
L 96.13043 290.068279 
L 97.022338 289.919794 
L 97.914246 293.59481 
L 98.806154 293.409203 
L 99.698062 290.216765 
L 100.58997 289.511459 
L 101.481878 291.256163 
L 102.373786 291.553134 
L 103.265694 292.295562 
L 104.157602 293.817538 
L 105.04951 294.300116 
L 105.941419 292.072834 
L 106.833327 292.444047 
L 107.725235 292.25844 
L 110.400959 295.005422 
L 111.292867 290.550857 
L 112.184775 283.534917 
L 113.076683 266.199235 
L 113.968591 255.879493 
L 114.8605 243.36959 
L 115.752408 248.826432 
L 116.644316 218.980846 
L 117.536224 207.324735 
L 118.428132 210.777023 
L 119.32004 196.633779 
L 120.211948 178.704155 
L 121.103856 147.299472 
L 121.995764 110.846281 
L 122.887672 98.484864 
L 123.77958 92.471201 
L 124.671489 75.840825 
L 125.563397 85.826475 
L 126.455305 79.293113 
L 127.347213 70.30974 
L 128.239121 70.495347 
L 129.131029 85.15829 
L 130.022937 94.549998 
L 130.914845 53.568 
L 131.806753 74.393091 
L 132.698661 89.167398 
L 133.590569 93.25075 
L 134.482478 104.312919 
L 135.374386 123.950127 
L 136.266294 131.745615 
L 137.158202 110.772039 
L 138.05011 127.328172 
L 138.942018 135.346389 
L 139.833926 133.341835 
L 140.725834 133.23047 
L 141.617742 158.176034 
L 142.50965 155.577538 
L 143.401558 129.44409 
L 144.293467 123.170578 
L 145.185375 144.255519 
L 146.077283 138.056249 
L 146.969191 135.866088 
L 147.861099 165.08061 
L 148.753007 165.006367 
L 149.644915 139.021405 
L 150.536823 156.98815 
L 151.428731 157.396485 
L 152.320639 149.341147 
L 153.212547 163.818483 
L 154.104456 174.360954 
L 154.996364 174.175347 
L 155.888272 150.974488 
L 156.78018 167.23365 
L 157.672088 175.845809 
L 158.563996 177.145057 
L 159.455904 187.167828 
L 160.347812 190.620116 
L 161.23972 183.010234 
L 162.131628 185.200395 
L 163.023536 186.091308 
L 163.915445 189.357989 
L 164.807353 191.54815 
L 165.699261 202.61032 
L 166.591169 201.496679 
L 167.483077 194.592103 
L 168.374985 196.485293 
L 169.266893 201.162586 
L 170.158801 200.754251 
L 171.050709 195.297409 
L 171.942617 215.974015 
L 172.834525 211.408086 
L 173.726434 203.389869 
L 174.618342 213.561126 
L 175.51025 216.679321 
L 176.402158 215.714165 
L 177.294066 212.892941 
L 178.185974 213.004305 
L 179.077882 219.686153 
L 179.96979 219.500546 
L 180.861698 211.2596 
L 181.753606 209.997474 
L 182.645514 214.711888 
L 183.537423 215.045981 
L 184.429331 225.55133 
L 185.321239 214.786131 
L 186.213147 207.139128 
L 187.105055 208.80959 
L 187.996963 207.658827 
L 188.888871 209.88611 
L 189.780779 209.180803 
L 190.672687 213.746733 
L 191.564595 201.051222 
L 192.456503 198.749697 
L 193.348412 202.721684 
L 194.24032 203.241383 
L 195.132228 204.76336 
L 196.024136 209.069439 
L 196.916044 206.470943 
L 197.807952 202.907291 
L 198.69986 208.698226 
L 199.591768 217.755841 
L 200.483676 219.017968 
L 201.375584 221.76495 
L 202.267493 248.380975 
L 203.159401 250.274165 
L 204.051309 245.559751 
L 204.943217 237.727141 
L 205.835125 220.280095 
L 206.727033 219.574788 
L 207.618941 222.173285 
L 208.510849 223.695261 
L 209.402757 230.674079 
L 210.294665 234.534702 
L 211.186573 223.695261 
L 212.078482 224.177839 
L 212.97039 229.931652 
L 213.862298 230.080137 
L 214.754206 232.196056 
L 215.646114 243.963532 
L 216.538022 231.008172 
L 217.42993 225.514208 
L 218.321838 228.00134 
L 219.213746 235.462737 
L 220.105654 233.309697 
L 220.997562 232.493027 
L 221.889471 242.961255 
L 222.781379 232.196056 
L 223.673287 228.00134 
L 224.565195 228.483918 
L 225.457103 231.2309 
L 226.349011 232.530148 
L 227.240919 237.17032 
L 228.132827 250.905229 
L 229.024735 243.666561 
L 229.916643 238.692296 
L 230.808551 237.578655 
L 232.592368 242.590041 
L 233.484276 242.701405 
L 234.376184 254.691609 
L 235.268092 252.761298 
L 236.16 242.924133 
L 237.051908 242.515798 
L 237.943816 243.592318 
L 238.835724 242.255948 
L 239.727632 244.074896 
L 240.61954 254.617366 
L 241.511449 247.118849 
L 242.403357 227.704369 
L 243.295265 227.110427 
L 244.187173 229.523317 
L 245.079081 232.901362 
L 245.970989 234.274853 
L 246.862897 248.640825 
L 247.754805 250.274165 
L 248.646713 235.871072 
L 249.538621 234.163489 
L 250.430529 240.028666 
L 251.322438 268.686367 
L 252.214346 258.292382 
L 253.106254 253.726453 
L 253.998162 238.618054 
L 254.89007 241.365035 
L 255.781978 243.183983 
L 256.673886 242.775648 
L 257.565794 245.151416 
L 258.457702 248.418097 
L 259.34961 254.209031 
L 260.241518 263.08104 
L 261.133427 239.32336 
L 262.025335 243.703682 
L 262.917243 249.420374 
L 263.809151 242.404434 
L 264.701059 249.012039 
L 265.592967 264.083317 
L 266.484875 264.565895 
L 267.376783 242.255948 
L 268.268691 245.8196 
L 269.160599 246.3393 
L 270.052507 244.520352 
L 270.944416 246.265057 
L 271.836324 256.733285 
L 272.728232 259.331781 
L 273.62014 239.249117 
L 274.512048 250.237044 
L 275.403956 252.649933 
L 276.295864 250.496894 
L 277.187772 250.199923 
L 278.07968 261.856034 
L 278.971588 265.456808 
L 279.863497 244.483231 
L 280.755405 246.821878 
L 282.539221 250.014316 
L 283.431129 256.139343 
L 284.323037 266.013628 
L 285.214945 266.273478 
L 286.106853 255.434037 
L 286.998761 257.995411 
L 287.890669 259.220417 
L 288.782577 257.95829 
L 289.674486 270.245465 
L 290.566394 277.818226 
L 291.458302 272.509869 
L 292.35021 273.475025 
L 293.242118 266.236357 
L 294.134026 275.665186 
L 295.025934 271.693199 
L 295.917842 273.400782 
L 296.80975 276.815948 
L 297.701658 270.468193 
L 298.593566 270.431072 
L 299.485475 272.80684 
L 300.377383 270.171222 
L 301.269291 271.99017 
L 302.161199 273.363661 
L 303.053107 273.437903 
L 303.945015 274.774273 
L 304.836923 263.266647 
L 305.728831 249.012039 
L 306.620739 241.958977 
L 307.512647 241.624885 
L 308.404555 239.843059 
L 309.296464 240.585487 
L 310.188372 223.65814 
L 311.08028 213.561126 
L 311.972188 231.936206 
L 312.864096 242.812769 
L 313.756004 245.188537 
L 315.53982 253.09539 
L 316.431728 232.344541 
L 317.323636 245.26278 
L 318.215544 232.901362 
L 319.107453 245.077173 
L 319.999361 244.631716 
L 320.891269 249.271888 
L 321.783177 257.884047 
L 322.675085 256.659042 
L 323.566993 248.826432 
L 324.458901 246.116571 
L 325.350809 247.267334 
L 326.242717 250.94235 
L 327.134625 261.707549 
L 328.026533 263.303768 
L 328.918442 258.329504 
L 329.81035 248.492339 
L 330.702258 247.15597 
L 331.594166 243.258226 
L 332.486074 227.593005 
L 333.377982 237.096077 
L 334.26989 251.796142 
L 335.161798 246.636271 
L 336.053706 245.225658 
L 336.945614 247.267334 
L 337.837522 250.199923 
L 338.729431 265.382565 
L 339.621339 264.417409 
L 340.513247 266.199235 
L 341.405155 264.231802 
L 342.297063 262.672705 
L 343.188971 259.480266 
L 344.080879 259.368902 
L 344.972787 252.464327 
L 345.864695 256.399192 
L 346.756603 257.14162 
L 347.648511 255.842372 
L 348.54042 213.932339 
L 349.432328 232.56727 
L 350.324236 241.624885 
L 351.216144 245.708236 
L 352.108052 250.608258 
L 352.99996 259.331781 
L 353.891868 260.519665 
L 354.783776 249.680223 
L 355.675684 251.462049 
L 356.567592 251.053714 
L 358.351409 256.696163 
L 359.243317 259.999966 
L 360.135225 257.512834 
L 361.027133 246.673392 
L 361.919041 249.086281 
L 362.810949 252.687055 
L 363.702857 251.944627 
L 364.594765 255.24843 
L 365.486673 260.816636 
L 366.378581 262.338612 
L 367.27049 254.72873 
L 368.162398 252.204477 
L 369.054306 255.359794 
L 369.946214 256.287828 
L 370.838122 256.287828 
L 371.73003 261.076485 
L 372.621938 258.663596 
L 374.405754 233.161212 
L 375.297662 239.100632 
L 376.18957 236.316528 
L 377.081479 247.007484 
L 377.973387 256.139343 
L 378.865295 243.629439 
L 379.757203 240.39988 
L 380.649111 247.118849 
L 381.541019 247.452941 
L 382.432927 250.422651 
L 383.324835 247.601426 
L 384.216743 256.0651 
L 385.108651 247.675669 
L 386.000559 235.796829 
L 386.892468 235.388494 
L 387.784376 240.177151 
L 388.676284 240.102909 
L 390.4601 254.468881 
L 391.352008 250.979472 
L 392.243916 243.666561 
L 393.135824 246.747635 
L 394.91964 247.564305 
L 395.811548 251.276443 
L 396.703457 259.146174 
L 397.595365 256.993134 
L 398.487273 243.36959 
L 398.487273 243.36959 
" style="fill:none;stroke:#08f7fe;stroke-linecap:round;stroke-width:1.5;"/>
   </g>
   <g id="patch_3">
    <path d="M 57.6 307.584 
L 57.6 41.472 
" style="fill:none;"/>
   </g>
   <g id="patch_4">
    <path d="M 414.72 307.584 
L 414.72 41.472 
" style="fill:none;"/>
   </g>
   <g id="patch_5">
    <path d="M 57.6 307.584 
L 414.72 307.584 
" style="fill:none;"/>
   </g>
   <g id="patch_6">
    <path d="M 57.6 41.472 
L 414.72 41.472 
" style="fill:none;"/>
   </g>
  </g>
 </g>
 <defs>
  <clipPath id="pae4e31bdd8">
   <rect height="266.112" width="357.12" x="57.6" y="41.472"/>
  </clipPath>
 </defs>
</svg>
