<?xml version="1.0" encoding="utf-8" standalone="no"?>
<!DOCTYPE svg PUBLIC "-//W3C//DTD SVG 1.1//EN"
  "http://www.w3.org/Graphics/SVG/1.1/DTD/svg11.dtd">
<!-- Created with matplotlib (https://matplotlib.org/) -->
<svg height="345.6pt" version="1.1" viewBox="0 0 460.8 345.6" width="460.8pt" xmlns="http://www.w3.org/2000/svg" xmlns:xlink="http://www.w3.org/1999/xlink">
 <defs>
  <style type="text/css">
*{stroke-linecap:butt;stroke-linejoin:round;}
  </style>
 </defs>
 <g id="figure_1">
  <g id="patch_1">
   <path d="M 0 345.6 
L 460.8 345.6 
L 460.8 0 
L 0 0 
z
" style="fill:#212946;"/>
  </g>
  <g id="axes_1">
   <g id="patch_2">
    <path d="M 57.6 307.584 
L 414.72 307.584 
L 414.72 41.472 
L 57.6 41.472 
z
" style="fill:#212946;"/>
   </g>
   <g id="matplotlib.axis_1">
    <g id="text_1">
     <!-- date -->
     <defs>
      <path d="M 40.234375 0 
L 40.234375 6.546875 
Q 35.296875 -1.171875 25.734375 -1.171875 
Q 19.53125 -1.171875 14.328125 2.25 
Q 9.125 5.671875 6.265625 11.796875 
Q 3.421875 17.921875 3.421875 25.875 
Q 3.421875 33.640625 6 39.96875 
Q 8.59375 46.296875 13.765625 49.65625 
Q 18.953125 53.03125 25.34375 53.03125 
Q 30.03125 53.03125 33.6875 51.046875 
Q 37.359375 49.078125 39.65625 45.90625 
L 39.65625 71.578125 
L 48.390625 71.578125 
L 48.390625 0 
z
M 12.453125 25.875 
Q 12.453125 15.921875 16.640625 10.984375 
Q 20.84375 6.0625 26.5625 6.0625 
Q 32.328125 6.0625 36.34375 10.765625 
Q 40.375 15.484375 40.375 25.140625 
Q 40.375 35.796875 36.265625 40.765625 
Q 32.171875 45.75 26.171875 45.75 
Q 20.3125 45.75 16.375 40.96875 
Q 12.453125 36.1875 12.453125 25.875 
z
" id="ArialMT-100"/>
      <path d="M 40.4375 6.390625 
Q 35.546875 2.25 31.03125 0.53125 
Q 26.515625 -1.171875 21.34375 -1.171875 
Q 12.796875 -1.171875 8.203125 3 
Q 3.609375 7.171875 3.609375 13.671875 
Q 3.609375 17.484375 5.34375 20.625 
Q 7.078125 23.78125 9.890625 25.6875 
Q 12.703125 27.59375 16.21875 28.5625 
Q 18.796875 29.25 24.03125 29.890625 
Q 34.671875 31.15625 39.703125 32.90625 
Q 39.75 34.71875 39.75 35.203125 
Q 39.75 40.578125 37.25 42.78125 
Q 33.890625 45.75 27.25 45.75 
Q 21.046875 45.75 18.09375 43.578125 
Q 15.140625 41.40625 13.71875 35.890625 
L 5.125 37.0625 
Q 6.296875 42.578125 8.984375 45.96875 
Q 11.671875 49.359375 16.75 51.1875 
Q 21.828125 53.03125 28.515625 53.03125 
Q 35.15625 53.03125 39.296875 51.46875 
Q 43.453125 49.90625 45.40625 47.53125 
Q 47.359375 45.171875 48.140625 41.546875 
Q 48.578125 39.3125 48.578125 33.453125 
L 48.578125 21.734375 
Q 48.578125 9.46875 49.140625 6.21875 
Q 49.703125 2.984375 51.375 0 
L 42.1875 0 
Q 40.828125 2.734375 40.4375 6.390625 
z
M 39.703125 26.03125 
Q 34.90625 24.078125 25.34375 22.703125 
Q 19.921875 21.921875 17.671875 20.9375 
Q 15.4375 19.96875 14.203125 18.09375 
Q 12.984375 16.21875 12.984375 13.921875 
Q 12.984375 10.40625 15.640625 8.0625 
Q 18.3125 5.71875 23.4375 5.71875 
Q 28.515625 5.71875 32.46875 7.9375 
Q 36.421875 10.15625 38.28125 14.015625 
Q 39.703125 17 39.703125 22.796875 
z
" id="ArialMT-97"/>
      <path d="M 25.78125 7.859375 
L 27.046875 0.09375 
Q 23.34375 -0.6875 20.40625 -0.6875 
Q 15.625 -0.6875 12.984375 0.828125 
Q 10.359375 2.34375 9.28125 4.8125 
Q 8.203125 7.28125 8.203125 15.1875 
L 8.203125 45.015625 
L 1.765625 45.015625 
L 1.765625 51.859375 
L 8.203125 51.859375 
L 8.203125 64.703125 
L 16.9375 69.96875 
L 16.9375 51.859375 
L 25.78125 51.859375 
L 25.78125 45.015625 
L 16.9375 45.015625 
L 16.9375 14.703125 
Q 16.9375 10.9375 17.40625 9.859375 
Q 17.875 8.796875 18.921875 8.15625 
Q 19.96875 7.515625 21.921875 7.515625 
Q 23.390625 7.515625 25.78125 7.859375 
z
" id="ArialMT-116"/>
      <path d="M 42.09375 16.703125 
L 51.171875 15.578125 
Q 49.03125 7.625 43.21875 3.21875 
Q 37.40625 -1.171875 28.375 -1.171875 
Q 17 -1.171875 10.328125 5.828125 
Q 3.65625 12.84375 3.65625 25.484375 
Q 3.65625 38.578125 10.390625 45.796875 
Q 17.140625 53.03125 27.875 53.03125 
Q 38.28125 53.03125 44.875 45.953125 
Q 51.46875 38.875 51.46875 26.03125 
Q 51.46875 25.25 51.421875 23.6875 
L 12.75 23.6875 
Q 13.234375 15.140625 17.578125 10.59375 
Q 21.921875 6.0625 28.421875 6.0625 
Q 33.25 6.0625 36.671875 8.59375 
Q 40.09375 11.140625 42.09375 16.703125 
z
M 13.234375 30.90625 
L 42.1875 30.90625 
Q 41.609375 37.453125 38.875 40.71875 
Q 34.671875 45.796875 27.984375 45.796875 
Q 21.921875 45.796875 17.796875 41.75 
Q 13.671875 37.703125 13.234375 30.90625 
z
" id="ArialMT-101"/>
     </defs>
     <g style="fill:#e6e6e6;" transform="translate(226.429531 318.741812)scale(0.1 -0.1)">
      <use xlink:href="#ArialMT-100"/>
      <use x="55.615234" xlink:href="#ArialMT-97"/>
      <use x="111.230469" xlink:href="#ArialMT-116"/>
      <use x="139.013672" xlink:href="#ArialMT-101"/>
     </g>
    </g>
   </g>
   <g id="matplotlib.axis_2">
    <g id="ytick_1">
     <g id="line2d_1">
      <path clip-path="url(#pec548c88d2)" d="M 57.6 295.488 
L 414.72 295.488 
" style="fill:none;stroke:#2a3459;stroke-linecap:round;stroke-width:0.8;"/>
     </g>
     <g id="line2d_2"/>
     <g id="text_2">
      <!-- 0 -->
      <defs>
       <path d="M 4.15625 35.296875 
Q 4.15625 48 6.765625 55.734375 
Q 9.375 63.484375 14.515625 67.671875 
Q 19.671875 71.875 27.484375 71.875 
Q 33.25 71.875 37.59375 69.546875 
Q 41.9375 67.234375 44.765625 62.859375 
Q 47.609375 58.5 49.21875 52.21875 
Q 50.828125 45.953125 50.828125 35.296875 
Q 50.828125 22.703125 48.234375 14.96875 
Q 45.65625 7.234375 40.5 3 
Q 35.359375 -1.21875 27.484375 -1.21875 
Q 17.140625 -1.21875 11.234375 6.203125 
Q 4.15625 15.140625 4.15625 35.296875 
z
M 13.1875 35.296875 
Q 13.1875 17.671875 17.3125 11.828125 
Q 21.4375 6 27.484375 6 
Q 33.546875 6 37.671875 11.859375 
Q 41.796875 17.71875 41.796875 35.296875 
Q 41.796875 52.984375 37.671875 58.78125 
Q 33.546875 64.59375 27.390625 64.59375 
Q 21.34375 64.59375 17.71875 59.46875 
Q 13.1875 52.9375 13.1875 35.296875 
z
" id="ArialMT-48"/>
      </defs>
      <g style="fill:#e6e6e6;" transform="translate(48.539062 299.066906)scale(0.1 -0.1)">
       <use xlink:href="#ArialMT-48"/>
      </g>
     </g>
    </g>
    <g id="ytick_2">
     <g id="line2d_3">
      <path clip-path="url(#pec548c88d2)" d="M 57.6 255.500893 
L 414.72 255.500893 
" style="fill:none;stroke:#2a3459;stroke-linecap:round;stroke-width:0.8;"/>
     </g>
     <g id="line2d_4"/>
     <g id="text_3">
      <!-- 20000 -->
      <defs>
       <path d="M 50.34375 8.453125 
L 50.34375 0 
L 3.03125 0 
Q 2.9375 3.171875 4.046875 6.109375 
Q 5.859375 10.9375 9.828125 15.625 
Q 13.8125 20.3125 21.34375 26.46875 
Q 33.015625 36.03125 37.109375 41.625 
Q 41.21875 47.21875 41.21875 52.203125 
Q 41.21875 57.421875 37.46875 61 
Q 33.734375 64.59375 27.734375 64.59375 
Q 21.390625 64.59375 17.578125 60.78125 
Q 13.765625 56.984375 13.71875 50.25 
L 4.6875 51.171875 
Q 5.609375 61.28125 11.65625 66.578125 
Q 17.71875 71.875 27.9375 71.875 
Q 38.234375 71.875 44.234375 66.15625 
Q 50.25 60.453125 50.25 52 
Q 50.25 47.703125 48.484375 43.546875 
Q 46.734375 39.40625 42.65625 34.8125 
Q 38.578125 30.21875 29.109375 22.21875 
Q 21.1875 15.578125 18.9375 13.203125 
Q 16.703125 10.84375 15.234375 8.453125 
z
" id="ArialMT-50"/>
      </defs>
      <g style="fill:#e6e6e6;" transform="translate(26.295313 259.079799)scale(0.1 -0.1)">
       <use xlink:href="#ArialMT-50"/>
       <use x="55.615234" xlink:href="#ArialMT-48"/>
       <use x="111.230469" xlink:href="#ArialMT-48"/>
       <use x="166.845703" xlink:href="#ArialMT-48"/>
       <use x="222.460938" xlink:href="#ArialMT-48"/>
      </g>
     </g>
    </g>
    <g id="ytick_3">
     <g id="line2d_5">
      <path clip-path="url(#pec548c88d2)" d="M 57.6 215.513785 
L 414.72 215.513785 
" style="fill:none;stroke:#2a3459;stroke-linecap:round;stroke-width:0.8;"/>
     </g>
     <g id="line2d_6"/>
     <g id="text_4">
      <!-- 40000 -->
      <defs>
       <path d="M 32.328125 0 
L 32.328125 17.140625 
L 1.265625 17.140625 
L 1.265625 25.203125 
L 33.9375 71.578125 
L 41.109375 71.578125 
L 41.109375 25.203125 
L 50.78125 25.203125 
L 50.78125 17.140625 
L 41.109375 17.140625 
L 41.109375 0 
z
M 32.328125 25.203125 
L 32.328125 57.46875 
L 9.90625 25.203125 
z
" id="ArialMT-52"/>
      </defs>
      <g style="fill:#e6e6e6;" transform="translate(26.295313 219.092692)scale(0.1 -0.1)">
       <use xlink:href="#ArialMT-52"/>
       <use x="55.615234" xlink:href="#ArialMT-48"/>
       <use x="111.230469" xlink:href="#ArialMT-48"/>
       <use x="166.845703" xlink:href="#ArialMT-48"/>
       <use x="222.460938" xlink:href="#ArialMT-48"/>
      </g>
     </g>
    </g>
    <g id="ytick_4">
     <g id="line2d_7">
      <path clip-path="url(#pec548c88d2)" d="M 57.6 175.526678 
L 414.72 175.526678 
" style="fill:none;stroke:#2a3459;stroke-linecap:round;stroke-width:0.8;"/>
     </g>
     <g id="line2d_8"/>
     <g id="text_5">
      <!-- 60000 -->
      <defs>
       <path d="M 49.75 54.046875 
L 41.015625 53.375 
Q 39.84375 58.546875 37.703125 60.890625 
Q 34.125 64.65625 28.90625 64.65625 
Q 24.703125 64.65625 21.53125 62.3125 
Q 17.390625 59.28125 14.984375 53.46875 
Q 12.59375 47.65625 12.5 36.921875 
Q 15.671875 41.75 20.265625 44.09375 
Q 24.859375 46.4375 29.890625 46.4375 
Q 38.671875 46.4375 44.84375 39.96875 
Q 51.03125 33.5 51.03125 23.25 
Q 51.03125 16.5 48.125 10.71875 
Q 45.21875 4.9375 40.140625 1.859375 
Q 35.0625 -1.21875 28.609375 -1.21875 
Q 17.625 -1.21875 10.6875 6.859375 
Q 3.765625 14.9375 3.765625 33.5 
Q 3.765625 54.25 11.421875 63.671875 
Q 18.109375 71.875 29.4375 71.875 
Q 37.890625 71.875 43.28125 67.140625 
Q 48.6875 62.40625 49.75 54.046875 
z
M 13.875 23.1875 
Q 13.875 18.65625 15.796875 14.5 
Q 17.71875 10.359375 21.1875 8.171875 
Q 24.65625 6 28.46875 6 
Q 34.03125 6 38.03125 10.484375 
Q 42.046875 14.984375 42.046875 22.703125 
Q 42.046875 30.125 38.078125 34.390625 
Q 34.125 38.671875 28.125 38.671875 
Q 22.171875 38.671875 18.015625 34.390625 
Q 13.875 30.125 13.875 23.1875 
z
" id="ArialMT-54"/>
      </defs>
      <g style="fill:#e6e6e6;" transform="translate(26.295313 179.105584)scale(0.1 -0.1)">
       <use xlink:href="#ArialMT-54"/>
       <use x="55.615234" xlink:href="#ArialMT-48"/>
       <use x="111.230469" xlink:href="#ArialMT-48"/>
       <use x="166.845703" xlink:href="#ArialMT-48"/>
       <use x="222.460938" xlink:href="#ArialMT-48"/>
      </g>
     </g>
    </g>
    <g id="ytick_5">
     <g id="line2d_9">
      <path clip-path="url(#pec548c88d2)" d="M 57.6 135.539571 
L 414.72 135.539571 
" style="fill:none;stroke:#2a3459;stroke-linecap:round;stroke-width:0.8;"/>
     </g>
     <g id="line2d_10"/>
     <g id="text_6">
      <!-- 80000 -->
      <defs>
       <path d="M 17.671875 38.8125 
Q 12.203125 40.828125 9.5625 44.53125 
Q 6.9375 48.25 6.9375 53.421875 
Q 6.9375 61.234375 12.546875 66.546875 
Q 18.171875 71.875 27.484375 71.875 
Q 36.859375 71.875 42.578125 66.421875 
Q 48.296875 60.984375 48.296875 53.171875 
Q 48.296875 48.1875 45.671875 44.5 
Q 43.0625 40.828125 37.75 38.8125 
Q 44.34375 36.671875 47.78125 31.875 
Q 51.21875 27.09375 51.21875 20.453125 
Q 51.21875 11.28125 44.71875 5.03125 
Q 38.234375 -1.21875 27.640625 -1.21875 
Q 17.046875 -1.21875 10.546875 5.046875 
Q 4.046875 11.328125 4.046875 20.703125 
Q 4.046875 27.6875 7.59375 32.390625 
Q 11.140625 37.109375 17.671875 38.8125 
z
M 15.921875 53.71875 
Q 15.921875 48.640625 19.1875 45.40625 
Q 22.46875 42.1875 27.6875 42.1875 
Q 32.765625 42.1875 36.015625 45.375 
Q 39.265625 48.578125 39.265625 53.21875 
Q 39.265625 58.0625 35.90625 61.359375 
Q 32.5625 64.65625 27.59375 64.65625 
Q 22.5625 64.65625 19.234375 61.421875 
Q 15.921875 58.203125 15.921875 53.71875 
z
M 13.09375 20.65625 
Q 13.09375 16.890625 14.875 13.375 
Q 16.65625 9.859375 20.171875 7.921875 
Q 23.6875 6 27.734375 6 
Q 34.03125 6 38.125 10.046875 
Q 42.234375 14.109375 42.234375 20.359375 
Q 42.234375 26.703125 38.015625 30.859375 
Q 33.796875 35.015625 27.4375 35.015625 
Q 21.234375 35.015625 17.15625 30.90625 
Q 13.09375 26.8125 13.09375 20.65625 
z
" id="ArialMT-56"/>
      </defs>
      <g style="fill:#e6e6e6;" transform="translate(26.295313 139.118477)scale(0.1 -0.1)">
       <use xlink:href="#ArialMT-56"/>
       <use x="55.615234" xlink:href="#ArialMT-48"/>
       <use x="111.230469" xlink:href="#ArialMT-48"/>
       <use x="166.845703" xlink:href="#ArialMT-48"/>
       <use x="222.460938" xlink:href="#ArialMT-48"/>
      </g>
     </g>
    </g>
    <g id="ytick_6">
     <g id="line2d_11">
      <path clip-path="url(#pec548c88d2)" d="M 57.6 95.552463 
L 414.72 95.552463 
" style="fill:none;stroke:#2a3459;stroke-linecap:round;stroke-width:0.8;"/>
     </g>
     <g id="line2d_12"/>
     <g id="text_7">
      <!-- 100000 -->
      <defs>
       <path d="M 37.25 0 
L 28.46875 0 
L 28.46875 56 
Q 25.296875 52.984375 20.140625 49.953125 
Q 14.984375 46.921875 10.890625 45.40625 
L 10.890625 53.90625 
Q 18.265625 57.375 23.78125 62.296875 
Q 29.296875 67.234375 31.59375 71.875 
L 37.25 71.875 
z
" id="ArialMT-49"/>
      </defs>
      <g style="fill:#e6e6e6;" transform="translate(20.734375 99.13137)scale(0.1 -0.1)">
       <use xlink:href="#ArialMT-49"/>
       <use x="55.615234" xlink:href="#ArialMT-48"/>
       <use x="111.230469" xlink:href="#ArialMT-48"/>
       <use x="166.845703" xlink:href="#ArialMT-48"/>
       <use x="222.460938" xlink:href="#ArialMT-48"/>
       <use x="278.076172" xlink:href="#ArialMT-48"/>
      </g>
     </g>
    </g>
    <g id="ytick_7">
     <g id="line2d_13">
      <path clip-path="url(#pec548c88d2)" d="M 57.6 55.565356 
L 414.72 55.565356 
" style="fill:none;stroke:#2a3459;stroke-linecap:round;stroke-width:0.8;"/>
     </g>
     <g id="line2d_14"/>
     <g id="text_8">
      <!-- 120000 -->
      <g style="fill:#e6e6e6;" transform="translate(20.734375 59.144262)scale(0.1 -0.1)">
       <use xlink:href="#ArialMT-49"/>
       <use x="55.615234" xlink:href="#ArialMT-50"/>
       <use x="111.230469" xlink:href="#ArialMT-48"/>
       <use x="166.845703" xlink:href="#ArialMT-48"/>
       <use x="222.460938" xlink:href="#ArialMT-48"/>
       <use x="278.076172" xlink:href="#ArialMT-48"/>
      </g>
     </g>
    </g>
    <g id="text_9">
     <!-- index -->
     <defs>
      <path d="M 6.640625 61.46875 
L 6.640625 71.578125 
L 15.4375 71.578125 
L 15.4375 61.46875 
z
M 6.640625 0 
L 6.640625 51.859375 
L 15.4375 51.859375 
L 15.4375 0 
z
" id="ArialMT-105"/>
      <path d="M 6.59375 0 
L 6.59375 51.859375 
L 14.5 51.859375 
L 14.5 44.484375 
Q 20.21875 53.03125 31 53.03125 
Q 35.6875 53.03125 39.625 51.34375 
Q 43.5625 49.65625 45.515625 46.921875 
Q 47.46875 44.1875 48.25 40.4375 
Q 48.734375 37.984375 48.734375 31.890625 
L 48.734375 0 
L 39.9375 0 
L 39.9375 31.546875 
Q 39.9375 36.921875 38.90625 39.578125 
Q 37.890625 42.234375 35.28125 43.8125 
Q 32.671875 45.40625 29.15625 45.40625 
Q 23.53125 45.40625 19.453125 41.84375 
Q 15.375 38.28125 15.375 28.328125 
L 15.375 0 
z
" id="ArialMT-110"/>
      <path d="M 0.734375 0 
L 19.671875 26.953125 
L 2.15625 51.859375 
L 13.140625 51.859375 
L 21.09375 39.703125 
Q 23.34375 36.234375 24.703125 33.890625 
Q 26.859375 37.109375 28.65625 39.59375 
L 37.40625 51.859375 
L 47.90625 51.859375 
L 29.984375 27.4375 
L 49.265625 0 
L 38.484375 0 
L 27.828125 16.109375 
L 25 20.453125 
L 11.375 0 
z
" id="ArialMT-120"/>
     </defs>
     <g style="fill:#e6e6e6;" transform="translate(14.746875 186.480344)rotate(-90)scale(0.1 -0.1)">
      <use xlink:href="#ArialMT-105"/>
      <use x="22.216797" xlink:href="#ArialMT-110"/>
      <use x="77.832031" xlink:href="#ArialMT-100"/>
      <use x="133.447266" xlink:href="#ArialMT-101"/>
      <use x="189.0625" xlink:href="#ArialMT-120"/>
     </g>
    </g>
   </g>
   <g id="line2d_15">
    <path clip-path="url(#pec548c88d2)" d="M 73.832727 295.488 
L 121.629091 295.488 
L 122.530909 174.199106 
L 123.432727 158.366211 
L 124.334545 158.520161 
L 125.236364 145.656309 
L 126.138182 155.351183 
L 127.04 134.85779 
L 127.941818 156.528803 
L 128.843636 145.446377 
L 129.745455 126.54647 
L 130.647273 158.204263 
L 131.549091 173.115455 
L 132.450909 134.669851 
L 133.352727 142.595296 
L 135.156364 53.568 
L 136.058182 81.814893 
L 136.96 57.836624 
L 137.861818 155.709068 
L 138.763636 163.898427 
L 139.665455 78.302025 
L 140.567273 169.148734 
L 141.469091 193.968732 
L 142.370909 203.40369 
L 143.272727 192.355252 
L 144.174545 186.413168 
L 145.076364 210.845291 
L 145.978182 207.822265 
L 146.88 208.821943 
L 147.781818 228.257676 
L 148.683636 243.436782 
L 149.585455 231.842521 
L 150.487273 225.746486 
L 151.389091 226.460256 
L 152.290909 224.576863 
L 153.192727 220.21227 
L 154.996364 255.500893 
L 155.898182 252.347909 
L 156.8 246.751714 
L 157.701818 238.672319 
L 158.603636 233.306049 
L 159.505455 243.790668 
L 160.407273 245.67606 
L 161.309091 249.138944 
L 162.210909 246.07993 
L 163.112727 234.731589 
L 164.014545 251.502182 
L 164.916364 251.744104 
L 165.818182 246.51379 
L 166.72 261.978804 
L 167.621818 248.041298 
L 168.523636 251.718112 
L 169.425455 249.934687 
L 170.327273 248.901021 
L 171.229091 250.14262 
L 172.130909 260.699217 
L 173.032727 262.884512 
L 173.934545 258.377965 
L 174.836364 258.907794 
L 175.738182 256.99641 
L 176.64 255.420918 
L 177.541818 245.234203 
L 178.443636 252.745781 
L 179.345455 252.745781 
L 180.247273 292.151076 
L 181.149091 258.85981 
L 182.050909 261.786866 
L 182.952727 259.519597 
L 184.756364 269.40441 
L 185.658182 269.948235 
L 186.56 268.760617 
L 187.461818 257.008407 
L 188.363636 261.486963 
L 189.265455 270.184158 
L 190.167273 292.009122 
L 191.069091 292.033114 
L 191.970909 268.44272 
L 192.872727 275.158555 
L 193.774545 272.605378 
L 194.676364 251.100312 
L 196.48 294.716249 
L 197.381818 277.615762 
L 198.283636 276.846011 
L 199.185455 273.727016 
L 200.087273 273.175194 
L 200.989091 271.63769 
L 201.890909 291.817184 
L 202.792727 288.676196 
L 203.694545 292.710895 
L 204.596364 293.632598 
L 205.498182 294.006478 
L 207.301818 268.802604 
L 208.203636 291.161395 
L 209.105455 280.066972 
L 210.007273 294.796223 
L 210.909091 273.954943 
L 211.810909 271.895607 
L 212.712727 275.076581 
L 213.614545 272.713343 
L 214.516364 279.325211 
L 215.418182 292.956816 
L 216.32 293.53263 
L 217.221818 272.521405 
L 218.123636 271.163843 
L 219.025455 274.95662 
L 219.927273 293.140757 
L 220.829091 294.460331 
L 221.730909 293.292708 
L 222.632727 293.87652 
L 223.534545 293.434662 
L 224.436364 293.496642 
L 225.338182 292.32302 
L 226.24 292.94482 
L 227.141818 293.146755 
L 228.043636 294.27839 
L 228.945455 294.512315 
L 229.847273 293.554623 
L 230.749091 293.306703 
L 231.650909 293.846529 
L 232.552727 293.634598 
L 233.454545 293.922505 
L 234.356364 294.550302 
L 235.258182 293.19274 
L 236.16 292.247045 
L 237.061818 292.75888 
L 237.963636 293.090773 
L 238.865455 292.798867 
L 239.767273 293.210734 
L 240.669091 294.480325 
L 241.570909 294.572295 
L 242.472727 293.114765 
L 243.374545 292.133082 
L 244.276364 291.957138 
L 245.178182 289.99977 
L 246.08 295.488 
L 246.981818 293.198738 
L 247.883636 293.856526 
L 248.785455 292.083098 
L 249.687273 292.237048 
L 250.589091 292.85085 
L 251.490909 294.244401 
L 252.392727 294.346368 
L 253.294545 294.202414 
L 254.196364 293.738564 
L 255.098182 293.646594 
L 256 293.240725 
L 258.705455 293.16075 
L 259.607273 294.752237 
L 260.509091 293.396674 
L 261.410909 294.100447 
L 262.312727 293.498641 
L 263.214545 293.872521 
L 264.116364 293.308703 
L 265.018182 293.878519 
L 265.92 294.700254 
L 266.821818 294.642273 
L 267.723636 293.880518 
L 268.625455 293.510638 
L 269.527273 294.268393 
L 270.429091 294.150431 
L 271.330909 293.062782 
L 272.232727 294.876197 
L 273.134545 295.08613 
L 274.036364 294.016474 
L 274.938182 294.210412 
L 275.84 293.988483 
L 276.741818 294.356365 
L 277.643636 294.208413 
L 278.545455 294.480325 
L 280.349091 293.902511 
L 281.250909 292.888838 
L 282.152727 293.438661 
L 283.054545 293.480647 
L 283.956364 294.150431 
L 284.858182 294.202414 
L 285.76 294.118442 
L 286.661818 293.538629 
L 288.465455 294.112444 
L 289.367273 293.958493 
L 291.170909 294.738242 
L 292.072727 294.644272 
L 292.974545 293.970489 
L 293.876364 294.208413 
L 294.778182 293.574617 
L 295.68 293.75056 
L 296.581818 294.5563 
L 297.483636 294.346368 
L 298.385455 294.720248 
L 300.189091 293.700576 
L 301.090909 293.388677 
L 301.992727 293.506639 
L 302.894545 294.182421 
L 304.698182 295.012153 
L 305.6 294.224407 
L 306.501818 294.828213 
L 307.403636 294.568297 
L 308.305455 294.68226 
L 309.207273 294.00048 
L 310.109091 294.660267 
L 311.010909 294.698255 
L 311.912727 294.270393 
L 312.814545 294.374359 
L 313.716364 294.274391 
L 314.618182 294.728245 
L 316.421818 294.274391 
L 317.323636 294.728245 
L 318.225455 292.874843 
L 319.127273 291.421311 
L 320.029091 290.611572 
L 321.832727 293.572618 
L 322.734545 294.304382 
L 323.636364 293.87452 
L 324.538182 293.926503 
L 325.44 294.418345 
L 326.341818 294.396352 
L 327.243636 293.498641 
L 328.145455 294.8682 
L 329.047273 295.064137 
L 329.949091 294.360364 
L 330.850909 294.486323 
L 331.752727 294.336371 
L 332.654545 293.786549 
L 333.556364 294.06246 
L 334.458182 294.594288 
L 335.36 294.210412 
L 336.261818 294.344369 
L 337.163636 294.006478 
L 338.065455 294.212411 
L 338.967273 294.816217 
L 339.869091 294.878197 
L 340.770909 294.670264 
L 341.672727 295.114121 
L 342.574545 295.276068 
L 343.476364 295.076133 
L 344.378182 295.186097 
L 345.28 294.872199 
L 346.181818 294.350367 
L 347.083636 294.21641 
L 347.985455 294.860202 
L 348.887273 294.090451 
L 349.789091 294.568297 
L 350.690909 294.730244 
L 352.494545 294.132437 
L 353.396364 294.796223 
L 354.298182 294.954172 
L 355.2 294.132437 
L 357.905455 293.900512 
L 358.807273 294.072456 
L 359.709091 294.818216 
L 360.610909 294.916184 
L 361.512727 294.68226 
L 362.414545 294.776229 
L 363.316364 294.460331 
L 364.218182 294.366362 
L 365.12 294.504317 
L 366.021818 294.952173 
L 366.923636 295.21009 
L 367.825455 294.336371 
L 368.727273 294.336371 
L 369.629091 294.504317 
L 370.530909 294.442337 
L 371.432727 294.666265 
L 372.334545 294.732244 
L 373.236364 294.920183 
L 375.941818 294.398351 
L 376.843636 294.666265 
L 377.745455 294.166426 
L 378.647273 294.89819 
L 379.549091 294.584291 
L 381.352727 294.502318 
L 382.254545 294.460331 
L 383.156364 294.608284 
L 384.058182 294.908187 
L 384.96 295.006155 
L 385.861818 294.748239 
L 386.763636 294.218409 
L 387.665455 294.192418 
L 388.567273 294.62028 
L 389.469091 294.296384 
L 390.370909 294.456333 
L 391.272727 295.164104 
L 392.174545 295.100125 
L 393.076364 294.378358 
L 393.978182 294.722247 
L 396.683636 294.674262 
L 397.585455 295.14611 
L 398.487273 295.030148 
L 398.487273 295.030148 
" style="fill:none;stroke:#08f7fe;stroke-linecap:round;stroke-width:1.5;"/>
   </g>
   <g id="patch_3">
    <path d="M 57.6 307.584 
L 57.6 41.472 
" style="fill:none;"/>
   </g>
   <g id="patch_4">
    <path d="M 414.72 307.584 
L 414.72 41.472 
" style="fill:none;"/>
   </g>
   <g id="patch_5">
    <path d="M 57.6 307.584 
L 414.72 307.584 
" style="fill:none;"/>
   </g>
   <g id="patch_6">
    <path d="M 57.6 41.472 
L 414.72 41.472 
" style="fill:none;"/>
   </g>
  </g>
 </g>
 <defs>
  <clipPath id="pec548c88d2">
   <rect height="266.112" width="357.12" x="57.6" y="41.472"/>
  </clipPath>
 </defs>
</svg>
