<?xml version="1.0" encoding="utf-8" standalone="no"?>
<!DOCTYPE svg PUBLIC "-//W3C//DTD SVG 1.1//EN"
  "http://www.w3.org/Graphics/SVG/1.1/DTD/svg11.dtd">
<!-- Created with matplotlib (https://matplotlib.org/) -->
<svg height="345.6pt" version="1.1" viewBox="0 0 460.8 345.6" width="460.8pt" xmlns="http://www.w3.org/2000/svg" xmlns:xlink="http://www.w3.org/1999/xlink">
 <defs>
  <style type="text/css">
*{stroke-linecap:butt;stroke-linejoin:round;}
  </style>
 </defs>
 <g id="figure_1">
  <g id="patch_1">
   <path d="M 0 345.6 
L 460.8 345.6 
L 460.8 0 
L 0 0 
z
" style="fill:#212946;"/>
  </g>
  <g id="axes_1">
   <g id="patch_2">
    <path d="M 57.6 307.584 
L 414.72 307.584 
L 414.72 41.472 
L 57.6 41.472 
z
" style="fill:#212946;"/>
   </g>
   <g id="matplotlib.axis_1">
    <g id="text_1">
     <!-- date -->
     <defs>
      <path d="M 40.234375 0 
L 40.234375 6.546875 
Q 35.296875 -1.171875 25.734375 -1.171875 
Q 19.53125 -1.171875 14.328125 2.25 
Q 9.125 5.671875 6.265625 11.796875 
Q 3.421875 17.921875 3.421875 25.875 
Q 3.421875 33.640625 6 39.96875 
Q 8.59375 46.296875 13.765625 49.65625 
Q 18.953125 53.03125 25.34375 53.03125 
Q 30.03125 53.03125 33.6875 51.046875 
Q 37.359375 49.078125 39.65625 45.90625 
L 39.65625 71.578125 
L 48.390625 71.578125 
L 48.390625 0 
z
M 12.453125 25.875 
Q 12.453125 15.921875 16.640625 10.984375 
Q 20.84375 6.0625 26.5625 6.0625 
Q 32.328125 6.0625 36.34375 10.765625 
Q 40.375 15.484375 40.375 25.140625 
Q 40.375 35.796875 36.265625 40.765625 
Q 32.171875 45.75 26.171875 45.75 
Q 20.3125 45.75 16.375 40.96875 
Q 12.453125 36.1875 12.453125 25.875 
z
" id="ArialMT-100"/>
      <path d="M 40.4375 6.390625 
Q 35.546875 2.25 31.03125 0.53125 
Q 26.515625 -1.171875 21.34375 -1.171875 
Q 12.796875 -1.171875 8.203125 3 
Q 3.609375 7.171875 3.609375 13.671875 
Q 3.609375 17.484375 5.34375 20.625 
Q 7.078125 23.78125 9.890625 25.6875 
Q 12.703125 27.59375 16.21875 28.5625 
Q 18.796875 29.25 24.03125 29.890625 
Q 34.671875 31.15625 39.703125 32.90625 
Q 39.75 34.71875 39.75 35.203125 
Q 39.75 40.578125 37.25 42.78125 
Q 33.890625 45.75 27.25 45.75 
Q 21.046875 45.75 18.09375 43.578125 
Q 15.140625 41.40625 13.71875 35.890625 
L 5.125 37.0625 
Q 6.296875 42.578125 8.984375 45.96875 
Q 11.671875 49.359375 16.75 51.1875 
Q 21.828125 53.03125 28.515625 53.03125 
Q 35.15625 53.03125 39.296875 51.46875 
Q 43.453125 49.90625 45.40625 47.53125 
Q 47.359375 45.171875 48.140625 41.546875 
Q 48.578125 39.3125 48.578125 33.453125 
L 48.578125 21.734375 
Q 48.578125 9.46875 49.140625 6.21875 
Q 49.703125 2.984375 51.375 0 
L 42.1875 0 
Q 40.828125 2.734375 40.4375 6.390625 
z
M 39.703125 26.03125 
Q 34.90625 24.078125 25.34375 22.703125 
Q 19.921875 21.921875 17.671875 20.9375 
Q 15.4375 19.96875 14.203125 18.09375 
Q 12.984375 16.21875 12.984375 13.921875 
Q 12.984375 10.40625 15.640625 8.0625 
Q 18.3125 5.71875 23.4375 5.71875 
Q 28.515625 5.71875 32.46875 7.9375 
Q 36.421875 10.15625 38.28125 14.015625 
Q 39.703125 17 39.703125 22.796875 
z
" id="ArialMT-97"/>
      <path d="M 25.78125 7.859375 
L 27.046875 0.09375 
Q 23.34375 -0.6875 20.40625 -0.6875 
Q 15.625 -0.6875 12.984375 0.828125 
Q 10.359375 2.34375 9.28125 4.8125 
Q 8.203125 7.28125 8.203125 15.1875 
L 8.203125 45.015625 
L 1.765625 45.015625 
L 1.765625 51.859375 
L 8.203125 51.859375 
L 8.203125 64.703125 
L 16.9375 69.96875 
L 16.9375 51.859375 
L 25.78125 51.859375 
L 25.78125 45.015625 
L 16.9375 45.015625 
L 16.9375 14.703125 
Q 16.9375 10.9375 17.40625 9.859375 
Q 17.875 8.796875 18.921875 8.15625 
Q 19.96875 7.515625 21.921875 7.515625 
Q 23.390625 7.515625 25.78125 7.859375 
z
" id="ArialMT-116"/>
      <path d="M 42.09375 16.703125 
L 51.171875 15.578125 
Q 49.03125 7.625 43.21875 3.21875 
Q 37.40625 -1.171875 28.375 -1.171875 
Q 17 -1.171875 10.328125 5.828125 
Q 3.65625 12.84375 3.65625 25.484375 
Q 3.65625 38.578125 10.390625 45.796875 
Q 17.140625 53.03125 27.875 53.03125 
Q 38.28125 53.03125 44.875 45.953125 
Q 51.46875 38.875 51.46875 26.03125 
Q 51.46875 25.25 51.421875 23.6875 
L 12.75 23.6875 
Q 13.234375 15.140625 17.578125 10.59375 
Q 21.921875 6.0625 28.421875 6.0625 
Q 33.25 6.0625 36.671875 8.59375 
Q 40.09375 11.140625 42.09375 16.703125 
z
M 13.234375 30.90625 
L 42.1875 30.90625 
Q 41.609375 37.453125 38.875 40.71875 
Q 34.671875 45.796875 27.984375 45.796875 
Q 21.921875 45.796875 17.796875 41.75 
Q 13.671875 37.703125 13.234375 30.90625 
z
" id="ArialMT-101"/>
     </defs>
     <g style="fill:#e6e6e6;" transform="translate(226.429531 318.741812)scale(0.1 -0.1)">
      <use xlink:href="#ArialMT-100"/>
      <use x="55.615234" xlink:href="#ArialMT-97"/>
      <use x="111.230469" xlink:href="#ArialMT-116"/>
      <use x="139.013672" xlink:href="#ArialMT-101"/>
     </g>
    </g>
   </g>
   <g id="matplotlib.axis_2">
    <g id="ytick_1">
     <g id="line2d_1">
      <path clip-path="url(#p3b9366a60e)" d="M 57.6 305.010658 
L 414.72 305.010658 
" style="fill:none;stroke:#2a3459;stroke-linecap:round;stroke-width:0.8;"/>
     </g>
     <g id="line2d_2"/>
     <g id="text_2">
      <!-- 0.20 -->
      <defs>
       <path d="M 4.15625 35.296875 
Q 4.15625 48 6.765625 55.734375 
Q 9.375 63.484375 14.515625 67.671875 
Q 19.671875 71.875 27.484375 71.875 
Q 33.25 71.875 37.59375 69.546875 
Q 41.9375 67.234375 44.765625 62.859375 
Q 47.609375 58.5 49.21875 52.21875 
Q 50.828125 45.953125 50.828125 35.296875 
Q 50.828125 22.703125 48.234375 14.96875 
Q 45.65625 7.234375 40.5 3 
Q 35.359375 -1.21875 27.484375 -1.21875 
Q 17.140625 -1.21875 11.234375 6.203125 
Q 4.15625 15.140625 4.15625 35.296875 
z
M 13.1875 35.296875 
Q 13.1875 17.671875 17.3125 11.828125 
Q 21.4375 6 27.484375 6 
Q 33.546875 6 37.671875 11.859375 
Q 41.796875 17.71875 41.796875 35.296875 
Q 41.796875 52.984375 37.671875 58.78125 
Q 33.546875 64.59375 27.390625 64.59375 
Q 21.34375 64.59375 17.71875 59.46875 
Q 13.1875 52.9375 13.1875 35.296875 
z
" id="ArialMT-48"/>
       <path d="M 9.078125 0 
L 9.078125 10.015625 
L 19.09375 10.015625 
L 19.09375 0 
z
" id="ArialMT-46"/>
       <path d="M 50.34375 8.453125 
L 50.34375 0 
L 3.03125 0 
Q 2.9375 3.171875 4.046875 6.109375 
Q 5.859375 10.9375 9.828125 15.625 
Q 13.8125 20.3125 21.34375 26.46875 
Q 33.015625 36.03125 37.109375 41.625 
Q 41.21875 47.21875 41.21875 52.203125 
Q 41.21875 57.421875 37.46875 61 
Q 33.734375 64.59375 27.734375 64.59375 
Q 21.390625 64.59375 17.578125 60.78125 
Q 13.765625 56.984375 13.71875 50.25 
L 4.6875 51.171875 
Q 5.609375 61.28125 11.65625 66.578125 
Q 17.71875 71.875 27.9375 71.875 
Q 38.234375 71.875 44.234375 66.15625 
Q 50.25 60.453125 50.25 52 
Q 50.25 47.703125 48.484375 43.546875 
Q 46.734375 39.40625 42.65625 34.8125 
Q 38.578125 30.21875 29.109375 22.21875 
Q 21.1875 15.578125 18.9375 13.203125 
Q 16.703125 10.84375 15.234375 8.453125 
z
" id="ArialMT-50"/>
      </defs>
      <g style="fill:#e6e6e6;" transform="translate(34.639063 308.589564)scale(0.1 -0.1)">
       <use xlink:href="#ArialMT-48"/>
       <use x="55.615234" xlink:href="#ArialMT-46"/>
       <use x="83.398438" xlink:href="#ArialMT-50"/>
       <use x="139.013672" xlink:href="#ArialMT-48"/>
      </g>
     </g>
    </g>
    <g id="ytick_2">
     <g id="line2d_3">
      <path clip-path="url(#p3b9366a60e)" d="M 57.6 272.970011 
L 414.72 272.970011 
" style="fill:none;stroke:#2a3459;stroke-linecap:round;stroke-width:0.8;"/>
     </g>
     <g id="line2d_4"/>
     <g id="text_3">
      <!-- 0.25 -->
      <defs>
       <path d="M 4.15625 18.75 
L 13.375 19.53125 
Q 14.40625 12.796875 18.140625 9.390625 
Q 21.875 6 27.15625 6 
Q 33.5 6 37.890625 10.78125 
Q 42.28125 15.578125 42.28125 23.484375 
Q 42.28125 31 38.0625 35.34375 
Q 33.84375 39.703125 27 39.703125 
Q 22.75 39.703125 19.328125 37.765625 
Q 15.921875 35.84375 13.96875 32.765625 
L 5.71875 33.84375 
L 12.640625 70.609375 
L 48.25 70.609375 
L 48.25 62.203125 
L 19.671875 62.203125 
L 15.828125 42.96875 
Q 22.265625 47.46875 29.34375 47.46875 
Q 38.71875 47.46875 45.15625 40.96875 
Q 51.609375 34.46875 51.609375 24.265625 
Q 51.609375 14.546875 45.953125 7.46875 
Q 39.0625 -1.21875 27.15625 -1.21875 
Q 17.390625 -1.21875 11.203125 4.25 
Q 5.03125 9.71875 4.15625 18.75 
z
" id="ArialMT-53"/>
      </defs>
      <g style="fill:#e6e6e6;" transform="translate(34.639063 276.548917)scale(0.1 -0.1)">
       <use xlink:href="#ArialMT-48"/>
       <use x="55.615234" xlink:href="#ArialMT-46"/>
       <use x="83.398438" xlink:href="#ArialMT-50"/>
       <use x="139.013672" xlink:href="#ArialMT-53"/>
      </g>
     </g>
    </g>
    <g id="ytick_3">
     <g id="line2d_5">
      <path clip-path="url(#p3b9366a60e)" d="M 57.6 240.929365 
L 414.72 240.929365 
" style="fill:none;stroke:#2a3459;stroke-linecap:round;stroke-width:0.8;"/>
     </g>
     <g id="line2d_6"/>
     <g id="text_4">
      <!-- 0.30 -->
      <defs>
       <path d="M 4.203125 18.890625 
L 12.984375 20.0625 
Q 14.5 12.59375 18.140625 9.296875 
Q 21.78125 6 27 6 
Q 33.203125 6 37.46875 10.296875 
Q 41.75 14.59375 41.75 20.953125 
Q 41.75 27 37.796875 30.921875 
Q 33.84375 34.859375 27.734375 34.859375 
Q 25.25 34.859375 21.53125 33.890625 
L 22.515625 41.609375 
Q 23.390625 41.5 23.921875 41.5 
Q 29.546875 41.5 34.03125 44.421875 
Q 38.53125 47.359375 38.53125 53.46875 
Q 38.53125 58.296875 35.25 61.46875 
Q 31.984375 64.65625 26.8125 64.65625 
Q 21.6875 64.65625 18.265625 61.421875 
Q 14.84375 58.203125 13.875 51.765625 
L 5.078125 53.328125 
Q 6.6875 62.15625 12.390625 67.015625 
Q 18.109375 71.875 26.609375 71.875 
Q 32.46875 71.875 37.390625 69.359375 
Q 42.328125 66.84375 44.9375 62.5 
Q 47.5625 58.15625 47.5625 53.265625 
Q 47.5625 48.640625 45.0625 44.828125 
Q 42.578125 41.015625 37.703125 38.765625 
Q 44.046875 37.3125 47.5625 32.6875 
Q 51.078125 28.078125 51.078125 21.140625 
Q 51.078125 11.765625 44.234375 5.25 
Q 37.40625 -1.265625 26.953125 -1.265625 
Q 17.53125 -1.265625 11.296875 4.34375 
Q 5.078125 9.96875 4.203125 18.890625 
z
" id="ArialMT-51"/>
      </defs>
      <g style="fill:#e6e6e6;" transform="translate(34.639063 244.508271)scale(0.1 -0.1)">
       <use xlink:href="#ArialMT-48"/>
       <use x="55.615234" xlink:href="#ArialMT-46"/>
       <use x="83.398438" xlink:href="#ArialMT-51"/>
       <use x="139.013672" xlink:href="#ArialMT-48"/>
      </g>
     </g>
    </g>
    <g id="ytick_4">
     <g id="line2d_7">
      <path clip-path="url(#p3b9366a60e)" d="M 57.6 208.888719 
L 414.72 208.888719 
" style="fill:none;stroke:#2a3459;stroke-linecap:round;stroke-width:0.8;"/>
     </g>
     <g id="line2d_8"/>
     <g id="text_5">
      <!-- 0.35 -->
      <g style="fill:#e6e6e6;" transform="translate(34.639063 212.467625)scale(0.1 -0.1)">
       <use xlink:href="#ArialMT-48"/>
       <use x="55.615234" xlink:href="#ArialMT-46"/>
       <use x="83.398438" xlink:href="#ArialMT-51"/>
       <use x="139.013672" xlink:href="#ArialMT-53"/>
      </g>
     </g>
    </g>
    <g id="ytick_5">
     <g id="line2d_9">
      <path clip-path="url(#p3b9366a60e)" d="M 57.6 176.848072 
L 414.72 176.848072 
" style="fill:none;stroke:#2a3459;stroke-linecap:round;stroke-width:0.8;"/>
     </g>
     <g id="line2d_10"/>
     <g id="text_6">
      <!-- 0.40 -->
      <defs>
       <path d="M 32.328125 0 
L 32.328125 17.140625 
L 1.265625 17.140625 
L 1.265625 25.203125 
L 33.9375 71.578125 
L 41.109375 71.578125 
L 41.109375 25.203125 
L 50.78125 25.203125 
L 50.78125 17.140625 
L 41.109375 17.140625 
L 41.109375 0 
z
M 32.328125 25.203125 
L 32.328125 57.46875 
L 9.90625 25.203125 
z
" id="ArialMT-52"/>
      </defs>
      <g style="fill:#e6e6e6;" transform="translate(34.639063 180.426979)scale(0.1 -0.1)">
       <use xlink:href="#ArialMT-48"/>
       <use x="55.615234" xlink:href="#ArialMT-46"/>
       <use x="83.398438" xlink:href="#ArialMT-52"/>
       <use x="139.013672" xlink:href="#ArialMT-48"/>
      </g>
     </g>
    </g>
    <g id="ytick_6">
     <g id="line2d_11">
      <path clip-path="url(#p3b9366a60e)" d="M 57.6 144.807426 
L 414.72 144.807426 
" style="fill:none;stroke:#2a3459;stroke-linecap:round;stroke-width:0.8;"/>
     </g>
     <g id="line2d_12"/>
     <g id="text_7">
      <!-- 0.45 -->
      <g style="fill:#e6e6e6;" transform="translate(34.639063 148.386332)scale(0.1 -0.1)">
       <use xlink:href="#ArialMT-48"/>
       <use x="55.615234" xlink:href="#ArialMT-46"/>
       <use x="83.398438" xlink:href="#ArialMT-52"/>
       <use x="139.013672" xlink:href="#ArialMT-53"/>
      </g>
     </g>
    </g>
    <g id="ytick_7">
     <g id="line2d_13">
      <path clip-path="url(#p3b9366a60e)" d="M 57.6 112.76678 
L 414.72 112.76678 
" style="fill:none;stroke:#2a3459;stroke-linecap:round;stroke-width:0.8;"/>
     </g>
     <g id="line2d_14"/>
     <g id="text_8">
      <!-- 0.50 -->
      <g style="fill:#e6e6e6;" transform="translate(34.639063 116.345686)scale(0.1 -0.1)">
       <use xlink:href="#ArialMT-48"/>
       <use x="55.615234" xlink:href="#ArialMT-46"/>
       <use x="83.398438" xlink:href="#ArialMT-53"/>
       <use x="139.013672" xlink:href="#ArialMT-48"/>
      </g>
     </g>
    </g>
    <g id="ytick_8">
     <g id="line2d_15">
      <path clip-path="url(#p3b9366a60e)" d="M 57.6 80.726134 
L 414.72 80.726134 
" style="fill:none;stroke:#2a3459;stroke-linecap:round;stroke-width:0.8;"/>
     </g>
     <g id="line2d_16"/>
     <g id="text_9">
      <!-- 0.55 -->
      <g style="fill:#e6e6e6;" transform="translate(34.639063 84.30504)scale(0.1 -0.1)">
       <use xlink:href="#ArialMT-48"/>
       <use x="55.615234" xlink:href="#ArialMT-46"/>
       <use x="83.398438" xlink:href="#ArialMT-53"/>
       <use x="139.013672" xlink:href="#ArialMT-53"/>
      </g>
     </g>
    </g>
    <g id="ytick_9">
     <g id="line2d_17">
      <path clip-path="url(#p3b9366a60e)" d="M 57.6 48.685487 
L 414.72 48.685487 
" style="fill:none;stroke:#2a3459;stroke-linecap:round;stroke-width:0.8;"/>
     </g>
     <g id="line2d_18"/>
     <g id="text_10">
      <!-- 0.60 -->
      <defs>
       <path d="M 49.75 54.046875 
L 41.015625 53.375 
Q 39.84375 58.546875 37.703125 60.890625 
Q 34.125 64.65625 28.90625 64.65625 
Q 24.703125 64.65625 21.53125 62.3125 
Q 17.390625 59.28125 14.984375 53.46875 
Q 12.59375 47.65625 12.5 36.921875 
Q 15.671875 41.75 20.265625 44.09375 
Q 24.859375 46.4375 29.890625 46.4375 
Q 38.671875 46.4375 44.84375 39.96875 
Q 51.03125 33.5 51.03125 23.25 
Q 51.03125 16.5 48.125 10.71875 
Q 45.21875 4.9375 40.140625 1.859375 
Q 35.0625 -1.21875 28.609375 -1.21875 
Q 17.625 -1.21875 10.6875 6.859375 
Q 3.765625 14.9375 3.765625 33.5 
Q 3.765625 54.25 11.421875 63.671875 
Q 18.109375 71.875 29.4375 71.875 
Q 37.890625 71.875 43.28125 67.140625 
Q 48.6875 62.40625 49.75 54.046875 
z
M 13.875 23.1875 
Q 13.875 18.65625 15.796875 14.5 
Q 17.71875 10.359375 21.1875 8.171875 
Q 24.65625 6 28.46875 6 
Q 34.03125 6 38.03125 10.484375 
Q 42.046875 14.984375 42.046875 22.703125 
Q 42.046875 30.125 38.078125 34.390625 
Q 34.125 38.671875 28.125 38.671875 
Q 22.171875 38.671875 18.015625 34.390625 
Q 13.875 30.125 13.875 23.1875 
z
" id="ArialMT-54"/>
      </defs>
      <g style="fill:#e6e6e6;" transform="translate(34.639063 52.264394)scale(0.1 -0.1)">
       <use xlink:href="#ArialMT-48"/>
       <use x="55.615234" xlink:href="#ArialMT-46"/>
       <use x="83.398438" xlink:href="#ArialMT-54"/>
       <use x="139.013672" xlink:href="#ArialMT-48"/>
      </g>
     </g>
    </g>
   </g>
   <g id="line2d_19">
    <path clip-path="url(#p3b9366a60e)" d="M 73.832727 57.497638 
L 74.784793 61.244995 
L 75.73686 62.014302 
L 76.688926 112.870811 
L 77.640992 106.205642 
L 78.593058 75.664482 
L 79.545124 137.993475 
L 80.49719 188.209703 
L 81.449256 247.856788 
L 83.353388 224.093676 
L 84.305455 244.224218 
L 85.257521 254.924557 
L 86.209587 243.519985 
L 87.161653 241.853378 
L 88.113719 234.66424 
L 89.065785 251.831613 
L 90.017851 261.066885 
L 90.969917 265.517383 
L 91.921983 286.875267 
L 92.87405 295.488 
L 93.826116 285.452358 
L 94.778182 287.525537 
L 95.730248 254.195373 
L 96.682314 247.657059 
L 97.63438 251.388909 
L 98.586446 236.946842 
L 99.538512 212.677308 
L 100.490579 197.464011 
L 101.442645 174.262799 
L 102.394711 177.963181 
L 104.298843 163.795228 
L 106.202975 155.444548 
L 107.155041 147.178378 
L 108.107107 147.563481 
L 109.059174 142.009036 
L 110.963306 145.205225 
L 111.915372 142.282306 
L 112.867438 144.386577 
L 113.819504 143.595177 
L 114.77157 140.878591 
L 115.723636 139.485633 
L 116.675702 132.134581 
L 117.627769 130.317934 
L 118.579835 133.528256 
L 119.531901 127.441399 
L 120.483967 130.640541 
L 122.388099 115.890403 
L 123.340165 114.27535 
L 124.292231 112.152353 
L 125.244298 106.292026 
L 126.196364 105.877266 
L 127.14843 101.197871 
L 128.100496 97.746235 
L 129.052562 100.16038 
L 130.004628 100.00429 
L 130.956694 97.057536 
L 131.90876 91.353977 
L 132.860826 99.778314 
L 133.812893 95.624301 
L 134.764959 94.169673 
L 135.717025 97.006645 
L 136.669091 93.039185 
L 137.621157 93.38147 
L 138.573223 101.000651 
L 139.525289 98.135711 
L 140.477355 96.889122 
L 141.429421 99.888975 
L 142.381488 96.449273 
L 143.333554 91.836864 
L 144.28562 85.401471 
L 145.237686 81.072805 
L 146.189752 77.830136 
L 147.141818 83.865355 
L 148.093884 91.724157 
L 149.04595 92.174282 
L 149.998017 104.271874 
L 150.950083 107.733887 
L 151.902149 104.509973 
L 152.854215 108.092451 
L 153.806281 106.654479 
L 154.758347 104.900927 
L 155.710413 105.862441 
L 156.662479 100.179579 
L 157.614545 98.724608 
L 158.566612 107.327289 
L 159.518678 104.610641 
L 160.470744 100.903042 
L 162.374876 90.624992 
L 163.326942 98.642624 
L 164.279008 102.076902 
L 165.231074 106.139614 
L 166.18314 107.642538 
L 167.135207 119.296498 
L 168.087273 118.854151 
L 169.039339 124.088719 
L 169.991405 119.193289 
L 170.943471 122.447551 
L 171.895537 121.306303 
L 173.799669 113.60162 
L 174.751736 114.787614 
L 175.703802 121.054942 
L 176.655868 126.317207 
L 177.607934 117.426879 
L 178.56 122.158861 
L 179.512066 127.888974 
L 180.464132 124.892308 
L 181.416198 123.191389 
L 182.368264 117.601345 
L 183.320331 111.135826 
L 184.272397 116.581864 
L 185.224463 109.18032 
L 186.176529 107.298157 
L 187.128595 99.497124 
L 188.080661 97.244642 
L 189.032727 91.087178 
L 189.984793 87.029536 
L 190.93686 92.167067 
L 191.888926 84.797108 
L 192.840992 80.097784 
L 194.745124 98.217191 
L 195.69719 93.621217 
L 196.649256 93.414622 
L 197.601322 81.77949 
L 198.553388 82.872735 
L 199.505455 86.018403 
L 200.457521 89.764968 
L 201.409587 74.930945 
L 202.361653 83.435886 
L 203.313719 82.420242 
L 204.265785 99.281313 
L 205.217851 106.689803 
L 206.169917 99.936464 
L 207.121983 96.338658 
L 208.07405 106.798309 
L 209.026116 106.823988 
L 209.978182 105.399734 
L 210.930248 84.157116 
L 211.882314 80.268378 
L 212.83438 73.54123 
L 213.786446 64.735267 
L 214.738512 53.568 
L 215.690579 56.224144 
L 216.642645 55.240988 
L 217.594711 60.52635 
L 218.546777 68.454371 
L 219.498843 70.241307 
L 221.402975 102.51289 
L 222.355041 102.550756 
L 223.307107 103.324315 
L 224.259174 112.553769 
L 225.21124 111.533105 
L 226.163306 99.186775 
L 227.115372 73.492725 
L 228.067438 65.3449 
L 229.019504 60.850713 
L 229.97157 68.930235 
L 230.923636 85.285579 
L 231.875702 95.647966 
L 232.827769 140.447552 
L 233.779835 171.027154 
L 234.731901 190.83779 
L 235.683967 205.350379 
L 236.636033 210.018487 
L 237.588099 199.240746 
L 238.540165 195.19237 
L 239.492231 183.556713 
L 240.444298 177.215964 
L 241.396364 168.065101 
L 242.34843 168.556206 
L 243.300496 184.916106 
L 244.252562 189.992531 
L 245.204628 193.519726 
L 246.156694 188.74834 
L 247.10876 191.894701 
L 248.060826 202.827719 
L 249.012893 191.978571 
L 249.964959 179.139655 
L 250.917025 171.53385 
L 251.869091 174.619987 
L 252.821157 174.332785 
L 253.773223 154.162968 
L 254.725289 136.534639 
L 255.677355 138.512545 
L 257.581488 151.232886 
L 258.533554 144.627654 
L 259.48562 143.755426 
L 260.437686 147.930088 
L 261.389752 150.108458 
L 262.341818 139.752477 
L 263.293884 123.614588 
L 264.24595 111.362472 
L 265.198017 97.063692 
L 266.150083 93.284731 
L 267.102149 96.711973 
L 268.054215 96.380045 
L 269.006281 106.003033 
L 270.910413 117.548796 
L 271.862479 131.442222 
L 272.814545 143.389443 
L 273.766612 150.745635 
L 274.718678 143.00438 
L 275.670744 140.124619 
L 276.62281 131.546767 
L 277.574876 137.315462 
L 278.526942 139.763934 
L 279.479008 125.299412 
L 280.431074 125.343472 
L 281.38314 123.830814 
L 283.287273 145.665953 
L 284.239339 142.019685 
L 285.191405 127.744615 
L 286.143471 134.572411 
L 287.095537 138.278493 
L 288.047603 154.513147 
L 288.999669 159.972677 
L 289.951736 159.8523 
L 290.903802 165.725957 
L 291.855868 168.932015 
L 292.807934 164.493078 
L 293.76 151.908362 
L 294.712066 141.672314 
L 295.664132 127.362414 
L 296.616198 129.017159 
L 297.568264 127.94928 
L 298.520331 131.079643 
L 299.472397 146.767082 
L 300.424463 158.114859 
L 301.376529 173.95408 
L 302.328595 176.307607 
L 303.280661 172.103538 
L 304.232727 165.525249 
L 305.184793 174.342784 
L 306.13686 169.29011 
L 307.088926 179.392679 
L 308.040992 171.421202 
L 308.993058 182.221913 
L 309.945124 172.709686 
L 310.89719 177.180808 
L 311.849256 155.370877 
L 312.801322 149.002244 
L 313.753388 125.014599 
L 314.705455 114.166151 
L 315.657521 92.183059 
L 316.609587 97.16246 
L 317.561653 87.902962 
L 318.513719 97.044771 
L 319.465785 93.29819 
L 320.417851 111.581224 
L 321.369917 115.993576 
L 322.321983 125.49094 
L 323.27405 117.879058 
L 324.226116 120.190867 
L 325.178182 137.959214 
L 326.130248 135.42935 
L 327.082314 131.44156 
L 328.03438 135.256928 
L 328.986446 142.228976 
L 329.938512 150.084634 
L 330.890579 165.435124 
L 331.842645 163.371939 
L 332.794711 163.45567 
L 333.746777 160.856207 
L 334.698843 157.90589 
L 335.650909 156.100436 
L 336.602975 168.786553 
L 337.555041 157.186958 
L 338.507107 159.543105 
L 339.459174 171.600262 
L 340.41124 186.930379 
L 341.363306 185.042213 
L 342.315372 197.948964 
L 343.267438 185.659131 
L 344.219504 182.695203 
L 345.17157 171.572289 
L 346.123636 164.975087 
L 347.075702 155.814588 
L 348.027769 161.623732 
L 348.979835 146.848617 
L 349.931901 145.060076 
L 350.883967 156.756446 
L 351.836033 158.105162 
L 352.788099 148.97142 
L 353.740165 142.125741 
L 354.692231 132.384048 
L 355.644298 132.050923 
L 356.596364 138.948183 
L 357.54843 143.230628 
L 358.500496 134.37241 
L 359.452562 142.580104 
L 360.404628 145.598105 
L 361.356694 165.650948 
L 362.30876 175.048294 
L 363.260826 189.1195 
L 364.212893 179.963325 
L 365.164959 186.458553 
L 366.117025 192.169282 
L 367.069091 198.96994 
L 368.021157 209.200707 
L 368.973223 201.361545 
L 369.925289 196.674511 
L 370.877355 207.70412 
L 371.829421 221.575938 
L 372.781488 229.830742 
L 373.733554 230.122284 
L 374.68562 214.631766 
L 375.637686 215.213851 
L 376.589752 219.383404 
L 377.541818 213.887778 
L 378.493884 214.458873 
L 379.44595 191.411632 
L 380.398017 185.119313 
L 381.350083 183.562353 
L 382.302149 197.687312 
L 383.254215 197.363334 
L 384.206281 201.403653 
L 385.158347 195.545815 
L 386.110413 214.40984 
L 387.062479 218.321994 
L 388.014545 224.13482 
L 388.966612 226.705912 
L 389.918678 221.758824 
L 390.870744 229.339671 
L 391.82281 226.292601 
L 392.774876 222.43114 
L 394.679008 236.188307 
L 395.631074 213.271344 
L 396.58314 210.655915 
L 397.535207 194.201906 
L 398.487273 195.175394 
L 398.487273 195.175394 
" style="fill:none;stroke:#08f7fe;stroke-linecap:round;stroke-width:1.5;"/>
   </g>
   <g id="patch_3">
    <path d="M 57.6 307.584 
L 57.6 41.472 
" style="fill:none;"/>
   </g>
   <g id="patch_4">
    <path d="M 414.72 307.584 
L 414.72 41.472 
" style="fill:none;"/>
   </g>
   <g id="patch_5">
    <path d="M 57.6 307.584 
L 414.72 307.584 
" style="fill:none;"/>
   </g>
   <g id="patch_6">
    <path d="M 57.6 41.472 
L 414.72 41.472 
" style="fill:none;"/>
   </g>
  </g>
 </g>
 <defs>
  <clipPath id="p3b9366a60e">
   <rect height="266.112" width="357.12" x="57.6" y="41.472"/>
  </clipPath>
 </defs>
</svg>
