<?xml version="1.0" encoding="utf-8" standalone="no"?>
<!DOCTYPE svg PUBLIC "-//W3C//DTD SVG 1.1//EN"
  "http://www.w3.org/Graphics/SVG/1.1/DTD/svg11.dtd">
<!-- Created with matplotlib (https://matplotlib.org/) -->
<svg height="345.6pt" version="1.1" viewBox="0 0 460.8 345.6" width="460.8pt" xmlns="http://www.w3.org/2000/svg" xmlns:xlink="http://www.w3.org/1999/xlink">
 <defs>
  <style type="text/css">
*{stroke-linecap:butt;stroke-linejoin:round;}
  </style>
 </defs>
 <g id="figure_1">
  <g id="patch_1">
   <path d="M 0 345.6 
L 460.8 345.6 
L 460.8 0 
L 0 0 
z
" style="fill:#212946;"/>
  </g>
  <g id="axes_1">
   <g id="patch_2">
    <path d="M 57.6 307.584 
L 414.72 307.584 
L 414.72 41.472 
L 57.6 41.472 
z
" style="fill:#212946;"/>
   </g>
   <g id="matplotlib.axis_1">
    <g id="text_1">
     <!-- date -->
     <defs>
      <path d="M 40.234375 0 
L 40.234375 6.546875 
Q 35.296875 -1.171875 25.734375 -1.171875 
Q 19.53125 -1.171875 14.328125 2.25 
Q 9.125 5.671875 6.265625 11.796875 
Q 3.421875 17.921875 3.421875 25.875 
Q 3.421875 33.640625 6 39.96875 
Q 8.59375 46.296875 13.765625 49.65625 
Q 18.953125 53.03125 25.34375 53.03125 
Q 30.03125 53.03125 33.6875 51.046875 
Q 37.359375 49.078125 39.65625 45.90625 
L 39.65625 71.578125 
L 48.390625 71.578125 
L 48.390625 0 
z
M 12.453125 25.875 
Q 12.453125 15.921875 16.640625 10.984375 
Q 20.84375 6.0625 26.5625 6.0625 
Q 32.328125 6.0625 36.34375 10.765625 
Q 40.375 15.484375 40.375 25.140625 
Q 40.375 35.796875 36.265625 40.765625 
Q 32.171875 45.75 26.171875 45.75 
Q 20.3125 45.75 16.375 40.96875 
Q 12.453125 36.1875 12.453125 25.875 
z
" id="ArialMT-100"/>
      <path d="M 40.4375 6.390625 
Q 35.546875 2.25 31.03125 0.53125 
Q 26.515625 -1.171875 21.34375 -1.171875 
Q 12.796875 -1.171875 8.203125 3 
Q 3.609375 7.171875 3.609375 13.671875 
Q 3.609375 17.484375 5.34375 20.625 
Q 7.078125 23.78125 9.890625 25.6875 
Q 12.703125 27.59375 16.21875 28.5625 
Q 18.796875 29.25 24.03125 29.890625 
Q 34.671875 31.15625 39.703125 32.90625 
Q 39.75 34.71875 39.75 35.203125 
Q 39.75 40.578125 37.25 42.78125 
Q 33.890625 45.75 27.25 45.75 
Q 21.046875 45.75 18.09375 43.578125 
Q 15.140625 41.40625 13.71875 35.890625 
L 5.125 37.0625 
Q 6.296875 42.578125 8.984375 45.96875 
Q 11.671875 49.359375 16.75 51.1875 
Q 21.828125 53.03125 28.515625 53.03125 
Q 35.15625 53.03125 39.296875 51.46875 
Q 43.453125 49.90625 45.40625 47.53125 
Q 47.359375 45.171875 48.140625 41.546875 
Q 48.578125 39.3125 48.578125 33.453125 
L 48.578125 21.734375 
Q 48.578125 9.46875 49.140625 6.21875 
Q 49.703125 2.984375 51.375 0 
L 42.1875 0 
Q 40.828125 2.734375 40.4375 6.390625 
z
M 39.703125 26.03125 
Q 34.90625 24.078125 25.34375 22.703125 
Q 19.921875 21.921875 17.671875 20.9375 
Q 15.4375 19.96875 14.203125 18.09375 
Q 12.984375 16.21875 12.984375 13.921875 
Q 12.984375 10.40625 15.640625 8.0625 
Q 18.3125 5.71875 23.4375 5.71875 
Q 28.515625 5.71875 32.46875 7.9375 
Q 36.421875 10.15625 38.28125 14.015625 
Q 39.703125 17 39.703125 22.796875 
z
" id="ArialMT-97"/>
      <path d="M 25.78125 7.859375 
L 27.046875 0.09375 
Q 23.34375 -0.6875 20.40625 -0.6875 
Q 15.625 -0.6875 12.984375 0.828125 
Q 10.359375 2.34375 9.28125 4.8125 
Q 8.203125 7.28125 8.203125 15.1875 
L 8.203125 45.015625 
L 1.765625 45.015625 
L 1.765625 51.859375 
L 8.203125 51.859375 
L 8.203125 64.703125 
L 16.9375 69.96875 
L 16.9375 51.859375 
L 25.78125 51.859375 
L 25.78125 45.015625 
L 16.9375 45.015625 
L 16.9375 14.703125 
Q 16.9375 10.9375 17.40625 9.859375 
Q 17.875 8.796875 18.921875 8.15625 
Q 19.96875 7.515625 21.921875 7.515625 
Q 23.390625 7.515625 25.78125 7.859375 
z
" id="ArialMT-116"/>
      <path d="M 42.09375 16.703125 
L 51.171875 15.578125 
Q 49.03125 7.625 43.21875 3.21875 
Q 37.40625 -1.171875 28.375 -1.171875 
Q 17 -1.171875 10.328125 5.828125 
Q 3.65625 12.84375 3.65625 25.484375 
Q 3.65625 38.578125 10.390625 45.796875 
Q 17.140625 53.03125 27.875 53.03125 
Q 38.28125 53.03125 44.875 45.953125 
Q 51.46875 38.875 51.46875 26.03125 
Q 51.46875 25.25 51.421875 23.6875 
L 12.75 23.6875 
Q 13.234375 15.140625 17.578125 10.59375 
Q 21.921875 6.0625 28.421875 6.0625 
Q 33.25 6.0625 36.671875 8.59375 
Q 40.09375 11.140625 42.09375 16.703125 
z
M 13.234375 30.90625 
L 42.1875 30.90625 
Q 41.609375 37.453125 38.875 40.71875 
Q 34.671875 45.796875 27.984375 45.796875 
Q 21.921875 45.796875 17.796875 41.75 
Q 13.671875 37.703125 13.234375 30.90625 
z
" id="ArialMT-101"/>
     </defs>
     <g style="fill:#e6e6e6;" transform="translate(226.429531 318.741812)scale(0.1 -0.1)">
      <use xlink:href="#ArialMT-100"/>
      <use x="55.615234" xlink:href="#ArialMT-97"/>
      <use x="111.230469" xlink:href="#ArialMT-116"/>
      <use x="139.013672" xlink:href="#ArialMT-101"/>
     </g>
    </g>
   </g>
   <g id="matplotlib.axis_2">
    <g id="ytick_1">
     <g id="line2d_1">
      <path clip-path="url(#p2c96eb3bab)" d="M 57.6 295.536552 
L 414.72 295.536552 
" style="fill:none;stroke:#2a3459;stroke-linecap:round;stroke-width:0.8;"/>
     </g>
     <g id="line2d_2"/>
     <g id="text_2">
      <!-- 0 -->
      <defs>
       <path d="M 4.15625 35.296875 
Q 4.15625 48 6.765625 55.734375 
Q 9.375 63.484375 14.515625 67.671875 
Q 19.671875 71.875 27.484375 71.875 
Q 33.25 71.875 37.59375 69.546875 
Q 41.9375 67.234375 44.765625 62.859375 
Q 47.609375 58.5 49.21875 52.21875 
Q 50.828125 45.953125 50.828125 35.296875 
Q 50.828125 22.703125 48.234375 14.96875 
Q 45.65625 7.234375 40.5 3 
Q 35.359375 -1.21875 27.484375 -1.21875 
Q 17.140625 -1.21875 11.234375 6.203125 
Q 4.15625 15.140625 4.15625 35.296875 
z
M 13.1875 35.296875 
Q 13.1875 17.671875 17.3125 11.828125 
Q 21.4375 6 27.484375 6 
Q 33.546875 6 37.671875 11.859375 
Q 41.796875 17.71875 41.796875 35.296875 
Q 41.796875 52.984375 37.671875 58.78125 
Q 33.546875 64.59375 27.390625 64.59375 
Q 21.34375 64.59375 17.71875 59.46875 
Q 13.1875 52.9375 13.1875 35.296875 
z
" id="ArialMT-48"/>
      </defs>
      <g style="fill:#e6e6e6;" transform="translate(48.539062 299.115458)scale(0.1 -0.1)">
       <use xlink:href="#ArialMT-48"/>
      </g>
     </g>
    </g>
    <g id="ytick_2">
     <g id="line2d_3">
      <path clip-path="url(#p2c96eb3bab)" d="M 57.6 243.370145 
L 414.72 243.370145 
" style="fill:none;stroke:#2a3459;stroke-linecap:round;stroke-width:0.8;"/>
     </g>
     <g id="line2d_4"/>
     <g id="text_3">
      <!-- 200000 -->
      <defs>
       <path d="M 50.34375 8.453125 
L 50.34375 0 
L 3.03125 0 
Q 2.9375 3.171875 4.046875 6.109375 
Q 5.859375 10.9375 9.828125 15.625 
Q 13.8125 20.3125 21.34375 26.46875 
Q 33.015625 36.03125 37.109375 41.625 
Q 41.21875 47.21875 41.21875 52.203125 
Q 41.21875 57.421875 37.46875 61 
Q 33.734375 64.59375 27.734375 64.59375 
Q 21.390625 64.59375 17.578125 60.78125 
Q 13.765625 56.984375 13.71875 50.25 
L 4.6875 51.171875 
Q 5.609375 61.28125 11.65625 66.578125 
Q 17.71875 71.875 27.9375 71.875 
Q 38.234375 71.875 44.234375 66.15625 
Q 50.25 60.453125 50.25 52 
Q 50.25 47.703125 48.484375 43.546875 
Q 46.734375 39.40625 42.65625 34.8125 
Q 38.578125 30.21875 29.109375 22.21875 
Q 21.1875 15.578125 18.9375 13.203125 
Q 16.703125 10.84375 15.234375 8.453125 
z
" id="ArialMT-50"/>
      </defs>
      <g style="fill:#e6e6e6;" transform="translate(20.734375 246.949051)scale(0.1 -0.1)">
       <use xlink:href="#ArialMT-50"/>
       <use x="55.615234" xlink:href="#ArialMT-48"/>
       <use x="111.230469" xlink:href="#ArialMT-48"/>
       <use x="166.845703" xlink:href="#ArialMT-48"/>
       <use x="222.460938" xlink:href="#ArialMT-48"/>
       <use x="278.076172" xlink:href="#ArialMT-48"/>
      </g>
     </g>
    </g>
    <g id="ytick_3">
     <g id="line2d_5">
      <path clip-path="url(#p2c96eb3bab)" d="M 57.6 191.203737 
L 414.72 191.203737 
" style="fill:none;stroke:#2a3459;stroke-linecap:round;stroke-width:0.8;"/>
     </g>
     <g id="line2d_6"/>
     <g id="text_4">
      <!-- 400000 -->
      <defs>
       <path d="M 32.328125 0 
L 32.328125 17.140625 
L 1.265625 17.140625 
L 1.265625 25.203125 
L 33.9375 71.578125 
L 41.109375 71.578125 
L 41.109375 25.203125 
L 50.78125 25.203125 
L 50.78125 17.140625 
L 41.109375 17.140625 
L 41.109375 0 
z
M 32.328125 25.203125 
L 32.328125 57.46875 
L 9.90625 25.203125 
z
" id="ArialMT-52"/>
      </defs>
      <g style="fill:#e6e6e6;" transform="translate(20.734375 194.782644)scale(0.1 -0.1)">
       <use xlink:href="#ArialMT-52"/>
       <use x="55.615234" xlink:href="#ArialMT-48"/>
       <use x="111.230469" xlink:href="#ArialMT-48"/>
       <use x="166.845703" xlink:href="#ArialMT-48"/>
       <use x="222.460938" xlink:href="#ArialMT-48"/>
       <use x="278.076172" xlink:href="#ArialMT-48"/>
      </g>
     </g>
    </g>
    <g id="ytick_4">
     <g id="line2d_7">
      <path clip-path="url(#p2c96eb3bab)" d="M 57.6 139.03733 
L 414.72 139.03733 
" style="fill:none;stroke:#2a3459;stroke-linecap:round;stroke-width:0.8;"/>
     </g>
     <g id="line2d_8"/>
     <g id="text_5">
      <!-- 600000 -->
      <defs>
       <path d="M 49.75 54.046875 
L 41.015625 53.375 
Q 39.84375 58.546875 37.703125 60.890625 
Q 34.125 64.65625 28.90625 64.65625 
Q 24.703125 64.65625 21.53125 62.3125 
Q 17.390625 59.28125 14.984375 53.46875 
Q 12.59375 47.65625 12.5 36.921875 
Q 15.671875 41.75 20.265625 44.09375 
Q 24.859375 46.4375 29.890625 46.4375 
Q 38.671875 46.4375 44.84375 39.96875 
Q 51.03125 33.5 51.03125 23.25 
Q 51.03125 16.5 48.125 10.71875 
Q 45.21875 4.9375 40.140625 1.859375 
Q 35.0625 -1.21875 28.609375 -1.21875 
Q 17.625 -1.21875 10.6875 6.859375 
Q 3.765625 14.9375 3.765625 33.5 
Q 3.765625 54.25 11.421875 63.671875 
Q 18.109375 71.875 29.4375 71.875 
Q 37.890625 71.875 43.28125 67.140625 
Q 48.6875 62.40625 49.75 54.046875 
z
M 13.875 23.1875 
Q 13.875 18.65625 15.796875 14.5 
Q 17.71875 10.359375 21.1875 8.171875 
Q 24.65625 6 28.46875 6 
Q 34.03125 6 38.03125 10.484375 
Q 42.046875 14.984375 42.046875 22.703125 
Q 42.046875 30.125 38.078125 34.390625 
Q 34.125 38.671875 28.125 38.671875 
Q 22.171875 38.671875 18.015625 34.390625 
Q 13.875 30.125 13.875 23.1875 
z
" id="ArialMT-54"/>
      </defs>
      <g style="fill:#e6e6e6;" transform="translate(20.734375 142.616236)scale(0.1 -0.1)">
       <use xlink:href="#ArialMT-54"/>
       <use x="55.615234" xlink:href="#ArialMT-48"/>
       <use x="111.230469" xlink:href="#ArialMT-48"/>
       <use x="166.845703" xlink:href="#ArialMT-48"/>
       <use x="222.460938" xlink:href="#ArialMT-48"/>
       <use x="278.076172" xlink:href="#ArialMT-48"/>
      </g>
     </g>
    </g>
    <g id="ytick_5">
     <g id="line2d_9">
      <path clip-path="url(#p2c96eb3bab)" d="M 57.6 86.870923 
L 414.72 86.870923 
" style="fill:none;stroke:#2a3459;stroke-linecap:round;stroke-width:0.8;"/>
     </g>
     <g id="line2d_10"/>
     <g id="text_6">
      <!-- 800000 -->
      <defs>
       <path d="M 17.671875 38.8125 
Q 12.203125 40.828125 9.5625 44.53125 
Q 6.9375 48.25 6.9375 53.421875 
Q 6.9375 61.234375 12.546875 66.546875 
Q 18.171875 71.875 27.484375 71.875 
Q 36.859375 71.875 42.578125 66.421875 
Q 48.296875 60.984375 48.296875 53.171875 
Q 48.296875 48.1875 45.671875 44.5 
Q 43.0625 40.828125 37.75 38.8125 
Q 44.34375 36.671875 47.78125 31.875 
Q 51.21875 27.09375 51.21875 20.453125 
Q 51.21875 11.28125 44.71875 5.03125 
Q 38.234375 -1.21875 27.640625 -1.21875 
Q 17.046875 -1.21875 10.546875 5.046875 
Q 4.046875 11.328125 4.046875 20.703125 
Q 4.046875 27.6875 7.59375 32.390625 
Q 11.140625 37.109375 17.671875 38.8125 
z
M 15.921875 53.71875 
Q 15.921875 48.640625 19.1875 45.40625 
Q 22.46875 42.1875 27.6875 42.1875 
Q 32.765625 42.1875 36.015625 45.375 
Q 39.265625 48.578125 39.265625 53.21875 
Q 39.265625 58.0625 35.90625 61.359375 
Q 32.5625 64.65625 27.59375 64.65625 
Q 22.5625 64.65625 19.234375 61.421875 
Q 15.921875 58.203125 15.921875 53.71875 
z
M 13.09375 20.65625 
Q 13.09375 16.890625 14.875 13.375 
Q 16.65625 9.859375 20.171875 7.921875 
Q 23.6875 6 27.734375 6 
Q 34.03125 6 38.125 10.046875 
Q 42.234375 14.109375 42.234375 20.359375 
Q 42.234375 26.703125 38.015625 30.859375 
Q 33.796875 35.015625 27.4375 35.015625 
Q 21.234375 35.015625 17.15625 30.90625 
Q 13.09375 26.8125 13.09375 20.65625 
z
" id="ArialMT-56"/>
      </defs>
      <g style="fill:#e6e6e6;" transform="translate(20.734375 90.449829)scale(0.1 -0.1)">
       <use xlink:href="#ArialMT-56"/>
       <use x="55.615234" xlink:href="#ArialMT-48"/>
       <use x="111.230469" xlink:href="#ArialMT-48"/>
       <use x="166.845703" xlink:href="#ArialMT-48"/>
       <use x="222.460938" xlink:href="#ArialMT-48"/>
       <use x="278.076172" xlink:href="#ArialMT-48"/>
      </g>
     </g>
    </g>
   </g>
   <g id="line2d_11">
    <path clip-path="url(#p2c96eb3bab)" d="M 73.832727 295.47902 
L 95.730248 295.453794 
L 96.682314 295.254555 
L 97.63438 294.345556 
L 98.586446 292.012264 
L 99.538512 286.087502 
L 100.490579 276.925925 
L 101.442645 259.025358 
L 103.346777 210.840813 
L 105.250909 152.223246 
L 107.155041 101.442789 
L 108.107107 86.526289 
L 109.059174 77.434765 
L 110.01124 70.333426 
L 110.963306 68.097574 
L 111.915372 66.484253 
L 112.867438 64.542582 
L 113.819504 66.178297 
L 114.77157 67.047539 
L 115.723636 67.704165 
L 116.675702 68.194715 
L 117.627769 55.972461 
L 118.579835 53.568 
L 120.483967 62.951433 
L 121.436033 66.912875 
L 123.340165 79.204249 
L 124.292231 93.836778 
L 125.244298 103.257211 
L 126.196364 106.797186 
L 127.14843 105.594639 
L 128.100496 108.29045 
L 130.004628 107.888396 
L 130.956694 111.670684 
L 131.90876 112.658306 
L 132.860826 112.640718 
L 133.812893 114.925867 
L 134.764959 114.910553 
L 135.717025 114.425629 
L 136.669091 115.845599 
L 137.621157 118.519947 
L 138.573223 122.771211 
L 139.525289 128.257067 
L 140.477355 131.689058 
L 141.429421 134.518378 
L 142.381488 139.326406 
L 143.333554 141.604029 
L 144.28562 142.583453 
L 145.237686 142.965759 
L 146.189752 142.522419 
L 147.141818 142.557519 
L 148.093884 143.118904 
L 149.998017 143.11678 
L 150.950083 142.463657 
L 151.902149 139.788042 
L 152.854215 138.265193 
L 153.806281 139.034833 
L 154.758347 138.980767 
L 156.662479 142.275336 
L 157.614545 144.076419 
L 158.566612 146.704301 
L 159.518678 147.973845 
L 160.470744 148.065547 
L 161.42281 149.877584 
L 162.374876 149.017509 
L 163.326942 148.992357 
L 164.279008 150.629712 
L 165.231074 146.509497 
L 166.18314 149.625807 
L 167.135207 153.753846 
L 168.087273 155.495273 
L 169.039339 158.001049 
L 169.991405 160.853806 
L 170.943471 164.463423 
L 171.895537 174.18631 
L 172.847603 177.251273 
L 174.751736 181.807934 
L 175.703802 185.351486 
L 176.655868 188.021475 
L 177.607934 189.149014 
L 178.56 189.960537 
L 179.512066 190.362554 
L 180.464132 191.39407 
L 181.416198 193.527751 
L 182.368264 195.021499 
L 183.320331 196.869978 
L 184.272397 199.488098 
L 185.224463 201.546473 
L 186.176529 202.825668 
L 187.128595 204.777399 
L 188.080661 206.451941 
L 189.032727 208.545081 
L 189.984793 211.066544 
L 190.93686 214.914823 
L 191.888926 218.006167 
L 193.793058 225.293031 
L 194.745124 228.580894 
L 195.69719 230.392857 
L 196.649256 231.275959 
L 197.601322 230.869471 
L 198.553388 230.722623 
L 199.505455 229.539973 
L 200.457521 226.368032 
L 201.409587 224.376579 
L 203.313719 222.482641 
L 204.265785 221.639967 
L 205.217851 221.169761 
L 206.169917 221.910561 
L 207.121983 225.112722 
L 209.978182 231.198231 
L 211.882314 235.573018 
L 212.83438 237.261533 
L 213.786446 238.614282 
L 214.738512 240.251451 
L 224.259174 253.328973 
L 225.21124 254.562485 
L 227.115372 256.017518 
L 229.019504 257.043407 
L 229.97157 256.899838 
L 230.923636 255.887996 
L 231.875702 250.59046 
L 232.827769 242.883134 
L 234.731901 220.073633 
L 235.683967 207.155778 
L 236.636033 197.628552 
L 237.588099 191.424029 
L 238.540165 191.547663 
L 239.492231 194.504679 
L 240.444298 202.295061 
L 241.396364 212.188308 
L 242.34843 223.984959 
L 243.300496 232.474333 
L 244.252562 238.254707 
L 245.204628 240.609983 
L 246.156694 243.397122 
L 247.10876 245.493392 
L 248.060826 246.661845 
L 249.012893 246.091443 
L 249.964959 246.12427 
L 250.917025 246.512314 
L 251.869091 247.96023 
L 252.821157 248.479919 
L 253.773223 249.439259 
L 254.725289 249.844555 
L 256.629421 251.292396 
L 258.533554 253.970992 
L 259.48562 254.693348 
L 261.389752 255.421032 
L 262.341818 255.11951 
L 265.198017 249.491053 
L 266.150083 248.242264 
L 268.054215 246.851209 
L 269.006281 245.754671 
L 269.958347 245.84313 
L 270.910413 246.410738 
L 271.862479 245.843727 
L 272.814545 244.48006 
L 274.718678 238.143108 
L 275.670744 236.974394 
L 277.574876 237.384906 
L 278.526942 238.066312 
L 279.479008 239.768576 
L 281.38314 246.679134 
L 282.335207 249.679038 
L 283.287273 251.361964 
L 284.239339 253.333146 
L 286.143471 256.530872 
L 288.047603 258.439008 
L 289.951736 259.548624 
L 290.903802 259.226236 
L 291.855868 259.212784 
L 293.76 259.792353 
L 294.712066 260.196941 
L 295.664132 260.789738 
L 297.568264 263.201801 
L 298.520331 264.093287 
L 300.424463 266.439919 
L 302.328595 267.849939 
L 304.232727 268.796536 
L 305.184793 269.353301 
L 306.13686 269.763627 
L 307.088926 269.446194 
L 308.993058 269.97341 
L 309.945124 270.103901 
L 311.849256 270.087543 
L 312.801322 270.221163 
L 314.705455 270.774276 
L 315.657521 270.812879 
L 317.561653 271.321427 
L 318.513719 271.208562 
L 319.465785 270.810942 
L 320.417851 269.513414 
L 321.369917 268.740494 
L 322.321983 268.747798 
L 324.226116 268.435284 
L 326.130248 268.659935 
L 327.082314 270.137548 
L 328.03438 270.497422 
L 328.986446 270.156812 
L 329.938512 268.794375 
L 330.890579 268.031478 
L 331.842645 266.611993 
L 333.746777 265.908194 
L 334.698843 266.017408 
L 336.602975 268.377044 
L 337.555041 269.17791 
L 338.507107 270.514003 
L 339.459174 271.629023 
L 340.41124 272.437043 
L 341.363306 272.836899 
L 342.315372 271.972762 
L 343.267438 271.985655 
L 344.219504 271.847041 
L 345.17157 271.096292 
L 346.123636 265.134715 
L 347.075702 260.547015 
L 348.027769 257.662399 
L 349.931901 253.645027 
L 350.883967 252.488907 
L 351.836033 252.579677 
L 352.788099 257.604867 
L 353.740165 261.664159 
L 356.596364 269.868556 
L 357.54843 270.938153 
L 358.500496 270.073644 
L 359.452562 267.67112 
L 361.356694 265.02524 
L 362.30876 262.772508 
L 363.260826 260.953019 
L 364.212893 260.103116 
L 365.164959 261.131763 
L 366.117025 263.555116 
L 367.069091 264.65225 
L 368.021157 265.493173 
L 368.973223 266.984163 
L 370.877355 269.122427 
L 371.829421 269.265736 
L 372.781488 268.829624 
L 373.733554 266.958863 
L 376.589752 262.363114 
L 377.541818 261.133887 
L 378.493884 260.555324 
L 379.44595 260.440036 
L 380.398017 262.108728 
L 382.302149 264.551867 
L 383.254215 264.15898 
L 385.158347 259.365744 
L 386.110413 256.492344 
L 387.062479 254.606342 
L 388.014545 253.156153 
L 388.966612 251.481015 
L 389.918678 251.147597 
L 391.82281 254.989094 
L 392.774876 257.209781 
L 393.726942 258.695107 
L 394.679008 259.764183 
L 395.631074 261.120473 
L 396.58314 262.811223 
L 397.535207 263.928292 
L 398.487273 264.870828 
L 398.487273 264.870828 
" style="fill:none;stroke:#08f7fe;stroke-linecap:round;stroke-width:1.5;"/>
   </g>
   <g id="patch_3">
    <path d="M 57.6 307.584 
L 57.6 41.472 
" style="fill:none;"/>
   </g>
   <g id="patch_4">
    <path d="M 414.72 307.584 
L 414.72 41.472 
" style="fill:none;"/>
   </g>
   <g id="patch_5">
    <path d="M 57.6 307.584 
L 414.72 307.584 
" style="fill:none;"/>
   </g>
   <g id="patch_6">
    <path d="M 57.6 41.472 
L 414.72 41.472 
" style="fill:none;"/>
   </g>
  </g>
 </g>
 <defs>
  <clipPath id="p2c96eb3bab">
   <rect height="266.112" width="357.12" x="57.6" y="41.472"/>
  </clipPath>
 </defs>
</svg>
