<?xml version="1.0" encoding="utf-8" standalone="no"?>
<!DOCTYPE svg PUBLIC "-//W3C//DTD SVG 1.1//EN"
  "http://www.w3.org/Graphics/SVG/1.1/DTD/svg11.dtd">
<!-- Created with matplotlib (https://matplotlib.org/) -->
<svg height="345.6pt" version="1.1" viewBox="0 0 460.8 345.6" width="460.8pt" xmlns="http://www.w3.org/2000/svg" xmlns:xlink="http://www.w3.org/1999/xlink">
 <defs>
  <style type="text/css">
*{stroke-linecap:butt;stroke-linejoin:round;}
  </style>
 </defs>
 <g id="figure_1">
  <g id="patch_1">
   <path d="M 0 345.6 
L 460.8 345.6 
L 460.8 0 
L 0 0 
z
" style="fill:#212946;"/>
  </g>
  <g id="axes_1">
   <g id="patch_2">
    <path d="M 57.6 307.584 
L 414.72 307.584 
L 414.72 41.472 
L 57.6 41.472 
z
" style="fill:#212946;"/>
   </g>
   <g id="matplotlib.axis_1">
    <g id="text_1">
     <!-- date -->
     <defs>
      <path d="M 40.234375 0 
L 40.234375 6.546875 
Q 35.296875 -1.171875 25.734375 -1.171875 
Q 19.53125 -1.171875 14.328125 2.25 
Q 9.125 5.671875 6.265625 11.796875 
Q 3.421875 17.921875 3.421875 25.875 
Q 3.421875 33.640625 6 39.96875 
Q 8.59375 46.296875 13.765625 49.65625 
Q 18.953125 53.03125 25.34375 53.03125 
Q 30.03125 53.03125 33.6875 51.046875 
Q 37.359375 49.078125 39.65625 45.90625 
L 39.65625 71.578125 
L 48.390625 71.578125 
L 48.390625 0 
z
M 12.453125 25.875 
Q 12.453125 15.921875 16.640625 10.984375 
Q 20.84375 6.0625 26.5625 6.0625 
Q 32.328125 6.0625 36.34375 10.765625 
Q 40.375 15.484375 40.375 25.140625 
Q 40.375 35.796875 36.265625 40.765625 
Q 32.171875 45.75 26.171875 45.75 
Q 20.3125 45.75 16.375 40.96875 
Q 12.453125 36.1875 12.453125 25.875 
z
" id="ArialMT-100"/>
      <path d="M 40.4375 6.390625 
Q 35.546875 2.25 31.03125 0.53125 
Q 26.515625 -1.171875 21.34375 -1.171875 
Q 12.796875 -1.171875 8.203125 3 
Q 3.609375 7.171875 3.609375 13.671875 
Q 3.609375 17.484375 5.34375 20.625 
Q 7.078125 23.78125 9.890625 25.6875 
Q 12.703125 27.59375 16.21875 28.5625 
Q 18.796875 29.25 24.03125 29.890625 
Q 34.671875 31.15625 39.703125 32.90625 
Q 39.75 34.71875 39.75 35.203125 
Q 39.75 40.578125 37.25 42.78125 
Q 33.890625 45.75 27.25 45.75 
Q 21.046875 45.75 18.09375 43.578125 
Q 15.140625 41.40625 13.71875 35.890625 
L 5.125 37.0625 
Q 6.296875 42.578125 8.984375 45.96875 
Q 11.671875 49.359375 16.75 51.1875 
Q 21.828125 53.03125 28.515625 53.03125 
Q 35.15625 53.03125 39.296875 51.46875 
Q 43.453125 49.90625 45.40625 47.53125 
Q 47.359375 45.171875 48.140625 41.546875 
Q 48.578125 39.3125 48.578125 33.453125 
L 48.578125 21.734375 
Q 48.578125 9.46875 49.140625 6.21875 
Q 49.703125 2.984375 51.375 0 
L 42.1875 0 
Q 40.828125 2.734375 40.4375 6.390625 
z
M 39.703125 26.03125 
Q 34.90625 24.078125 25.34375 22.703125 
Q 19.921875 21.921875 17.671875 20.9375 
Q 15.4375 19.96875 14.203125 18.09375 
Q 12.984375 16.21875 12.984375 13.921875 
Q 12.984375 10.40625 15.640625 8.0625 
Q 18.3125 5.71875 23.4375 5.71875 
Q 28.515625 5.71875 32.46875 7.9375 
Q 36.421875 10.15625 38.28125 14.015625 
Q 39.703125 17 39.703125 22.796875 
z
" id="ArialMT-97"/>
      <path d="M 25.78125 7.859375 
L 27.046875 0.09375 
Q 23.34375 -0.6875 20.40625 -0.6875 
Q 15.625 -0.6875 12.984375 0.828125 
Q 10.359375 2.34375 9.28125 4.8125 
Q 8.203125 7.28125 8.203125 15.1875 
L 8.203125 45.015625 
L 1.765625 45.015625 
L 1.765625 51.859375 
L 8.203125 51.859375 
L 8.203125 64.703125 
L 16.9375 69.96875 
L 16.9375 51.859375 
L 25.78125 51.859375 
L 25.78125 45.015625 
L 16.9375 45.015625 
L 16.9375 14.703125 
Q 16.9375 10.9375 17.40625 9.859375 
Q 17.875 8.796875 18.921875 8.15625 
Q 19.96875 7.515625 21.921875 7.515625 
Q 23.390625 7.515625 25.78125 7.859375 
z
" id="ArialMT-116"/>
      <path d="M 42.09375 16.703125 
L 51.171875 15.578125 
Q 49.03125 7.625 43.21875 3.21875 
Q 37.40625 -1.171875 28.375 -1.171875 
Q 17 -1.171875 10.328125 5.828125 
Q 3.65625 12.84375 3.65625 25.484375 
Q 3.65625 38.578125 10.390625 45.796875 
Q 17.140625 53.03125 27.875 53.03125 
Q 38.28125 53.03125 44.875 45.953125 
Q 51.46875 38.875 51.46875 26.03125 
Q 51.46875 25.25 51.421875 23.6875 
L 12.75 23.6875 
Q 13.234375 15.140625 17.578125 10.59375 
Q 21.921875 6.0625 28.421875 6.0625 
Q 33.25 6.0625 36.671875 8.59375 
Q 40.09375 11.140625 42.09375 16.703125 
z
M 13.234375 30.90625 
L 42.1875 30.90625 
Q 41.609375 37.453125 38.875 40.71875 
Q 34.671875 45.796875 27.984375 45.796875 
Q 21.921875 45.796875 17.796875 41.75 
Q 13.671875 37.703125 13.234375 30.90625 
z
" id="ArialMT-101"/>
     </defs>
     <g style="fill:#e6e6e6;" transform="translate(226.429531 318.741812)scale(0.1 -0.1)">
      <use xlink:href="#ArialMT-100"/>
      <use x="55.615234" xlink:href="#ArialMT-97"/>
      <use x="111.230469" xlink:href="#ArialMT-116"/>
      <use x="139.013672" xlink:href="#ArialMT-101"/>
     </g>
    </g>
   </g>
   <g id="matplotlib.axis_2">
    <g id="ytick_1">
     <g id="line2d_1">
      <path clip-path="url(#pec731a464e)" d="M 57.6 295.519398 
L 414.72 295.519398 
" style="fill:none;stroke:#2a3459;stroke-linecap:round;stroke-width:0.8;"/>
     </g>
     <g id="line2d_2"/>
     <g id="text_2">
      <!-- 0 -->
      <defs>
       <path d="M 4.15625 35.296875 
Q 4.15625 48 6.765625 55.734375 
Q 9.375 63.484375 14.515625 67.671875 
Q 19.671875 71.875 27.484375 71.875 
Q 33.25 71.875 37.59375 69.546875 
Q 41.9375 67.234375 44.765625 62.859375 
Q 47.609375 58.5 49.21875 52.21875 
Q 50.828125 45.953125 50.828125 35.296875 
Q 50.828125 22.703125 48.234375 14.96875 
Q 45.65625 7.234375 40.5 3 
Q 35.359375 -1.21875 27.484375 -1.21875 
Q 17.140625 -1.21875 11.234375 6.203125 
Q 4.15625 15.140625 4.15625 35.296875 
z
M 13.1875 35.296875 
Q 13.1875 17.671875 17.3125 11.828125 
Q 21.4375 6 27.484375 6 
Q 33.546875 6 37.671875 11.859375 
Q 41.796875 17.71875 41.796875 35.296875 
Q 41.796875 52.984375 37.671875 58.78125 
Q 33.546875 64.59375 27.390625 64.59375 
Q 21.34375 64.59375 17.71875 59.46875 
Q 13.1875 52.9375 13.1875 35.296875 
z
" id="ArialMT-48"/>
      </defs>
      <g style="fill:#e6e6e6;" transform="translate(48.539062 299.098305)scale(0.1 -0.1)">
       <use xlink:href="#ArialMT-48"/>
      </g>
     </g>
    </g>
    <g id="ytick_2">
     <g id="line2d_3">
      <path clip-path="url(#pec731a464e)" d="M 57.6 244.208153 
L 414.72 244.208153 
" style="fill:none;stroke:#2a3459;stroke-linecap:round;stroke-width:0.8;"/>
     </g>
     <g id="line2d_4"/>
     <g id="text_3">
      <!-- 2 -->
      <defs>
       <path d="M 50.34375 8.453125 
L 50.34375 0 
L 3.03125 0 
Q 2.9375 3.171875 4.046875 6.109375 
Q 5.859375 10.9375 9.828125 15.625 
Q 13.8125 20.3125 21.34375 26.46875 
Q 33.015625 36.03125 37.109375 41.625 
Q 41.21875 47.21875 41.21875 52.203125 
Q 41.21875 57.421875 37.46875 61 
Q 33.734375 64.59375 27.734375 64.59375 
Q 21.390625 64.59375 17.578125 60.78125 
Q 13.765625 56.984375 13.71875 50.25 
L 4.6875 51.171875 
Q 5.609375 61.28125 11.65625 66.578125 
Q 17.71875 71.875 27.9375 71.875 
Q 38.234375 71.875 44.234375 66.15625 
Q 50.25 60.453125 50.25 52 
Q 50.25 47.703125 48.484375 43.546875 
Q 46.734375 39.40625 42.65625 34.8125 
Q 38.578125 30.21875 29.109375 22.21875 
Q 21.1875 15.578125 18.9375 13.203125 
Q 16.703125 10.84375 15.234375 8.453125 
z
" id="ArialMT-50"/>
      </defs>
      <g style="fill:#e6e6e6;" transform="translate(48.539062 247.787059)scale(0.1 -0.1)">
       <use xlink:href="#ArialMT-50"/>
      </g>
     </g>
    </g>
    <g id="ytick_3">
     <g id="line2d_5">
      <path clip-path="url(#pec731a464e)" d="M 57.6 192.896907 
L 414.72 192.896907 
" style="fill:none;stroke:#2a3459;stroke-linecap:round;stroke-width:0.8;"/>
     </g>
     <g id="line2d_6"/>
     <g id="text_4">
      <!-- 4 -->
      <defs>
       <path d="M 32.328125 0 
L 32.328125 17.140625 
L 1.265625 17.140625 
L 1.265625 25.203125 
L 33.9375 71.578125 
L 41.109375 71.578125 
L 41.109375 25.203125 
L 50.78125 25.203125 
L 50.78125 17.140625 
L 41.109375 17.140625 
L 41.109375 0 
z
M 32.328125 25.203125 
L 32.328125 57.46875 
L 9.90625 25.203125 
z
" id="ArialMT-52"/>
      </defs>
      <g style="fill:#e6e6e6;" transform="translate(48.539062 196.475813)scale(0.1 -0.1)">
       <use xlink:href="#ArialMT-52"/>
      </g>
     </g>
    </g>
    <g id="ytick_4">
     <g id="line2d_7">
      <path clip-path="url(#pec731a464e)" d="M 57.6 141.585662 
L 414.72 141.585662 
" style="fill:none;stroke:#2a3459;stroke-linecap:round;stroke-width:0.8;"/>
     </g>
     <g id="line2d_8"/>
     <g id="text_5">
      <!-- 6 -->
      <defs>
       <path d="M 49.75 54.046875 
L 41.015625 53.375 
Q 39.84375 58.546875 37.703125 60.890625 
Q 34.125 64.65625 28.90625 64.65625 
Q 24.703125 64.65625 21.53125 62.3125 
Q 17.390625 59.28125 14.984375 53.46875 
Q 12.59375 47.65625 12.5 36.921875 
Q 15.671875 41.75 20.265625 44.09375 
Q 24.859375 46.4375 29.890625 46.4375 
Q 38.671875 46.4375 44.84375 39.96875 
Q 51.03125 33.5 51.03125 23.25 
Q 51.03125 16.5 48.125 10.71875 
Q 45.21875 4.9375 40.140625 1.859375 
Q 35.0625 -1.21875 28.609375 -1.21875 
Q 17.625 -1.21875 10.6875 6.859375 
Q 3.765625 14.9375 3.765625 33.5 
Q 3.765625 54.25 11.421875 63.671875 
Q 18.109375 71.875 29.4375 71.875 
Q 37.890625 71.875 43.28125 67.140625 
Q 48.6875 62.40625 49.75 54.046875 
z
M 13.875 23.1875 
Q 13.875 18.65625 15.796875 14.5 
Q 17.71875 10.359375 21.1875 8.171875 
Q 24.65625 6 28.46875 6 
Q 34.03125 6 38.03125 10.484375 
Q 42.046875 14.984375 42.046875 22.703125 
Q 42.046875 30.125 38.078125 34.390625 
Q 34.125 38.671875 28.125 38.671875 
Q 22.171875 38.671875 18.015625 34.390625 
Q 13.875 30.125 13.875 23.1875 
z
" id="ArialMT-54"/>
      </defs>
      <g style="fill:#e6e6e6;" transform="translate(48.539062 145.164568)scale(0.1 -0.1)">
       <use xlink:href="#ArialMT-54"/>
      </g>
     </g>
    </g>
    <g id="ytick_5">
     <g id="line2d_9">
      <path clip-path="url(#pec731a464e)" d="M 57.6 90.274416 
L 414.72 90.274416 
" style="fill:none;stroke:#2a3459;stroke-linecap:round;stroke-width:0.8;"/>
     </g>
     <g id="line2d_10"/>
     <g id="text_6">
      <!-- 8 -->
      <defs>
       <path d="M 17.671875 38.8125 
Q 12.203125 40.828125 9.5625 44.53125 
Q 6.9375 48.25 6.9375 53.421875 
Q 6.9375 61.234375 12.546875 66.546875 
Q 18.171875 71.875 27.484375 71.875 
Q 36.859375 71.875 42.578125 66.421875 
Q 48.296875 60.984375 48.296875 53.171875 
Q 48.296875 48.1875 45.671875 44.5 
Q 43.0625 40.828125 37.75 38.8125 
Q 44.34375 36.671875 47.78125 31.875 
Q 51.21875 27.09375 51.21875 20.453125 
Q 51.21875 11.28125 44.71875 5.03125 
Q 38.234375 -1.21875 27.640625 -1.21875 
Q 17.046875 -1.21875 10.546875 5.046875 
Q 4.046875 11.328125 4.046875 20.703125 
Q 4.046875 27.6875 7.59375 32.390625 
Q 11.140625 37.109375 17.671875 38.8125 
z
M 15.921875 53.71875 
Q 15.921875 48.640625 19.1875 45.40625 
Q 22.46875 42.1875 27.6875 42.1875 
Q 32.765625 42.1875 36.015625 45.375 
Q 39.265625 48.578125 39.265625 53.21875 
Q 39.265625 58.0625 35.90625 61.359375 
Q 32.5625 64.65625 27.59375 64.65625 
Q 22.5625 64.65625 19.234375 61.421875 
Q 15.921875 58.203125 15.921875 53.71875 
z
M 13.09375 20.65625 
Q 13.09375 16.890625 14.875 13.375 
Q 16.65625 9.859375 20.171875 7.921875 
Q 23.6875 6 27.734375 6 
Q 34.03125 6 38.125 10.046875 
Q 42.234375 14.109375 42.234375 20.359375 
Q 42.234375 26.703125 38.015625 30.859375 
Q 33.796875 35.015625 27.4375 35.015625 
Q 21.234375 35.015625 17.15625 30.90625 
Q 13.09375 26.8125 13.09375 20.65625 
z
" id="ArialMT-56"/>
      </defs>
      <g style="fill:#e6e6e6;" transform="translate(48.539062 93.853322)scale(0.1 -0.1)">
       <use xlink:href="#ArialMT-56"/>
      </g>
     </g>
    </g>
    <g id="text_7">
     <!-- 1e8 -->
     <defs>
      <path d="M 37.25 0 
L 28.46875 0 
L 28.46875 56 
Q 25.296875 52.984375 20.140625 49.953125 
Q 14.984375 46.921875 10.890625 45.40625 
L 10.890625 53.90625 
Q 18.265625 57.375 23.78125 62.296875 
Q 29.296875 67.234375 31.59375 71.875 
L 37.25 71.875 
z
" id="ArialMT-49"/>
     </defs>
     <g style="fill:#e6e6e6;" transform="translate(57.6 38.472)scale(0.1 -0.1)">
      <use xlink:href="#ArialMT-49"/>
      <use x="55.615234" xlink:href="#ArialMT-101"/>
      <use x="111.230469" xlink:href="#ArialMT-56"/>
     </g>
    </g>
   </g>
   <g id="line2d_11">
    <path clip-path="url(#pec731a464e)" d="M 73.832727 295.472408 
L 74.765643 295.081924 
L 75.698558 295.396371 
L 76.631473 294.337926 
L 77.564389 295.321672 
L 79.430219 295.476921 
L 82.228966 295.440774 
L 83.161881 295.255003 
L 84.094796 295.488 
L 85.027712 294.501459 
L 85.960627 295.024267 
L 86.893542 295.277703 
L 87.826458 294.964331 
L 88.759373 295.403009 
L 90.625204 295.478098 
L 91.558119 295.159374 
L 92.491034 295.445139 
L 93.42395 295.144601 
L 94.356865 295.434414 
L 96.222696 295.418168 
L 97.155611 294.910771 
L 98.088527 295.197916 
L 99.021442 295.355946 
L 100.887273 295.034954 
L 101.820188 290.408015 
L 102.753103 279.953358 
L 103.686019 260.861667 
L 104.618934 229.918743 
L 105.55185 239.367513 
L 106.484765 213.431298 
L 107.41768 195.563631 
L 108.350596 187.58058 
L 109.283511 200.525989 
L 110.216426 194.53626 
L 111.149342 192.983683 
L 112.082257 190.360095 
L 113.015172 201.32028 
L 113.948088 75.231229 
L 114.881003 111.349874 
L 115.813918 184.55693 
L 116.746834 66.816124 
L 117.679749 147.377402 
L 118.612665 177.374654 
L 119.54558 174.461235 
L 120.478495 178.60921 
L 121.411411 81.465108 
L 122.344326 53.568 
L 123.277241 99.771513 
L 124.210157 193.151469 
L 125.143072 196.322972 
L 126.075987 194.753212 
L 127.008903 192.926748 
L 127.941818 113.57485 
L 128.874734 185.280191 
L 129.807649 202.452484 
L 130.740564 199.943275 
L 131.67348 209.135405 
L 132.606395 209.869511 
L 133.53931 210.895426 
L 134.472226 199.966872 
L 135.405141 208.149247 
L 136.338056 208.486617 
L 137.270972 199.586722 
L 138.203887 207.994211 
L 139.136803 209.969179 
L 140.069718 212.51989 
L 141.002633 219.050255 
L 141.935549 218.743077 
L 142.868464 226.150578 
L 143.801379 218.076084 
L 144.734295 217.770948 
L 145.66721 220.623214 
L 146.600125 227.562516 
L 147.533041 221.587812 
L 148.465956 211.832086 
L 149.398871 211.362624 
L 150.331787 130.800073 
L 151.264702 204.566369 
L 152.197618 202.128275 
L 153.130533 207.812371 
L 154.063448 212.519213 
L 154.996364 207.627936 
L 155.929279 200.821232 
L 156.862194 195.324585 
L 157.79511 199.173412 
L 158.728025 129.871919 
L 159.66094 217.2566 
L 160.593856 215.368847 
L 161.526771 211.49733 
L 162.459687 207.100719 
L 163.392602 201.02004 
L 164.325517 199.958962 
L 165.258433 197.753377 
L 166.191348 205.946264 
L 167.124263 212.386467 
L 168.057179 217.516075 
L 168.990094 203.023307 
L 169.923009 215.81409 
L 170.855925 220.431478 
L 171.78884 220.647088 
L 172.721755 244.846757 
L 173.654671 252.999698 
L 174.587586 250.996259 
L 175.520502 254.471393 
L 176.453417 260.242788 
L 177.386332 262.335069 
L 178.319248 262.213755 
L 179.252163 264.440959 
L 180.185078 263.570522 
L 181.117994 258.064801 
L 182.050909 258.527865 
L 182.983824 261.993434 
L 183.91674 264.080207 
L 184.849655 256.084905 
L 185.782571 256.302143 
L 186.715486 261.691177 
L 187.648401 263.586142 
L 188.581317 264.296919 
L 189.514232 263.341834 
L 190.447147 264.481278 
L 191.380063 264.655333 
L 192.312978 265.962736 
L 193.245893 268.200709 
L 194.178809 263.520763 
L 195.111724 263.087103 
L 197.91047 270.267081 
L 198.843386 270.322828 
L 199.776301 267.258653 
L 200.709216 269.956458 
L 201.642132 269.909256 
L 202.575047 269.131199 
L 203.507962 268.516474 
L 204.440878 269.13083 
L 205.373793 267.099274 
L 206.306708 267.773275 
L 207.239624 269.070646 
L 209.105455 265.098316 
L 210.03837 267.800207 
L 210.971285 273.601824 
L 211.904201 274.836666 
L 212.837116 274.234476 
L 213.770031 274.741922 
L 214.702947 273.155921 
L 215.635862 275.309308 
L 216.568777 276.954987 
L 217.501693 275.621145 
L 218.434608 278.883181 
L 219.367524 277.360975 
L 220.300439 274.637908 
L 221.233354 275.631219 
L 222.16627 279.685824 
L 223.099185 276.80576 
L 224.0321 276.326821 
L 224.965016 278.157763 
L 226.830846 278.391309 
L 227.763762 281.640246 
L 228.696677 279.539457 
L 229.629592 282.290596 
L 231.495423 280.515671 
L 232.428339 279.262439 
L 233.361254 277.66812 
L 234.294169 266.621167 
L 235.227085 261.750822 
L 236.16 263.980899 
L 237.092915 236.388249 
L 238.025831 265.745972 
L 238.958746 265.792668 
L 239.891661 268.599094 
L 240.824577 274.312823 
L 241.757492 273.636169 
L 242.690408 276.636756 
L 243.623323 277.74963 
L 244.556238 278.453927 
L 245.489154 280.067219 
L 246.422069 279.510017 
L 247.354984 280.500026 
L 248.2879 264.048317 
L 249.220815 282.634851 
L 250.15373 282.669539 
L 251.086646 280.510319 
L 252.019561 281.761022 
L 252.952476 282.492209 
L 253.885392 280.966561 
L 254.818307 280.582123 
L 255.751223 269.500631 
L 256.684138 280.753016 
L 257.617053 269.818608 
L 258.549969 264.604689 
L 259.482884 262.813539 
L 260.415799 279.509518 
L 261.348715 262.3888 
L 262.28163 265.879296 
L 263.214545 268.390865 
L 264.147461 280.731281 
L 265.080376 280.5896 
L 266.013292 277.659236 
L 266.946207 279.056845 
L 267.879122 281.073927 
L 268.812038 281.773025 
L 269.744953 280.476738 
L 270.677868 280.219157 
L 271.610784 276.991835 
L 272.543699 280.068453 
L 273.476614 274.583592 
L 274.40953 277.298915 
L 275.342445 275.839786 
L 276.275361 275.953608 
L 277.208276 278.393492 
L 278.141191 278.775246 
L 279.074107 275.807656 
L 280.007022 276.855666 
L 280.939937 278.133793 
L 281.872853 281.250397 
L 282.805768 281.559813 
L 283.738683 280.08496 
L 284.671599 281.974567 
L 285.604514 280.693036 
L 286.537429 277.778579 
L 287.470345 279.809159 
L 288.40326 279.890782 
L 289.336176 278.959141 
L 290.269091 281.109529 
L 291.202006 280.15602 
L 292.134922 276.446503 
L 293.067837 276.18387 
L 294.000752 276.785577 
L 294.933668 275.794773 
L 295.866583 276.706671 
L 296.799498 278.913783 
L 297.732414 278.750079 
L 298.665329 279.580467 
L 299.598245 273.112354 
L 300.53116 276.34082 
L 301.464075 278.105494 
L 302.396991 282.434762 
L 303.329906 281.604262 
L 304.262821 279.955518 
L 305.195737 283.497229 
L 306.128652 282.320478 
L 307.061567 278.585865 
L 307.994483 281.989352 
L 308.927398 282.480499 
L 309.860313 278.086368 
L 310.793229 281.714802 
L 311.726144 280.913042 
L 312.65906 282.133758 
L 313.591975 281.640078 
L 314.52489 277.66524 
L 315.457806 276.670212 
L 316.390721 274.693985 
L 317.323636 276.869799 
L 318.256552 278.249199 
L 319.189467 278.71374 
L 320.122382 278.202033 
L 321.055298 273.25259 
L 321.988213 277.913769 
L 322.921129 278.832158 
L 323.854044 272.174765 
L 324.786959 278.364388 
L 325.719875 280.450652 
L 326.65279 281.679996 
L 327.585705 277.995382 
L 328.518621 278.553273 
L 329.451536 282.341341 
L 330.384451 280.475797 
L 331.317367 282.277638 
L 332.250282 282.600624 
L 333.183197 283.836259 
L 334.116113 284.060244 
L 335.049028 282.035625 
L 335.981944 283.535611 
L 336.914859 268.6809 
L 337.847774 271.442192 
L 338.78069 276.558121 
L 339.713605 279.54382 
L 340.64652 276.999112 
L 341.579436 281.110496 
L 342.512351 281.042733 
L 343.445266 279.847402 
L 344.378182 282.774274 
L 346.244013 269.504791 
L 347.176928 272.617909 
L 348.109843 277.412247 
L 349.042759 277.736065 
L 349.975674 277.071303 
L 350.908589 280.609896 
L 351.841505 276.890437 
L 352.77442 278.936068 
L 353.707335 280.072552 
L 354.640251 280.520637 
L 355.573166 275.657534 
L 356.506082 283.038512 
L 357.438997 258.005251 
L 358.371912 279.256197 
L 359.304828 271.957774 
L 360.237743 276.882632 
L 361.170658 274.002882 
L 362.103574 279.640775 
L 363.036489 277.590218 
L 363.969404 274.15506 
L 364.90232 281.799688 
L 365.835235 283.231197 
L 366.76815 280.859652 
L 367.701066 281.29158 
L 368.633981 281.512027 
L 369.566897 281.399825 
L 370.499812 282.064396 
L 371.432727 281.985041 
L 372.365643 276.037029 
L 373.298558 278.156416 
L 374.231473 280.942052 
L 375.164389 279.086583 
L 376.097304 280.227585 
L 377.030219 277.555387 
L 377.963135 279.410072 
L 378.89605 280.121433 
L 379.828966 277.603911 
L 380.761881 281.330545 
L 381.694796 283.723948 
L 382.627712 280.942937 
L 384.493542 279.325091 
L 385.426458 278.430265 
L 386.359373 281.170416 
L 387.292288 282.663004 
L 388.225204 283.32593 
L 389.158119 282.160483 
L 390.091034 281.417914 
L 391.02395 282.817273 
L 391.956865 280.279718 
L 392.889781 279.865558 
L 393.822696 267.19444 
L 394.755611 282.034433 
L 395.688527 283.575087 
L 396.621442 283.688386 
L 397.554357 281.933009 
L 398.487273 265.216565 
L 398.487273 265.216565 
" style="fill:none;stroke:#08f7fe;stroke-linecap:round;stroke-width:1.5;"/>
   </g>
   <g id="patch_3">
    <path d="M 57.6 307.584 
L 57.6 41.472 
" style="fill:none;"/>
   </g>
   <g id="patch_4">
    <path d="M 414.72 307.584 
L 414.72 41.472 
" style="fill:none;"/>
   </g>
   <g id="patch_5">
    <path d="M 57.6 307.584 
L 414.72 307.584 
" style="fill:none;"/>
   </g>
   <g id="patch_6">
    <path d="M 57.6 41.472 
L 414.72 41.472 
" style="fill:none;"/>
   </g>
  </g>
 </g>
 <defs>
  <clipPath id="pec731a464e">
   <rect height="266.112" width="357.12" x="57.6" y="41.472"/>
  </clipPath>
 </defs>
</svg>
