<?xml version="1.0" encoding="utf-8" standalone="no"?>
<!DOCTYPE svg PUBLIC "-//W3C//DTD SVG 1.1//EN"
  "http://www.w3.org/Graphics/SVG/1.1/DTD/svg11.dtd">
<!-- Created with matplotlib (https://matplotlib.org/) -->
<svg height="345.6pt" version="1.1" viewBox="0 0 460.8 345.6" width="460.8pt" xmlns="http://www.w3.org/2000/svg" xmlns:xlink="http://www.w3.org/1999/xlink">
 <defs>
  <style type="text/css">
*{stroke-linecap:butt;stroke-linejoin:round;}
  </style>
 </defs>
 <g id="figure_1">
  <g id="patch_1">
   <path d="M 0 345.6 
L 460.8 345.6 
L 460.8 0 
L 0 0 
z
" style="fill:#212946;"/>
  </g>
  <g id="axes_1">
   <g id="patch_2">
    <path d="M 57.6 307.584 
L 414.72 307.584 
L 414.72 41.472 
L 57.6 41.472 
z
" style="fill:#212946;"/>
   </g>
   <g id="matplotlib.axis_1">
    <g id="text_1">
     <!-- date -->
     <defs>
      <path d="M 40.234375 0 
L 40.234375 6.546875 
Q 35.296875 -1.171875 25.734375 -1.171875 
Q 19.53125 -1.171875 14.328125 2.25 
Q 9.125 5.671875 6.265625 11.796875 
Q 3.421875 17.921875 3.421875 25.875 
Q 3.421875 33.640625 6 39.96875 
Q 8.59375 46.296875 13.765625 49.65625 
Q 18.953125 53.03125 25.34375 53.03125 
Q 30.03125 53.03125 33.6875 51.046875 
Q 37.359375 49.078125 39.65625 45.90625 
L 39.65625 71.578125 
L 48.390625 71.578125 
L 48.390625 0 
z
M 12.453125 25.875 
Q 12.453125 15.921875 16.640625 10.984375 
Q 20.84375 6.0625 26.5625 6.0625 
Q 32.328125 6.0625 36.34375 10.765625 
Q 40.375 15.484375 40.375 25.140625 
Q 40.375 35.796875 36.265625 40.765625 
Q 32.171875 45.75 26.171875 45.75 
Q 20.3125 45.75 16.375 40.96875 
Q 12.453125 36.1875 12.453125 25.875 
z
" id="ArialMT-100"/>
      <path d="M 40.4375 6.390625 
Q 35.546875 2.25 31.03125 0.53125 
Q 26.515625 -1.171875 21.34375 -1.171875 
Q 12.796875 -1.171875 8.203125 3 
Q 3.609375 7.171875 3.609375 13.671875 
Q 3.609375 17.484375 5.34375 20.625 
Q 7.078125 23.78125 9.890625 25.6875 
Q 12.703125 27.59375 16.21875 28.5625 
Q 18.796875 29.25 24.03125 29.890625 
Q 34.671875 31.15625 39.703125 32.90625 
Q 39.75 34.71875 39.75 35.203125 
Q 39.75 40.578125 37.25 42.78125 
Q 33.890625 45.75 27.25 45.75 
Q 21.046875 45.75 18.09375 43.578125 
Q 15.140625 41.40625 13.71875 35.890625 
L 5.125 37.0625 
Q 6.296875 42.578125 8.984375 45.96875 
Q 11.671875 49.359375 16.75 51.1875 
Q 21.828125 53.03125 28.515625 53.03125 
Q 35.15625 53.03125 39.296875 51.46875 
Q 43.453125 49.90625 45.40625 47.53125 
Q 47.359375 45.171875 48.140625 41.546875 
Q 48.578125 39.3125 48.578125 33.453125 
L 48.578125 21.734375 
Q 48.578125 9.46875 49.140625 6.21875 
Q 49.703125 2.984375 51.375 0 
L 42.1875 0 
Q 40.828125 2.734375 40.4375 6.390625 
z
M 39.703125 26.03125 
Q 34.90625 24.078125 25.34375 22.703125 
Q 19.921875 21.921875 17.671875 20.9375 
Q 15.4375 19.96875 14.203125 18.09375 
Q 12.984375 16.21875 12.984375 13.921875 
Q 12.984375 10.40625 15.640625 8.0625 
Q 18.3125 5.71875 23.4375 5.71875 
Q 28.515625 5.71875 32.46875 7.9375 
Q 36.421875 10.15625 38.28125 14.015625 
Q 39.703125 17 39.703125 22.796875 
z
" id="ArialMT-97"/>
      <path d="M 25.78125 7.859375 
L 27.046875 0.09375 
Q 23.34375 -0.6875 20.40625 -0.6875 
Q 15.625 -0.6875 12.984375 0.828125 
Q 10.359375 2.34375 9.28125 4.8125 
Q 8.203125 7.28125 8.203125 15.1875 
L 8.203125 45.015625 
L 1.765625 45.015625 
L 1.765625 51.859375 
L 8.203125 51.859375 
L 8.203125 64.703125 
L 16.9375 69.96875 
L 16.9375 51.859375 
L 25.78125 51.859375 
L 25.78125 45.015625 
L 16.9375 45.015625 
L 16.9375 14.703125 
Q 16.9375 10.9375 17.40625 9.859375 
Q 17.875 8.796875 18.921875 8.15625 
Q 19.96875 7.515625 21.921875 7.515625 
Q 23.390625 7.515625 25.78125 7.859375 
z
" id="ArialMT-116"/>
      <path d="M 42.09375 16.703125 
L 51.171875 15.578125 
Q 49.03125 7.625 43.21875 3.21875 
Q 37.40625 -1.171875 28.375 -1.171875 
Q 17 -1.171875 10.328125 5.828125 
Q 3.65625 12.84375 3.65625 25.484375 
Q 3.65625 38.578125 10.390625 45.796875 
Q 17.140625 53.03125 27.875 53.03125 
Q 38.28125 53.03125 44.875 45.953125 
Q 51.46875 38.875 51.46875 26.03125 
Q 51.46875 25.25 51.421875 23.6875 
L 12.75 23.6875 
Q 13.234375 15.140625 17.578125 10.59375 
Q 21.921875 6.0625 28.421875 6.0625 
Q 33.25 6.0625 36.671875 8.59375 
Q 40.09375 11.140625 42.09375 16.703125 
z
M 13.234375 30.90625 
L 42.1875 30.90625 
Q 41.609375 37.453125 38.875 40.71875 
Q 34.671875 45.796875 27.984375 45.796875 
Q 21.921875 45.796875 17.796875 41.75 
Q 13.671875 37.703125 13.234375 30.90625 
z
" id="ArialMT-101"/>
     </defs>
     <g style="fill:#e6e6e6;" transform="translate(226.429531 318.741812)scale(0.1 -0.1)">
      <use xlink:href="#ArialMT-100"/>
      <use x="55.615234" xlink:href="#ArialMT-97"/>
      <use x="111.230469" xlink:href="#ArialMT-116"/>
      <use x="139.013672" xlink:href="#ArialMT-101"/>
     </g>
    </g>
   </g>
   <g id="matplotlib.axis_2">
    <g id="ytick_1">
     <g id="line2d_1">
      <path clip-path="url(#p06dc388af7)" d="M 57.6 295.488 
L 414.72 295.488 
" style="fill:none;stroke:#2a3459;stroke-linecap:round;stroke-width:0.8;"/>
     </g>
     <g id="line2d_2"/>
     <g id="text_2">
      <!-- 0 -->
      <defs>
       <path d="M 4.15625 35.296875 
Q 4.15625 48 6.765625 55.734375 
Q 9.375 63.484375 14.515625 67.671875 
Q 19.671875 71.875 27.484375 71.875 
Q 33.25 71.875 37.59375 69.546875 
Q 41.9375 67.234375 44.765625 62.859375 
Q 47.609375 58.5 49.21875 52.21875 
Q 50.828125 45.953125 50.828125 35.296875 
Q 50.828125 22.703125 48.234375 14.96875 
Q 45.65625 7.234375 40.5 3 
Q 35.359375 -1.21875 27.484375 -1.21875 
Q 17.140625 -1.21875 11.234375 6.203125 
Q 4.15625 15.140625 4.15625 35.296875 
z
M 13.1875 35.296875 
Q 13.1875 17.671875 17.3125 11.828125 
Q 21.4375 6 27.484375 6 
Q 33.546875 6 37.671875 11.859375 
Q 41.796875 17.71875 41.796875 35.296875 
Q 41.796875 52.984375 37.671875 58.78125 
Q 33.546875 64.59375 27.390625 64.59375 
Q 21.34375 64.59375 17.71875 59.46875 
Q 13.1875 52.9375 13.1875 35.296875 
z
" id="ArialMT-48"/>
      </defs>
      <g style="fill:#e6e6e6;" transform="translate(48.539062 299.066906)scale(0.1 -0.1)">
       <use xlink:href="#ArialMT-48"/>
      </g>
     </g>
    </g>
    <g id="ytick_2">
     <g id="line2d_3">
      <path clip-path="url(#p06dc388af7)" d="M 57.6 254.200697 
L 414.72 254.200697 
" style="fill:none;stroke:#2a3459;stroke-linecap:round;stroke-width:0.8;"/>
     </g>
     <g id="line2d_4"/>
     <g id="text_3">
      <!-- 10000 -->
      <defs>
       <path d="M 37.25 0 
L 28.46875 0 
L 28.46875 56 
Q 25.296875 52.984375 20.140625 49.953125 
Q 14.984375 46.921875 10.890625 45.40625 
L 10.890625 53.90625 
Q 18.265625 57.375 23.78125 62.296875 
Q 29.296875 67.234375 31.59375 71.875 
L 37.25 71.875 
z
" id="ArialMT-49"/>
      </defs>
      <g style="fill:#e6e6e6;" transform="translate(26.295313 257.779604)scale(0.1 -0.1)">
       <use xlink:href="#ArialMT-49"/>
       <use x="55.615234" xlink:href="#ArialMT-48"/>
       <use x="111.230469" xlink:href="#ArialMT-48"/>
       <use x="166.845703" xlink:href="#ArialMT-48"/>
       <use x="222.460938" xlink:href="#ArialMT-48"/>
      </g>
     </g>
    </g>
    <g id="ytick_3">
     <g id="line2d_5">
      <path clip-path="url(#p06dc388af7)" d="M 57.6 212.913395 
L 414.72 212.913395 
" style="fill:none;stroke:#2a3459;stroke-linecap:round;stroke-width:0.8;"/>
     </g>
     <g id="line2d_6"/>
     <g id="text_4">
      <!-- 20000 -->
      <defs>
       <path d="M 50.34375 8.453125 
L 50.34375 0 
L 3.03125 0 
Q 2.9375 3.171875 4.046875 6.109375 
Q 5.859375 10.9375 9.828125 15.625 
Q 13.8125 20.3125 21.34375 26.46875 
Q 33.015625 36.03125 37.109375 41.625 
Q 41.21875 47.21875 41.21875 52.203125 
Q 41.21875 57.421875 37.46875 61 
Q 33.734375 64.59375 27.734375 64.59375 
Q 21.390625 64.59375 17.578125 60.78125 
Q 13.765625 56.984375 13.71875 50.25 
L 4.6875 51.171875 
Q 5.609375 61.28125 11.65625 66.578125 
Q 17.71875 71.875 27.9375 71.875 
Q 38.234375 71.875 44.234375 66.15625 
Q 50.25 60.453125 50.25 52 
Q 50.25 47.703125 48.484375 43.546875 
Q 46.734375 39.40625 42.65625 34.8125 
Q 38.578125 30.21875 29.109375 22.21875 
Q 21.1875 15.578125 18.9375 13.203125 
Q 16.703125 10.84375 15.234375 8.453125 
z
" id="ArialMT-50"/>
      </defs>
      <g style="fill:#e6e6e6;" transform="translate(26.295313 216.492301)scale(0.1 -0.1)">
       <use xlink:href="#ArialMT-50"/>
       <use x="55.615234" xlink:href="#ArialMT-48"/>
       <use x="111.230469" xlink:href="#ArialMT-48"/>
       <use x="166.845703" xlink:href="#ArialMT-48"/>
       <use x="222.460938" xlink:href="#ArialMT-48"/>
      </g>
     </g>
    </g>
    <g id="ytick_4">
     <g id="line2d_7">
      <path clip-path="url(#p06dc388af7)" d="M 57.6 171.626092 
L 414.72 171.626092 
" style="fill:none;stroke:#2a3459;stroke-linecap:round;stroke-width:0.8;"/>
     </g>
     <g id="line2d_8"/>
     <g id="text_5">
      <!-- 30000 -->
      <defs>
       <path d="M 4.203125 18.890625 
L 12.984375 20.0625 
Q 14.5 12.59375 18.140625 9.296875 
Q 21.78125 6 27 6 
Q 33.203125 6 37.46875 10.296875 
Q 41.75 14.59375 41.75 20.953125 
Q 41.75 27 37.796875 30.921875 
Q 33.84375 34.859375 27.734375 34.859375 
Q 25.25 34.859375 21.53125 33.890625 
L 22.515625 41.609375 
Q 23.390625 41.5 23.921875 41.5 
Q 29.546875 41.5 34.03125 44.421875 
Q 38.53125 47.359375 38.53125 53.46875 
Q 38.53125 58.296875 35.25 61.46875 
Q 31.984375 64.65625 26.8125 64.65625 
Q 21.6875 64.65625 18.265625 61.421875 
Q 14.84375 58.203125 13.875 51.765625 
L 5.078125 53.328125 
Q 6.6875 62.15625 12.390625 67.015625 
Q 18.109375 71.875 26.609375 71.875 
Q 32.46875 71.875 37.390625 69.359375 
Q 42.328125 66.84375 44.9375 62.5 
Q 47.5625 58.15625 47.5625 53.265625 
Q 47.5625 48.640625 45.0625 44.828125 
Q 42.578125 41.015625 37.703125 38.765625 
Q 44.046875 37.3125 47.5625 32.6875 
Q 51.078125 28.078125 51.078125 21.140625 
Q 51.078125 11.765625 44.234375 5.25 
Q 37.40625 -1.265625 26.953125 -1.265625 
Q 17.53125 -1.265625 11.296875 4.34375 
Q 5.078125 9.96875 4.203125 18.890625 
z
" id="ArialMT-51"/>
      </defs>
      <g style="fill:#e6e6e6;" transform="translate(26.295313 175.204999)scale(0.1 -0.1)">
       <use xlink:href="#ArialMT-51"/>
       <use x="55.615234" xlink:href="#ArialMT-48"/>
       <use x="111.230469" xlink:href="#ArialMT-48"/>
       <use x="166.845703" xlink:href="#ArialMT-48"/>
       <use x="222.460938" xlink:href="#ArialMT-48"/>
      </g>
     </g>
    </g>
    <g id="ytick_5">
     <g id="line2d_9">
      <path clip-path="url(#p06dc388af7)" d="M 57.6 130.33879 
L 414.72 130.33879 
" style="fill:none;stroke:#2a3459;stroke-linecap:round;stroke-width:0.8;"/>
     </g>
     <g id="line2d_10"/>
     <g id="text_6">
      <!-- 40000 -->
      <defs>
       <path d="M 32.328125 0 
L 32.328125 17.140625 
L 1.265625 17.140625 
L 1.265625 25.203125 
L 33.9375 71.578125 
L 41.109375 71.578125 
L 41.109375 25.203125 
L 50.78125 25.203125 
L 50.78125 17.140625 
L 41.109375 17.140625 
L 41.109375 0 
z
M 32.328125 25.203125 
L 32.328125 57.46875 
L 9.90625 25.203125 
z
" id="ArialMT-52"/>
      </defs>
      <g style="fill:#e6e6e6;" transform="translate(26.295313 133.917696)scale(0.1 -0.1)">
       <use xlink:href="#ArialMT-52"/>
       <use x="55.615234" xlink:href="#ArialMT-48"/>
       <use x="111.230469" xlink:href="#ArialMT-48"/>
       <use x="166.845703" xlink:href="#ArialMT-48"/>
       <use x="222.460938" xlink:href="#ArialMT-48"/>
      </g>
     </g>
    </g>
    <g id="ytick_6">
     <g id="line2d_11">
      <path clip-path="url(#p06dc388af7)" d="M 57.6 89.051487 
L 414.72 89.051487 
" style="fill:none;stroke:#2a3459;stroke-linecap:round;stroke-width:0.8;"/>
     </g>
     <g id="line2d_12"/>
     <g id="text_7">
      <!-- 50000 -->
      <defs>
       <path d="M 4.15625 18.75 
L 13.375 19.53125 
Q 14.40625 12.796875 18.140625 9.390625 
Q 21.875 6 27.15625 6 
Q 33.5 6 37.890625 10.78125 
Q 42.28125 15.578125 42.28125 23.484375 
Q 42.28125 31 38.0625 35.34375 
Q 33.84375 39.703125 27 39.703125 
Q 22.75 39.703125 19.328125 37.765625 
Q 15.921875 35.84375 13.96875 32.765625 
L 5.71875 33.84375 
L 12.640625 70.609375 
L 48.25 70.609375 
L 48.25 62.203125 
L 19.671875 62.203125 
L 15.828125 42.96875 
Q 22.265625 47.46875 29.34375 47.46875 
Q 38.71875 47.46875 45.15625 40.96875 
Q 51.609375 34.46875 51.609375 24.265625 
Q 51.609375 14.546875 45.953125 7.46875 
Q 39.0625 -1.21875 27.15625 -1.21875 
Q 17.390625 -1.21875 11.203125 4.25 
Q 5.03125 9.71875 4.15625 18.75 
z
" id="ArialMT-53"/>
      </defs>
      <g style="fill:#e6e6e6;" transform="translate(26.295313 92.630394)scale(0.1 -0.1)">
       <use xlink:href="#ArialMT-53"/>
       <use x="55.615234" xlink:href="#ArialMT-48"/>
       <use x="111.230469" xlink:href="#ArialMT-48"/>
       <use x="166.845703" xlink:href="#ArialMT-48"/>
       <use x="222.460938" xlink:href="#ArialMT-48"/>
      </g>
     </g>
    </g>
    <g id="ytick_7">
     <g id="line2d_13">
      <path clip-path="url(#p06dc388af7)" d="M 57.6 47.764185 
L 414.72 47.764185 
" style="fill:none;stroke:#2a3459;stroke-linecap:round;stroke-width:0.8;"/>
     </g>
     <g id="line2d_14"/>
     <g id="text_8">
      <!-- 60000 -->
      <defs>
       <path d="M 49.75 54.046875 
L 41.015625 53.375 
Q 39.84375 58.546875 37.703125 60.890625 
Q 34.125 64.65625 28.90625 64.65625 
Q 24.703125 64.65625 21.53125 62.3125 
Q 17.390625 59.28125 14.984375 53.46875 
Q 12.59375 47.65625 12.5 36.921875 
Q 15.671875 41.75 20.265625 44.09375 
Q 24.859375 46.4375 29.890625 46.4375 
Q 38.671875 46.4375 44.84375 39.96875 
Q 51.03125 33.5 51.03125 23.25 
Q 51.03125 16.5 48.125 10.71875 
Q 45.21875 4.9375 40.140625 1.859375 
Q 35.0625 -1.21875 28.609375 -1.21875 
Q 17.625 -1.21875 10.6875 6.859375 
Q 3.765625 14.9375 3.765625 33.5 
Q 3.765625 54.25 11.421875 63.671875 
Q 18.109375 71.875 29.4375 71.875 
Q 37.890625 71.875 43.28125 67.140625 
Q 48.6875 62.40625 49.75 54.046875 
z
M 13.875 23.1875 
Q 13.875 18.65625 15.796875 14.5 
Q 17.71875 10.359375 21.1875 8.171875 
Q 24.65625 6 28.46875 6 
Q 34.03125 6 38.03125 10.484375 
Q 42.046875 14.984375 42.046875 22.703125 
Q 42.046875 30.125 38.078125 34.390625 
Q 34.125 38.671875 28.125 38.671875 
Q 22.171875 38.671875 18.015625 34.390625 
Q 13.875 30.125 13.875 23.1875 
z
" id="ArialMT-54"/>
      </defs>
      <g style="fill:#e6e6e6;" transform="translate(26.295313 51.343091)scale(0.1 -0.1)">
       <use xlink:href="#ArialMT-54"/>
       <use x="55.615234" xlink:href="#ArialMT-48"/>
       <use x="111.230469" xlink:href="#ArialMT-48"/>
       <use x="166.845703" xlink:href="#ArialMT-48"/>
       <use x="222.460938" xlink:href="#ArialMT-48"/>
      </g>
     </g>
    </g>
   </g>
   <g id="line2d_15">
    <path clip-path="url(#p06dc388af7)" d="M 73.832727 295.475024 
L 97.63438 295.488 
L 98.586446 290.693954 
L 101.442645 271.68469 
L 102.394711 260.952941 
L 103.346777 247.419553 
L 104.298843 231.689091 
L 107.155041 196.243941 
L 110.01124 157.869163 
L 110.963306 148.958774 
L 112.867438 123.853145 
L 113.819504 120.22576 
L 114.77157 123.566493 
L 115.723636 121.092204 
L 116.675702 107.137095 
L 117.627769 105.804695 
L 118.579835 92.00058 
L 119.531901 87.467235 
L 120.483967 82.107553 
L 121.436033 74.514228 
L 122.388099 56.650982 
L 123.340165 53.568 
L 124.292231 57.151738 
L 125.244298 84.387202 
L 126.196364 105.429571 
L 127.14843 111.082982 
L 128.100496 112.652489 
L 129.052562 139.693903 
L 130.004628 163.485416 
L 130.956694 165.707853 
L 131.90876 168.974268 
L 132.860826 173.181444 
L 134.764959 186.94781 
L 135.717025 188.44359 
L 136.669091 189.305905 
L 137.621157 194.085205 
L 138.573223 196.627913 
L 140.477355 200.710048 
L 141.429421 203.201442 
L 142.381488 203.752922 
L 143.333554 207.067113 
L 144.28562 209.920655 
L 145.237686 210.840772 
L 146.189752 208.687345 
L 148.093884 205.61203 
L 149.04595 211.603408 
L 149.998017 214.373196 
L 150.950083 212.413229 
L 151.902149 213.554528 
L 152.854215 215.571707 
L 153.806281 219.354214 
L 154.758347 221.436274 
L 155.710413 220.514387 
L 156.662479 215.971604 
L 157.614545 218.929545 
L 158.566612 219.049868 
L 161.42281 223.126694 
L 162.374876 223.527771 
L 163.326942 228.554205 
L 164.279008 230.006928 
L 165.231074 231.7233 
L 166.18314 232.389205 
L 167.135207 236.969147 
L 168.087273 242.606633 
L 169.039339 244.487565 
L 169.991405 243.577475 
L 170.943471 244.945264 
L 171.895537 240.824791 
L 172.847603 241.230586 
L 173.799669 242.253922 
L 174.751736 238.843001 
L 175.703802 239.155604 
L 176.655868 241.820995 
L 177.607934 242.071668 
L 178.56 243.13806 
L 179.512066 243.03956 
L 180.464132 242.761755 
L 181.416198 242.916878 
L 182.368264 244.195604 
L 183.320331 245.707899 
L 184.272397 247.475586 
L 185.224463 248.120257 
L 186.176529 248.263583 
L 187.128595 246.093051 
L 188.080661 247.241428 
L 189.032727 247.113437 
L 189.984793 244.972396 
L 190.93686 241.985554 
L 191.888926 244.051689 
L 192.840992 242.3247 
L 193.793058 247.640145 
L 194.745124 251.003881 
L 195.69719 256.907375 
L 196.649256 260.093575 
L 197.601322 261.387637 
L 198.553388 259.708424 
L 199.505455 260.479906 
L 200.457521 260.395562 
L 201.409587 257.179281 
L 202.361653 252.064964 
L 203.313719 256.285706 
L 204.265785 257.966689 
L 205.217851 258.694525 
L 206.169917 260.796049 
L 207.121983 259.391101 
L 208.07405 259.325042 
L 209.026116 259.889498 
L 209.978182 255.484733 
L 210.930248 256.486834 
L 211.882314 255.953638 
L 212.83438 258.282832 
L 213.786446 260.17438 
L 214.738512 262.527167 
L 215.690579 263.183045 
L 216.642645 264.352066 
L 217.594711 265.038614 
L 218.546777 266.129189 
L 219.498843 265.505751 
L 220.450909 266.097929 
L 222.355041 268.079719 
L 223.307107 267.240407 
L 224.259174 267.228611 
L 225.21124 268.362242 
L 226.163306 269.754214 
L 227.115372 269.278231 
L 228.067438 267.254563 
L 229.019504 266.927214 
L 229.97157 268.6312 
L 230.923636 269.467562 
L 231.875702 269.755984 
L 233.779835 269.299464 
L 234.731901 268.782783 
L 235.683967 266.839331 
L 236.636033 269.576089 
L 237.588099 267.423251 
L 238.540165 270.103977 
L 239.492231 269.991911 
L 240.444298 264.821561 
L 241.396364 268.588733 
L 242.34843 268.841765 
L 243.300496 268.415326 
L 244.252562 273.155108 
L 245.204628 273.590394 
L 246.156694 273.15098 
L 247.10876 277.912585 
L 248.060826 277.271452 
L 249.012893 274.967621 
L 249.964959 275.428859 
L 250.917025 271.366188 
L 251.869091 271.465868 
L 252.821157 272.150057 
L 253.773223 269.268793 
L 254.725289 267.128342 
L 255.677355 270.432506 
L 256.629421 270.538083 
L 257.581488 274.535874 
L 258.533554 274.688637 
L 259.48562 274.570673 
L 261.389752 281.500452 
L 262.341818 285.462263 
L 263.293884 285.535991 
L 264.24595 282.752637 
L 265.198017 282.460087 
L 266.150083 282.651778 
L 267.102149 282.373973 
L 268.054215 278.698813 
L 269.006281 274.167827 
L 269.958347 271.268279 
L 270.910413 270.813528 
L 271.862479 270.955675 
L 272.814545 270.80881 
L 273.766612 270.403015 
L 274.718678 268.40353 
L 275.670744 267.52411 
L 276.62281 270.183602 
L 277.574876 273.924232 
L 279.479008 274.097638 
L 280.431074 274.925154 
L 282.335207 286.112243 
L 284.239339 286.64308 
L 288.999669 287.108447 
L 290.903802 286.776379 
L 292.807934 286.589996 
L 293.76 286.171225 
L 295.664132 286.25321 
L 296.616198 286.431335 
L 297.568264 286.065648 
L 299.472397 286.331066 
L 300.424463 284.811693 
L 301.376529 283.036929 
L 302.328595 283.083525 
L 303.280661 283.3283 
L 304.232727 283.337147 
L 306.13686 283.662137 
L 308.040992 287.441105 
L 309.945124 287.021154 
L 310.89719 287.111986 
L 311.849256 286.723885 
L 312.801322 286.107525 
L 313.753388 285.827951 
L 315.657521 277.421856 
L 316.609587 274.023911 
L 317.561653 271.106668 
L 319.465785 272.080459 
L 320.417851 272.345877 
L 323.27405 285.095396 
L 324.226116 288.095214 
L 325.178182 288.117627 
L 326.130248 288.373018 
L 327.082314 288.841924 
L 330.890579 288.576506 
L 331.842645 288.652592 
L 332.794711 288.10583 
L 334.698843 287.727757 
L 335.650909 284.295012 
L 337.555041 284.880112 
L 338.507107 284.929657 
L 341.363306 285.889292 
L 342.315372 289.659413 
L 343.267438 289.619305 
L 344.219504 289.348578 
L 345.17157 288.859618 
L 346.123636 288.817152 
L 347.075702 288.278647 
L 348.027769 287.459979 
L 348.979835 286.799972 
L 349.931901 282.921325 
L 350.883967 282.565074 
L 351.836033 282.83934 
L 353.740165 282.700733 
L 354.692231 283.419132 
L 355.644298 283.725248 
L 356.596364 287.255902 
L 357.54843 287.739553 
L 358.500496 287.894085 
L 359.452562 287.865184 
L 360.404628 288.184276 
L 361.356694 287.746631 
L 363.260826 286.616538 
L 364.212893 286.160019 
L 366.117025 285.626823 
L 368.021157 270.943288 
L 368.973223 271.061252 
L 370.877355 272.114078 
L 371.829421 272.430221 
L 372.781488 272.614834 
L 374.68562 287.606254 
L 375.637686 288.003202 
L 376.589752 288.200201 
L 377.541818 287.905882 
L 379.44595 288.036822 
L 381.350083 268.705517 
L 382.302149 268.190605 
L 383.254215 259.652981 
L 384.206281 259.723759 
L 385.158347 259.533248 
L 386.110413 259.20118 
L 388.014545 278.304815 
L 388.966612 278.64337 
L 389.918678 276.377877 
L 390.870744 276.305329 
L 391.82281 276.581954 
L 392.774876 277.164105 
L 393.726942 269.848585 
L 394.679008 263.58943 
L 395.631074 263.733936 
L 396.58314 274.269865 
L 397.535207 274.328847 
L 398.487273 274.06048 
L 398.487273 274.06048 
" style="fill:none;stroke:#08f7fe;stroke-linecap:round;stroke-width:1.5;"/>
   </g>
   <g id="patch_3">
    <path d="M 57.6 307.584 
L 57.6 41.472 
" style="fill:none;"/>
   </g>
   <g id="patch_4">
    <path d="M 414.72 307.584 
L 414.72 41.472 
" style="fill:none;"/>
   </g>
   <g id="patch_5">
    <path d="M 57.6 307.584 
L 414.72 307.584 
" style="fill:none;"/>
   </g>
   <g id="patch_6">
    <path d="M 57.6 41.472 
L 414.72 41.472 
" style="fill:none;"/>
   </g>
  </g>
 </g>
 <defs>
  <clipPath id="p06dc388af7">
   <rect height="266.112" width="357.12" x="57.6" y="41.472"/>
  </clipPath>
 </defs>
</svg>
