<?xml version="1.0" encoding="utf-8" standalone="no"?>
<!DOCTYPE svg PUBLIC "-//W3C//DTD SVG 1.1//EN"
  "http://www.w3.org/Graphics/SVG/1.1/DTD/svg11.dtd">
<!-- Created with matplotlib (https://matplotlib.org/) -->
<svg height="345.6pt" version="1.1" viewBox="0 0 460.8 345.6" width="460.8pt" xmlns="http://www.w3.org/2000/svg" xmlns:xlink="http://www.w3.org/1999/xlink">
 <defs>
  <style type="text/css">
*{stroke-linecap:butt;stroke-linejoin:round;}
  </style>
 </defs>
 <g id="figure_1">
  <g id="patch_1">
   <path d="M 0 345.6 
L 460.8 345.6 
L 460.8 0 
L 0 0 
z
" style="fill:#212946;"/>
  </g>
  <g id="axes_1">
   <g id="patch_2">
    <path d="M 57.6 307.584 
L 414.72 307.584 
L 414.72 41.472 
L 57.6 41.472 
z
" style="fill:#212946;"/>
   </g>
   <g id="matplotlib.axis_1">
    <g id="text_1">
     <!-- date -->
     <defs>
      <path d="M 40.234375 0 
L 40.234375 6.546875 
Q 35.296875 -1.171875 25.734375 -1.171875 
Q 19.53125 -1.171875 14.328125 2.25 
Q 9.125 5.671875 6.265625 11.796875 
Q 3.421875 17.921875 3.421875 25.875 
Q 3.421875 33.640625 6 39.96875 
Q 8.59375 46.296875 13.765625 49.65625 
Q 18.953125 53.03125 25.34375 53.03125 
Q 30.03125 53.03125 33.6875 51.046875 
Q 37.359375 49.078125 39.65625 45.90625 
L 39.65625 71.578125 
L 48.390625 71.578125 
L 48.390625 0 
z
M 12.453125 25.875 
Q 12.453125 15.921875 16.640625 10.984375 
Q 20.84375 6.0625 26.5625 6.0625 
Q 32.328125 6.0625 36.34375 10.765625 
Q 40.375 15.484375 40.375 25.140625 
Q 40.375 35.796875 36.265625 40.765625 
Q 32.171875 45.75 26.171875 45.75 
Q 20.3125 45.75 16.375 40.96875 
Q 12.453125 36.1875 12.453125 25.875 
z
" id="ArialMT-100"/>
      <path d="M 40.4375 6.390625 
Q 35.546875 2.25 31.03125 0.53125 
Q 26.515625 -1.171875 21.34375 -1.171875 
Q 12.796875 -1.171875 8.203125 3 
Q 3.609375 7.171875 3.609375 13.671875 
Q 3.609375 17.484375 5.34375 20.625 
Q 7.078125 23.78125 9.890625 25.6875 
Q 12.703125 27.59375 16.21875 28.5625 
Q 18.796875 29.25 24.03125 29.890625 
Q 34.671875 31.15625 39.703125 32.90625 
Q 39.75 34.71875 39.75 35.203125 
Q 39.75 40.578125 37.25 42.78125 
Q 33.890625 45.75 27.25 45.75 
Q 21.046875 45.75 18.09375 43.578125 
Q 15.140625 41.40625 13.71875 35.890625 
L 5.125 37.0625 
Q 6.296875 42.578125 8.984375 45.96875 
Q 11.671875 49.359375 16.75 51.1875 
Q 21.828125 53.03125 28.515625 53.03125 
Q 35.15625 53.03125 39.296875 51.46875 
Q 43.453125 49.90625 45.40625 47.53125 
Q 47.359375 45.171875 48.140625 41.546875 
Q 48.578125 39.3125 48.578125 33.453125 
L 48.578125 21.734375 
Q 48.578125 9.46875 49.140625 6.21875 
Q 49.703125 2.984375 51.375 0 
L 42.1875 0 
Q 40.828125 2.734375 40.4375 6.390625 
z
M 39.703125 26.03125 
Q 34.90625 24.078125 25.34375 22.703125 
Q 19.921875 21.921875 17.671875 20.9375 
Q 15.4375 19.96875 14.203125 18.09375 
Q 12.984375 16.21875 12.984375 13.921875 
Q 12.984375 10.40625 15.640625 8.0625 
Q 18.3125 5.71875 23.4375 5.71875 
Q 28.515625 5.71875 32.46875 7.9375 
Q 36.421875 10.15625 38.28125 14.015625 
Q 39.703125 17 39.703125 22.796875 
z
" id="ArialMT-97"/>
      <path d="M 25.78125 7.859375 
L 27.046875 0.09375 
Q 23.34375 -0.6875 20.40625 -0.6875 
Q 15.625 -0.6875 12.984375 0.828125 
Q 10.359375 2.34375 9.28125 4.8125 
Q 8.203125 7.28125 8.203125 15.1875 
L 8.203125 45.015625 
L 1.765625 45.015625 
L 1.765625 51.859375 
L 8.203125 51.859375 
L 8.203125 64.703125 
L 16.9375 69.96875 
L 16.9375 51.859375 
L 25.78125 51.859375 
L 25.78125 45.015625 
L 16.9375 45.015625 
L 16.9375 14.703125 
Q 16.9375 10.9375 17.40625 9.859375 
Q 17.875 8.796875 18.921875 8.15625 
Q 19.96875 7.515625 21.921875 7.515625 
Q 23.390625 7.515625 25.78125 7.859375 
z
" id="ArialMT-116"/>
      <path d="M 42.09375 16.703125 
L 51.171875 15.578125 
Q 49.03125 7.625 43.21875 3.21875 
Q 37.40625 -1.171875 28.375 -1.171875 
Q 17 -1.171875 10.328125 5.828125 
Q 3.65625 12.84375 3.65625 25.484375 
Q 3.65625 38.578125 10.390625 45.796875 
Q 17.140625 53.03125 27.875 53.03125 
Q 38.28125 53.03125 44.875 45.953125 
Q 51.46875 38.875 51.46875 26.03125 
Q 51.46875 25.25 51.421875 23.6875 
L 12.75 23.6875 
Q 13.234375 15.140625 17.578125 10.59375 
Q 21.921875 6.0625 28.421875 6.0625 
Q 33.25 6.0625 36.671875 8.59375 
Q 40.09375 11.140625 42.09375 16.703125 
z
M 13.234375 30.90625 
L 42.1875 30.90625 
Q 41.609375 37.453125 38.875 40.71875 
Q 34.671875 45.796875 27.984375 45.796875 
Q 21.921875 45.796875 17.796875 41.75 
Q 13.671875 37.703125 13.234375 30.90625 
z
" id="ArialMT-101"/>
     </defs>
     <g style="fill:#e6e6e6;" transform="translate(226.429531 318.741812)scale(0.1 -0.1)">
      <use xlink:href="#ArialMT-100"/>
      <use x="55.615234" xlink:href="#ArialMT-97"/>
      <use x="111.230469" xlink:href="#ArialMT-116"/>
      <use x="139.013672" xlink:href="#ArialMT-101"/>
     </g>
    </g>
   </g>
   <g id="matplotlib.axis_2">
    <g id="ytick_1">
     <g id="line2d_1">
      <path clip-path="url(#p5c3e48af71)" d="M 57.6 287.503871 
L 414.72 287.503871 
" style="fill:none;stroke:#2a3459;stroke-linecap:round;stroke-width:0.8;"/>
     </g>
     <g id="line2d_2"/>
     <g id="text_2">
      <!-- 0.1 -->
      <defs>
       <path d="M 4.15625 35.296875 
Q 4.15625 48 6.765625 55.734375 
Q 9.375 63.484375 14.515625 67.671875 
Q 19.671875 71.875 27.484375 71.875 
Q 33.25 71.875 37.59375 69.546875 
Q 41.9375 67.234375 44.765625 62.859375 
Q 47.609375 58.5 49.21875 52.21875 
Q 50.828125 45.953125 50.828125 35.296875 
Q 50.828125 22.703125 48.234375 14.96875 
Q 45.65625 7.234375 40.5 3 
Q 35.359375 -1.21875 27.484375 -1.21875 
Q 17.140625 -1.21875 11.234375 6.203125 
Q 4.15625 15.140625 4.15625 35.296875 
z
M 13.1875 35.296875 
Q 13.1875 17.671875 17.3125 11.828125 
Q 21.4375 6 27.484375 6 
Q 33.546875 6 37.671875 11.859375 
Q 41.796875 17.71875 41.796875 35.296875 
Q 41.796875 52.984375 37.671875 58.78125 
Q 33.546875 64.59375 27.390625 64.59375 
Q 21.34375 64.59375 17.71875 59.46875 
Q 13.1875 52.9375 13.1875 35.296875 
z
" id="ArialMT-48"/>
       <path d="M 9.078125 0 
L 9.078125 10.015625 
L 19.09375 10.015625 
L 19.09375 0 
z
" id="ArialMT-46"/>
       <path d="M 37.25 0 
L 28.46875 0 
L 28.46875 56 
Q 25.296875 52.984375 20.140625 49.953125 
Q 14.984375 46.921875 10.890625 45.40625 
L 10.890625 53.90625 
Q 18.265625 57.375 23.78125 62.296875 
Q 29.296875 67.234375 31.59375 71.875 
L 37.25 71.875 
z
" id="ArialMT-49"/>
      </defs>
      <g style="fill:#e6e6e6;" transform="translate(40.2 291.082777)scale(0.1 -0.1)">
       <use xlink:href="#ArialMT-48"/>
       <use x="55.615234" xlink:href="#ArialMT-46"/>
       <use x="83.398438" xlink:href="#ArialMT-49"/>
      </g>
     </g>
    </g>
    <g id="ytick_2">
     <g id="line2d_3">
      <path clip-path="url(#p5c3e48af71)" d="M 57.6 254.541817 
L 414.72 254.541817 
" style="fill:none;stroke:#2a3459;stroke-linecap:round;stroke-width:0.8;"/>
     </g>
     <g id="line2d_4"/>
     <g id="text_3">
      <!-- 0.2 -->
      <defs>
       <path d="M 50.34375 8.453125 
L 50.34375 0 
L 3.03125 0 
Q 2.9375 3.171875 4.046875 6.109375 
Q 5.859375 10.9375 9.828125 15.625 
Q 13.8125 20.3125 21.34375 26.46875 
Q 33.015625 36.03125 37.109375 41.625 
Q 41.21875 47.21875 41.21875 52.203125 
Q 41.21875 57.421875 37.46875 61 
Q 33.734375 64.59375 27.734375 64.59375 
Q 21.390625 64.59375 17.578125 60.78125 
Q 13.765625 56.984375 13.71875 50.25 
L 4.6875 51.171875 
Q 5.609375 61.28125 11.65625 66.578125 
Q 17.71875 71.875 27.9375 71.875 
Q 38.234375 71.875 44.234375 66.15625 
Q 50.25 60.453125 50.25 52 
Q 50.25 47.703125 48.484375 43.546875 
Q 46.734375 39.40625 42.65625 34.8125 
Q 38.578125 30.21875 29.109375 22.21875 
Q 21.1875 15.578125 18.9375 13.203125 
Q 16.703125 10.84375 15.234375 8.453125 
z
" id="ArialMT-50"/>
      </defs>
      <g style="fill:#e6e6e6;" transform="translate(40.2 258.120723)scale(0.1 -0.1)">
       <use xlink:href="#ArialMT-48"/>
       <use x="55.615234" xlink:href="#ArialMT-46"/>
       <use x="83.398438" xlink:href="#ArialMT-50"/>
      </g>
     </g>
    </g>
    <g id="ytick_3">
     <g id="line2d_5">
      <path clip-path="url(#p5c3e48af71)" d="M 57.6 221.579762 
L 414.72 221.579762 
" style="fill:none;stroke:#2a3459;stroke-linecap:round;stroke-width:0.8;"/>
     </g>
     <g id="line2d_6"/>
     <g id="text_4">
      <!-- 0.3 -->
      <defs>
       <path d="M 4.203125 18.890625 
L 12.984375 20.0625 
Q 14.5 12.59375 18.140625 9.296875 
Q 21.78125 6 27 6 
Q 33.203125 6 37.46875 10.296875 
Q 41.75 14.59375 41.75 20.953125 
Q 41.75 27 37.796875 30.921875 
Q 33.84375 34.859375 27.734375 34.859375 
Q 25.25 34.859375 21.53125 33.890625 
L 22.515625 41.609375 
Q 23.390625 41.5 23.921875 41.5 
Q 29.546875 41.5 34.03125 44.421875 
Q 38.53125 47.359375 38.53125 53.46875 
Q 38.53125 58.296875 35.25 61.46875 
Q 31.984375 64.65625 26.8125 64.65625 
Q 21.6875 64.65625 18.265625 61.421875 
Q 14.84375 58.203125 13.875 51.765625 
L 5.078125 53.328125 
Q 6.6875 62.15625 12.390625 67.015625 
Q 18.109375 71.875 26.609375 71.875 
Q 32.46875 71.875 37.390625 69.359375 
Q 42.328125 66.84375 44.9375 62.5 
Q 47.5625 58.15625 47.5625 53.265625 
Q 47.5625 48.640625 45.0625 44.828125 
Q 42.578125 41.015625 37.703125 38.765625 
Q 44.046875 37.3125 47.5625 32.6875 
Q 51.078125 28.078125 51.078125 21.140625 
Q 51.078125 11.765625 44.234375 5.25 
Q 37.40625 -1.265625 26.953125 -1.265625 
Q 17.53125 -1.265625 11.296875 4.34375 
Q 5.078125 9.96875 4.203125 18.890625 
z
" id="ArialMT-51"/>
      </defs>
      <g style="fill:#e6e6e6;" transform="translate(40.2 225.158668)scale(0.1 -0.1)">
       <use xlink:href="#ArialMT-48"/>
       <use x="55.615234" xlink:href="#ArialMT-46"/>
       <use x="83.398438" xlink:href="#ArialMT-51"/>
      </g>
     </g>
    </g>
    <g id="ytick_4">
     <g id="line2d_7">
      <path clip-path="url(#p5c3e48af71)" d="M 57.6 188.617708 
L 414.72 188.617708 
" style="fill:none;stroke:#2a3459;stroke-linecap:round;stroke-width:0.8;"/>
     </g>
     <g id="line2d_8"/>
     <g id="text_5">
      <!-- 0.4 -->
      <defs>
       <path d="M 32.328125 0 
L 32.328125 17.140625 
L 1.265625 17.140625 
L 1.265625 25.203125 
L 33.9375 71.578125 
L 41.109375 71.578125 
L 41.109375 25.203125 
L 50.78125 25.203125 
L 50.78125 17.140625 
L 41.109375 17.140625 
L 41.109375 0 
z
M 32.328125 25.203125 
L 32.328125 57.46875 
L 9.90625 25.203125 
z
" id="ArialMT-52"/>
      </defs>
      <g style="fill:#e6e6e6;" transform="translate(40.2 192.196614)scale(0.1 -0.1)">
       <use xlink:href="#ArialMT-48"/>
       <use x="55.615234" xlink:href="#ArialMT-46"/>
       <use x="83.398438" xlink:href="#ArialMT-52"/>
      </g>
     </g>
    </g>
    <g id="ytick_5">
     <g id="line2d_9">
      <path clip-path="url(#p5c3e48af71)" d="M 57.6 155.655653 
L 414.72 155.655653 
" style="fill:none;stroke:#2a3459;stroke-linecap:round;stroke-width:0.8;"/>
     </g>
     <g id="line2d_10"/>
     <g id="text_6">
      <!-- 0.5 -->
      <defs>
       <path d="M 4.15625 18.75 
L 13.375 19.53125 
Q 14.40625 12.796875 18.140625 9.390625 
Q 21.875 6 27.15625 6 
Q 33.5 6 37.890625 10.78125 
Q 42.28125 15.578125 42.28125 23.484375 
Q 42.28125 31 38.0625 35.34375 
Q 33.84375 39.703125 27 39.703125 
Q 22.75 39.703125 19.328125 37.765625 
Q 15.921875 35.84375 13.96875 32.765625 
L 5.71875 33.84375 
L 12.640625 70.609375 
L 48.25 70.609375 
L 48.25 62.203125 
L 19.671875 62.203125 
L 15.828125 42.96875 
Q 22.265625 47.46875 29.34375 47.46875 
Q 38.71875 47.46875 45.15625 40.96875 
Q 51.609375 34.46875 51.609375 24.265625 
Q 51.609375 14.546875 45.953125 7.46875 
Q 39.0625 -1.21875 27.15625 -1.21875 
Q 17.390625 -1.21875 11.203125 4.25 
Q 5.03125 9.71875 4.15625 18.75 
z
" id="ArialMT-53"/>
      </defs>
      <g style="fill:#e6e6e6;" transform="translate(40.2 159.23456)scale(0.1 -0.1)">
       <use xlink:href="#ArialMT-48"/>
       <use x="55.615234" xlink:href="#ArialMT-46"/>
       <use x="83.398438" xlink:href="#ArialMT-53"/>
      </g>
     </g>
    </g>
    <g id="ytick_6">
     <g id="line2d_11">
      <path clip-path="url(#p5c3e48af71)" d="M 57.6 122.693599 
L 414.72 122.693599 
" style="fill:none;stroke:#2a3459;stroke-linecap:round;stroke-width:0.8;"/>
     </g>
     <g id="line2d_12"/>
     <g id="text_7">
      <!-- 0.6 -->
      <defs>
       <path d="M 49.75 54.046875 
L 41.015625 53.375 
Q 39.84375 58.546875 37.703125 60.890625 
Q 34.125 64.65625 28.90625 64.65625 
Q 24.703125 64.65625 21.53125 62.3125 
Q 17.390625 59.28125 14.984375 53.46875 
Q 12.59375 47.65625 12.5 36.921875 
Q 15.671875 41.75 20.265625 44.09375 
Q 24.859375 46.4375 29.890625 46.4375 
Q 38.671875 46.4375 44.84375 39.96875 
Q 51.03125 33.5 51.03125 23.25 
Q 51.03125 16.5 48.125 10.71875 
Q 45.21875 4.9375 40.140625 1.859375 
Q 35.0625 -1.21875 28.609375 -1.21875 
Q 17.625 -1.21875 10.6875 6.859375 
Q 3.765625 14.9375 3.765625 33.5 
Q 3.765625 54.25 11.421875 63.671875 
Q 18.109375 71.875 29.4375 71.875 
Q 37.890625 71.875 43.28125 67.140625 
Q 48.6875 62.40625 49.75 54.046875 
z
M 13.875 23.1875 
Q 13.875 18.65625 15.796875 14.5 
Q 17.71875 10.359375 21.1875 8.171875 
Q 24.65625 6 28.46875 6 
Q 34.03125 6 38.03125 10.484375 
Q 42.046875 14.984375 42.046875 22.703125 
Q 42.046875 30.125 38.078125 34.390625 
Q 34.125 38.671875 28.125 38.671875 
Q 22.171875 38.671875 18.015625 34.390625 
Q 13.875 30.125 13.875 23.1875 
z
" id="ArialMT-54"/>
      </defs>
      <g style="fill:#e6e6e6;" transform="translate(40.2 126.272505)scale(0.1 -0.1)">
       <use xlink:href="#ArialMT-48"/>
       <use x="55.615234" xlink:href="#ArialMT-46"/>
       <use x="83.398438" xlink:href="#ArialMT-54"/>
      </g>
     </g>
    </g>
    <g id="ytick_7">
     <g id="line2d_13">
      <path clip-path="url(#p5c3e48af71)" d="M 57.6 89.731545 
L 414.72 89.731545 
" style="fill:none;stroke:#2a3459;stroke-linecap:round;stroke-width:0.8;"/>
     </g>
     <g id="line2d_14"/>
     <g id="text_8">
      <!-- 0.7 -->
      <defs>
       <path d="M 4.734375 62.203125 
L 4.734375 70.65625 
L 51.078125 70.65625 
L 51.078125 63.8125 
Q 44.234375 56.546875 37.515625 44.484375 
Q 30.8125 32.421875 27.15625 19.671875 
Q 24.515625 10.6875 23.78125 0 
L 14.75 0 
Q 14.890625 8.453125 18.0625 20.40625 
Q 21.234375 32.375 27.171875 43.484375 
Q 33.109375 54.59375 39.796875 62.203125 
z
" id="ArialMT-55"/>
      </defs>
      <g style="fill:#e6e6e6;" transform="translate(40.2 93.310451)scale(0.1 -0.1)">
       <use xlink:href="#ArialMT-48"/>
       <use x="55.615234" xlink:href="#ArialMT-46"/>
       <use x="83.398438" xlink:href="#ArialMT-55"/>
      </g>
     </g>
    </g>
    <g id="ytick_8">
     <g id="line2d_15">
      <path clip-path="url(#p5c3e48af71)" d="M 57.6 56.76949 
L 414.72 56.76949 
" style="fill:none;stroke:#2a3459;stroke-linecap:round;stroke-width:0.8;"/>
     </g>
     <g id="line2d_16"/>
     <g id="text_9">
      <!-- 0.8 -->
      <defs>
       <path d="M 17.671875 38.8125 
Q 12.203125 40.828125 9.5625 44.53125 
Q 6.9375 48.25 6.9375 53.421875 
Q 6.9375 61.234375 12.546875 66.546875 
Q 18.171875 71.875 27.484375 71.875 
Q 36.859375 71.875 42.578125 66.421875 
Q 48.296875 60.984375 48.296875 53.171875 
Q 48.296875 48.1875 45.671875 44.5 
Q 43.0625 40.828125 37.75 38.8125 
Q 44.34375 36.671875 47.78125 31.875 
Q 51.21875 27.09375 51.21875 20.453125 
Q 51.21875 11.28125 44.71875 5.03125 
Q 38.234375 -1.21875 27.640625 -1.21875 
Q 17.046875 -1.21875 10.546875 5.046875 
Q 4.046875 11.328125 4.046875 20.703125 
Q 4.046875 27.6875 7.59375 32.390625 
Q 11.140625 37.109375 17.671875 38.8125 
z
M 15.921875 53.71875 
Q 15.921875 48.640625 19.1875 45.40625 
Q 22.46875 42.1875 27.6875 42.1875 
Q 32.765625 42.1875 36.015625 45.375 
Q 39.265625 48.578125 39.265625 53.21875 
Q 39.265625 58.0625 35.90625 61.359375 
Q 32.5625 64.65625 27.59375 64.65625 
Q 22.5625 64.65625 19.234375 61.421875 
Q 15.921875 58.203125 15.921875 53.71875 
z
M 13.09375 20.65625 
Q 13.09375 16.890625 14.875 13.375 
Q 16.65625 9.859375 20.171875 7.921875 
Q 23.6875 6 27.734375 6 
Q 34.03125 6 38.125 10.046875 
Q 42.234375 14.109375 42.234375 20.359375 
Q 42.234375 26.703125 38.015625 30.859375 
Q 33.796875 35.015625 27.4375 35.015625 
Q 21.234375 35.015625 17.15625 30.90625 
Q 13.09375 26.8125 13.09375 20.65625 
z
" id="ArialMT-56"/>
      </defs>
      <g style="fill:#e6e6e6;" transform="translate(40.2 60.348396)scale(0.1 -0.1)">
       <use xlink:href="#ArialMT-48"/>
       <use x="55.615234" xlink:href="#ArialMT-46"/>
       <use x="83.398438" xlink:href="#ArialMT-56"/>
      </g>
     </g>
    </g>
   </g>
   <g id="line2d_17">
    <path clip-path="url(#p5c3e48af71)" d="M 73.832727 58.464902 
L 74.765643 271.691289 
L 75.698558 56.214055 
L 76.631473 112.684969 
L 77.564389 230.48911 
L 78.497304 53.568 
L 79.430219 107.472348 
L 80.363135 71.957827 
L 81.29605 274.461296 
L 82.228966 239.330605 
L 83.161881 88.686019 
L 84.094796 120.521047 
L 85.027712 277.992963 
L 85.960627 288.283468 
L 86.893542 286.726173 
L 87.826458 233.674279 
L 88.759373 194.554944 
L 89.692288 161.169078 
L 90.625204 159.049236 
L 91.558119 236.929078 
L 92.491034 282.282598 
L 93.42395 260.840593 
L 94.356865 295.488 
L 95.289781 227.807936 
L 96.222696 177.19377 
L 97.155611 235.951526 
L 98.088527 267.940525 
L 99.021442 246.147754 
L 99.954357 268.305387 
L 100.887273 175.477706 
L 101.820188 204.265747 
L 102.753103 190.630859 
L 103.686019 183.950682 
L 104.618934 180.554399 
L 105.55185 191.369979 
L 106.484765 184.765914 
L 107.41768 188.801492 
L 108.350596 178.231358 
L 109.283511 165.651391 
L 110.216426 168.597192 
L 111.149342 165.840004 
L 112.082257 161.606383 
L 113.015172 186.152539 
L 113.948088 168.801873 
L 114.881003 183.613853 
L 115.813918 171.777256 
L 116.746834 158.072781 
L 117.679749 173.416748 
L 118.612665 158.756829 
L 119.54558 176.37106 
L 120.478495 163.786319 
L 121.411411 157.145277 
L 122.344326 165.236144 
L 123.277241 169.63203 
L 124.210157 151.500098 
L 125.143072 170.275826 
L 126.075987 150.403635 
L 127.008903 136.643642 
L 127.941818 151.330034 
L 128.874734 157.591972 
L 129.807649 148.531035 
L 130.740564 150.006694 
L 131.67348 153.426958 
L 132.606395 137.975497 
L 133.53931 145.336134 
L 134.472226 150.768011 
L 135.405141 146.981737 
L 136.338056 127.994511 
L 137.270972 180.33979 
L 138.203887 138.469808 
L 139.136803 132.737889 
L 140.069718 155.551082 
L 141.002633 136.48257 
L 141.935549 148.214187 
L 142.868464 155.428521 
L 143.801379 170.024142 
L 144.734295 133.981277 
L 145.66721 143.539312 
L 146.600125 143.165914 
L 147.533041 119.874894 
L 148.465956 125.042585 
L 149.398871 139.842504 
L 150.331787 158.348422 
L 151.264702 155.711993 
L 152.197618 171.836118 
L 153.130533 144.786659 
L 154.063448 163.4341 
L 154.996364 137.508086 
L 155.929279 128.234314 
L 156.862194 171.247678 
L 157.79511 150.534358 
L 158.728025 165.522188 
L 159.66094 148.248735 
L 160.593856 142.972097 
L 161.526771 132.269244 
L 162.459687 159.209567 
L 163.392602 161.465976 
L 164.325517 137.184585 
L 165.258433 147.701386 
L 166.191348 129.061863 
L 167.124263 171.840795 
L 168.057179 144.63488 
L 168.990094 173.837977 
L 169.923009 166.87748 
L 170.855925 179.146431 
L 171.78884 146.10865 
L 172.721755 147.909715 
L 173.654671 154.214058 
L 174.587586 156.352344 
L 175.520502 169.728739 
L 176.453417 153.357585 
L 177.386332 164.924453 
L 178.319248 150.378999 
L 179.252163 170.476178 
L 180.185078 173.161638 
L 181.117994 124.341372 
L 182.050909 186.766958 
L 182.983824 173.989722 
L 183.91674 154.134504 
L 184.849655 144.254584 
L 185.782571 150.348379 
L 186.715486 149.881558 
L 187.648401 143.950656 
L 188.581317 160.116582 
L 189.514232 167.212707 
L 190.447147 126.045708 
L 191.380063 136.144181 
L 192.312978 128.177498 
L 193.245893 135.271404 
L 194.178809 162.449113 
L 195.111724 133.579933 
L 196.044639 150.292079 
L 196.977555 157.963677 
L 197.91047 169.467874 
L 198.843386 111.629 
L 199.776301 134.527528 
L 200.709216 120.555062 
L 201.642132 137.516325 
L 202.575047 161.618534 
L 203.507962 171.453751 
L 204.440878 116.055733 
L 205.373793 142.252326 
L 206.306708 130.870545 
L 207.239624 181.265899 
L 208.172539 164.191712 
L 209.105455 137.302117 
L 210.03837 158.499308 
L 210.971285 153.717285 
L 211.904201 142.34479 
L 212.837116 125.742303 
L 213.770031 104.77864 
L 214.702947 150.189723 
L 215.635862 113.080003 
L 216.568777 126.792108 
L 217.501693 113.507853 
L 218.434608 151.908637 
L 219.367524 122.202304 
L 220.300439 123.809381 
L 221.233354 178.735763 
L 222.16627 119.514135 
L 223.099185 187.68864 
L 224.965016 152.044977 
L 225.897931 124.987621 
L 226.830846 157.041424 
L 227.763762 175.06071 
L 228.696677 75.059306 
L 229.629592 95.173329 
L 230.562508 139.47256 
L 231.495423 135.862979 
L 232.428339 154.079161 
L 233.361254 215.93131 
L 234.294169 212.372051 
L 235.227085 236.366987 
L 236.16 205.279809 
L 237.092915 210.80375 
L 238.025831 188.11775 
L 238.958746 170.88739 
L 239.891661 177.124423 
L 240.824577 197.795263 
L 241.757492 194.471043 
L 242.690408 182.448986 
L 243.623323 177.854685 
L 244.556238 189.886047 
L 245.489154 229.793683 
L 246.422069 195.40286 
L 247.354984 210.495463 
L 248.2879 177.290945 
L 249.220815 193.777933 
L 250.15373 217.220668 
L 251.086646 150.822051 
L 252.019561 183.565225 
L 252.952476 168.017009 
L 253.885392 221.607566 
L 254.818307 176.25683 
L 255.751223 121.153459 
L 256.684138 153.747204 
L 257.617053 157.943802 
L 258.549969 205.23491 
L 259.482884 192.148832 
L 260.415799 197.824431 
L 261.348715 173.116242 
L 262.28163 136.184959 
L 263.214545 161.590756 
L 264.147461 120.655525 
L 265.080376 147.128003 
L 266.013292 148.033237 
L 266.946207 146.33951 
L 267.879122 159.509524 
L 268.812038 148.525261 
L 269.744953 160.395598 
L 270.677868 155.304548 
L 271.610784 167.50138 
L 272.543699 169.232123 
L 273.476614 196.364893 
L 274.40953 202.5273 
L 275.342445 175.012342 
L 276.275361 132.522037 
L 277.208276 144.935534 
L 278.141191 136.615528 
L 279.074107 190.003183 
L 280.007022 205.180985 
L 280.939937 150.445604 
L 281.872853 175.170985 
L 282.805768 127.075484 
L 283.738683 182.888588 
L 284.671599 177.283191 
L 285.604514 176.874246 
L 286.537429 153.781436 
L 287.470345 175.030115 
L 288.40326 188.515294 
L 289.336176 185.530812 
L 290.269091 202.54645 
L 291.202006 176.849754 
L 292.134922 198.023236 
L 293.067837 165.325332 
L 294.000752 159.047051 
L 294.933668 143.202121 
L 295.866583 148.674376 
L 296.799498 151.021491 
L 297.732414 182.807913 
L 298.665329 194.178179 
L 299.598245 176.596677 
L 300.53116 215.532045 
L 301.464075 184.061509 
L 302.396991 205.705884 
L 303.329906 159.495721 
L 304.262821 167.670526 
L 305.195737 170.492055 
L 306.128652 208.345544 
L 307.061567 197.33913 
L 307.994483 220.437337 
L 308.927398 177.003374 
L 309.860313 198.385313 
L 310.793229 133.420317 
L 311.726144 186.591005 
L 312.65906 129.815592 
L 313.591975 174.407903 
L 314.52489 134.066195 
L 315.457806 137.941897 
L 316.390721 119.231867 
L 317.323636 151.349404 
L 318.256552 153.250782 
L 319.189467 162.732057 
L 320.122382 160.917774 
L 321.055298 199.897022 
L 321.988213 153.829237 
L 322.921129 153.428563 
L 323.854044 123.941671 
L 324.786959 161.574798 
L 325.719875 226.709676 
L 326.65279 151.808616 
L 327.585705 185.538383 
L 328.518621 167.567046 
L 329.451536 178.532473 
L 330.384451 152.227155 
L 331.317367 216.846561 
L 332.250282 219.280864 
L 333.183197 152.110103 
L 334.116113 176.178625 
L 335.049028 156.943981 
L 335.981944 172.031663 
L 336.914859 197.905438 
L 337.847774 175.080467 
L 338.78069 227.764526 
L 339.713605 195.523721 
L 340.64652 231.377029 
L 341.579436 150.145355 
L 342.512351 218.50437 
L 343.445266 153.654036 
L 344.378182 164.408397 
L 345.311097 187.714792 
L 346.244013 171.7695 
L 347.176928 198.393268 
L 348.109843 171.062054 
L 349.042759 165.304334 
L 349.975674 147.214124 
L 350.908589 206.522947 
L 351.841505 192.571047 
L 352.77442 138.882081 
L 353.707335 173.744365 
L 354.640251 135.985616 
L 355.573166 164.104866 
L 356.506082 172.048752 
L 357.438997 221.942539 
L 358.371912 160.675693 
L 359.304828 168.435126 
L 360.237743 184.611134 
L 361.170658 208.188906 
L 362.103574 197.941429 
L 363.036489 222.714257 
L 363.969404 188.974349 
L 364.90232 184.062742 
L 365.835235 188.997469 
L 366.76815 209.09793 
L 367.701066 245.02633 
L 368.633981 169.715343 
L 369.566897 205.837881 
L 370.499812 228.688124 
L 371.432727 234.01032 
L 372.365643 218.720139 
L 373.298558 210.147669 
L 374.231473 189.250379 
L 375.164389 171.81123 
L 376.097304 220.850985 
L 377.030219 208.900292 
L 377.963135 236.066635 
L 378.89605 135.735064 
L 379.828966 187.491221 
L 380.761881 183.64431 
L 381.694796 222.670281 
L 382.627712 219.68445 
L 383.560627 223.448072 
L 384.493542 214.974605 
L 385.426458 203.657835 
L 386.359373 201.577526 
L 387.292288 204.574267 
L 388.225204 231.927887 
L 389.158119 201.871715 
L 390.091034 250.744057 
L 391.02395 204.00317 
L 391.956865 189.754061 
L 392.889781 227.090867 
L 393.822696 228.595683 
L 394.755611 149.411897 
L 395.688527 192.454469 
L 396.621442 191.498907 
L 397.554357 207.508363 
L 398.487273 207.456644 
L 398.487273 207.456644 
" style="fill:none;stroke:#08f7fe;stroke-linecap:round;stroke-width:1.5;"/>
   </g>
   <g id="patch_3">
    <path d="M 57.6 307.584 
L 57.6 41.472 
" style="fill:none;"/>
   </g>
   <g id="patch_4">
    <path d="M 414.72 307.584 
L 414.72 41.472 
" style="fill:none;"/>
   </g>
   <g id="patch_5">
    <path d="M 57.6 307.584 
L 414.72 307.584 
" style="fill:none;"/>
   </g>
   <g id="patch_6">
    <path d="M 57.6 41.472 
L 414.72 41.472 
" style="fill:none;"/>
   </g>
  </g>
 </g>
 <defs>
  <clipPath id="p5c3e48af71">
   <rect height="266.112" width="357.12" x="57.6" y="41.472"/>
  </clipPath>
 </defs>
</svg>
